<svg width="383" height="78" viewBox="0 0 383 78" fill="none" xmlns="http://www.w3.org/2000/svg">
    <path d="M103.339 53.334V20.4435H103.096C101.96 21.5196 97.7537 21.6061 95.9704 21.6061H92.8775V21.8737C96.45 24.1286 95.9645 27.4597 95.9645 31.6014L95.9685 45.5232C95.9685 52.4791 89.3168 57.3631 83.9551 57.3631C76.8924 57.3631 73.96 52.2095 73.96 43.8919V20.4455H73.7173C72.58 21.5196 68.3478 21.6082 66.5645 21.6082H63.4971V21.8757C67.0715 24.1306 66.5841 27.4617 66.5841 31.6055V45.4769C66.5841 58.1757 71.9438 64.2083 81.52 64.2083C87.2066 64.2083 93.0439 62.1344 95.9685 57.184V63.1844H106.429V62.9129C102.855 60.835 103.339 57.4898 103.339 53.334Z" fill="white"/>
    <path d="M119.562 35.7471C120.539 30.0987 124.599 26.5122 130.044 26.5122C135.894 26.5122 139.628 29.4711 140.521 35.7471H119.562ZM149.054 40.9892C149.377 29.3806 141.821 20.6224 130.775 20.6224C118.669 20.6224 110.471 29.6482 110.471 42.1659C110.471 54.7782 119.969 64.3853 133.781 64.3853C137.6 64.3853 141.498 63.7617 144.992 62.1545L149.054 53.6879H148.807C145.07 56.9527 140.361 58.4975 135.484 58.4975C126.306 58.4975 119.401 52.0566 119.239 40.9892C119.239 40.9892 149.054 40.9892 149.054 40.9892Z" fill="white"/>
    <path d="M155.497 1.33968C157.441 1.33968 161.412 1.21496 162.61 0H162.853V56.9584C165.034 57.586 167.295 58.0346 169.554 58.0346C178.431 58.0346 183.515 51.656 183.515 42.7631C183.515 34.0451 179.561 27.3085 171.411 27.3085C168.829 27.3085 166.811 28.0266 164.631 29.2858L168.99 21.6179C170.844 20.8978 172.782 20.6242 174.72 20.6242C183.924 20.6242 191.75 28.8353 191.75 41.1458C191.75 55.2506 182.466 64.3709 167.778 64.3709C162.289 64.3709 157.022 63.3772 153.044 62.7436V62.468C155.724 61.2028 155.481 58.2156 155.481 55.2506V13.8453C155.481 9.68752 155.967 3.86817 152.476 1.60721V1.33968H155.497Z" fill="white"/>
    <path d="M206.167 35.7471C207.146 30.0987 211.204 26.5122 216.65 26.5122C222.497 26.5122 226.234 29.4711 227.129 35.7471H206.167ZM235.655 40.9892C235.984 29.3806 228.428 20.6224 217.38 20.6224C205.277 20.6224 197.075 29.6482 197.075 42.1659C197.075 54.7782 206.577 64.3853 220.385 64.3853C224.204 64.3853 228.105 63.7617 231.596 62.1545L235.657 53.6879H235.417C231.68 56.9527 226.966 58.4975 222.092 58.4975C212.911 58.4975 206.009 52.0566 205.844 40.9892C205.844 40.9892 235.655 40.9892 235.655 40.9892Z" fill="white"/>
    <path d="M271.989 30.9411H271.748C269.391 27.956 265.49 26.5118 261.833 26.5118C253.954 26.5118 248.271 32.659 248.271 41.2422C248.271 51.6317 256.149 58.4991 265.165 58.4991C269.307 58.4991 273.858 56.6907 277.025 54.0717H277.27L273.046 62.6006C269.634 64.0308 265.899 64.3868 262.321 64.3868C249.814 64.3868 240.036 55.337 240.036 43.5917C240.036 28.0506 250.951 20.624 263.215 20.624C266.142 20.624 269.146 20.9801 271.989 21.6942V30.9411Z" fill="white"/>
    <path fill-rule="evenodd" clip-rule="evenodd" d="M138.914 13.1698C138.914 8.96968 138.914 4.13196 138.914 4.13196C133.59 6.58401 128.649 11.1703 125.346 15.6319V19.152C133.247 13.6787 138.914 13.4232 138.914 13.1698Z" fill="white"/>
    <path d="M30.0617 58.1733C17.7958 58.1733 9.263 43.9518 9.263 31.8706C9.263 31.7479 9.263 30.6314 9.26496 30.5108C9.41764 18.8077 16.7897 7.82877 29.6565 7.82877C43.1947 7.82877 50.1772 20.9902 50.2907 33.4617C50.2907 33.5623 50.2907 34.6605 50.2907 34.7611C50.2907 48.0493 42.2492 58.1733 30.0617 58.1733ZM72.1092 71.9965C63.0518 73.5192 54.3447 70.5864 45.0915 59.7081C54.0296 55.0977 59.5557 43.6199 59.5557 32.9528C59.5557 32.8441 59.5537 31.7378 59.5537 31.6272C59.3932 13.3745 46.0507 1.32349 30.1439 1.32349C14.2057 1.32349 0.121369 13.8674 0.00196018 32.2648C0.00196018 32.3473 0 33.4174 0 33.4959C0 51.3924 12.9216 64.6806 28.7638 64.6806C31.0404 64.6806 33.2309 64.3185 35.4253 63.7754C45.8021 73.7626 55.0494 78.015 63.042 77.0253C66.8337 76.5567 70.8369 75.0098 73.2427 71.7974L72.1092 71.9965Z" fill="white"/>
    <path fill-rule="evenodd" clip-rule="evenodd" d="M291.796 8.573H331.421V33.53H291.796V8.573ZM310.231 11.7956C310.938 10.8859 311.386 10.3102 311.612 9.88074C311.834 10.2979 312.267 10.8529 312.942 11.7179C313.152 11.9876 313.386 12.2874 313.644 12.6225C314.91 14.2397 314.687 16.4041 314.086 17.6814C313.399 19.1579 313 20.3809 312.691 21.5436C312.295 23.0662 312.49 25.0495 312.512 25.2766C312.513 25.2798 312.513 25.2826 312.513 25.285H312.512C312.515 25.3027 312.515 25.3021 312.513 25.285H313.615C313.615 22.5312 314.443 19.9404 316.471 18.7898C319.336 17.1544 322.177 19.9887 321.276 22.9356C320.797 24.4824 319.955 25.0014 319.714 25.0014C319.714 25.0014 320.104 23.2976 318.906 22.4307C317.784 21.61 316.388 22.1048 315.744 23.0844C315.135 24.0117 315.036 25.285 315.036 25.285H317.105V26.854L312.953 26.85C312.953 26.85 313.059 29.0707 315.335 28.8535C315.335 28.8535 315.059 30.5955 312.953 29.6862C312.953 29.6862 313.057 31.5107 311.616 32.43C310.171 31.5107 310.285 29.6862 310.285 29.6862C308.182 30.5975 307.9 28.8535 307.9 28.8535C310.171 29.0687 310.285 26.85 310.285 26.85L306.133 26.854V25.285H308.194C308.194 25.285 308.098 24.0097 307.487 23.0844C306.841 22.1048 305.45 21.61 304.322 22.4307C303.124 23.2976 303.52 25.0014 303.52 25.0014C303.281 25.0014 302.435 24.4824 301.957 22.9356C301.057 19.9887 303.893 17.1544 306.767 18.7898C308.785 19.9404 309.625 22.5312 309.625 25.285H310.718C310.717 25.3021 310.717 25.3027 310.719 25.285H310.718C310.719 25.2791 310.719 25.2711 310.72 25.2612C310.747 24.9717 310.927 23.0363 310.543 21.5436C310.228 20.3809 309.833 19.1579 309.145 17.6814C308.545 16.4061 308.323 14.2397 309.59 12.6225C309.824 12.3192 310.037 12.0448 310.231 11.7956Z" fill="white"/>
    <path fill-rule="evenodd" clip-rule="evenodd" d="M342.971 8.573H382.607V33.53H342.971V8.573ZM361.338 11.8713C362.085 10.9176 362.551 10.322 362.789 9.88074C362.997 10.292 363.421 10.8374 364.078 11.6817C364.295 11.9607 364.537 12.2723 364.806 12.6225C366.068 14.2397 365.847 16.4041 365.25 17.6814C364.565 19.1579 364.16 20.3809 363.858 21.5436C363.467 23.0441 363.655 24.9921 363.681 25.2656C363.682 25.2735 363.683 25.28 363.683 25.285H363.682C363.685 25.3027 363.685 25.3021 363.683 25.285H364.776C364.776 22.5312 365.61 19.9404 367.628 18.7898C370.494 17.1544 373.331 19.9887 372.428 22.9356C371.962 24.4824 371.121 25.0014 370.89 25.0014C370.89 25.0014 371.265 23.2976 370.077 22.4307C368.948 21.61 367.556 22.1048 366.906 23.0844C366.301 24.0117 366.194 25.285 366.194 25.285H368.27V26.854L364.113 26.85C364.113 26.85 364.222 29.0707 366.503 28.8535C366.503 28.8535 366.221 30.5955 364.113 29.6862C364.113 29.6862 364.224 31.5107 362.789 32.43C361.335 31.5107 361.447 29.6862 361.447 29.6862C359.344 30.5975 359.066 28.8535 359.066 28.8535C361.335 29.0687 361.447 26.85 361.447 26.85L357.302 26.854V25.285H359.366C359.366 25.285 359.268 24.0097 358.653 23.0844C358.009 22.1048 356.615 21.61 355.496 22.4307C354.296 23.2976 354.687 25.0014 354.687 25.0014C354.444 25.0014 353.601 24.4824 353.129 22.9356C352.229 19.9887 355.061 17.1544 357.931 18.7898C359.957 19.9404 360.789 22.5312 360.789 25.285H361.89C361.888 25.3021 361.888 25.3027 361.891 25.285H361.89C361.89 25.2782 361.891 25.2687 361.892 25.2567C361.919 24.9524 362.091 23.0288 361.713 21.5436C361.4 20.3809 361.004 19.1579 360.315 17.6814C359.71 16.4061 359.485 14.2397 360.752 12.6225C360.964 12.3496 361.159 12.1001 361.338 11.8713Z" fill="white"/>
    <path fill-rule="evenodd" clip-rule="evenodd" d="M291.796 45.4177H331.42V70.3687H291.796V45.4177ZM310.207 48.6643C310.928 47.7391 311.384 47.1551 311.612 46.7194C311.838 47.147 312.283 47.715 312.978 48.6039C313.179 48.8607 313.4 49.1443 313.644 49.4591C314.91 51.0763 314.687 53.2387 314.086 54.5181C313.399 55.9965 313 57.2155 312.691 58.3882C312.295 59.9036 312.49 61.8861 312.512 62.1132C312.513 62.1164 312.513 62.1192 312.513 62.1216H312.512C312.515 62.1394 312.515 62.1387 312.513 62.1216H313.615C313.615 59.3739 314.443 56.777 316.471 55.6244C319.336 53.985 322.177 56.8273 321.276 59.7702C320.797 61.315 319.955 61.84 319.714 61.84C319.714 61.84 320.104 60.1383 318.906 59.2673C317.784 58.4526 316.388 58.9474 315.744 59.911C315.135 60.8463 315.036 62.1196 315.036 62.1196H317.105V63.6866H312.953C312.953 63.6866 313.059 65.8993 315.335 65.6901C315.335 65.6901 315.059 67.4301 312.953 66.5128C312.953 66.5128 313.057 68.3473 311.616 69.2666C310.171 68.3473 310.285 66.5128 310.285 66.5128C308.182 67.4301 307.9 65.6901 307.9 65.6901C310.171 65.8993 310.285 63.6866 310.285 63.6866H306.133V62.1196H308.194C308.194 62.1196 308.098 60.8463 307.487 59.911C306.841 58.9474 305.45 58.4526 304.322 59.2673C303.124 60.1383 303.52 61.84 303.52 61.84C303.281 61.84 302.435 61.315 301.957 59.7702C301.057 56.8293 303.893 53.987 306.767 55.6244C308.785 56.775 309.625 59.3739 309.625 62.1216H310.718C310.717 62.1387 310.717 62.1394 310.719 62.1216H310.718C310.719 62.1157 310.719 62.1077 310.72 62.0978C310.747 61.8083 310.927 59.8738 310.543 58.3882C310.228 57.2155 309.833 55.9965 309.145 54.5181C308.545 53.2387 308.323 51.0763 309.59 49.4591C309.814 49.1688 310.02 48.905 310.207 48.6643Z" fill="white"/>
    <path fill-rule="evenodd" clip-rule="evenodd" d="M342.971 45.4178H382.607V70.3688H342.971V45.4178ZM361.312 48.7432C362.074 47.7721 362.548 47.1674 362.789 46.7194C363 47.1402 363.435 47.6971 364.109 48.5619C364.318 48.8297 364.55 49.1271 364.806 49.4591C366.068 51.0763 365.847 53.2387 365.25 54.5181C364.565 55.9965 364.16 57.2155 363.858 58.3882C363.467 59.8816 363.655 61.8286 363.681 62.1022C363.682 62.1101 363.683 62.1166 363.683 62.1216H363.682C363.685 62.1394 363.685 62.1387 363.683 62.1216H364.776C364.776 59.3739 365.61 56.777 367.628 55.6244C370.494 53.985 373.331 56.8273 372.428 59.7702C371.962 61.315 371.121 61.84 370.89 61.84C370.89 61.84 371.265 60.1383 370.077 59.2673C368.948 58.4526 367.556 58.9474 366.906 59.911C366.301 60.8463 366.194 62.1196 366.194 62.1196H368.27V63.6866H364.113C364.113 63.6866 364.222 65.8993 366.503 65.6901C366.503 65.6901 366.221 67.4301 364.113 66.5128C364.113 66.5128 364.224 68.3473 362.789 69.2666C361.335 68.3473 361.447 66.5128 361.447 66.5128C359.344 67.4301 359.066 65.6901 359.066 65.6901C361.335 65.8993 361.447 63.6866 361.447 63.6866H357.302V62.1196H359.366C359.366 62.1196 359.268 60.8463 358.653 59.911C358.009 58.9474 356.615 58.4526 355.496 59.2673C354.296 60.1383 354.687 61.84 354.687 61.84C354.444 61.84 353.601 61.315 353.129 59.7702C352.229 56.8293 355.061 53.987 357.931 55.6244C359.957 56.775 360.789 59.3739 360.789 62.1216H361.89C361.888 62.1387 361.888 62.1394 361.891 62.1216H361.89C361.89 62.1148 361.891 62.1053 361.892 62.0933C361.919 61.789 362.091 59.8664 361.713 58.3882C361.4 57.2155 361.004 55.9965 360.315 54.5181C359.71 53.2387 359.485 51.0763 360.752 49.4591C360.953 49.2002 361.14 48.9624 361.312 48.7432Z" fill="white"/>
</svg>
