<svg id="Group_2459" data-name="Group 2459" xmlns="http://www.w3.org/2000/svg" xmlns:xlink="http://www.w3.org/1999/xlink" width="200" height="200" viewBox="0 0 200 200">
  <defs>
    <clipPath id="clip-path">
      <rect id="Rectangle_1802" data-name="Rectangle 1802" width="200" height="200" fill="none"/>
    </clipPath>
  </defs>
  <rect id="Rectangle_1680" data-name="Rectangle 1680" width="17.509" height="17.509" transform="translate(47.474 60.443)" fill="#335c85"/>
  <rect id="Rectangle_1681" data-name="Rectangle 1681" width="8.754" height="8.754" transform="translate(91.246 95.461)" fill="#335c85"/>
  <rect id="Rectangle_1682" data-name="Rectangle 1682" width="8.754" height="8.754" transform="translate(100 86.707)" fill="#335c85"/>
  <rect id="Rectangle_1683" data-name="Rectangle 1683" width="8.754" height="8.754" transform="translate(91.246 77.952)" fill="#335c85"/>
  <rect id="Rectangle_1684" data-name="Rectangle 1684" width="8.754" height="8.754" transform="translate(100 69.198)" fill="#335c85"/>
  <rect id="Rectangle_1685" data-name="Rectangle 1685" width="8.754" height="8.754" transform="translate(91.246 60.444)" fill="#335c85"/>
  <rect id="Rectangle_1686" data-name="Rectangle 1686" width="8.754" height="8.754" transform="translate(100 51.69)" fill="#335c85"/>
  <rect id="Rectangle_1687" data-name="Rectangle 1687" width="8.754" height="8.754" transform="translate(100 60.444)" fill="#335c85"/>
  <rect id="Rectangle_1688" data-name="Rectangle 1688" width="8.754" height="8.754" transform="translate(91.246 42.935)" fill="#335c85"/>
  <rect id="Rectangle_1689" data-name="Rectangle 1689" width="8.754" height="8.754" transform="translate(29.966 104.215)" fill="#335c85"/>
  <rect id="Rectangle_1690" data-name="Rectangle 1690" width="8.754" height="8.754" transform="translate(47.475 104.215)" fill="#335c85"/>
  <rect id="Rectangle_1691" data-name="Rectangle 1691" width="8.754" height="8.754" transform="translate(73.737 104.215)" fill="#335c85"/>
  <rect id="Rectangle_1692" data-name="Rectangle 1692" width="8.754" height="8.754" transform="translate(100 104.215)" fill="#335c85"/>
  <rect id="Rectangle_1693" data-name="Rectangle 1693" width="8.754" height="8.754" transform="translate(117.509 104.215)" fill="#335c85"/>
  <rect id="Rectangle_1694" data-name="Rectangle 1694" width="8.754" height="8.754" transform="translate(135.017 104.215)" fill="#335c85"/>
  <rect id="Rectangle_1695" data-name="Rectangle 1695" width="8.754" height="8.754" transform="translate(152.526 104.215)" fill="#335c85"/>
  <rect id="Rectangle_1696" data-name="Rectangle 1696" width="8.754" height="8.754" transform="translate(38.72 112.97)" fill="#335c85"/>
  <rect id="Rectangle_1697" data-name="Rectangle 1697" width="8.754" height="8.754" transform="translate(56.229 112.97)" fill="#335c85"/>
  <rect id="Rectangle_1698" data-name="Rectangle 1698" width="8.754" height="8.754" transform="translate(91.246 112.97)" fill="#335c85"/>
  <rect id="Rectangle_1699" data-name="Rectangle 1699" width="8.754" height="8.754" transform="translate(73.737 112.97)" fill="#335c85"/>
  <rect id="Rectangle_1700" data-name="Rectangle 1700" width="8.754" height="8.754" transform="translate(108.755 112.97)" fill="#335c85"/>
  <rect id="Rectangle_1701" data-name="Rectangle 1701" width="8.754" height="8.754" transform="translate(117.509 112.97)" fill="#335c85"/>
  <rect id="Rectangle_1702" data-name="Rectangle 1702" width="8.754" height="8.754" transform="translate(126.263 112.97)" fill="#335c85"/>
  <rect id="Rectangle_1703" data-name="Rectangle 1703" width="8.754" height="8.754" transform="translate(143.772 112.97)" fill="#335c85"/>
  <rect id="Rectangle_1704" data-name="Rectangle 1704" width="8.754" height="8.754" transform="translate(152.526 112.97)" fill="#335c85"/>
  <rect id="Rectangle_1705" data-name="Rectangle 1705" width="8.754" height="8.754" transform="translate(100 121.724)" fill="#335c85"/>
  <rect id="Rectangle_1706" data-name="Rectangle 1706" width="8.754" height="8.754" transform="translate(117.509 121.724)" fill="#335c85"/>
  <rect id="Rectangle_1707" data-name="Rectangle 1707" width="8.754" height="8.754" transform="translate(135.017 121.724)" fill="#335c85"/>
  <rect id="Rectangle_1708" data-name="Rectangle 1708" width="8.754" height="8.754" transform="translate(143.772 121.724)" fill="#335c85"/>
  <rect id="Rectangle_1709" data-name="Rectangle 1709" width="8.754" height="8.754" transform="translate(161.28 121.724)" fill="#335c85"/>
  <rect id="Rectangle_1710" data-name="Rectangle 1710" width="8.754" height="8.754" transform="translate(91.246 130.478)" fill="#335c85"/>
  <rect id="Rectangle_1711" data-name="Rectangle 1711" width="8.754" height="8.754" transform="translate(100 130.478)" fill="#335c85"/>
  <rect id="Rectangle_1712" data-name="Rectangle 1712" width="8.754" height="8.754" transform="translate(108.755 130.478)" fill="#335c85"/>
  <rect id="Rectangle_1713" data-name="Rectangle 1713" width="8.754" height="8.754" transform="translate(135.017 130.478)" fill="#335c85"/>
  <rect id="Rectangle_1714" data-name="Rectangle 1714" width="8.754" height="8.754" transform="translate(152.526 130.478)" fill="#335c85"/>
  <rect id="Rectangle_1715" data-name="Rectangle 1715" width="8.754" height="8.754" transform="translate(117.509 139.232)" fill="#335c85"/>
  <rect id="Rectangle_1716" data-name="Rectangle 1716" width="8.754" height="8.754" transform="translate(126.263 139.232)" fill="#335c85"/>
  <rect id="Rectangle_1717" data-name="Rectangle 1717" width="8.754" height="8.754" transform="translate(143.772 139.232)" fill="#335c85"/>
  <rect id="Rectangle_1718" data-name="Rectangle 1718" width="8.754" height="8.754" transform="translate(152.526 139.232)" fill="#335c85"/>
  <rect id="Rectangle_1719" data-name="Rectangle 1719" width="8.754" height="8.754" transform="translate(91.246 147.987)" fill="#335c85"/>
  <rect id="Rectangle_1720" data-name="Rectangle 1720" width="8.754" height="8.754" transform="translate(100 147.987)" fill="#335c85"/>
  <rect id="Rectangle_1721" data-name="Rectangle 1721" width="8.754" height="8.754" transform="translate(117.509 147.987)" fill="#335c85"/>
  <rect id="Rectangle_1722" data-name="Rectangle 1722" width="8.754" height="8.754" transform="translate(135.017 147.987)" fill="#335c85"/>
  <rect id="Rectangle_1723" data-name="Rectangle 1723" width="8.754" height="8.754" transform="translate(143.772 147.987)" fill="#335c85"/>
  <rect id="Rectangle_1724" data-name="Rectangle 1724" width="8.754" height="8.754" transform="translate(161.28 147.987)" fill="#335c85"/>
  <rect id="Rectangle_1725" data-name="Rectangle 1725" width="8.754" height="8.754" transform="translate(100 156.741)" fill="#335c85"/>
  <rect id="Rectangle_1726" data-name="Rectangle 1726" width="8.754" height="8.754" transform="translate(108.755 156.741)" fill="#335c85"/>
  <rect id="Rectangle_1727" data-name="Rectangle 1727" width="8.754" height="8.754" transform="translate(126.263 156.741)" fill="#335c85"/>
  <rect id="Rectangle_1728" data-name="Rectangle 1728" width="8.754" height="8.754" transform="translate(143.772 156.741)" fill="#335c85"/>
  <rect id="Rectangle_1729" data-name="Rectangle 1729" width="8.754" height="8.754" transform="translate(152.526 156.741)" fill="#335c85"/>
  <rect id="Rectangle_1730" data-name="Rectangle 1730" width="8.754" height="8.754" transform="translate(161.28 156.741)" fill="#335c85"/>
  <rect id="Rectangle_1731" data-name="Rectangle 1731" width="8.754" height="8.754" transform="translate(91.246 165.495)" fill="#335c85"/>
  <rect id="Rectangle_1732" data-name="Rectangle 1732" width="8.754" height="8.754" transform="translate(108.755 165.495)" fill="#335c85"/>
  <rect id="Rectangle_1733" data-name="Rectangle 1733" width="8.754" height="8.754" transform="translate(117.509 165.495)" fill="#335c85"/>
  <rect id="Rectangle_1734" data-name="Rectangle 1734" width="8.754" height="8.754" transform="translate(135.017 165.495)" fill="#335c85"/>
  <rect id="Rectangle_1735" data-name="Rectangle 1735" width="8.754" height="8.754" transform="translate(152.526 165.495)" fill="#335c85"/>
  <rect id="Rectangle_1736" data-name="Rectangle 1736" width="8.754" height="8.754" transform="translate(100 174.25)" fill="#335c85"/>
  <rect id="Rectangle_1737" data-name="Rectangle 1737" width="8.754" height="8.754" transform="translate(126.263 174.25)" fill="#335c85"/>
  <rect id="Rectangle_1738" data-name="Rectangle 1738" width="8.754" height="8.754" transform="translate(152.526 174.25)" fill="#335c85"/>
  <path id="Path_695" data-name="Path 695" d="M74.689,87.658H37.768V50.737H74.689Zm7.8-44.723H29.965V95.461H82.491Z" fill="#335c85"/>
  <rect id="Rectangle_1739" data-name="Rectangle 1739" width="17.509" height="17.509" transform="translate(47.474 147.924)" fill="#335c85"/>
  <path id="Path_696" data-name="Path 696" d="M74.689,175.139H37.768V138.218H74.689Zm7.8-44.724H29.965v52.526H82.491Z" fill="#335c85"/>
  <rect id="Rectangle_1740" data-name="Rectangle 1740" width="17.509" height="17.509" transform="translate(135.017 60.443)" fill="#335c85"/>
  <path id="Path_697" data-name="Path 697" d="M162.232,87.658H125.311V50.737h36.921Zm7.8-44.723H117.508V95.461h52.526Z" fill="#335c85"/>
  <g id="Group_2458" data-name="Group 2458">
    <g id="Group_2457" data-name="Group 2457" clip-path="url(#clip-path)">
      <path id="Path_698" data-name="Path 698" d="M130.177,5.482H68.037a15.005,15.005,0,0,0-15,15v138.84a15.005,15.005,0,0,0,15,15h62.14a15.005,15.005,0,0,0,15-15V20.482a15.005,15.005,0,0,0-15-15M88.7,10.9h22.11a1.885,1.885,0,0,1,0,3.77H88.7a1.885,1.885,0,0,1,0-3.77m50.46,131.53a6.323,6.323,0,0,1-6.32,6.33H65.377a6.323,6.323,0,0,1-6.32-6.33V27.042a6.321,6.321,0,0,1,6.32-6.32h67.46a6.321,6.321,0,0,1,6.32,6.32Z" fill="#036"/>
      <path id="Path_699" data-name="Path 699" d="M132.837,20.722H65.377a6.321,6.321,0,0,0-6.32,6.32v115.39a6.323,6.323,0,0,0,6.32,6.33h67.46a6.323,6.323,0,0,0,6.32-6.33V27.042a6.321,6.321,0,0,0-6.32-6.32" fill="#8099b3"/>
      <path id="Path_700" data-name="Path 700" d="M96.632,153.817a8.112,8.112,0,1,1-5.25,10.2,8.11,8.11,0,0,1,5.25-10.2" fill="#8099b3"/>
      <path id="Path_701" data-name="Path 701" d="M64.266,72.773a2,2,0,0,1-2-2V49.9a2,2,0,0,1,2-2H85.138a2,2,0,0,1,0,4H66.266V70.773a2,2,0,0,1-2,2" fill="#fcba19"/>
      <path id="Path_702" data-name="Path 702" d="M133.948,72.773a2,2,0,0,1-2-2V51.9H113.076a2,2,0,1,1,0-4h20.872a2,2,0,0,1,2,2V70.773a2,2,0,0,1-2,2" fill="#fcba19"/>
      <path id="Path_703" data-name="Path 703" d="M133.949,121.583H113.077a2,2,0,0,1,0-4h18.872V98.711a2,2,0,0,1,4,0v20.872a2,2,0,0,1-2,2" fill="#fcba19"/>
      <path id="Path_704" data-name="Path 704" d="M85.138,121.583H64.266a2,2,0,0,1-2-2V98.711a2,2,0,0,1,4,0v18.872H85.138a2,2,0,0,1,0,4" fill="#fcba19"/>
      <rect id="Rectangle_1741" data-name="Rectangle 1741" width="6.732" height="6.732" transform="translate(78.908 64.543)" fill="#036"/>
      <rect id="Rectangle_1742" data-name="Rectangle 1742" width="3.366" height="3.366" transform="translate(95.738 78.007)" fill="#036"/>
      <rect id="Rectangle_1743" data-name="Rectangle 1743" width="3.366" height="3.366" transform="translate(99.104 74.641)" fill="#036"/>
      <rect id="Rectangle_1744" data-name="Rectangle 1744" width="3.366" height="3.366" transform="translate(95.738 71.275)" fill="#036"/>
      <rect id="Rectangle_1745" data-name="Rectangle 1745" width="3.366" height="3.366" transform="translate(99.104 67.909)" fill="#036"/>
      <rect id="Rectangle_1746" data-name="Rectangle 1746" width="3.366" height="3.366" transform="translate(95.738 64.543)" fill="#036"/>
      <rect id="Rectangle_1747" data-name="Rectangle 1747" width="3.366" height="3.366" transform="translate(99.104 61.177)" fill="#036"/>
      <rect id="Rectangle_1748" data-name="Rectangle 1748" width="3.366" height="3.366" transform="translate(99.104 64.543)" fill="#036"/>
      <rect id="Rectangle_1749" data-name="Rectangle 1749" width="3.366" height="3.366" transform="translate(95.738 57.811)" fill="#036"/>
      <rect id="Rectangle_1750" data-name="Rectangle 1750" width="3.366" height="3.366" transform="translate(72.176 81.373)" fill="#036"/>
      <rect id="Rectangle_1751" data-name="Rectangle 1751" width="3.366" height="3.366" transform="translate(78.908 81.373)" fill="#036"/>
      <rect id="Rectangle_1752" data-name="Rectangle 1752" width="3.366" height="3.366" transform="translate(89.006 81.373)" fill="#036"/>
      <rect id="Rectangle_1753" data-name="Rectangle 1753" width="3.366" height="3.366" transform="translate(99.104 81.373)" fill="#036"/>
      <rect id="Rectangle_1754" data-name="Rectangle 1754" width="3.366" height="3.366" transform="translate(105.835 81.373)" fill="#036"/>
      <rect id="Rectangle_1755" data-name="Rectangle 1755" width="3.366" height="3.366" transform="translate(112.567 81.373)" fill="#036"/>
      <rect id="Rectangle_1756" data-name="Rectangle 1756" width="3.366" height="3.366" transform="translate(119.299 81.373)" fill="#036"/>
      <rect id="Rectangle_1757" data-name="Rectangle 1757" width="3.366" height="3.366" transform="translate(75.542 84.739)" fill="#036"/>
      <rect id="Rectangle_1758" data-name="Rectangle 1758" width="3.366" height="3.366" transform="translate(82.274 84.739)" fill="#036"/>
      <rect id="Rectangle_1759" data-name="Rectangle 1759" width="3.366" height="3.366" transform="translate(95.738 84.739)" fill="#036"/>
      <rect id="Rectangle_1760" data-name="Rectangle 1760" width="3.366" height="3.366" transform="translate(89.006 84.739)" fill="#036"/>
      <rect id="Rectangle_1761" data-name="Rectangle 1761" width="3.366" height="3.366" transform="translate(102.47 84.739)" fill="#036"/>
      <rect id="Rectangle_1762" data-name="Rectangle 1762" width="3.366" height="3.366" transform="translate(105.835 84.739)" fill="#036"/>
      <rect id="Rectangle_1763" data-name="Rectangle 1763" width="3.366" height="3.366" transform="translate(109.201 84.739)" fill="#036"/>
      <rect id="Rectangle_1764" data-name="Rectangle 1764" width="3.366" height="3.366" transform="translate(115.933 84.739)" fill="#036"/>
      <rect id="Rectangle_1765" data-name="Rectangle 1765" width="3.366" height="3.366" transform="translate(119.299 84.739)" fill="#036"/>
      <rect id="Rectangle_1766" data-name="Rectangle 1766" width="3.366" height="3.366" transform="translate(99.104 88.105)" fill="#036"/>
      <rect id="Rectangle_1767" data-name="Rectangle 1767" width="3.366" height="3.366" transform="translate(105.835 88.105)" fill="#036"/>
      <rect id="Rectangle_1768" data-name="Rectangle 1768" width="3.366" height="3.366" transform="translate(112.567 88.105)" fill="#036"/>
      <rect id="Rectangle_1769" data-name="Rectangle 1769" width="3.366" height="3.366" transform="translate(115.933 88.105)" fill="#036"/>
      <rect id="Rectangle_1770" data-name="Rectangle 1770" width="3.366" height="3.366" transform="translate(122.665 88.105)" fill="#036"/>
      <rect id="Rectangle_1771" data-name="Rectangle 1771" width="3.366" height="3.366" transform="translate(95.738 91.471)" fill="#036"/>
      <rect id="Rectangle_1772" data-name="Rectangle 1772" width="3.366" height="3.366" transform="translate(99.104 91.471)" fill="#036"/>
      <rect id="Rectangle_1773" data-name="Rectangle 1773" width="3.366" height="3.366" transform="translate(102.47 91.471)" fill="#036"/>
      <rect id="Rectangle_1774" data-name="Rectangle 1774" width="3.366" height="3.366" transform="translate(112.567 91.471)" fill="#036"/>
      <rect id="Rectangle_1775" data-name="Rectangle 1775" width="3.366" height="3.366" transform="translate(119.299 91.471)" fill="#036"/>
      <rect id="Rectangle_1776" data-name="Rectangle 1776" width="3.366" height="3.366" transform="translate(105.835 94.837)" fill="#036"/>
      <rect id="Rectangle_1777" data-name="Rectangle 1777" width="3.366" height="3.366" transform="translate(109.201 94.837)" fill="#036"/>
      <rect id="Rectangle_1778" data-name="Rectangle 1778" width="3.366" height="3.366" transform="translate(115.933 94.837)" fill="#036"/>
      <rect id="Rectangle_1779" data-name="Rectangle 1779" width="3.366" height="3.366" transform="translate(119.299 94.837)" fill="#036"/>
      <rect id="Rectangle_1780" data-name="Rectangle 1780" width="3.366" height="3.366" transform="translate(95.738 98.203)" fill="#036"/>
      <rect id="Rectangle_1781" data-name="Rectangle 1781" width="3.366" height="3.366" transform="translate(99.104 98.203)" fill="#036"/>
      <rect id="Rectangle_1782" data-name="Rectangle 1782" width="3.366" height="3.366" transform="translate(105.835 98.203)" fill="#036"/>
      <rect id="Rectangle_1783" data-name="Rectangle 1783" width="3.366" height="3.366" transform="translate(112.567 98.203)" fill="#036"/>
      <rect id="Rectangle_1784" data-name="Rectangle 1784" width="3.366" height="3.366" transform="translate(115.933 98.203)" fill="#036"/>
      <rect id="Rectangle_1785" data-name="Rectangle 1785" width="3.366" height="3.366" transform="translate(122.665 98.203)" fill="#036"/>
      <rect id="Rectangle_1786" data-name="Rectangle 1786" width="3.366" height="3.366" transform="translate(99.104 101.569)" fill="#036"/>
      <rect id="Rectangle_1787" data-name="Rectangle 1787" width="3.366" height="3.366" transform="translate(102.47 101.569)" fill="#036"/>
      <rect id="Rectangle_1788" data-name="Rectangle 1788" width="3.366" height="3.366" transform="translate(109.201 101.569)" fill="#036"/>
      <rect id="Rectangle_1789" data-name="Rectangle 1789" width="3.366" height="3.366" transform="translate(115.933 101.569)" fill="#036"/>
      <rect id="Rectangle_1790" data-name="Rectangle 1790" width="3.366" height="3.366" transform="translate(119.299 101.569)" fill="#036"/>
      <rect id="Rectangle_1791" data-name="Rectangle 1791" width="3.366" height="3.366" transform="translate(122.665 101.569)" fill="#036"/>
      <rect id="Rectangle_1792" data-name="Rectangle 1792" width="3.366" height="3.366" transform="translate(95.738 104.935)" fill="#036"/>
      <rect id="Rectangle_1793" data-name="Rectangle 1793" width="3.366" height="3.366" transform="translate(102.47 104.935)" fill="#036"/>
      <rect id="Rectangle_1794" data-name="Rectangle 1794" width="3.366" height="3.366" transform="translate(105.835 104.935)" fill="#036"/>
      <rect id="Rectangle_1795" data-name="Rectangle 1795" width="3.366" height="3.366" transform="translate(112.567 104.935)" fill="#036"/>
      <rect id="Rectangle_1796" data-name="Rectangle 1796" width="3.366" height="3.366" transform="translate(119.299 104.935)" fill="#036"/>
      <rect id="Rectangle_1797" data-name="Rectangle 1797" width="3.366" height="3.366" transform="translate(99.104 108.301)" fill="#036"/>
      <rect id="Rectangle_1798" data-name="Rectangle 1798" width="3.366" height="3.366" transform="translate(109.201 108.301)" fill="#036"/>
      <rect id="Rectangle_1799" data-name="Rectangle 1799" width="3.366" height="3.366" transform="translate(119.299 108.301)" fill="#036"/>
      <path id="Path_705" data-name="Path 705" d="M89.372,75.007h-14.2v-14.2h14.2Zm3-17.2h-20.2v20.2h20.2Z" fill="#036"/>
      <rect id="Rectangle_1800" data-name="Rectangle 1800" width="6.732" height="6.732" transform="translate(78.908 98.179)" fill="#036"/>
      <path id="Path_706" data-name="Path 706" d="M89.372,108.643h-14.2v-14.2h14.2Zm3-17.2h-20.2v20.2h20.2Z" fill="#036"/>
      <rect id="Rectangle_1801" data-name="Rectangle 1801" width="6.732" height="6.732" transform="translate(112.567 64.543)" fill="#036"/>
      <path id="Path_707" data-name="Path 707" d="M123.031,75.007h-14.2v-14.2h14.2Zm3-17.2h-20.2v20.2h20.2Z" fill="#036"/>
    </g>
  </g>
</svg>
