<svg width="25" height="18" viewBox="0 0 25 18" fill="none" xmlns="http://www.w3.org/2000/svg">
    <mask id="path-1-inside-1_3151_9850" fill="white">
        <path fill-rule="evenodd" clip-rule="evenodd"
            d="M2.51016 0C1.40508 0 0.509766 0.895313 0.509766 1.9998V16.0002C0.509766 17.1047 1.40508 18 2.51016 18H22.5094C22.9582 18 23.3719 17.8523 23.7047 17.6033C24.1934 17.2389 24.5098 16.6564 24.5098 16.0002V1.9998C24.5098 0.895313 23.6145 0 22.5094 0H2.51016ZM20.9098 3.85C20.9098 3.71193 20.7978 3.6 20.6598 3.6H4.35977C4.22169 3.6 4.10977 3.71193 4.10977 3.85V8.15C4.10977 8.28807 4.22169 8.4 4.35977 8.4H20.6598C20.7978 8.4 20.9098 8.28807 20.9098 8.15V3.85Z" />
    </mask>
    <path
        d="M23.7047 17.6033L23.1068 16.8017L23.1056 16.8026L23.7047 17.6033ZM1.50977 1.9998C1.50977 1.44779 1.95717 1 2.51016 1V-1C0.852984 -1 -0.490234 0.342837 -0.490234 1.9998H1.50977ZM1.50977 16.0002V1.9998H-0.490234V16.0002H1.50977ZM2.51016 17C1.95717 17 1.50977 16.5522 1.50977 16.0002H-0.490234C-0.490234 17.6572 0.852984 19 2.51016 19V17ZM22.5094 17H2.51016V19H22.5094V17ZM23.1056 16.8026C22.94 16.9265 22.7352 17 22.5094 17V19C23.1812 19 23.8037 18.7781 24.3038 18.404L23.1056 16.8026ZM23.5098 16.0002C23.5098 16.3273 23.3534 16.6178 23.1068 16.8017L24.3025 18.4049C25.0333 17.8599 25.5098 16.9856 25.5098 16.0002H23.5098ZM23.5098 1.9998V16.0002H25.5098V1.9998H23.5098ZM22.5094 1C23.0624 1 23.5098 1.44779 23.5098 1.9998H25.5098C25.5098 0.342837 24.1665 -1 22.5094 -1V1ZM2.51016 1H22.5094V-1H2.51016V1ZM4.35977 4.6H20.6598V2.6H4.35977V4.6ZM5.10977 8.15V3.85H3.10977V8.15H5.10977ZM20.6598 7.4H4.35977V9.4H20.6598V7.4ZM19.9098 3.85V8.15H21.9098V3.85H19.9098ZM20.6598 9.4C21.3501 9.4 21.9098 8.84036 21.9098 8.15H19.9098C19.9098 7.73579 20.2456 7.4 20.6598 7.4V9.4ZM3.10977 8.15C3.10977 8.84036 3.66941 9.4 4.35977 9.4V7.4C4.77398 7.4 5.10977 7.73579 5.10977 8.15H3.10977ZM20.6598 4.6C20.2456 4.6 19.9098 4.26421 19.9098 3.85H21.9098C21.9098 3.15964 21.3501 2.6 20.6598 2.6V4.6ZM4.35977 2.6C3.66941 2.6 3.10977 3.15964 3.10977 3.85H5.10977C5.10977 4.26421 4.77398 4.6 4.35977 4.6V2.6Z"
        fill="currentColor" mask="url(#path-1-inside-1_3151_9850)" />
</svg>