<svg width="25" height="22" viewBox="0 0 25 22" fill="none" xmlns="http://www.w3.org/2000/svg">
    <path
        d="M24.3565 12.2744L13.761 0.564035C13.4322 0.200413 12.9881 0 12.5105 0C12.0341 0 11.5901 0.200413 11.26 0.564035L0.664577 12.2744C0.442563 12.5204 0.461764 12.8996 0.70658 13.1216C0.821787 13.226 0.965796 13.2764 1.1086 13.2764C1.27181 13.2764 1.43503 13.2104 1.55383 13.0784L4.10879 10.2546V19.8768C4.10879 20.8693 4.91644 21.677 5.9089 21.677H19.1097C20.1022 21.677 20.9098 20.8693 20.9098 19.8768V10.2546L23.4648 13.0784C23.6868 13.3244 24.066 13.3436 24.3121 13.1204C24.5581 12.8972 24.5773 12.5192 24.3541 12.2732L24.3565 12.2744ZM14.9107 20.4769H10.1104V15.0765C10.1104 14.7453 10.3792 14.4765 10.7104 14.4765H14.3106C14.6419 14.4765 14.9107 14.7453 14.9107 15.0765V20.4769ZM19.711 19.8768C19.711 20.2081 19.4422 20.4769 19.1109 20.4769H16.1107V15.0765C16.1107 14.0841 15.3031 13.2764 14.3106 13.2764H10.7104C9.71794 13.2764 8.91029 14.0841 8.91029 15.0765V20.4769H5.9101C5.57888 20.4769 5.31007 20.2081 5.31007 19.8768V8.92856L12.1505 1.36809C12.2489 1.25888 12.3773 1.19888 12.5105 1.19888C12.6437 1.19888 12.7721 1.25888 12.8705 1.36809L19.711 8.92856V19.8768Z"
        fill="currentColor" />
</svg>