<svg width="25" height="24" viewBox="0 0 25 24" fill="none" xmlns="http://www.w3.org/2000/svg">
    <path
        d="M20.6698 18.1211C19.297 17.0903 18.5098 15.5148 18.5098 13.8V10.2C18.5098 7.18435 16.477 4.63435 13.7098 3.84955V2.99995C13.7098 2.00755 12.9022 1.19995 11.9098 1.19995C10.9174 1.19995 10.1098 2.00755 10.1098 2.99995V3.84955C7.34259 4.63555 5.30979 7.18435 5.30979 10.2V13.8C5.30979 15.5148 4.52259 17.0892 3.14979 18.1211C2.94339 18.2759 2.85939 18.546 2.94099 18.7908C3.02259 19.0356 3.25179 19.2011 3.50979 19.2011H8.96979C8.93019 19.3979 8.90859 19.5983 8.90859 19.8011C8.90859 21.4547 10.255 22.8011 11.9086 22.8011C13.5622 22.8011 14.9086 21.4547 14.9086 19.8011C14.9086 19.5995 14.8882 19.3979 14.8486 19.2011H20.3086C20.5666 19.2011 20.7958 19.0356 20.8774 18.7908C20.959 18.546 20.875 18.2759 20.6686 18.1211H20.6698ZM11.3098 2.99995C11.3098 2.66875 11.5786 2.39995 11.9098 2.39995C12.241 2.39995 12.5098 2.66875 12.5098 2.99995V3.62755C12.3118 3.60955 12.1126 3.59995 11.9098 3.59995C11.707 3.59995 11.5078 3.60955 11.3098 3.62755V2.99995ZM13.7098 19.8C13.7098 20.7924 12.9022 21.5999 11.9098 21.5999C10.9174 21.5999 10.1098 20.7924 10.1098 19.8C10.1098 19.5948 10.1458 19.392 10.213 19.2H13.6066C13.6738 19.392 13.7098 19.5948 13.7098 19.8ZM5.00019 18C5.30619 17.6292 5.57259 17.2247 5.79099 16.7987C6.26859 15.8651 6.50979 14.856 6.50979 13.8V10.2C6.50979 7.22275 8.93259 4.79995 11.9098 4.79995C14.887 4.79995 17.3098 7.22275 17.3098 10.2V13.8C17.3098 14.856 17.5522 15.8651 18.0286 16.7987C18.247 17.2259 18.5134 17.6292 18.8194 18H4.99899H5.00019Z"
        fill="currentColor" />
</svg>