<svg width="25" height="7" viewBox="0 0 25 7" fill="none" xmlns="http://www.w3.org/2000/svg">
    <path
        d="M3.54772 6.07592C1.8732 6.07592 0.509766 4.71248 0.509766 3.03796C0.509766 1.36344 1.8732 0 3.54772 0C5.22225 0 6.58568 1.36344 6.58568 3.03796C6.58568 4.71248 5.22225 6.07592 3.54772 6.07592ZM3.54772 1.21518C2.54277 1.21518 1.72495 2.033 1.72495 3.03796C1.72495 4.04292 2.54277 4.86073 3.54772 4.86073C4.55268 4.86073 5.3705 4.04292 5.3705 3.03796C5.3705 2.033 4.55268 1.21518 3.54772 1.21518Z"
        fill="currentColor" />
    <path
        d="M12.5099 6.07592C10.8354 6.07592 9.47192 4.71248 9.47192 3.03796C9.47192 1.36344 10.8354 0 12.5099 0C14.1844 0 15.5478 1.36344 15.5478 3.03796C15.5478 4.71248 14.1844 6.07592 12.5099 6.07592ZM12.5099 1.21518C11.5049 1.21518 10.6871 2.033 10.6871 3.03796C10.6871 4.04292 11.5049 4.86073 12.5099 4.86073C13.5148 4.86073 14.3327 4.04292 14.3327 3.03796C14.3327 2.033 13.5148 1.21518 12.5099 1.21518Z"
        fill="currentColor" />
    <path
        d="M21.4718 6.07592C19.7973 6.07592 18.4338 4.71248 18.4338 3.03796C18.4338 1.36344 19.7973 0 21.4718 0C23.1463 0 24.5098 1.36344 24.5098 3.03796C24.5098 4.71248 23.1463 6.07592 21.4718 6.07592ZM21.4718 1.21518C20.4668 1.21518 19.649 2.033 19.649 3.03796C19.649 4.04292 20.4668 4.86073 21.4718 4.86073C22.4768 4.86073 23.2946 4.04292 23.2946 3.03796C23.2946 2.033 22.4768 1.21518 21.4718 1.21518Z"
        fill="currentColor" />
</svg>