<svg width="25" height="23" viewBox="0 0 25 23" fill="none" xmlns="http://www.w3.org/2000/svg">
<path fill-rule="evenodd" clip-rule="evenodd" d="M22.6353 19.0184L13.3399 2.1423C12.9 1.34359 11.7521 1.3436 11.3122 2.14229L2.01679 19.0184C1.5919 19.7898 2.14995 20.7342 3.03062 20.7342H21.6215C22.5022 20.7342 23.0602 19.7898 22.6353 19.0184ZM14.6917 1.39773C13.6652 -0.465907 10.9869 -0.465913 9.96044 1.39773L0.665014 18.2738C-0.326401 20.0737 0.975709 22.2775 3.03062 22.2775H21.6215C23.6764 22.2775 24.9785 20.0737 23.9871 18.2738L14.6917 1.39773Z" fill="#E0AD03"/>
<path d="M13.6765 17.3582C13.6765 18.104 13.0719 18.7086 12.3261 18.7086C11.5803 18.7086 10.9758 18.104 10.9758 17.3582C10.9758 16.6125 11.5803 16.0079 12.3261 16.0079C13.0719 16.0079 13.6765 16.6125 13.6765 17.3582Z" fill="#E0AD03"/>
<path fill-rule="evenodd" clip-rule="evenodd" d="M12.3261 18.7086C13.0719 18.7086 13.6765 18.104 13.6765 17.3582C13.6765 16.6125 13.0719 16.0079 12.3261 16.0079C11.5803 16.0079 10.9758 16.6125 10.9758 17.3582C10.9758 18.104 11.5803 18.7086 12.3261 18.7086Z" fill="#E0AD03"/>
<path d="M13.6765 8.48454C13.6765 8.69165 13.2907 13.3073 13.2907 14.2718C13.2907 14.8505 12.8648 15.2363 12.3261 15.2363C11.7874 15.2363 11.3616 14.8505 11.3616 14.2718C11.3616 13.3073 10.9758 8.69165 10.9758 8.48454C10.9758 8.41904 10.9804 8.35463 10.9894 8.29163C11.083 7.63723 11.6458 7.13418 12.3261 7.13418C13.0719 7.13418 13.6765 7.73876 13.6765 8.48454Z" fill="#E0AD03"/>
<path fill-rule="evenodd" clip-rule="evenodd" d="M13.5849 9.75148C13.6378 9.05773 13.6765 8.55012 13.6765 8.48454C13.6765 7.73876 13.0719 7.13418 12.3261 7.13418C11.6458 7.13418 11.083 7.63723 10.9894 8.29163C10.9804 8.35463 10.9758 8.41904 10.9758 8.48454C10.9758 8.55012 11.0144 9.05773 11.0673 9.75148C11.1814 11.2486 11.3616 13.6127 11.3616 14.2718C11.3616 14.8505 11.7874 15.2363 12.3261 15.2363C12.8648 15.2363 13.2907 14.8505 13.2907 14.2718C13.2907 13.6127 13.4708 11.2486 13.5849 9.75148Z" fill="#E0AD03"/>
</svg>
