<svg width="96" height="96" viewBox="0 0 96 96" fill="none" xmlns="http://www.w3.org/2000/svg">
<path d="M47.7869 7.9646C25.8049 7.9646 7.96448 25.805 7.96448 47.787C7.96448 69.769 25.8049 87.6094 47.7869 87.6094C69.7688 87.6094 87.6093 69.769 87.6093 47.787C87.6093 25.805 69.7688 7.9646 47.7869 7.9646ZM47.7869 23.8936C55.4726 23.8936 61.7247 30.1457 61.7247 37.8314C61.7247 45.5171 55.4726 51.7692 47.7869 51.7692C40.1012 51.7692 33.849 45.5171 33.849 37.8314C33.849 30.1457 40.1012 23.8936 47.7869 23.8936ZM47.7869 79.6449C39.7029 79.6449 30.1456 76.3795 23.3359 68.1761C30.0659 62.9195 38.5481 59.7337 47.7869 59.7337C57.0257 59.7337 65.5078 62.9195 72.2378 68.1761C65.4282 76.3795 55.8708 79.6449 47.7869 79.6449Z" fill="#1E5189"/>
</svg>
