<svg width="121" height="110" viewBox="0 0 121 110" fill="none" xmlns="http://www.w3.org/2000/svg">
<path d="M120.598 60.299C120.598 93.6012 87.0232 110 53.7209 110C20.4187 110 0 93.6012 0 60.299C0 26.9968 26.9968 0 60.299 0C93.6012 0 120.598 26.9968 120.598 60.299Z" fill="#F1F8FE"/>
<path d="M60.4099 16.9811C38.428 16.9811 20.5875 34.8215 20.5875 56.8035C20.5875 78.7854 38.428 96.6259 60.4099 96.6259C82.3919 96.6259 100.232 78.7854 100.232 56.8035C100.232 34.8215 82.3919 16.9811 60.4099 16.9811ZM60.4099 32.91C68.0956 32.91 74.3478 39.1622 74.3478 46.8479C74.3478 54.5336 68.0956 60.7857 60.4099 60.7857C52.7242 60.7857 46.4721 54.5336 46.4721 46.8479C46.4721 39.1622 52.7242 32.91 60.4099 32.91ZM60.4099 88.6614C52.326 88.6614 42.7686 85.396 35.959 77.1926C42.689 71.936 51.1711 68.7502 60.4099 68.7502C69.6487 68.7502 78.1309 71.936 84.8609 77.1926C78.0512 85.396 68.4939 88.6614 60.4099 88.6614Z" fill="#1E5189"/>
<path d="M100.057 88.6612L97.7958 86.0758L98.1109 82.6563L94.7656 81.8964L93.0141 78.931L89.8634 80.284L86.7127 78.931L84.9612 81.8872L81.6159 82.6378L81.931 86.0665L79.6699 88.6612L81.931 91.2467L81.6159 94.6754L84.9612 95.4353L86.7127 98.3914L89.8634 97.0292L93.0141 98.3821L94.7656 95.426L98.1109 94.6661L97.7958 91.2467L100.057 88.6612ZM88.0934 93.0352L84.572 89.5045L85.9435 88.133L88.0934 90.2922L93.5145 84.8525L94.886 86.224L88.0934 93.0352Z" fill="#42814A"/>
</svg>
