<svg width="196" height="197" viewBox="0 0 196 197" fill="none" xmlns="http://www.w3.org/2000/svg">
  <path d="M13.9579 141.927C14.7934 143.358 16.6305 143.84 18.0613 143.005C19.4921 142.169 19.9748 140.332 19.1393 138.901L13.9579 141.927ZM153.562 46.3242C159.811 52.5726 169.941 52.5726 176.19 46.3242C182.438 40.0758 182.438 29.9452 176.19 23.6968C169.941 17.4484 159.811 17.4484 153.562 23.6968C147.314 29.9452 147.314 40.0758 153.562 46.3242ZM19.1393 138.901C-5.80146 96.1872 9.64496 50.4355 41.687 25.4072C57.6943 12.9038 77.7596 5.66205 98.8575 6.59292C119.919 7.52217 142.228 16.6051 162.755 37.1318L166.997 32.8892C145.51 11.4017 121.817 1.60008 99.122 0.598753C76.4637 -0.400967 55.0183 7.38064 37.9935 20.6788C3.97149 47.2536 -12.7315 96.2179 13.9579 141.927L19.1393 138.901Z" fill="url(#paint0_linear_345_7415)"/>
  <path d="M42.3138 150.552C36.0654 144.303 25.9348 144.303 19.6864 150.552C13.438 156.8 13.438 166.931 19.6864 173.179C25.9348 179.427 36.0654 179.427 42.3138 173.179C48.5622 166.931 48.5622 156.8 42.3138 150.552ZM181.918 54.9492C181.083 53.5184 179.245 53.0357 177.815 53.8712C176.384 54.7066 175.901 56.5438 176.737 57.9746L181.918 54.9492ZM176.737 57.9746C201.677 100.689 186.231 146.44 154.189 171.469C138.182 183.972 118.116 191.214 97.0185 190.283C75.9571 189.354 53.6481 180.271 33.1214 159.744L28.8788 163.987C50.3663 185.474 74.0591 195.276 96.754 196.277C119.412 197.277 140.858 189.495 157.882 176.197C191.904 149.622 208.607 100.658 181.918 54.9492L176.737 57.9746Z" fill="url(#paint1_linear_345_7415)"/>
  <defs>
    <linearGradient id="paint0_linear_345_7415" x1="161.5" y1="27.5" x2="21" y2="82.5" gradientUnits="userSpaceOnUse">
    <stop stop-color="#095797"/>
    <stop offset="1" stop-color="#095797" stop-opacity="0"/>
    </linearGradient>
    <linearGradient id="paint1_linear_345_7415" x1="34.376" y1="169.376" x2="174.876" y2="114.376" gradientUnits="userSpaceOnUse">
    <stop stop-color="#095797"/>
    <stop offset="1" stop-color="#095797" stop-opacity="0"/>
    </linearGradient>
  </defs>
</svg>