<svg xmlns="http://www.w3.org/2000/svg" width="280" height="230" viewBox="0 0 280 230" fill="none">
  <path d="M274.455 101.194C271.581 94.4064 267.757 88.4289 263.168 82.7931C221.666 34.642 136.955 8.88278 73.034 35.4662C27.4193 54.3357 -6.5907 108.802 1.08465 158.031C9.64887 204.442 57.521 226.211 100.762 228.764C124.733 230.585 149.036 224.671 169.773 212.332C185.406 203.449 198.153 191.184 213.278 181.487C217.963 178.479 222.855 175.738 227.85 173.248C239.179 167.535 251.606 163.058 261.613 155.735C280.423 142.29 283.002 121.719 274.477 101.247L274.452 101.19L274.455 101.194Z" fill="#D8EAFD"/>
  <path d="M61.2423 124.953C58.5968 124.583 57.2917 122.318 57.6374 119.722L67.8736 42.8844L66.9388 40.0594C66.6073 39.0556 65.7431 38.3898 64.8436 38.3511C61.6056 38.2067 61.9371 43.0042 61.4469 44.7266C61.0871 45.9841 60.9989 47.0162 60.7802 48.2736C59.7608 54.1772 58.0572 59.7531 56.6004 65.5615C55.8244 68.6542 54.8791 71.5742 54.5405 74.7233C54.0537 79.2601 54.6639 83.6138 54.9955 88.1118C55.4082 93.7124 53.5528 98.8481 50.3677 103.406L35.9306 124.1C36.4526 124.139 36.9852 124.378 37.5037 124.713L40.8723 126.879C47.2037 130.951 53.3447 135.065 59.1965 139.81C59.5598 140.106 59.909 140.409 60.1418 140.772L67.549 127.253C67.863 126.682 68.0429 126.245 68.639 125.992L61.2529 124.956L61.2423 124.953Z" fill="#CE9E84"/>
  <path d="M59.1894 139.803C53.3341 135.058 47.1967 130.944 40.8652 126.872C39.7859 127.186 39.2215 127.982 38.5196 128.778L34.8265 132.98C42.0398 137.404 48.9462 141.687 55.3306 147.066C55.842 147.496 56.2582 148.077 55.9902 148.753C50.6111 143.385 43.4613 139.088 37.0558 135.009C36.0822 134.389 35.2428 133.653 34.0153 133.653C28.5692 139.75 23.6169 145.96 18.594 152.142C22.9502 157.735 31.7366 162.466 38.7383 163.896C40.4384 164.245 42.068 164.238 43.7611 163.808C47.9621 159.18 51.6622 154.445 55.4999 149.546L59.8878 143.061C60.2335 142.55 60.4663 141.871 60.4028 141.455C60.364 141.198 60.2652 140.972 60.1312 140.765C59.8984 140.402 59.5492 140.095 59.1859 139.803H59.1894Z" fill="#F9F1C6"/>
  <path d="M37.0558 135.005C43.4648 139.084 50.6146 143.382 55.9902 148.75C56.2582 148.077 55.8385 147.496 55.3306 147.063C48.9462 141.684 42.0398 137.401 34.8265 132.977L38.5196 128.774C39.2215 127.975 39.7859 127.182 40.8652 126.869L37.4967 124.702C36.9782 124.368 36.4456 124.128 35.9235 124.09C35.3838 124.047 34.8512 124.22 34.3504 124.727L28.5762 130.595C24.6786 135.277 20.5058 139.609 17.0773 144.611C15.4054 147.048 17.0773 150.187 18.5976 152.135C23.6204 145.949 28.5727 139.743 34.0188 133.646C35.2463 133.646 36.0822 134.378 37.0593 135.002L37.0558 135.005Z" fill="#FCBA19"/>
  <path d="M67.6901 29.8868L53.4682 126.129C52.9497 129.641 55.3835 132.899 58.8966 133.417L106.106 140.374C109.587 140.888 112.889 138.5 113.411 134.963L127.633 38.7209C128.151 35.2126 125.721 31.9509 122.204 31.4331L74.9951 24.4764C71.5137 23.9621 68.2122 26.3503 67.6901 29.8868Z" fill="#1E5189"/>
  <path d="M107.058 140.62C106.734 140.62 106.409 140.595 106.081 140.55L58.872 133.593C55.2671 133.061 52.7627 129.701 53.2953 126.104L67.5173 29.8621C67.7748 28.1115 68.7025 26.5687 70.131 25.519C71.549 24.4764 73.2879 24.0431 75.0233 24.3003L122.232 31.257C123.978 31.5141 125.52 32.4335 126.574 33.8495C127.629 35.2655 128.066 37.002 127.809 38.7456L113.587 134.988C113.33 136.738 112.402 138.281 110.973 139.331C109.823 140.176 108.462 140.62 107.058 140.624V140.62ZM74.0463 24.5821C72.72 24.5821 71.429 25.0012 70.3391 25.8043C68.9882 26.7976 68.1099 28.2559 67.8665 29.915L53.6445 126.157C53.1401 129.563 55.5105 132.741 58.9249 133.244L106.134 140.201C107.781 140.444 109.425 140.035 110.765 139.046C112.116 138.052 112.994 136.594 113.238 134.935L127.46 38.6928C127.703 37.0443 127.29 35.3958 126.292 34.0573C125.294 32.7188 123.834 31.8487 122.183 31.6022L74.974 24.6455C74.6636 24.5997 74.3567 24.5785 74.0498 24.5785L74.0463 24.5821Z" fill="#013366"/>
  <path d="M56.8967 124.276L110.666 132.202L124.208 40.5702L70.4379 32.6448L56.8967 124.276Z" fill="#8099B3"/>
  <path d="M86.2824 31.4507C86.3282 31.1337 86.6245 30.9153 86.942 30.9611L108.8 34.1806C109.118 34.2264 109.337 34.5222 109.291 34.8393C109.245 35.1563 108.949 35.3747 108.631 35.3289L86.7727 32.1094C86.4552 32.0636 86.2365 31.7677 86.2824 31.4507Z" fill="#8099B3"/>
  <path d="M199.152 62.4055L152.856 70.0173C149.41 70.5845 147.068 73.8673 147.625 77.3545L162.979 172.994C163.544 176.51 166.821 178.838 170.235 178.278L216.53 170.666C219.973 170.099 222.319 166.82 221.761 163.329L206.407 67.689C205.843 64.1737 202.566 61.8454 199.152 62.4055Z" fill="#1E5189"/>
  <path d="M169.209 178.535C167.868 178.535 166.56 178.116 165.445 177.313C164.023 176.288 163.085 174.763 162.803 173.019L147.449 77.3791C146.874 73.8039 149.287 70.4224 152.824 69.8412L199.12 62.2293C200.82 61.9476 202.531 62.3526 203.938 63.3636C205.363 64.3886 206.298 65.9138 206.58 67.6573L221.934 163.297C222.509 166.872 220.097 170.254 216.559 170.835L170.263 178.447C169.91 178.503 169.558 178.535 169.209 178.535ZM199.152 62.4055L199.18 62.5781L152.884 70.1899C149.537 70.7394 147.258 73.9413 147.802 77.3263L163.156 172.966C163.42 174.618 164.309 176.062 165.657 177.031C166.986 177.986 168.602 178.37 170.21 178.105L216.506 170.493C219.853 169.944 222.135 166.742 221.589 163.357L206.234 67.7172C205.97 66.0652 205.081 64.621 203.737 63.6524C202.407 62.6943 200.788 62.3139 199.183 62.5781L199.155 62.4055H199.152Z" fill="#013366"/>
  <path d="M203.748 70.4753L151.018 79.1439L165.639 170.201L218.368 161.533L203.748 70.4753Z" fill="#8099B3"/>
  <path d="M187.684 70.1794L166.249 73.7018C165.939 73.7546 165.642 73.5397 165.593 73.2227C165.544 72.9057 165.755 72.6098 166.066 72.5605L187.501 69.0381C187.811 68.9853 188.108 69.2002 188.157 69.5172C188.206 69.8342 187.995 70.1301 187.684 70.1794Z" fill="#8099B3"/>
  <path d="M126.934 41.9897L126.959 41.8101C126.945 41.877 126.938 41.9369 126.934 41.9897Z" fill="#CE9E84"/>
  <path d="M133.424 42.3666C130.296 40.8484 126.853 43.4163 126.934 41.9932L125.428 53.6981L130.913 49.2881C132.035 48.3969 132.86 47.6079 133.77 46.4244C134.648 45.2867 135.008 43.1345 133.428 42.3666H133.424Z" fill="#CE9E84"/>
  <path d="M109.019 90.8206L110.966 90.7853C110.285 90.7677 109.633 90.7783 109.019 90.8206Z" fill="#CE9E84"/>
  <path d="M120.165 91.673L119.453 91.6131C117.418 91.3806 114.469 90.9403 111.756 90.8135C112.098 91.1763 111.174 93.5927 110.903 94.0999C110.712 94.4592 110.331 94.6741 109.926 94.6494C108.8 94.5825 106.211 94.357 105.474 93.6807C104.804 98.0027 121.22 97.5202 118.275 103.188C124.529 101.441 127.086 92.0393 120.162 91.6765L120.165 91.673Z" fill="#CE9E84"/>
  <path d="M127.534 60.7535C125.735 60.3132 117.901 61.5495 112.416 63.3354C112.762 63.8673 112.755 66.0934 112.691 66.6112C112.642 67.0127 112.363 67.3509 111.975 67.4707C111.023 67.7701 108.952 68.3653 107.845 68.2385C111.813 72.5711 118.776 68.943 123.255 69.2459C123.329 73.1628 116.038 75.4911 110.515 77.0516C110.815 77.5694 110.504 79.8448 110.37 80.3626C110.268 80.7536 109.947 81.0495 109.545 81.1199C108.427 81.3136 105.838 81.6905 104.977 81.1939C105.665 86.1499 113.375 84.283 121.118 82.0146C121.125 82.0111 121.135 82.0111 121.142 82.0076C121.135 82.0217 121.125 82.0357 121.114 82.0533L120.405 89.0594C124.878 86.3154 132.546 75.8962 123.996 73.1523C127.396 72.4443 133.343 63.7545 127.537 60.7499L127.534 60.7535Z" fill="#CE9E84"/>
  <path d="M111.972 67.4707C112.36 67.3474 112.638 67.0127 112.688 66.6112C112.751 66.0899 112.758 63.8637 112.412 63.3354C112.363 63.2614 112.31 63.2191 112.247 63.2191L108.476 64.7338C107.728 65.0332 107.157 65.6108 106.853 66.3012C106.853 66.3048 106.853 66.3083 106.85 66.3118C106.843 66.3329 106.822 66.3752 106.801 66.4386C106.691 66.7732 106.511 67.6257 107.354 68.1047C107.478 68.1751 107.644 68.2139 107.838 68.2385C108.945 68.3618 111.016 67.7701 111.968 67.4707H111.972Z" fill="#C1705D"/>
  <path d="M109.541 81.1234C109.94 81.053 110.261 80.7571 110.367 80.3661C110.501 79.8483 110.811 77.5729 110.511 77.0551C110.476 76.9952 110.434 76.9529 110.381 76.9459L106.444 77.9498C105.661 78.147 105.023 78.6472 104.628 79.2918C104.628 79.2953 104.624 79.2988 104.621 79.3024C104.61 79.32 104.585 79.3623 104.557 79.4221C104.402 79.7391 104.113 80.5599 104.885 81.1481C104.91 81.1692 104.945 81.1833 104.973 81.2009C105.834 81.7011 108.427 81.3242 109.541 81.127V81.1234Z" fill="#C1705D"/>
  <path d="M110.906 94.0999C111.174 93.5927 112.102 91.1763 111.76 90.8135C111.746 90.7959 111.732 90.7783 111.71 90.7713L110.966 90.7853L109.019 90.8206L107.647 90.8452C106.839 90.8593 106.102 91.1939 105.57 91.7329L105.562 91.7399C105.548 91.754 105.513 91.7892 105.471 91.8421C105.249 92.1133 104.776 92.8495 105.393 93.5962C105.418 93.6244 105.45 93.6491 105.478 93.6772C106.215 94.3535 108.804 94.579 109.929 94.6459C110.335 94.6705 110.716 94.4557 110.906 94.0964V94.0999Z" fill="#C1705D"/>
  <path d="M261.997 166.351L256.822 160.476C256.417 160.014 255.814 159.616 255.397 159.571C254.688 159.497 254.082 159.891 253.489 160.328C252.135 161.321 250.808 162.339 249.503 163.375C247.147 165.242 244.854 167.165 242.597 169.137C242.131 169.546 241.666 169.958 241.204 170.37L236.336 174.791C236.375 175.897 236.996 176.64 237.588 177.514L240.728 182.142C246.837 176.291 252.731 170.698 259.556 165.89C260.103 165.506 260.769 165.249 261.355 165.678C254.794 169.518 248.826 175.34 243.253 180.501C242.407 181.286 241.482 181.91 241.172 183.093C245.705 189.895 250.466 196.249 255.189 202.663C261.708 199.867 268.512 192.572 271.669 186.168C272.434 184.615 272.84 183.037 272.854 181.293C269.432 176.066 265.778 171.293 262.001 166.348L261.997 166.351Z" fill="#F9F1C6"/>
  <path d="M243.246 180.497C248.819 175.337 254.787 169.514 261.348 165.675C260.762 165.245 260.092 165.502 259.549 165.886C252.724 170.694 246.83 176.288 240.72 182.138L237.581 177.51C236.989 176.637 236.368 175.893 236.329 174.787L233.377 177.468C232.453 178.317 231.888 179.314 232.604 180.515L236.833 187.577C240.382 192.522 243.525 197.655 247.507 202.23C249.447 204.46 252.911 203.636 255.182 202.663C250.459 196.249 245.694 189.895 241.165 183.093C241.475 181.906 242.399 181.283 243.246 180.501V180.497Z" fill="#FCBA19"/>
  <path d="M204.45 88.0696C204.661 88.4148 205.06 88.6015 205.462 88.5486C205.991 88.4817 208.203 87.9252 208.587 87.4532C208.633 87.3968 208.661 87.3405 208.647 87.2841L206.248 84.0083C205.772 83.3566 205.07 82.948 204.326 82.8248C204.323 82.8248 204.319 82.8248 204.315 82.8248C204.294 82.8248 204.245 82.8142 204.178 82.8107C203.899 82.7931 203.3 82.8107 202.933 83.2827C202.834 83.4095 202.753 83.5645 202.696 83.7617C202.443 84.6846 203.836 87.0727 204.453 88.0696H204.45Z" fill="#C1705D"/>
  <path d="M236.329 174.791L241.197 170.37L241.377 170.205L223.285 144.625C221.694 144.107 219.726 142.589 217.955 140.754L221.077 158.581L233.38 177.471L236.333 174.791H236.329Z" fill="#BF674B"/>
  <path d="M223.285 144.622L241.377 170.201L241.197 170.367C241.662 169.955 242.124 169.542 242.59 169.134C244.847 167.161 247.14 165.238 249.496 163.371C250.805 162.336 252.128 161.318 253.482 160.324C253.278 159.729 252.904 159.13 252.459 158.493C249.585 154.389 247.144 150.261 244.572 145.949L236.318 131.656L231.638 113.565C229.701 106.087 216.569 97.2877 209.638 88.7529L208.583 87.4567C208.199 87.9287 205.987 88.4852 205.458 88.5522C205.056 88.6015 204.661 88.4148 204.446 88.0731C203.829 87.0763 202.435 84.6881 202.689 83.7652C202.742 83.568 202.827 83.413 202.926 83.2862C202.488 83.4165 202.132 83.6314 202.005 83.9554C201.145 86.1816 201.751 88.7142 202.252 91.0671L209.829 102.089C210.266 102.642 210.83 103.1 211.31 103.586C211.86 104.142 212.1 104.804 212.308 105.276C212.312 105.305 212.562 106.77 212.569 106.798C212.576 106.837 212.88 108.612 212.887 108.651C212.887 108.661 213.014 109.394 213.201 110.493C211.24 113.466 209.973 120.585 211.028 127.017C211.956 132.667 214.428 136.291 215.359 137.623C216.104 138.686 217 139.768 217.952 140.757C219.723 142.593 221.691 144.111 223.282 144.629L223.285 144.622Z" fill="#CE9E84"/>
  <path d="M100.906 62.4055L48.0714 54.1666C46.4136 53.9095 44.8581 55.0402 44.6006 56.6957L39.9129 86.6747C39.6554 88.3303 40.7876 89.8836 42.4454 90.1407L95.2805 98.3796C96.9383 98.6368 98.4938 97.5061 98.7513 95.8505L103.439 65.8715C103.697 64.216 102.564 62.6626 100.906 62.4055ZM51.8985 67.3579L51.9126 67.2734C52.2901 64.4555 54.932 62.4971 57.8279 62.8739C60.752 63.2438 62.819 65.8398 62.4768 68.6859C62.1206 71.532 59.4716 73.5257 56.5475 73.1664C53.6234 72.7965 51.5564 70.2005 51.8985 67.3544V67.3579ZM63.2105 86.1428L45.7999 83.4271C45.7046 76.9353 49.6587 73.2157 51.9867 72.4478C52.7874 72.0181 53.4294 73.8885 56.1524 74.3252C58.4099 74.6775 59.8772 73.2086 60.7167 73.7335C62.4028 75.153 65.3233 79.9681 63.2105 86.1393V86.1428ZM68.7201 90.4648C68.7201 90.4648 68.6954 90.4613 68.6989 90.4366C68.6989 90.4366 68.7166 90.4155 68.7272 90.4155C68.7377 90.4155 68.7483 90.4296 68.7483 90.4437C68.7483 90.4542 68.7448 90.4683 68.7201 90.4648ZM80.2825 88.0308L67.5702 86.0477L68.1416 82.388L80.8539 84.3711L80.2825 88.0308ZM93.7955 84.8783L68.3709 80.9121L68.9423 77.2523L94.3669 81.2185L93.7955 84.8783ZM94.6314 79.5278L69.2069 75.5616L69.7783 71.9018L95.2029 75.868L94.6314 79.5278ZM95.4674 74.1773L70.0428 70.2111L70.6142 66.5513L96.0388 70.5175L95.4674 74.1773Z" fill="#013366"/>
  <path d="M69.7862 71.9125L69.2139 75.5702L94.6369 79.5367L95.2092 75.8791L69.7862 71.9125Z" fill="white"/>
  <path d="M68.9509 77.2617L68.3787 80.9194L93.8017 84.8859L94.374 81.2283L68.9509 77.2617Z" fill="white"/>
  <path d="M56.5475 73.1699C59.4716 73.5292 62.1206 71.532 62.4768 68.6894C62.8225 65.8433 60.752 63.2473 57.8279 62.8775C54.932 62.5006 52.2901 64.459 51.9126 67.2769L51.8985 67.3615C51.5529 70.2076 53.6234 72.8036 56.5475 73.1734V73.1699Z" fill="white"/>
  <path d="M70.6214 66.5633L70.0491 70.2209L95.4722 74.1875L96.0444 70.5298L70.6214 66.5633Z" fill="white"/>
  <path d="M60.7167 73.737C59.8772 73.2122 58.4099 74.681 56.1524 74.3288C53.4294 73.892 52.7874 72.0216 51.9867 72.4513C49.6552 73.2192 45.7011 76.9388 45.7999 83.4306L63.2105 86.1464C65.3233 79.9751 62.4028 75.1565 60.7167 73.7405V73.737Z" fill="white"/>
  <path d="M68.6989 90.4402C68.6954 90.4648 68.7201 90.4683 68.7201 90.4683C68.7448 90.4719 68.7483 90.4613 68.7483 90.4472C68.7483 90.4366 68.7413 90.4226 68.7271 90.419C68.713 90.419 68.6989 90.4402 68.6989 90.4402Z" fill="white"/>
  <path d="M68.1456 82.3966L67.5733 86.0542L80.2866 88.0378L80.8588 84.3801L68.1456 82.3966Z" fill="white"/>
  <path d="M183.783 47.0549C182.894 40.1193 178.475 16.6602 158.972 5.98385C142.186 -3.20606 121.054 0.503018 103.827 15.6563L103.129 14.8638C111.675 7.3435 121.453 2.44738 131.396 0.707317C141.375 -1.03979 151.089 0.464272 159.484 5.05747C179.427 15.9733 183.931 39.8587 184.838 46.9211L183.787 47.0549H183.783Z" fill="#013366"/>
  <path d="M178.358 40.4504C178.584 40.2637 178.916 40.2954 179.103 40.5209L184.263 46.7484L187.73 39.443C187.854 39.1788 188.171 39.0661 188.436 39.1929C188.7 39.3197 188.81 39.6367 188.686 39.8974L184.863 47.9531C184.785 48.1151 184.63 48.2279 184.45 48.2525C184.27 48.2772 184.09 48.2032 183.977 48.0658L178.284 41.2007C178.217 41.1197 178.178 41.0246 178.168 40.9295C178.147 40.7569 178.21 40.5772 178.355 40.4575L178.358 40.4504Z" fill="#013366"/>
  <path d="M144.659 203.53C133.086 203.53 122.049 200.582 112.455 194.89C91.9084 182.699 84.8856 161.885 82.8221 153.501L83.8486 153.248C85.8803 161.501 92.7937 181.991 112.994 193.977C135.46 207.306 164.842 204.904 187.847 187.855L188.478 188.704C177.081 197.151 163.861 202.199 150.249 203.301C148.376 203.452 146.507 203.53 144.655 203.53H144.659Z" fill="#013366"/>
  <path d="M90.0178 159.165C89.8167 159.377 89.4816 159.384 89.27 159.183L83.4077 153.611L80.8292 161.272C80.7375 161.55 80.4342 161.698 80.159 161.603C79.8839 161.508 79.7358 161.208 79.8275 160.934L82.6704 152.483C82.7269 152.311 82.868 152.184 83.0443 152.138C83.2207 152.093 83.4041 152.145 83.5382 152.269L90.0037 158.415C90.0777 158.486 90.1271 158.577 90.1518 158.669C90.1941 158.838 90.1518 159.025 90.0213 159.162L90.0178 159.165Z" fill="#013366"/>
</svg>