<svg xmlns="http://www.w3.org/2000/svg" width="96" height="96" viewBox="0 0 96 96" fill="none">
  <path d="M84.6667 0H10.5833C4.7625 0 0 4.7625 0 10.5833V84.6667C0 90.4875 4.7625 95.25 10.5833 95.25H84.6667C90.4875 95.25 95.25 90.4875 95.25 84.6667V10.5833C95.25 4.7625 90.4875 0 84.6667 0ZM84.6667 84.6667H10.5833V10.5833H84.6667V84.6667Z" fill="#3470B1"/>
  <path d="M31.75 47.625H21.1667V74.0833H31.75V47.625Z" fill="#3470B1"/>
  <path d="M74.0833 21.1667H63.5V74.0833H74.0833V21.1667Z" fill="#3470B1"/>
  <path d="M52.9167 58.2083H42.3333V74.0833H52.9167V58.2083Z" fill="#3470B1"/>
  <path d="M52.9167 37.0417H42.3333V47.625H52.9167V37.0417Z" fill="#3470B1"/>
</svg>