<svg width="327" height="267" viewBox="0 0 327 267" fill="none" xmlns="http://www.w3.org/2000/svg">
<path d="M187.809 245.149C276.904 258.704 346.136 139.465 249.487 97.9627C220.069 85.473 216.117 36.8176 177.682 50.9961C59.9381 86.4267 62.6175 227.899 187.809 245.145V245.149Z" fill="#D8EAFD"/>
<path d="M205.78 103.574L160.793 111.001C157.444 111.553 155.168 114.756 155.711 118.158L170.631 211.459C171.178 214.888 174.364 217.161 177.682 216.613L222.669 209.186C226.014 208.634 228.294 205.435 227.751 202.029L212.831 108.728C212.284 105.298 209.098 103.025 205.78 103.574Z" fill="#1E5189"/>
<path d="M176.683 216.863C175.379 216.863 174.111 216.454 173.025 215.671C171.645 214.67 170.73 213.184 170.456 211.483L155.537 118.181C154.978 114.692 157.325 111.394 160.761 110.826L205.748 103.399C207.401 103.125 209.062 103.518 210.429 104.504C211.813 105.505 212.724 106.991 212.998 108.692L227.917 201.993C228.476 205.482 226.129 208.781 222.693 209.349L177.706 216.776C177.365 216.832 177.02 216.863 176.679 216.863H176.683ZM205.78 103.574L205.808 103.741L160.821 111.168C157.566 111.704 155.355 114.828 155.882 118.13L170.801 211.431C171.059 213.044 171.923 214.451 173.231 215.397C174.523 216.327 176.092 216.704 177.654 216.446L222.641 209.019C225.896 208.483 228.111 205.359 227.58 202.057L212.661 108.756C212.403 107.142 211.539 105.735 210.235 104.79C208.943 103.856 207.37 103.482 205.812 103.741L205.784 103.574H205.78Z" fill="#013366"/>
<path d="M210.247 111.446L159.009 119.902L173.215 208.733L224.453 200.277L210.247 111.446Z" fill="#8099B3"/>
<path d="M194.638 111.156L173.809 114.593C173.508 114.645 173.219 114.434 173.171 114.124C173.124 113.814 173.33 113.528 173.631 113.476L194.46 110.039C194.761 109.987 195.051 110.198 195.098 110.508C195.146 110.818 194.94 111.104 194.638 111.156Z" fill="#8099B3"/>
<path d="M266.848 204.977L261.818 199.247C261.426 198.798 260.839 198.409 260.435 198.365C259.745 198.294 259.154 198.679 258.58 199.104C257.264 200.074 255.976 201.067 254.707 202.077C252.416 203.897 250.189 205.772 247.997 207.7C247.545 208.097 247.093 208.498 246.641 208.904L241.913 213.215C241.952 214.296 242.555 215.019 243.129 215.87L246.181 220.384C252.119 214.678 257.846 209.218 264.478 204.528C265.009 204.155 265.655 203.905 266.226 204.322C259.852 208.069 254.049 213.748 248.635 218.783C247.811 219.549 246.915 220.157 246.613 221.31C251.017 227.946 255.647 234.145 260.233 240.4C266.566 237.67 273.178 230.557 276.246 224.306C276.991 222.792 277.383 221.25 277.399 219.549C274.074 214.451 270.522 209.794 266.852 204.97L266.848 204.977Z" fill="#F9F1C6"/>
<path d="M248.627 218.779C254.041 213.744 259.84 208.065 266.218 204.318C265.647 203.901 264.997 204.151 264.47 204.525C257.839 209.214 252.111 214.674 246.174 220.38L243.122 215.866C242.547 215.015 241.944 214.288 241.905 213.211L239.035 215.826C238.135 216.653 237.588 217.626 238.286 218.798L242.396 225.689C245.845 230.513 248.897 235.52 252.769 239.983C254.656 242.157 258.021 241.354 260.229 240.404C255.639 234.145 251.009 227.946 246.61 221.314C246.911 220.158 247.811 219.55 248.631 218.787L248.627 218.779Z" fill="#FCBA19"/>
<path d="M210.929 128.609C211.135 128.947 211.523 129.129 211.912 129.078C212.427 129.014 214.575 128.47 214.948 128.009C214.992 127.953 215.019 127.897 215.007 127.842L212.677 124.647C212.213 124.011 211.531 123.614 210.81 123.49H210.798C210.778 123.49 210.731 123.479 210.663 123.479C210.394 123.463 209.811 123.479 209.454 123.94C209.359 124.063 209.28 124.214 209.225 124.408C208.979 125.31 210.33 127.639 210.933 128.613L210.929 128.609Z" fill="#C1705D"/>
<path d="M241.905 213.211L246.633 208.9L246.808 208.737L229.229 183.781C227.683 183.277 225.769 181.794 224.049 180.006L227.081 197.396L239.035 215.826L241.905 213.211Z" fill="#BF674B"/>
<path d="M229.233 183.777L246.812 208.733L246.637 208.896C247.089 208.494 247.537 208.093 247.993 207.692C250.185 205.768 252.416 203.893 254.703 202.069C255.976 201.059 257.26 200.066 258.576 199.096C258.378 198.516 258.013 197.932 257.581 197.308C254.786 193.306 252.416 189.277 249.915 185.073L241.897 171.129L237.346 153.481C235.464 146.185 222.705 137.601 215.971 129.276L214.944 128.013C214.571 128.474 212.423 129.018 211.908 129.082C211.515 129.129 211.135 128.946 210.925 128.613C210.326 127.639 208.971 125.31 209.217 124.408C209.268 124.218 209.351 124.067 209.446 123.939C209.022 124.067 208.674 124.277 208.551 124.591C207.714 126.765 208.305 129.233 208.792 131.529L216.153 142.283C216.577 142.823 217.128 143.268 217.592 143.745C218.127 144.289 218.361 144.933 218.563 145.394C218.563 145.422 218.809 146.852 218.816 146.88C218.824 146.92 219.118 148.649 219.126 148.688C219.126 148.7 219.249 149.412 219.431 150.485C217.524 153.385 216.296 160.328 217.318 166.602C218.218 172.114 220.624 175.651 221.528 176.95C222.249 177.987 223.121 179.044 224.049 180.01C225.769 181.802 227.683 183.28 229.229 183.785V183.777H229.233Z" fill="#CE9E84"/>
<path d="M45.7721 12.7004C45.023 12.752 44.2699 12.8077 43.5247 12.8911C43.489 12.8911 43.4534 12.8991 43.4177 12.903C42.9143 13.0898 42.4109 13.2845 41.9155 13.4951C41.2971 13.7534 40.6947 14.0435 40.0922 14.3416C39.3629 14.7151 38.6375 15.1006 37.9241 15.5138C37.1591 15.9589 36.406 16.4238 35.6688 16.9126C35.5261 17.012 35.3794 17.1073 35.2367 17.2067C34.559 17.6835 33.8693 18.1524 33.2074 18.6531C32.5098 19.1777 31.832 19.7181 31.17 20.2824C30.6112 20.7831 30.0602 21.2957 29.5172 21.8163C28.9623 22.3528 28.4391 22.925 27.9238 23.4972C27.5394 23.9542 27.1588 24.4112 26.7942 24.8881C26.4454 25.3451 26.1164 25.8179 25.7914 26.2908C25.4902 26.7637 25.1929 27.2366 24.9154 27.7214C24.638 28.1983 24.3803 28.687 24.1227 29.1798C23.8135 29.8116 23.5202 30.4514 23.2507 31.1031C22.997 31.723 22.7671 32.3509 22.5452 32.9827C22.3113 33.6901 22.0814 34.3974 21.8872 35.1167C21.6811 35.8638 21.4948 36.6148 21.3244 37.3698C21.1896 38.0494 21.0707 38.7289 20.9716 39.4124C20.8725 40.0681 20.8131 40.7277 20.7695 41.3874C20.714 42.2775 20.7695 43.1796 20.825 44.0697C20.9637 45.8182 21.1936 47.5508 21.475 49.0966C21.6177 49.788 21.7564 50.4795 21.9467 51.159C22.133 51.8147 22.3311 52.4624 22.5452 53.1062C22.7117 53.5631 22.8821 54.0162 23.0723 54.4612C23.2626 54.9142 23.4727 55.3593 23.6827 55.8004C24.0236 56.464 24.3803 57.1157 24.7529 57.7595C25.1255 58.4033 25.5219 59.0272 25.9301 59.6471C26.3067 60.1955 26.6951 60.7359 27.0954 61.2684C27.4601 61.7532 27.8485 62.2181 28.2409 62.6791C29.0614 63.5891 29.9175 64.4673 30.8292 65.2819C31.3405 65.731 31.8597 66.1761 32.3948 66.5973C32.9339 67.0225 33.4967 67.4199 34.0595 67.8133C34.6105 68.1828 35.1614 68.5484 35.7282 68.8902C36.3307 69.2558 36.9451 69.5935 37.5713 69.9154C38.8555 70.5353 40.1556 71.1195 41.4993 71.5963C42.8707 72.0374 44.2619 72.3911 45.673 72.6852C46.8898 72.9077 48.1146 73.0349 49.3473 73.1302C49.8626 73.162 50.3739 73.1859 50.8891 73.1779C51.4361 73.1739 51.9831 73.1501 52.5261 73.1223C53.2039 73.0746 53.8777 73.015 54.5515 72.9395C55.1976 72.864 55.8318 72.7448 56.4699 72.6176C57.1438 72.4746 57.8136 72.3236 58.4835 72.1487C59.185 71.9659 59.8747 71.7513 60.5604 71.5129C61.7733 71.0678 62.9544 70.5671 64.1118 69.9949C65.2018 69.4227 66.2641 68.8027 67.2867 68.1193C68.2895 67.4199 69.2249 66.633 70.1484 65.8303C71.0759 65.0038 71.9638 64.1454 72.7882 63.2195C73.7197 62.1307 74.5956 61.0021 75.4042 59.8179C76.082 58.7847 76.6805 57.7078 77.2394 56.6031C77.9251 55.2163 78.5157 53.7897 79.0349 52.3313C79.2054 51.8306 79.3679 51.3259 79.5185 50.8172C79.6651 50.3126 79.7761 49.7999 79.8871 49.2873C80.1764 47.8408 80.4143 46.3825 80.5332 44.9121C80.6085 43.6405 80.6006 42.3689 80.5213 41.0973C80.4143 39.7263 80.228 38.3673 79.9664 37.0162C79.677 35.6611 79.2886 34.3338 78.8447 33.0185C78.6346 32.4185 78.4126 31.8264 78.1708 31.2382C77.937 30.662 77.6714 30.1017 77.3979 29.5454C76.7439 28.2499 76.0384 26.9862 75.2338 25.7822C74.5758 24.8364 73.8663 23.9304 73.1093 23.0641C72.2611 22.1183 71.3653 21.2242 70.418 20.3778C69.6094 19.6784 68.7731 19.0227 67.8892 18.4187C66.6803 17.6041 65.4476 16.8292 64.1475 16.1655C62.8871 15.5456 61.5751 15.0131 60.2512 14.5442C59.5655 14.3137 58.8719 14.123 58.1703 13.9442C57.445 13.7574 56.7196 13.5786 55.9903 13.4236C55.1223 13.2567 54.2463 13.1653 53.3664 13.054C52.5301 12.9467 51.6977 12.8394 50.8574 12.7759C50.0211 12.7242 49.1808 12.6964 48.3405 12.6725C48.0155 12.6646 47.6905 12.6567 47.3655 12.6567C46.8383 12.6567 46.3151 12.6725 45.7919 12.7043L45.7721 12.7004ZM49.2759 74.8231C47.8847 74.7913 46.5054 74.6721 45.126 74.4813C43.7546 74.2946 42.4109 73.9886 41.0791 73.6111C40.4648 73.4362 39.8464 73.2574 39.2915 73.0667C39.2479 73.0508 39.2004 73.0349 39.1568 73.019C39.1449 73.015 39.133 73.011 39.1211 73.007C38.4869 72.7845 37.8567 72.558 37.2463 72.2878C36.5923 71.9977 35.9462 71.6957 35.3081 71.3738C34.6937 71.0639 34.0913 70.738 33.4967 70.3923C32.8982 70.0426 32.3155 69.6571 31.7448 69.2597C30.6389 68.4888 29.5648 67.6543 28.5739 66.7324C27.5552 65.7866 26.596 64.7852 25.6963 63.7282C23.9206 61.638 22.4065 59.3292 21.2768 56.8217C20.71 55.558 20.1868 54.2824 19.7389 52.9711C19.291 51.6557 18.8907 50.3086 18.6291 48.9416C18.4983 48.2541 18.3794 47.5627 18.2922 46.8673C18.205 46.1679 18.1654 45.4605 18.1376 44.7572C18.0821 43.418 18.1733 42.0748 18.2486 40.7396C18.3279 39.3607 18.4666 37.9818 18.7203 36.6228C18.859 35.8717 19.0215 35.1286 19.2038 34.3855C19.3703 33.706 19.5923 33.0423 19.8222 32.3827C20.2819 31.0634 20.8527 29.7997 21.479 28.5519C22.0735 27.3638 22.7553 26.2233 23.4925 25.1186C24.2456 23.986 25.0542 22.8813 25.942 21.8481C26.4295 21.2798 26.925 20.7275 27.4403 20.187C27.8921 19.7142 28.3678 19.2691 28.8513 18.828C29.9096 17.8584 31.067 17.004 32.2561 16.2053C32.7951 15.8437 33.3619 15.5297 33.9367 15.2237C34.5431 14.9019 35.1733 14.6118 35.8075 14.3455C37.0442 13.825 38.3244 13.3799 39.6324 13.0739C40.8453 12.7918 42.0621 12.5732 43.2988 12.4222C43.707 12.2712 44.1153 12.1321 44.5315 12.001C45.0586 11.838 45.5937 11.7069 46.1288 11.5797C46.7075 11.4446 47.2862 11.3175 47.8728 11.2142C48.4674 11.1069 49.0619 11.0194 49.6644 10.9678C50.2867 10.9121 50.9169 10.8923 51.5431 10.8764C52.1852 10.8605 52.8234 10.8645 53.4655 10.9042C54.1433 10.9479 54.8092 11.0512 55.4751 11.1585C56.7672 11.3731 58.0594 11.6036 59.3119 11.997C60.5327 12.3785 61.7535 12.7957 62.9307 13.3044C63.5609 13.5746 64.1752 13.8846 64.7856 14.2025C65.3802 14.5124 65.9668 14.8343 66.5495 15.1681C67.1559 15.5178 67.7425 15.8953 68.3212 16.2887C68.8563 16.6503 69.3637 17.0477 69.867 17.4491C70.8936 18.2637 71.8845 19.126 72.816 20.048C73.7633 20.9858 74.6472 21.9912 75.4716 23.0442C76.3119 24.1171 77.0888 25.2417 77.8141 26.3981C78.5196 27.5227 79.1261 28.7149 79.6612 29.9308C80.2161 31.1905 80.7076 32.482 81.0881 33.8053C81.4607 35.0928 81.7302 36.4082 81.9522 37.7275C82.1702 39.0309 82.2811 40.3581 82.3208 41.6814C82.3604 43.0444 82.3049 44.3995 82.2058 45.7625C82.1067 47.0977 81.9165 48.421 81.6311 49.7284C81.4924 50.3523 81.3338 50.9722 81.1674 51.5882C80.989 52.2478 80.7987 52.9035 80.5847 53.5512C80.1566 54.8467 79.6136 56.1024 78.9953 57.3184C78.377 58.5304 77.6595 59.6828 76.9421 60.7518C76.1771 61.8923 75.3368 62.9771 74.4173 63.9984C73.5255 64.9879 72.5782 65.9416 71.5714 66.8198C71.0561 67.2689 70.529 67.702 69.974 68.1073C69.4112 68.5166 68.8365 68.9061 68.2578 69.2915C67.7108 69.6531 67.1599 70.0068 66.597 70.3366C66.0183 70.6744 65.4317 70.9923 64.8332 71.2983C63.6362 71.9142 62.3995 72.4388 61.1391 72.8998C60.501 73.1342 59.8549 73.3369 59.2048 73.5356C58.5865 73.7263 57.9603 73.8932 57.3261 74.0283C55.9824 74.3184 54.6308 74.537 53.2673 74.684C52.6133 74.7555 51.9474 74.7953 51.2895 74.8112C50.7782 74.8231 50.2668 74.843 49.7516 74.843C49.593 74.843 49.4384 74.843 49.2799 74.839L49.2759 74.8231Z" fill="black"/>
<path d="M27.4165 63.8633C27.5513 63.5931 27.7653 63.3706 27.9476 63.1361C28.7245 62.1943 29.537 61.2803 30.4368 60.4498C32.2323 58.8444 34.1428 57.3661 36.0136 55.8481C39.2162 53.1618 42.3634 50.408 45.5739 47.7336C47.3615 46.1838 48.9509 44.4194 50.7623 42.8975C51.9633 41.8841 53.2753 41.0178 54.6269 40.2271C52.8353 43.2551 50.0885 45.54 47.5082 47.8727C44.7614 50.1815 41.9313 52.3869 39.2083 54.7275C36.8936 56.7224 34.4559 58.5662 32.0738 60.4776C31.1701 61.1969 30.2029 61.8407 29.2517 62.5003C28.7483 62.846 28.2409 63.1878 27.7613 63.5613C27.6385 63.6766 27.476 63.764 27.4205 63.9229C27.4244 63.9309 27.4324 63.9269 27.4363 63.9269C27.4363 63.9269 27.4324 63.9269 27.4284 63.9269C27.4046 63.9269 27.4086 63.8951 27.4205 63.8633H27.4165Z" fill="black"/>
<path d="M54.7933 40.4535C53.5725 39.5991 52.4349 38.6096 51.3568 37.5764C50.3897 36.5989 49.4741 35.5736 48.5585 34.5523C45.0943 30.6183 41.8837 26.4775 38.59 22.4044C37.2423 20.8109 36.2633 18.9631 35.1654 17.1987C35.1297 17.143 35.0901 17.0954 35.0623 17.0437C35.6846 17.5007 36.2514 18.0292 36.8024 18.5696C38.0271 19.7459 39.125 21.0374 40.1913 22.3567C42.4941 25.0033 44.5314 27.8684 46.8185 30.5308C47.7261 31.6078 48.5981 32.7204 49.5217 33.7854C50.4056 34.8067 51.3529 35.7763 52.1694 36.8532C52.7124 37.5764 53.2118 38.3354 53.739 39.0746C54.0798 39.5355 54.3771 40.0481 54.7973 40.4376C54.7973 40.4376 54.8052 40.4376 54.8092 40.4376C54.821 40.4296 54.8171 40.3899 54.825 40.3939C54.825 40.4058 54.825 40.4495 54.8012 40.4495C54.8012 40.4495 54.7973 40.4495 54.7933 40.4495V40.4535Z" fill="black"/>
<path d="M54.6189 40.8391C54.3851 40.2033 54.3653 39.4999 54.2741 38.8283C54.0838 37.052 54.1592 35.2678 54.2741 33.4915C54.4128 30.9363 54.5516 28.3772 54.7061 25.822C55.1065 21.4667 54.5912 16.9842 55.9071 12.7561C56.1648 16.0782 56.1767 19.4242 56.0498 22.7582C56.0221 26.6526 55.7367 30.535 55.4553 34.4174C55.3839 35.7447 55.2333 37.0679 54.9796 38.3753C54.9321 38.8244 54.4366 40.6563 54.6863 40.8828C54.7061 40.8828 54.726 40.8749 54.7458 40.8709C54.722 40.8788 54.7022 40.8907 54.6744 40.8907C54.6467 40.8907 54.6269 40.859 54.611 40.8391H54.6189Z" fill="black"/>
<path d="M80.5015 41.0934C80.5807 42.3651 80.5926 43.6367 80.5134 44.9083C80.3984 46.3826 80.1606 47.837 79.8673 49.2835C79.7603 49.7961 79.6453 50.3087 79.4987 50.8134C79.352 51.322 79.1895 51.8267 79.0151 52.3274C78.4959 53.7858 77.9053 55.2124 77.2196 56.5993C76.6567 57.7 76.0622 58.7769 75.3844 59.8141C74.5758 60.9983 73.6999 62.1269 72.7684 63.2157C71.944 64.1456 71.0561 64.9999 70.1286 65.8265C69.2051 66.6292 68.2697 67.416 67.2669 68.1154C66.2443 68.7989 65.182 69.4188 64.092 69.991C62.9346 70.5633 61.7535 71.064 60.5406 71.509C59.8549 71.7435 59.1652 71.9581 58.4636 72.1449C57.7977 72.3197 57.1239 72.4707 56.4501 72.6138C55.812 72.7369 55.1738 72.8601 54.5317 72.9356C53.8579 73.0151 53.1841 73.0708 52.5063 73.1184C51.9593 73.1463 51.4123 73.1701 50.8693 73.1741C50.354 73.178 49.8427 73.1542 49.3275 73.1264C48.0948 73.031 46.87 72.9039 45.6532 72.6813C44.2461 72.3873 42.8509 72.0336 41.4795 71.5925C40.1358 71.1156 38.8357 70.5315 37.5515 69.9116C36.9252 69.5897 36.3109 69.2519 35.7084 68.8863C35.1416 68.5446 34.5907 68.175 34.0397 67.8094C33.4769 67.416 32.914 67.0186 32.375 66.5934C31.8399 66.1722 31.3207 65.7271 30.8093 65.2781C30.0047 64.5588 29.2437 63.7919 28.5104 62.9971C28.7483 62.8302 28.99 62.6673 29.2279 62.5004C30.1752 61.8407 31.1423 61.197 32.05 60.4777C34.4321 58.5663 36.8697 56.7225 39.1845 54.7276C41.9075 52.391 44.7376 50.1816 47.4844 47.8728C50.0092 45.5918 52.6886 43.3585 54.4802 40.4298C54.5119 40.5689 54.5515 40.708 54.6031 40.8391C54.6189 40.859 54.6387 40.8908 54.6665 40.8908C54.6903 40.8908 54.714 40.8788 54.7378 40.8709C54.718 40.8749 54.6982 40.8828 54.6784 40.8828C54.6031 40.8153 54.5951 40.6086 54.6189 40.3384C54.6704 40.3781 54.7259 40.4139 54.7775 40.4536H54.7854C54.8052 40.4536 54.8052 40.4099 54.8092 40.398C54.7973 40.398 54.8052 40.4377 54.7933 40.4417C54.7933 40.4417 54.7854 40.4417 54.7814 40.4417C54.7259 40.3901 54.6744 40.3384 54.6229 40.2828C54.6942 39.639 54.936 38.6853 54.9677 38.3753C55.2214 37.0679 55.372 35.7447 55.4433 34.4174C55.7248 30.535 56.0101 26.6526 56.0379 22.7582C56.1568 19.6467 56.1528 16.5193 55.9428 13.4158C55.9428 13.4158 55.9507 13.4158 55.9547 13.4158C56.6879 13.5708 57.4093 13.7496 58.1347 13.9363C58.8362 14.1152 59.5299 14.3059 60.2156 14.5364C61.5394 15.0053 62.8514 15.5378 64.1118 16.1577C65.4119 16.8213 66.6446 17.5962 67.8535 18.4109C68.7374 19.0149 69.5737 19.6666 70.3823 20.37C71.3296 21.2164 72.2254 22.1145 73.0736 23.0563C73.8307 23.9226 74.5401 24.8286 75.1981 25.7744C76.0027 26.9824 76.7083 28.2461 77.3623 29.5376C77.6357 30.0939 77.9013 30.6542 78.1352 31.2304C78.3769 31.8185 78.5949 32.4106 78.809 33.0107C79.2529 34.322 79.6453 35.6493 79.9307 37.0083C80.1923 38.3555 80.3786 39.7185 80.4856 41.0895L80.5015 41.0934Z" fill="#FCBA19"/>
<path d="M55.7327 13.376C54.6466 17.4214 55.0906 21.6813 54.7101 25.822C54.5555 28.3772 54.4207 30.9363 54.278 33.4915C54.1591 35.2678 54.0838 37.052 54.278 38.8283C54.3296 39.2218 54.3573 39.6271 54.4207 40.0205C54.1829 39.7185 53.9728 39.3847 53.7429 39.0747C53.2158 38.3356 52.7203 37.5806 52.1733 36.8534C51.3568 35.7764 50.4135 34.8029 49.5256 33.7856C48.5981 32.7246 47.7301 31.6119 46.8224 30.531C44.5354 27.8685 42.4981 25.0074 40.1952 22.3569C39.129 21.0375 38.0311 19.7421 36.8063 18.5698C36.3148 18.081 35.8075 17.6081 35.2565 17.1829C35.3953 17.0915 35.534 16.9962 35.6687 16.9008C36.4099 16.412 37.1591 15.9471 37.9241 15.502C38.6336 15.0887 39.3589 14.7033 40.0922 14.3297C40.6946 14.0357 41.2971 13.7456 41.9154 13.4833C42.4109 13.2727 42.9103 13.078 43.4177 12.8912C43.4533 12.8912 43.489 12.8833 43.5247 12.8793C44.2738 12.7958 45.0229 12.7402 45.7721 12.6886C46.2953 12.6568 46.8224 12.6409 47.3456 12.6409C47.6706 12.6409 47.9957 12.6448 48.3207 12.6568C49.161 12.6806 50.0013 12.7084 50.8376 12.7601C51.6779 12.8237 52.5102 12.931 53.3466 13.0383C54.1433 13.1376 54.94 13.221 55.7287 13.3641L55.7327 13.376Z" fill="#8099B3"/>
<path d="M54.4524 40.207C54.4603 40.2428 54.4643 40.2786 54.4722 40.3143C53.1722 41.0813 51.9117 41.9237 50.7583 42.8973C48.9469 44.4193 47.3615 46.1876 45.5699 47.7334C42.3594 50.4118 39.2162 53.1656 36.0096 55.848C34.1388 57.366 32.2323 58.8442 30.4328 60.4497C29.6638 61.161 28.9583 61.9319 28.2845 62.7306C28.2647 62.7108 28.2488 62.6909 28.233 62.671C27.8406 62.2101 27.4482 61.7451 27.0875 61.2603C26.6871 60.7278 26.3027 60.1874 25.9222 59.639C25.5139 59.0191 25.1175 58.3952 24.745 57.7514C24.3724 57.1077 24.0157 56.452 23.6748 55.7923C23.4607 55.3513 23.2546 54.9062 23.0644 54.4532C22.8741 54.0081 22.7077 53.5511 22.5372 53.0981C22.3232 52.4543 22.125 51.8066 21.9387 51.1509C21.7485 50.4714 21.6097 49.78 21.467 49.0885C21.1896 47.5427 20.9597 45.8101 20.817 44.0616C20.7615 43.1715 20.706 42.2734 20.7615 41.3793C20.8091 40.7196 20.8685 40.06 20.9637 39.4043C21.0667 38.7208 21.1856 38.0413 21.3164 37.3618C21.4869 36.6067 21.6771 35.8597 21.8793 35.1086C22.0735 34.3894 22.3073 33.682 22.5372 32.9747C22.7592 32.3428 22.9891 31.715 23.2427 31.0951C23.5123 30.4434 23.8056 29.8036 24.1147 29.1717C24.3684 28.683 24.63 28.1942 24.9075 27.7133C25.1849 27.2285 25.4822 26.7556 25.7834 26.2828C26.1085 25.8059 26.4374 25.337 26.7862 24.88C27.1469 24.4031 27.5274 23.9462 27.9159 23.4892C28.4311 22.9169 28.9543 22.3447 29.5093 21.8082C30.0523 21.2877 30.5993 20.775 31.1621 20.2743C31.824 19.7101 32.5058 19.1696 33.1994 18.6451C33.8455 18.1563 34.5153 17.6993 35.1812 17.2344C36.2673 18.9868 37.2463 20.8227 38.582 22.4043C41.8758 26.4775 45.0903 30.6182 48.5506 34.5523C49.4662 35.5736 50.3857 36.5988 51.3489 37.5764C52.3239 38.5142 53.3505 39.4123 54.4405 40.207H54.4524Z" fill="#D8EAFD"/>
<path d="M148.854 96.663C148.902 96.7464 148.91 96.8577 148.87 96.9451C148.846 97.0007 148.811 97.0405 148.763 97.0762C148.628 97.1835 148.49 97.2868 148.355 97.3902C148.2 97.5094 148.05 97.6286 147.895 97.7438C147.297 98.2048 146.698 98.6618 146.104 99.1228C145.87 99.3055 145.632 99.4883 145.398 99.6711C145.279 99.7625 145.16 99.8579 145.041 99.9453C145.117 100.065 145.188 100.188 145.255 100.311C145.529 100.82 145.771 101.348 146.147 101.789C146.575 102.29 146.904 102.862 147.245 103.422C147.598 103.983 148.05 104.475 148.41 105.032C148.815 105.684 148.862 106.164 148.113 106.55C147.618 106.82 147.154 107.13 146.702 107.468C146.262 107.762 145.794 108.016 145.402 108.37C145.077 108.664 144.76 108.97 144.419 109.244C144.268 109.371 144.039 109.498 143.864 109.339C143.579 109.045 143.369 108.7 143.103 108.39C142.477 107.718 141.926 106.983 141.355 106.264C140.979 105.831 140.574 105.417 140.229 104.956C139.936 104.547 139.631 104.142 139.302 103.764C139.215 103.828 139.128 103.891 139.036 103.955C138.462 104.376 137.883 104.789 137.312 105.211C136.781 105.6 136.246 105.982 135.711 106.367C135.659 106.403 135.596 106.427 135.533 106.427C135.501 106.427 135.469 106.423 135.441 106.407C135.398 106.387 135.362 106.359 135.33 106.323C135.307 106.299 135.283 106.272 135.263 106.248C135.148 106.113 135.029 105.982 134.914 105.846C134.672 105.572 134.435 105.294 134.197 105.02C134.197 105.02 134.197 105.02 134.193 105.016C134.169 105.048 134.122 105.06 134.082 105.036C134.026 104.996 134.03 104.936 134.066 104.869C133.868 104.638 133.67 104.408 133.468 104.181C133.23 103.911 132.996 103.645 132.758 103.371C132.536 103.112 132.31 102.854 132.084 102.596C131.866 102.346 131.652 102.095 131.438 101.845C131.367 101.761 131.299 101.682 131.228 101.598C131.184 101.547 131.141 101.495 131.097 101.447C131.03 101.38 131.03 101.277 131.066 101.197C131.117 101.09 131.22 100.971 131.347 100.951C131.375 101.002 131.387 101.058 131.391 101.114C131.414 101.094 131.438 101.07 131.462 101.05C131.509 101.006 131.557 100.963 131.597 100.931C131.613 100.919 131.624 100.907 131.636 100.899C131.648 100.891 131.66 100.879 131.66 100.879C131.668 100.871 131.68 100.863 131.688 100.855C131.72 100.828 131.747 100.804 131.775 100.776C132.049 100.526 132.314 100.271 132.588 100.017C132.861 99.7625 133.139 99.5082 133.416 99.2579C133.559 99.1267 133.705 98.9996 133.848 98.8684C133.991 98.7373 134.133 98.6062 134.288 98.4869C134.514 98.3121 134.748 98.1412 134.978 97.9703C131.878 95.1926 129.052 91.3182 124.744 90.5949C121.6 90.6744 118.433 90.6506 115.389 89.7445C111.307 88.8544 108.08 86.0767 105.849 82.6195C100.3 72.4028 102.607 60.1833 112.381 53.5748C112.393 53.5669 112.401 53.5589 112.413 53.555C112.413 53.555 112.413 53.555 112.417 53.555C112.44 53.5391 112.464 53.5232 112.484 53.5073C116.234 50.9759 120.526 49.0804 125.088 48.8341C128.168 48.4883 131.434 49.0288 133.816 51.1508C137.534 54.0835 139.793 59.2534 140.665 63.8273C141.117 67.5945 140.535 71.453 139.445 75.0652C138.767 77.2151 138.046 79.3609 137.514 81.5545C137.931 85.7707 138.85 89.9909 140.784 93.7581C141.026 93.5793 141.272 93.4044 141.518 93.2296C141.668 93.1223 141.819 93.011 141.97 92.9037C142.045 92.8481 142.124 92.7925 142.199 92.7368C142.283 92.6772 142.366 92.6256 142.457 92.5779C142.616 92.4904 142.778 92.407 142.941 92.3235C143.099 92.2401 143.258 92.1606 143.408 92.0692C143.71 91.8904 144.011 91.7116 144.312 91.5328C144.459 91.4453 144.605 91.3619 144.752 91.2705C144.807 91.2387 144.863 91.2228 144.926 91.2427C144.974 91.2586 145.01 91.2983 145.041 91.3341C145.097 91.3937 145.148 91.4533 145.204 91.5169C145.454 91.7911 145.699 92.0692 145.945 92.3434C145.997 92.403 146.052 92.4626 146.104 92.5222C146.112 92.5183 146.123 92.5103 146.131 92.5063C146.222 92.4547 146.341 92.5063 146.373 92.6057C146.401 92.6772 146.393 92.7487 146.357 92.8084C146.464 92.9276 146.567 93.0468 146.674 93.162C146.706 93.1978 146.738 93.2336 146.773 93.2693C146.805 93.3051 146.841 93.3448 146.873 93.3846C146.932 93.464 146.987 93.5515 147.039 93.6349C147.134 93.7899 147.225 93.9449 147.316 94.0998C147.328 94.1197 147.34 94.1396 147.352 94.1594C147.491 94.1594 147.562 94.3224 147.523 94.4456C147.832 94.9622 148.145 95.4788 148.454 95.9993C148.545 96.1503 148.632 96.3013 148.724 96.4523C148.767 96.5239 148.811 96.5954 148.854 96.6709V96.663ZM148.418 96.7663C148.363 96.6709 148.303 96.5755 148.248 96.4802C148.157 96.3292 148.07 96.1742 147.978 96.0232C147.792 95.7092 147.61 95.3953 147.423 95.0814C147.348 94.9542 147.273 94.8271 147.198 94.6959C146.948 94.8588 146.718 95.0456 146.46 95.1966C146.056 95.4271 145.636 95.6298 145.243 95.8841C144.28 96.5199 143.377 97.2352 142.417 97.8789C139.599 99.9612 137.007 102.326 134.458 104.73C134.688 104.992 134.922 105.254 135.152 105.517C135.247 105.628 135.346 105.739 135.441 105.85C135.477 105.89 135.513 105.934 135.548 105.978C136.068 105.6 136.587 105.219 137.106 104.841C137.685 104.428 138.256 104.007 138.834 103.589C139.132 103.375 139.425 103.16 139.718 102.95C139.861 102.846 140.008 102.739 140.15 102.636C140.297 102.528 140.444 102.417 140.598 102.318C141.232 101.904 141.87 101.499 142.509 101.086C143.151 100.673 143.793 100.259 144.431 99.846C144.439 99.842 144.447 99.838 144.455 99.8301C144.427 99.7745 144.407 99.7149 144.415 99.6473C144.431 99.4566 144.661 99.3811 144.776 99.5519C144.784 99.5638 144.796 99.5797 144.804 99.5917C144.883 99.5321 144.958 99.4724 145.037 99.4128C145.192 99.2936 145.343 99.1704 145.497 99.0512C145.798 98.8168 146.1 98.5823 146.397 98.3439C146.984 97.8829 147.566 97.422 148.153 96.961C148.24 96.8934 148.327 96.8259 148.414 96.7583L148.418 96.7663ZM146.865 94.4376C146.908 94.4098 146.952 94.378 146.995 94.3502C146.888 94.1634 146.777 93.9806 146.666 93.7978C146.655 93.7819 146.647 93.766 146.635 93.7501C146.603 93.7064 146.571 93.6627 146.536 93.623C146.365 93.4283 146.191 93.2335 146.02 93.0349C145.921 93.0905 145.822 93.1461 145.727 93.2097C145.454 93.3925 145.196 93.5952 144.922 93.774C144.32 94.1396 143.702 94.4813 143.131 94.9065C141.989 95.6536 140.88 96.4007 139.782 97.2034C138.422 98.1213 137.11 99.1148 135.822 100.132C135.267 100.581 134.724 101.046 134.181 101.511C133.761 101.885 133.353 102.262 132.893 102.584C132.829 102.632 132.762 102.679 132.695 102.727C132.786 102.834 132.881 102.942 132.972 103.045C133.21 103.315 133.448 103.589 133.686 103.864C133.888 104.102 134.098 104.336 134.304 104.567C134.347 104.523 134.383 104.483 134.403 104.456C134.633 104.205 134.863 103.959 135.097 103.709C136.032 102.727 137.039 101.773 138.053 100.883C138.053 100.883 138.053 100.883 138.057 100.879C138.537 100.43 139.056 100.029 139.556 99.6036C140.055 99.1585 140.574 98.7333 141.121 98.3479C141.644 97.9465 142.152 97.5213 142.711 97.1676C143.452 96.6471 144.193 96.0907 144.946 95.594C145.565 95.1767 146.266 94.9025 146.857 94.4376H146.865ZM145.743 92.717C145.521 92.4666 145.299 92.2123 145.077 91.958C145.018 91.8904 144.958 91.8228 144.903 91.7553C144.879 91.7275 144.855 91.6997 144.831 91.6718C144.716 91.7394 144.605 91.8109 144.494 91.8785C144.344 91.9699 144.193 92.0613 144.042 92.1527C143.892 92.2441 143.737 92.3355 143.587 92.4269C143.432 92.5183 143.274 92.6017 143.111 92.6852C142.893 92.8004 142.675 92.9077 142.465 93.0349C142.314 93.1382 142.168 93.2494 142.017 93.3567C141.87 93.464 141.72 93.5713 141.573 93.6786C141.375 93.8256 141.173 93.9687 140.975 94.1157C141.113 94.378 141.26 94.6363 141.411 94.8946C141.141 94.7198 140.887 94.537 140.646 94.3581C140.055 94.7873 139.464 95.2205 138.874 95.6496C138.275 96.0828 137.681 96.5159 137.082 96.9491C136.472 97.3902 135.866 97.8313 135.255 98.2724C135.101 98.3836 134.95 98.4909 134.795 98.6022C134.641 98.7134 134.482 98.8247 134.332 98.9439C134.189 99.0592 134.05 99.1784 133.911 99.2936C133.757 99.4208 133.602 99.5519 133.448 99.6831C133.166 99.9175 132.881 100.152 132.592 100.382C132.302 100.613 132.013 100.839 131.731 101.078C131.688 101.114 131.64 101.153 131.597 101.189C131.549 101.229 131.506 101.269 131.458 101.304C131.458 101.304 131.45 101.308 131.446 101.312C131.513 101.388 131.581 101.463 131.648 101.539C131.87 101.785 132.088 102.032 132.31 102.278C132.393 102.373 132.477 102.469 132.56 102.564C132.635 102.493 132.71 102.425 132.786 102.353C133.19 101.992 133.571 101.61 133.955 101.229C135.624 99.6195 137.487 98.2247 139.401 96.9213C140.784 95.9238 142.219 94.982 143.626 94.0283C144.007 93.778 144.419 93.5872 144.804 93.3408C145.081 93.158 145.347 92.9554 145.628 92.7845C145.668 92.7607 145.703 92.7368 145.743 92.717ZM138.81 95.1847C139.31 94.8231 139.809 94.4615 140.309 94.0998C136.242 90.8771 135.774 86.9033 136.535 82.1983C136.424 78.5185 137.724 75.0494 138.581 71.5285C139.139 68.5323 139.433 65.3771 138.636 62.4007C137.114 57.0479 133.697 50.7256 127.522 50.2964C122.682 49.9745 117.922 51.5482 113.951 54.2742C104.355 60.2826 101.81 72.1763 107.466 81.8605C110.371 86.3787 114.688 88.1192 119.876 88.5166C121.981 88.7074 124.145 88.1868 126.218 88.6796C130.626 89.9353 133.17 94.0084 135.073 97.9068C135.116 97.875 135.16 97.8432 135.2 97.8114C135.798 97.3703 136.401 96.9332 137.003 96.4961C137.606 96.0589 138.204 95.6218 138.807 95.1847H138.81Z" fill="black"/>
<path d="M123.693 71.8862C124.446 69.7483 125.001 67.4037 124.668 65.1307C124.47 64.1809 124.09 63.2709 123.566 62.4563C123.134 61.8284 122.738 61.1728 122.266 60.5727C121.747 59.9051 120.907 59.9409 120.36 60.5528C120.047 60.9383 119.959 61.4946 119.928 61.9675C119.876 63.565 120.36 65.1108 121.002 66.5652C121.156 66.9149 121.323 67.2606 121.489 67.6024C121.497 67.6183 121.505 67.6342 121.513 67.6501C121.588 67.7812 121.664 67.9163 121.739 68.0514C122.429 69.3111 123.011 70.6265 123.693 71.8862ZM115.227 70.1814C114.91 70.4318 114.874 70.8768 114.834 71.2504C114.755 72.3551 115.27 73.3764 115.889 74.2546C116.666 75.4268 117.894 76.4998 119.377 76.3607C120.126 76.2931 120.859 76.0269 121.454 75.5659C120.863 74.7751 120.229 74.0241 119.611 73.2532C118.984 72.4385 118.303 71.6517 117.49 71.0199C117.07 70.7139 116.214 70.09 115.58 70.09C115.449 70.09 115.33 70.1178 115.223 70.1774L115.227 70.1814ZM136.638 96.6868C136.25 96.349 135.889 95.9874 135.552 95.6019C135.001 94.978 134.466 94.3502 133.971 93.6865C132.548 91.8745 131.212 89.9988 129.995 88.0437C128.247 85.262 126.495 82.4764 124.565 79.8139C123.634 78.4867 122.702 77.1594 121.703 75.8838C120.479 76.8336 118.651 77.0998 117.332 76.1898C116.186 75.4427 115.156 73.9724 114.696 72.6889C114.45 71.8941 114.383 70.9762 114.731 70.2013C115.405 68.9257 117.157 70.2132 117.918 70.8013C118.739 71.4848 119.42 72.3153 120.07 73.1618C120.645 73.8731 121.22 74.5764 121.767 75.3076C122.322 74.7473 122.663 74.036 123.031 73.3525C123.206 73.0187 123.376 72.6809 123.519 72.3352C122.928 71.2464 122.417 70.1258 121.87 69.0171C121.073 67.6024 120.376 66.1241 119.952 64.5545C119.638 63.2987 119.381 61.896 119.888 60.6601C120.277 59.762 121.474 59.321 122.25 60.0124C122.714 60.4217 123.011 60.978 123.364 61.4787C124.01 62.3887 124.561 63.3663 124.858 64.4512C125.16 65.3969 125.156 66.4023 125.092 67.3838C124.981 69.0846 124.537 70.7536 123.935 72.3432C124.894 74.2228 126.075 75.9752 127.149 77.7873C128.576 80.1795 130.059 82.54 131.676 84.8051C132.334 85.7985 133.059 86.7443 133.737 87.7218C134.086 88.2464 134.454 88.7511 134.835 89.2518C135.315 89.8796 135.735 90.5512 136.23 91.1632C136.682 91.6877 137.066 92.2599 137.467 92.8282C137.796 93.2653 138.2 93.6349 138.521 94.08C138.755 94.4217 138.977 94.7754 139.219 95.1132C139.306 95.2602 139.461 95.4072 139.421 95.59C139.397 95.6854 139.302 95.7609 139.203 95.7291C139.096 95.6894 139.076 95.5701 139.017 95.4867C138.803 95.1688 138.565 94.831 138.371 94.5171C138.053 94.0243 137.613 93.6309 137.257 93.17C136.892 92.6851 136.579 92.1646 136.187 91.7036C135.798 91.2387 135.449 90.7459 135.104 90.2452C134.641 89.5736 134.122 88.9418 133.666 88.2623C133.234 87.6026 132.754 86.9748 132.286 86.339C131.827 85.6594 131.359 84.9879 130.883 84.3203C129.488 82.2936 128.168 80.2113 126.904 78.1012C125.845 76.3289 124.692 74.6082 123.741 72.7763C123.245 73.7698 122.782 74.8149 122.009 75.6216C122.976 76.8654 123.891 78.1569 124.795 79.4444C126.42 81.6975 127.958 84.0103 129.433 86.3668C130.4 87.9325 131.375 89.5021 132.453 90.9923C133.499 92.4626 134.565 93.917 135.707 95.3118C136.016 95.6854 136.341 96.043 136.69 96.3808C136.872 96.5517 137.082 96.7225 137.13 96.9769C136.94 96.9371 136.777 96.8259 136.642 96.6908L136.638 96.6868Z" fill="black"/>
<path d="M110.514 50.376C107.597 48.5123 104.902 46.2353 102.5 43.7397C105.536 45.4405 108.104 47.8924 110.514 50.376Z" fill="black"/>
<path d="M117.672 46.2552C116.785 43.2231 116.051 40.0918 116.039 36.9207C117.169 39.8891 117.502 43.1079 117.672 46.2552Z" fill="black"/>
<path d="M130.701 46.4141C130.673 44.2285 131.109 42.0071 132.255 40.1235C132.116 42.2972 131.359 44.3596 130.701 46.4141Z" fill="black"/>
<path d="M100.51 60.5092C98.9879 60.4775 97.2875 60.2509 96.1657 59.1184C96.8554 59.3608 97.6006 59.4363 98.318 59.5674C99.6894 59.8059 101.049 60.0999 102.432 60.2629C101.806 60.4099 101.152 60.4973 100.506 60.5092H100.51Z" fill="black"/>
<path d="M91.5838 77.1874C94.18 76.3807 96.9109 75.8085 99.3644 74.5925C97.3231 76.6112 94.3861 77.2828 91.5838 77.1874Z" fill="black"/>
<path d="M98.7619 89.5737C100.316 87.8372 102.135 86.347 104.01 84.98C102.67 86.9033 100.906 88.5962 98.7619 89.5737Z" fill="black"/>
<path d="M103.946 97.9743C105.429 95.7649 106.923 93.4998 108.905 91.7036C108.826 91.8387 108.726 91.9818 108.639 92.1169C107.272 94.223 106.079 96.5318 103.946 97.9743Z" fill="black"/>
<path d="M112.551 104.956C112.31 102.127 112.734 99.2937 113.209 96.52C113.412 99.3414 113.36 102.234 112.551 104.956Z" fill="black"/>
<path d="M141.498 54.636C143.48 52.7445 145.525 50.9324 148.018 49.78C146.25 51.8663 143.912 53.4201 141.498 54.636Z" fill="black"/>
<path d="M145.858 65.7071C144.704 65.6237 144.7 65.6713 145.838 65.4647C148.617 64.9282 151.371 64.1494 154.221 64.2805C151.601 65.4488 148.712 65.8144 145.858 65.7071Z" fill="black"/>
<path d="M149.326 76.8575C147.106 76.5913 144.97 75.9952 142.798 75.4945C143.214 75.4746 143.646 75.4866 144.066 75.4945C145.422 75.5263 146.785 75.5859 148.109 75.8919C149.108 76.1264 150.099 76.4919 150.967 77.0324C150.424 76.9489 149.873 76.9132 149.326 76.8575Z" fill="black"/>
<path d="M124.668 65.1308C124.997 67.4038 124.446 69.7484 123.693 71.8902C123.011 70.6266 122.429 69.3112 121.739 68.0555C121.664 67.9204 121.589 67.7893 121.513 67.6541C121.505 67.6383 121.497 67.6224 121.489 67.6065C121.319 67.2687 121.156 66.923 121.002 66.5693C120.36 65.1149 119.876 63.5651 119.928 61.9676C119.959 61.4947 120.047 60.9384 120.36 60.5529C120.907 59.941 121.747 59.9052 122.266 60.5728C122.738 61.1728 123.134 61.8246 123.566 62.4564C124.09 63.271 124.466 64.181 124.668 65.1308Z" fill="#FCBA19"/>
<path d="M119.615 73.2573C120.229 74.0283 120.867 74.7793 121.458 75.5701C120.859 76.0311 120.126 76.2973 119.381 76.3649C117.898 76.5039 116.67 75.427 115.893 74.2587C115.274 73.3805 114.755 72.3592 114.838 71.2545C114.878 70.881 114.914 70.4359 115.231 70.1856C115.338 70.126 115.457 70.0981 115.588 70.0981C116.222 70.0981 117.082 70.7181 117.498 71.028C118.311 71.6599 118.992 72.4467 119.619 73.2613L119.615 73.2573Z" fill="#FCBA19"/>
<path d="M140.305 94.0998C139.908 94.386 139.512 94.6761 139.116 94.9622C138.91 94.6681 138.719 94.3661 138.517 94.0681C138.196 93.623 137.792 93.2534 137.463 92.8163C137.063 92.252 136.678 91.6798 136.226 91.1513C135.731 90.5353 135.307 89.8677 134.831 89.2399C134.451 88.7392 134.078 88.2345 133.733 87.7099C133.051 86.7324 132.33 85.7866 131.672 84.7932C130.051 82.5281 128.572 80.1676 127.146 77.7754C126.067 75.9633 124.89 74.2109 123.931 72.3313C124.533 70.7417 124.977 69.0727 125.088 67.3719C125.152 66.3904 125.156 65.385 124.855 64.4393C124.557 63.3584 124.006 62.3768 123.36 61.4668C123.007 60.9661 122.71 60.4098 122.246 60.0005C121.47 59.313 120.273 59.7501 119.884 60.6482C119.377 61.8841 119.634 63.2868 119.948 64.5426C120.376 66.1122 121.069 67.5905 121.866 69.0052C122.413 70.1139 122.928 71.2385 123.515 72.3233C123.372 72.673 123.202 73.0108 123.027 73.3406C122.655 74.0241 122.314 74.7354 121.763 75.2957C121.216 74.5645 120.637 73.8612 120.066 73.1499C119.416 72.3034 118.735 71.4769 117.914 70.7894C117.157 70.2013 115.401 68.9098 114.727 70.1894C114.379 70.9643 114.45 71.8822 114.692 72.677C115.152 73.9605 116.182 75.4308 117.328 76.1779C118.647 77.0879 120.471 76.8217 121.699 75.8719C122.698 77.1475 123.63 78.4788 124.561 79.802C126.492 82.4645 128.243 85.2462 129.991 88.0318C131.208 89.9869 132.548 91.8626 133.967 93.6746C134.462 94.3383 134.997 94.9661 135.548 95.59C135.889 95.9715 136.25 96.3371 136.634 96.6749C136.65 96.6908 136.662 96.7027 136.678 96.7186C136.183 97.0762 135.691 97.4379 135.196 97.7995C135.152 97.8313 135.108 97.8631 135.069 97.8948C133.166 93.9965 130.622 89.9234 126.214 88.6676C124.141 88.1749 121.977 88.6955 119.872 88.5047C114.684 88.1073 110.367 86.3668 107.462 81.8486C101.802 72.1644 104.351 60.2747 113.947 54.2623C117.918 51.5363 122.679 49.9587 127.518 50.2845C133.693 50.7137 137.106 57.036 138.632 62.3888C139.433 65.3652 139.136 68.5204 138.577 71.5166C137.721 75.0374 136.416 78.5066 136.531 82.1863C135.77 86.8953 136.238 90.8691 140.305 94.0919V94.0998Z" fill="#FCBA19"/>
<path d="M138.81 95.1808C138.208 95.618 137.61 96.0551 137.007 96.4922C136.971 96.52 136.932 96.5478 136.896 96.5756C136.829 96.5041 136.757 96.4405 136.686 96.3769C136.337 96.0392 136.012 95.6815 135.703 95.308C134.558 93.9132 133.491 92.4588 132.449 90.9884C131.367 89.4983 130.396 87.9286 129.429 86.3629C127.958 84.0064 126.416 81.6897 124.791 79.4405C123.883 78.149 122.972 76.8615 122.005 75.6177C122.778 74.811 123.245 73.7619 123.737 72.7725C124.688 74.6044 125.845 76.3251 126.9 78.0974C128.164 80.2114 129.484 82.2898 130.879 84.3164C131.355 84.984 131.823 85.6596 132.282 86.3351C132.75 86.9709 133.23 87.5948 133.662 88.2584C134.118 88.938 134.637 89.5698 135.101 90.2414C135.441 90.7381 135.794 91.2348 136.183 91.6998C136.579 92.1607 136.888 92.6813 137.253 93.1661C137.61 93.6271 138.049 94.0205 138.367 94.5132C138.505 94.7318 138.66 94.9623 138.814 95.1928L138.81 95.1808Z" fill="#FCBA19"/>
<path d="M145.081 91.9581C145.303 92.2125 145.525 92.4628 145.747 92.7171C145.707 92.741 145.672 92.7608 145.632 92.7847C145.347 92.9556 145.081 93.1582 144.807 93.341C144.423 93.5834 144.011 93.7781 143.63 94.0285C142.223 94.9822 140.788 95.924 139.405 96.9214C137.495 98.2248 135.628 99.6236 133.959 101.229C133.575 101.611 133.194 101.996 132.79 102.354C132.714 102.425 132.635 102.493 132.564 102.564C132.481 102.469 132.397 102.374 132.314 102.278C132.096 102.032 131.874 101.785 131.652 101.539C131.585 101.464 131.517 101.388 131.45 101.312C131.45 101.312 131.458 101.309 131.462 101.305C131.509 101.269 131.553 101.229 131.601 101.189C131.644 101.154 131.692 101.114 131.735 101.078C132.017 100.84 132.306 100.613 132.596 100.383C132.881 100.152 133.166 99.9217 133.452 99.6832C133.606 99.5561 133.761 99.4249 133.915 99.2938C134.054 99.1786 134.193 99.0593 134.336 98.9441C134.486 98.8249 134.645 98.7136 134.799 98.6024C134.954 98.4911 135.105 98.3838 135.259 98.2725C135.866 97.8354 136.472 97.3943 137.078 96.9532C137.094 96.9572 137.11 96.9612 137.13 96.9651C137.13 96.9492 137.122 96.9373 137.118 96.9214C137.705 96.4962 138.291 96.071 138.878 95.6458C138.933 95.6061 138.989 95.5624 139.044 95.5226C139.084 95.5942 139.116 95.6776 139.199 95.7054C139.298 95.7412 139.393 95.6657 139.417 95.5664C139.437 95.467 139.405 95.3796 139.354 95.2961C139.786 94.9822 140.218 94.6643 140.65 94.3504C140.891 94.5332 141.149 94.712 141.415 94.8868C141.264 94.6285 141.121 94.3702 140.979 94.108C141.177 93.9649 141.379 93.8179 141.577 93.6708C141.724 93.5635 141.87 93.4563 142.021 93.349C142.172 93.2417 142.318 93.1304 142.469 93.0271C142.679 92.8999 142.897 92.7887 143.115 92.6774C143.274 92.5939 143.436 92.5105 143.591 92.4191C143.745 92.3277 143.896 92.2363 144.046 92.1449C144.197 92.0535 144.348 91.9621 144.498 91.8707C144.609 91.8031 144.724 91.7316 144.835 91.6641C144.859 91.6919 144.883 91.7197 144.907 91.7475C144.966 91.8151 145.025 91.8826 145.081 91.9502V91.9581Z" fill="#77789E"/>
<path d="M146.995 94.3502C146.952 94.382 146.908 94.4099 146.865 94.4377C146.274 94.9026 145.572 95.1768 144.954 95.5941C144.201 96.0908 143.46 96.6471 142.719 97.1677C142.16 97.5214 141.652 97.9466 141.129 98.3479C140.582 98.7373 140.067 99.1586 139.564 99.6036C139.064 100.029 138.545 100.43 138.065 100.879C138.065 100.879 138.065 100.879 138.061 100.883C137.047 101.769 136.044 102.727 135.105 103.709C134.875 103.959 134.641 104.205 134.411 104.456C134.391 104.483 134.355 104.519 134.312 104.567C134.106 104.332 133.9 104.098 133.693 103.864C133.456 103.589 133.218 103.315 132.98 103.045C132.889 102.938 132.794 102.834 132.703 102.727C132.766 102.679 132.833 102.632 132.901 102.584C133.361 102.262 133.769 101.881 134.189 101.511C134.732 101.046 135.275 100.581 135.83 100.132C137.118 99.1149 138.43 98.1254 139.79 97.2035C140.887 96.4007 141.997 95.6537 143.139 94.9066C143.706 94.4814 144.324 94.1396 144.93 93.774C145.204 93.5912 145.461 93.3886 145.735 93.2098C145.83 93.1462 145.929 93.0905 146.028 93.0349C146.199 93.2296 146.373 93.4244 146.544 93.623C146.579 93.6668 146.611 93.7065 146.643 93.7502C146.655 93.7661 146.662 93.782 146.674 93.7979C146.785 93.9807 146.896 94.1674 147.003 94.3502H146.995Z" fill="#013366"/>
<path d="M148.252 96.4801C148.307 96.5755 148.367 96.6709 148.422 96.7663C148.335 96.8338 148.248 96.9014 148.161 96.9689C147.574 97.4299 146.991 97.8909 146.405 98.3518C146.104 98.5863 145.802 98.8207 145.505 99.0592C145.351 99.1784 145.2 99.3016 145.045 99.4208C144.97 99.4804 144.891 99.54 144.811 99.5996C144.804 99.5877 144.792 99.5718 144.784 99.5599C144.669 99.389 144.439 99.4645 144.423 99.6552C144.415 99.7228 144.435 99.7824 144.463 99.838C144.455 99.842 144.447 99.846 144.439 99.8539C143.797 100.267 143.155 100.68 142.517 101.094C141.878 101.503 141.24 101.908 140.606 102.326C140.451 102.425 140.309 102.536 140.158 102.644C140.011 102.747 139.869 102.854 139.726 102.957C139.433 103.172 139.136 103.387 138.842 103.597C138.268 104.015 137.693 104.436 137.114 104.849C136.591 105.223 136.076 105.604 135.556 105.986C135.521 105.946 135.485 105.902 135.449 105.858C135.354 105.747 135.255 105.636 135.16 105.525C134.93 105.262 134.7 105 134.466 104.738C137.015 102.334 139.607 99.9692 142.425 97.8869C143.385 97.2431 144.288 96.5278 145.251 95.892C145.644 95.6377 146.064 95.435 146.468 95.2046C146.726 95.0536 146.956 94.8668 147.206 94.7039C147.281 94.831 147.356 94.9582 147.431 95.0893C147.618 95.4032 147.8 95.7172 147.986 96.0311C148.077 96.1821 148.165 96.3371 148.256 96.4881L148.252 96.4801Z" fill="#D8EAFD"/>
<path d="M65.1185 130.099L65.6299 110.19L59.0344 110.75C55.8397 111.021 52.7837 111.49 49.6287 111.99C48.5624 112.157 47.52 112.288 46.4776 112.272C45.3202 112.253 44.4878 111.446 44.4521 110.385C44.4165 109.336 45.1656 108.473 46.2992 108.338C50.2153 107.651 54.0243 106.896 57.9919 106.526L65.7289 105.803L66.2561 95.8009C66.379 93.4643 66.6445 91.2708 67.0092 88.9938C67.4175 87.5433 68.0279 86.1207 69.2724 86.3035C69.7758 86.379 70.2039 86.7684 70.4853 87.285C70.6201 88.0281 70.7311 88.6997 70.7033 89.4826L70.1286 105.422C76.6329 104.766 83.0342 104.452 89.5266 104.702C90.7791 104.75 91.5719 105.743 91.5798 106.908C91.5917 108.263 90.5889 109.217 89.2214 109.145C86.1179 109.042 83.1095 108.855 79.9862 109.085L70.0097 109.817L69.542 129.602C69.5103 130.89 68.777 131.792 67.5443 131.951C66.6485 132.066 65.0789 131.418 65.1106 130.099H65.1185Z" fill="#013366"/>
<path d="M123.911 149.559L112.948 167.489L104.172 131.681L118.655 128.112L123.911 149.559Z" fill="#77789E"/>
<path d="M72.2769 191.983L71.4842 188.911L80.2438 174.403C80.549 173.859 81.2823 173.461 81.8927 173.894L102.912 188.86L134.383 137.351C132.516 138.07 130.808 138.885 129.02 139.708C128.398 139.994 127.673 139.759 127.459 139.258C127.149 138.535 127.463 137.911 128.109 137.621L137.031 133.608C137.36 133.461 137.939 133.489 138.176 133.64C138.434 133.802 138.711 134.339 138.688 134.697L138.014 144.619C137.966 145.311 137.439 145.787 136.833 145.764C136.103 145.736 135.707 145.124 135.755 144.377L136.123 138.829L104.307 190.914C103.839 191.685 103.082 191.753 102.397 191.26L81.639 176.473L72.2809 191.971L72.2769 191.983Z" fill="#013366"/>
<path d="M82.1266 171.065C81.0643 170.239 79.7365 170.497 79.0191 171.542L74.9999 178.111L70.2951 158.941L84.7782 155.373L89.9706 176.577L82.1266 171.069V171.065Z" fill="#FCBA19"/>
<path d="M102.091 185.279L95.9438 180.896L92.5153 166.889L106.994 163.328L109.432 173.259L102.091 185.279Z" fill="#1E5189"/>
</svg>
