<?xml version="1.0" encoding="UTF-8"?>
<svg xmlns="http://www.w3.org/2000/svg" viewBox="0 0 271 360" width="271" height="360">
  <path d="M 82 23 L 76 26 L 74 29 L 72 32 L 71 35 L 70 38 L 68 41 L 67 44 L 66 47 L 64 50 L 63 53 L 62 56 L 60 59 L 59 62 L 57 65 L 56 68 L 54 71 L 53 74 L 51 77 L 49 80 L 47 83 L 45 86 L 44 89 L 42 92 L 39 95 L 37 98 L 35 101 L 34 104 L 34 107 L 35 110 L 38 113 L 76 116 L 77 119 L 77 122 L 78 125 L 79 128 L 80 131 L 80 134 L 81 137 L 82 140 L 83 143 L 84 146 L 84 149 L 85 152 L 86 155 L 87 158 L 88 161 L 89 164 L 90 167 L 92 170 L 93 173 L 94 176 L 95 179 L 96 182 L 98 185 L 99 188 L 101 191 L 102 194 L 104 197 L 105 200 L 107 203 L 108 206 L 110 209 L 112 212 L 114 215 L 115 218 L 117 221 L 119 224 L 122 227 L 124 230 L 126 233 L 128 236 L 130 239 L 133 242 L 135 245 L 138 248 L 140 251 L 143 254 L 146 257 L 149 260 L 151 263 L 154 266 L 158 269 L 161 272 L 164 275 L 167 278 L 171 281 L 174 284 L 178 287 L 181 290 L 185 293 L 189 296 L 193 299 L 197 302 L 201 305 L 205 308 L 209 311 L 213 314 L 217 317 L 221 320 L 229 322 L 234 319 L 236 316 L 236 313 L 235 310 L 234 307 L 231 304 L 226 301 L 223 298 L 219 295 L 215 292 L 211 289 L 207 286 L 204 283 L 200 280 L 197 277 L 193 274 L 190 271 L 187 268 L 184 265 L 180 262 L 177 259 L 174 256 L 171 253 L 168 250 L 165 247 L 163 244 L 160 241 L 157 238 L 155 235 L 153 232 L 150 229 L 148 226 L 146 223 L 144 220 L 142 217 L 140 214 L 138 211 L 136 208 L 134 205 L 132 202 L 131 199 L 129 196 L 128 193 L 126 190 L 125 187 L 123 184 L 122 181 L 121 178 L 119 175 L 118 172 L 117 169 L 116 166 L 115 163 L 114 160 L 113 157 L 112 154 L 111 151 L 110 148 L 109 145 L 109 142 L 108 139 L 107 136 L 106 133 L 106 130 L 105 127 L 104 124 L 104 121 L 103 118 L 102 115 L 102 112 L 135 109 L 137 106 L 138 103 L 138 100 L 137 97 L 134 94 L 132 91 L 129 88 L 126 85 L 124 82 L 122 79 L 119 76 L 117 73 L 115 70 L 114 67 L 112 64 L 110 61 L 109 58 L 107 55 L 106 52 L 105 49 L 104 46 L 102 43 L 101 40 L 100 37 L 99 34 L 98 31 L 96 28 L 92 25 L 88 23 Z" fill="currentColor" stroke="none"/>
</svg>
