<svg xmlns="http://www.w3.org/2000/svg" width="184" height="167" viewBox="0 0 184 167" fill="none">
  <path d="M183.5 91.5449C183.5 142.104 132.552 167 82.0182 167C31.4841 167 0.5 142.104 0.5 91.5449C0.5 40.986 41.4659 0 92 0C142.534 0 183.5 40.986 183.5 91.5449Z" fill="#D8EAFD"/>
  <path d="M123.5 43.2239V51.22H35.8132C31.2263 51.22 27.5 47.6436 27.5 43.2239C27.5 41.0219 28.4336 39.015 29.9436 37.5704C31.4455 36.118 33.532 35.22 35.8214 35.22H115.187C119.774 35.22 123.5 38.8042 123.5 43.2161V43.2239Z" fill="#335C85"/>
  <path d="M111.451 91.7996V94.8634C111.451 102.353 117.594 108.432 125.144 108.432H149.5V122.6C149.5 127.196 145.741 130.9 141.114 130.9H35.8862C31.2591 130.9 27.5001 127.188 27.5001 122.6V42.8999C27.5001 47.4956 31.2591 51.1998 35.8862 51.1998H141.114C145.741 51.1998 149.5 54.9201 149.5 59.4997V78.2393H125.144C117.585 78.2393 111.451 84.3021 111.451 91.7914V91.7996Z" fill="#8099B3"/>
  <path d="M150.5 77.8999C153.262 77.8999 155.5 80.1384 155.5 82.8999V103.9C155.5 106.661 153.262 108.9 150.5 108.9H124.893C117.5 108.9 111.5 102.657 111.5 94.9648V91.8182C111.5 84.1265 117.508 77.8999 124.893 77.8999H150.5Z" fill="#335C85"/>
  <path d="M126 99.8999C122.417 99.8999 119.5 96.9848 119.5 93.3958C119.5 89.8068 122.417 86.8999 126 86.8999C129.583 86.8999 132.5 89.8149 132.5 93.3958C132.5 96.9767 129.583 99.8999 126 99.8999Z" fill="#003366"/>
  <path d="M74.0001 28.8999C73.1751 28.8999 72.5001 28.1806 72.5001 27.3016V15.4982C72.5001 14.6191 73.1751 13.8999 74.0001 13.8999C74.8251 13.8999 75.5001 14.6191 75.5001 15.4982V27.3016C75.5001 28.1806 74.8251 28.8999 74.0001 28.8999Z" fill="#003366"/>
  <path d="M83.9852 27.8999C83.6056 27.8999 83.2259 27.7345 82.9356 27.4121C82.355 26.7672 82.355 25.7171 82.9356 25.0722L88.9579 18.3835C89.5386 17.7386 90.484 17.7386 91.0646 18.3835C91.6453 19.0284 91.6453 20.0785 91.0646 20.7233L85.0423 27.4121C84.752 27.7345 84.3723 27.8999 83.9927 27.8999H83.9852Z" fill="#003366"/>
  <path d="M64.0076 27.8999C63.6279 27.8999 63.2483 27.7345 62.9579 27.4121L56.9356 20.7233C56.355 20.0785 56.355 19.0284 56.9356 18.3835C57.5163 17.7386 58.4617 17.7386 59.0423 18.3835L65.0646 25.0722C65.6453 25.7171 65.6453 26.7672 65.0646 27.4121C64.7743 27.7345 64.3947 27.8999 64.015 27.8999H64.0076Z" fill="#003366"/>
</svg>
