<svg width="16" height="16" viewBox="0 0 16 16" fill="none" xmlns="http://www.w3.org/2000/svg">
<g clip-path="url(#clip0_3870_1743)">
<path d="M14.8 1.60005H12.8V1.20005C12.8 0.979249 12.6208 0.800049 12.4 0.800049C12.1792 0.800049 12 0.979249 12 1.20005V1.60005H4V1.20005C4 0.979249 3.8208 0.800049 3.6 0.800049C3.3792 0.800049 3.2 0.979249 3.2 1.20005V1.60005H1.2C0.5384 1.60005 0 2.13845 0 2.80005V14C0 14.6616 0.5384 15.2 1.2 15.2H14.8C15.4616 15.2 16 14.6616 16 14V2.80005C16 2.13845 15.4616 1.60005 14.8 1.60005ZM1.2 2.40005H3.2V3.60005C3.2 3.82085 3.3792 4.00005 3.6 4.00005C3.8208 4.00005 4 3.82085 4 3.60005V2.40005H12V3.60005C12 3.82085 12.1792 4.00005 12.4 4.00005C12.6208 4.00005 12.8 3.82085 12.8 3.60005V2.40005H14.8C15.0208 2.40005 15.2 2.57925 15.2 2.80005V4.80005H0.8V2.80005C0.8 2.57925 0.9792 2.40005 1.2 2.40005ZM14.8 14.4H1.2C0.9792 14.4 0.8 14.2208 0.8 14V5.60005H15.2V14C15.2 14.2208 15.0208 14.4 14.8 14.4Z" fill="#223654"/>
</g>
<defs>
<clipPath id="clip0_3870_1743">
<rect width="16" height="16" fill="white"/>
</clipPath>
</defs>
</svg>
