<svg width="104" height="50" viewBox="0 0 104 50" fill="none" xmlns="http://www.w3.org/2000/svg">
<rect width="104" height="50" fill="#1E1E1E"/>
<g id="Walk">
<rect width="12459" height="7637" transform="translate(-2750 -347)" fill="#444444"/>
<g id="Aditional photo ID" clip-path="url(#clip0_1179_6848)">
<rect width="375" height="847" transform="translate(-135 -143)" fill="#013366"/>
<g id="Frame 10364">
<rect x="-11" y="-14" width="125.25" height="77.0726" rx="4" fill="white"/>
<path id="Subtract" d="M19.4997 25.6282C24.4256 25.6281 27.0638 21.9181 29.029 22.7776C33.094 25.3049 40.9278 34.8498 38.4782 49.0725H0.466472C-1.90237 34.9036 5.28567 25.4123 9.99675 22.9388C11.5581 21.7298 13.5507 25.6013 19.4997 25.6282ZM75.4948 47.3792H47.7389V39.179H75.4948V47.3792ZM103.25 35.8714H47.7389V27.6712H103.25V35.8714ZM103.25 23.8802H47.7389V15.68H103.25V23.8802ZM19.2575 0.00516181C25.6106 -0.182899 30.8868 4.79094 31.1022 11.136C31.2907 17.4812 26.31 22.751 19.9567 22.9661C13.6037 23.1541 8.32739 18.1802 8.11198 11.8352V11.6468C7.97747 5.35541 12.9581 0.166479 19.2575 0.00516181ZM103.25 11.889H47.7389V3.68876H103.25V11.889Z" fill="#013366"/>
</g>
</g>
</g>
<defs>
<clipPath id="clip0_1179_6848">
<rect width="375" height="847" fill="white" transform="translate(-135 -143)"/>
</clipPath>
</defs>
</svg>
