<svg width="25" height="24" viewBox="0 0 25 24" fill="none" xmlns="http://www.w3.org/2000/svg">
<path fill-rule="evenodd" clip-rule="evenodd" d="M14.1642 23.8859C14.2157 23.879 14.2645 23.8654 14.3099 23.8468L14.3091 23.8471C14.5421 23.7513 14.6962 23.5141 14.6794 23.2524C14.6115 22.2231 15.2073 21.2685 16.1605 20.8765C17.1136 20.4845 18.2091 20.7448 18.8846 21.5229C19.0899 21.7602 19.4443 21.7987 19.6964 21.6106C20.5874 20.9445 21.3814 20.1562 22.0581 19.2656C22.2541 19.0072 22.2095 18.6403 21.9582 18.4362C21.6486 18.1847 21.4043 17.8558 21.2519 17.4852C20.7486 16.2614 21.3345 14.8568 22.5584 14.3534C22.9301 14.2006 23.3345 14.1432 23.7311 14.1863C24.0529 14.2213 24.345 13.9948 24.3907 13.6738C24.548 12.5674 24.5492 11.4474 24.3957 10.3456C24.3519 10.0341 24.0757 9.81041 23.7622 9.83038C22.7329 9.89828 21.7782 9.30241 21.3862 8.3493C20.9942 7.39619 21.2545 6.30064 22.0327 5.62516C22.27 5.41989 22.3084 5.0655 22.1204 4.81333C21.4543 3.92236 20.6659 3.12838 19.7753 2.45169C19.517 2.25568 19.15 2.30023 18.9459 2.55151C18.6945 2.86118 18.3656 3.10543 17.995 3.25785C16.7711 3.76119 15.3665 3.17525 14.8632 1.9514C14.7103 1.5797 14.6529 1.17522 14.6961 0.778667C14.7311 0.456835 14.5046 0.164715 14.1835 0.119032C13.0772 -0.038241 11.9572 -0.039425 10.8554 0.114057C10.545 0.157389 10.3202 0.434051 10.3401 0.747553C10.408 1.77688 9.81218 2.73154 8.85907 3.12353C7.90596 3.51552 6.8104 3.25521 6.13492 2.47707C5.92966 2.23978 5.57526 2.20132 5.3231 2.38935C4.43213 3.05545 3.63815 3.84382 2.96145 4.73442C2.76544 4.99276 2.80999 5.35972 3.06128 5.56382C3.37095 5.81525 3.6152 6.14418 3.76761 6.51477C4.27095 7.73862 3.68501 9.14322 2.46117 9.64656C2.08947 9.79944 1.68387 9.85728 1.28843 9.81365C0.9666 9.77867 0.674481 10.0052 0.628798 10.3262C0.471525 11.4326 0.470341 12.5526 0.623823 13.6544C0.667612 13.9659 0.943817 14.1896 1.25732 14.1696C2.28665 14.1017 3.2413 14.6976 3.6333 15.6507C4.02529 16.6038 3.76498 17.6994 2.98684 18.3748C2.74954 18.5801 2.71109 18.9345 2.89912 19.1867C3.56522 20.0776 4.35358 20.8716 5.24419 21.5483C5.50252 21.7443 5.86948 21.6998 6.07358 21.4485C6.32501 21.1388 6.65395 20.8946 7.02454 20.7421C8.24838 20.2388 9.65299 20.8247 10.1563 22.0486C10.3092 22.4203 10.3666 22.8248 10.3234 23.2213C10.2884 23.5432 10.515 23.8353 10.836 23.881C11.9424 24.0382 13.0624 24.0394 14.1642 23.8859ZM19.3826 20.3335C18.3689 19.4869 16.9562 19.2533 15.7057 19.7676C14.4541 20.2823 13.6145 21.4423 13.4909 22.7566C12.8398 22.8169 12.1841 22.8154 11.5316 22.7556C11.5081 22.3579 11.4188 21.964 11.2663 21.5934C10.5116 19.7582 8.40387 18.8789 6.56866 19.6337C6.19807 19.7861 5.85525 19.9998 5.55613 20.2629C5.05454 19.8413 4.59174 19.3752 4.17692 18.8713C5.02353 17.8576 5.2576 16.4459 4.74285 15.1944C4.22811 13.9428 3.06812 13.1032 1.75377 12.9795C1.69355 12.3284 1.69499 11.6727 1.75484 11.0203C2.15253 10.9968 2.54646 10.9074 2.91705 10.755C4.75226 10.0002 5.6315 7.89254 4.87672 6.05733C4.7243 5.68673 4.51066 5.34391 4.24754 5.0448C4.66911 4.54321 5.13517 4.08041 5.63913 3.66558C6.6528 4.51219 8.06448 4.74627 9.31606 4.23152C10.5676 3.71677 11.4073 2.55679 11.5309 1.24244C12.182 1.18221 12.8377 1.18366 13.4902 1.24351C13.5136 1.6412 13.603 2.03513 13.7554 2.40572C14.5102 4.24093 16.6179 5.12016 18.4531 4.36538C18.8237 4.21297 19.1665 3.99933 19.4656 3.73621C19.9672 4.15778 20.4289 4.6243 20.8448 5.1278C19.9982 6.14147 19.7641 7.55314 20.2789 8.80473C20.7936 10.0563 21.9536 10.8959 23.268 11.0196C23.3282 11.6706 23.3268 12.3263 23.2669 12.9788C22.8692 13.0023 22.4753 13.0917 22.1047 13.2441C20.2695 13.9988 19.3902 16.1065 20.145 17.9418C20.2974 18.3123 20.5111 18.6552 20.7742 18.9543C20.3526 19.4559 19.8861 19.9176 19.3826 20.3335ZM17.5407 9.53152C17.8335 9.23869 17.8335 8.76392 17.5407 8.47109C17.2478 8.17826 16.7731 8.17826 16.4802 8.47109L11.0118 13.9396L8.54265 11.4704C8.24982 11.1776 7.77505 11.1776 7.48222 11.4704C7.18939 11.7633 7.18939 12.238 7.48222 12.5309L10.2165 15.2651C10.6557 15.7043 11.3678 15.7043 11.8071 15.2651L17.5407 9.53152Z" fill="#223654"/>
</svg>
