<svg width="16" height="16" viewBox="0 0 16 16" fill="none" xmlns="http://www.w3.org/2000/svg">
<path d="M13.658 2.34286C12.1472 0.832044 10.1378 0 8.00042 0C5.86305 0 3.85452 0.832044 2.34286 2.34286C0.832044 3.85368 0 5.86304 0 7.99958C0 10.1361 0.832044 12.1455 2.34286 13.6571C3.85368 15.1688 5.86305 16 8.00042 16C10.1378 16 12.1463 15.168 13.658 13.6571C15.1696 12.1463 16.0008 10.137 16.0008 7.99958C16.0008 5.8622 15.1688 3.85368 13.658 2.34286ZM8.00042 15.1587C4.05327 15.1587 0.84215 11.9476 0.84215 8.00042C0.84215 4.05327 4.05327 0.84215 8.00042 0.84215C11.9476 0.84215 15.1587 4.05327 15.1587 8.00042C15.1587 11.9476 11.9476 15.1587 8.00042 15.1587Z" fill="#223654"/>
<path d="M12.7413 5.26352C12.625 5.06225 12.3673 4.99319 12.1661 5.10941L8.0227 7.50196L4.79306 5.24079C4.60273 5.10773 4.33998 5.15405 4.20692 5.34437C4.07386 5.5347 4.12018 5.79745 4.3105 5.93051L7.75995 8.34579C7.76079 8.34663 7.76163 8.34663 7.76247 8.34748C7.76921 8.35253 7.77679 8.35674 7.78437 8.36095C7.78605 8.36179 7.78858 8.36348 7.79027 8.36432C7.79784 8.36853 7.80542 8.37274 7.813 8.37611C7.81469 8.37695 7.81637 8.37779 7.81806 8.37864C7.82648 8.38285 7.8349 8.38621 7.84416 8.39043C7.84922 8.39211 7.85427 8.39464 7.86016 8.39632C7.86437 8.39801 7.86774 8.39885 7.87195 8.40053C7.87785 8.40222 7.8829 8.4039 7.8888 8.40558C7.89217 8.40643 7.89638 8.40727 7.89975 8.40811C7.90564 8.4098 7.91153 8.41064 7.91659 8.41232C7.9208 8.41316 7.92417 8.41401 7.92838 8.41485C7.93343 8.41569 7.93933 8.41653 7.94438 8.41737C7.94943 8.41822 7.95448 8.41822 7.95954 8.41906C7.96375 8.4199 7.9688 8.4199 7.97301 8.42074C7.98312 8.42158 7.99238 8.42159 8.00249 8.42159C8.01849 8.42159 8.03449 8.42074 8.05049 8.41906H8.05133C8.06649 8.41737 8.08249 8.41401 8.09765 8.41064C8.09849 8.41064 8.10018 8.4098 8.10102 8.4098C8.11534 8.40643 8.12965 8.40222 8.14397 8.39632C8.14649 8.39548 8.14818 8.39464 8.14986 8.39379C8.16334 8.38874 8.17681 8.38285 8.18944 8.37611C8.19197 8.37442 8.1945 8.37358 8.19702 8.3719C8.20208 8.36937 8.20629 8.36685 8.21134 8.36432L12.5871 5.83787C12.7884 5.72165 12.8575 5.46396 12.7413 5.26268V5.26352Z" fill="#223654"/>
</svg>
