<svg width="223" height="215" viewBox="0 0 223 215" fill="none" xmlns="http://www.w3.org/2000/svg">
<path d="M104.83 213.839C201.888 228.579 277.308 98.9558 172.02 53.8428C139.971 40.2669 135.667 -12.6243 93.7959 2.78814C-34.4724 41.3038 -31.5522 195.09 104.83 213.839Z" fill="#D8EAFD"/>
<path d="M161.762 18.8217L54.2193 30.3956C45.769 31.305 39.6555 38.8955 40.5646 47.3495L51.9882 153.587C52.8973 162.041 60.4846 168.157 68.9349 167.247L176.477 155.674C184.928 154.764 191.041 147.174 190.132 138.72L178.709 32.4822C177.799 24.0283 170.212 17.9123 161.762 18.8217Z" fill="#1E5189"/>
<path d="M159.802 32.6469H51.6394C43.1403 32.6469 36.2504 39.5397 36.2504 48.0424V154.893C36.2504 163.396 43.1403 170.288 51.6394 170.288H159.802C168.302 170.288 175.191 163.396 175.191 154.893V48.0424C175.191 39.5397 168.302 32.6469 159.802 32.6469Z" fill="#8099B3"/>
<path d="M159.805 171.139H51.6394C42.6867 171.139 35.4032 163.852 35.4032 154.896V48.0424C35.4032 39.0859 42.6867 31.8021 51.6394 31.8021H159.805C168.758 31.8021 176.041 39.0887 176.041 48.0424V154.896C176.041 163.852 168.758 171.139 159.805 171.139ZM51.6394 33.4945C43.6215 33.4945 37.0977 40.0211 37.0977 48.0396V154.893C37.0977 162.914 43.6215 169.441 51.6394 169.441H159.805C167.823 169.441 174.347 162.914 174.347 154.893V48.0396C174.347 40.0183 167.823 33.4945 159.805 33.4945H51.6394Z" fill="#013366"/>
<path d="M45.316 63.065C42.3196 62.7288 34.6181 63.1102 33.5759 65.4553L36.0245 65.4157L36.0019 71.2699C32.6976 70.6766 29.1533 68.8005 28.8822 65.8169C28.7523 64.4014 29.4527 62.822 30.4863 61.6975C33.2625 58.6744 37.4874 57.6459 41.5994 57.7335C45.477 57.8183 49.2162 58.1404 52.6702 59.7367C54.537 60.5984 55.7852 62.7429 54.4833 64.5992C53.0797 66.6024 48.0131 63.3673 45.316 63.0622V63.065Z" fill="#013366"/>
<path d="M50.4786 66.7069C51.4953 67.1109 53.2068 67.3878 54.1839 66.9697C56.4828 65.9865 57.5758 62.9972 56.3698 60.8866C55.2317 58.8919 53.1672 58.0584 50.9672 57.1458C54.0173 55.7755 57.0703 57.273 58.649 59.587C60.3097 62.0253 60.4876 65.7435 58.1407 67.8201C55.0341 70.5692 50.0635 70.2189 47.0529 67.4641C46.4372 66.9019 46.1068 65.7209 45.8442 64.8676L50.4786 66.7126V66.7069Z" fill="#013366"/>
<path d="M45.5617 94.3052C42.5653 93.969 34.8638 94.3504 33.8216 96.6955L36.2702 96.656L36.2476 102.51C32.9433 101.917 29.399 100.041 29.1279 97.0572C28.998 95.6416 29.6984 94.0623 30.732 92.9378C33.5082 89.9146 37.7331 88.8862 41.8451 88.9737C45.7227 89.0585 49.4619 89.3806 52.9159 90.9769C54.7827 91.8387 56.0309 93.9831 54.729 95.8394C53.3254 97.8426 48.2588 94.6076 45.5617 94.3024V94.3052Z" fill="#013366"/>
<path d="M50.7271 97.9472C51.7438 98.3512 53.4553 98.6281 54.4325 98.2099C56.7313 97.2267 57.8243 94.2374 56.6184 92.1269C55.4802 90.1321 53.4158 89.2987 51.2157 88.3861C54.2658 87.0157 57.3189 88.5132 58.8976 90.8272C60.5582 93.2655 60.7361 96.9837 58.3892 99.0604C55.2826 101.809 50.312 101.459 47.3014 98.7044C46.6858 98.1421 46.3553 96.9611 46.0927 96.1078L50.7271 97.9528V97.9472Z" fill="#013366"/>
<path d="M45.5617 122.83C42.5653 122.494 34.8638 122.876 33.8216 125.221L36.2702 125.181L36.2476 131.035C32.9433 130.442 29.399 128.566 29.1279 125.582C28.998 124.167 29.6984 122.587 30.732 121.463C33.5082 118.44 37.7331 117.411 41.8451 117.499C45.7227 117.584 49.4619 117.906 52.9159 119.502C54.7827 120.364 56.0309 122.508 54.729 124.365C53.3254 126.368 48.2588 123.133 45.5617 122.828V122.83Z" fill="#013366"/>
<path d="M50.7271 126.472C51.7438 126.876 53.4553 127.153 54.4325 126.735C56.7313 125.752 57.8243 122.763 56.6184 120.652C55.4802 118.657 53.4158 117.824 51.2157 116.911C54.2658 115.541 57.3189 117.038 58.8976 119.352C60.5582 121.791 60.7361 125.509 58.3892 127.585C55.2826 130.335 50.312 129.984 47.3014 127.229C46.6858 126.667 46.3553 125.486 46.0927 124.633L50.7271 126.478V126.472Z" fill="#013366"/>
<path d="M122.896 134.624C119.934 134.437 117.121 133.459 114.353 132.456C113.06 132.027 111.794 131.518 110.571 130.914C103.954 127.419 99.1618 121.491 94.5104 115.79C91.9206 112.642 89.5088 109.353 87.3963 105.861C86.5378 104.629 85.634 103.428 84.6399 102.301C83.2758 100.015 81.8214 97.7212 80.9883 95.1727C79.8388 92.3162 78.9464 89.3326 78.743 86.2473C78.6131 84.5747 78.8984 82.9133 78.9972 81.2492C79.1497 79.2658 79.3728 77.2823 79.9122 75.3639C81.0221 71.9537 83.177 68.7129 86.3118 66.8764C87.6448 66.1192 89.0965 65.6078 90.5452 65.119C89.9522 65.5655 89.3958 66.0627 88.8649 66.5854C85.6368 69.6199 82.8437 73.2336 81.2904 77.4151C79.8106 82.1505 79.74 87.3605 81.4486 92.045C82.502 95.3931 84.1146 98.4445 86.0774 101.332C87.2861 103.493 88.6926 105.533 90.1612 107.525C93.5784 112.269 97.3092 116.784 101.3 121.056C104.624 124.766 108.456 128.213 113.113 130.111C119.552 132.564 125.61 134.584 131.662 129.984C133.368 128.911 134.834 127.456 135.808 125.681C136.421 124.133 136.353 124.155 135.328 122.938C134.038 121.324 132.682 119.759 131.439 118.106C129.697 115.753 127.5 113.778 125.667 111.489C124.786 110.554 123.964 109.571 123.235 108.509C121.817 106.454 120.408 105.409 118.697 107.87C117.166 109.808 115.565 111.693 114.107 113.687C112.599 115.662 112.444 117.524 109.38 116.179C107.544 115.281 105.931 113.953 104.367 112.651C102.729 111.314 101.537 109.56 100.26 107.895C97.6763 104.677 95.2588 101.307 93.4683 97.5743C92.6125 95.7208 91.4264 93.9041 91.3078 91.8161C91.2626 89.8581 92.5278 89.9288 94.0359 89.6406C96.0185 89.1772 98.0152 88.8043 100.026 88.5019C101.469 88.0923 104.13 87.8154 104.604 86.1456C104.841 83.8994 102.921 80.6643 101.989 78.5961C100.441 75.4571 98.275 72.6883 96.6313 69.6029C95.4198 67.6647 94.1715 63.8335 91.3078 64.4862C90.9717 64.554 90.6413 64.6726 90.3306 64.8083C90.7599 64.3986 91.2711 64.1047 91.8359 63.9324C94.389 63.1752 96.0834 66.3679 97.5153 67.9727C98.5207 69.2413 99.5148 70.524 100.433 71.8576C101.989 74.2055 103.359 76.6579 104.511 79.2319C105.019 80.2207 105.383 81.269 105.731 82.3228C106.073 83.3682 106.474 84.4503 106.423 85.5664C106.491 88.6178 103.418 89.0246 101.226 89.9344C98.7269 91.0815 95.9168 90.7849 93.3101 91.5138C93.1491 93.3531 94.4539 95.2151 95.2588 96.8058C96.6907 99.5238 98.3682 102.12 100.342 104.48C102.63 107.22 104.706 110.209 107.631 112.326C108.617 113.088 109.611 113.95 110.871 114.185C111.995 112.049 113.483 110.142 114.904 108.186C116.564 105.952 118.951 102.425 122.117 104.22C124.068 105.612 125.548 107.327 127.274 108.949C129.674 111.348 132.066 113.809 133.956 116.64C135.139 118.606 137.59 121.401 137.523 123.726C137.35 125.212 136.664 126.532 136.057 127.874C135.659 128.939 135.06 129.942 134.193 130.691C132.642 132.086 130.753 133.058 128.855 133.892C126.974 134.638 124.893 134.768 122.893 134.621L122.896 134.624Z" fill="black"/>
<path d="M101.961 86.1456C101.181 84.3599 100.227 82.676 99.1562 81.0514C97.9869 79.2545 96.9589 77.3728 95.9592 75.4797C94.6149 73.1177 93.7535 70.5184 92.3866 68.1676C91.9347 67.2777 91.3247 66.495 90.8277 65.6389C90.7458 65.4185 90.4069 65.0767 90.5311 64.8648C90.5424 64.8535 90.5622 64.8506 90.5678 64.8393C90.4944 64.9072 90.5452 64.9665 90.6017 65.0286C91.4603 65.8593 92.364 66.6448 93.0701 67.6195C95.0216 70.0211 96.3433 72.8295 97.6255 75.6267C99.1505 79.1019 101.048 82.4415 101.963 86.1456H101.961Z" fill="black"/>
<path d="M134.664 128.286C132.001 125.014 128.468 122.593 125.734 119.381C124.831 118.417 123.919 117.462 123.057 116.462C121.08 114.046 118.903 110.786 116.906 108.89C119.823 110.715 122.523 112.913 125.057 115.241C127.519 117.767 129.784 120.485 131.713 123.441C132.702 125.051 133.845 126.585 134.664 128.286Z" fill="black"/>
<path d="M135.334 122.941C136.359 124.161 136.427 124.136 135.814 125.684C135.797 125.715 135.777 125.749 135.76 125.78C135.746 125.803 135.735 125.825 135.721 125.848C135.707 125.871 135.695 125.893 135.681 125.916C135.619 126.02 135.557 126.125 135.492 126.227C135.481 126.246 135.469 126.263 135.458 126.283C135.438 126.317 135.416 126.348 135.393 126.382C135.385 126.393 135.376 126.407 135.368 126.419C135.181 126.701 134.984 126.972 134.775 127.235C134.758 127.255 134.744 127.275 134.727 127.295C134.71 127.314 134.693 127.334 134.679 127.354C134.628 127.416 134.577 127.478 134.523 127.537C134.495 127.571 134.467 127.602 134.439 127.636C134.419 127.659 134.396 127.684 134.376 127.707C134.354 127.662 134.328 127.617 134.306 127.574C134.292 127.546 134.275 127.518 134.261 127.489C134.247 127.467 134.235 127.441 134.221 127.419C134.077 127.162 133.93 126.905 133.775 126.653C133.761 126.631 133.749 126.611 133.735 126.588C133.487 126.181 133.227 125.777 132.967 125.379C132.947 125.351 132.928 125.32 132.911 125.291C132.826 125.159 132.738 125.029 132.651 124.896C132.625 124.859 132.603 124.822 132.577 124.786C132.529 124.712 132.481 124.636 132.431 124.562C132.4 124.511 132.366 124.463 132.335 124.413C132.287 124.339 132.239 124.263 132.191 124.189C132.159 124.139 132.126 124.091 132.094 124.04C132.052 123.972 132.01 123.907 131.967 123.839C131.939 123.794 131.911 123.751 131.883 123.706C131.826 123.619 131.773 123.528 131.716 123.441C129.787 120.485 127.522 117.767 125.059 115.241C124.986 115.174 124.913 115.106 124.839 115.041C124.766 114.973 124.692 114.905 124.619 114.84C124.568 114.795 124.517 114.75 124.466 114.702C124.424 114.665 124.384 114.628 124.342 114.592C124.286 114.541 124.229 114.49 124.173 114.442C124.108 114.385 124.043 114.326 123.981 114.269C123.967 114.258 123.955 114.247 123.941 114.236C123.873 114.176 123.806 114.117 123.738 114.058C123.656 113.987 123.577 113.916 123.495 113.846C123.436 113.792 123.373 113.741 123.314 113.69C123.15 113.549 122.984 113.408 122.82 113.266C122.758 113.216 122.696 113.162 122.636 113.111C122.535 113.026 122.433 112.939 122.328 112.854C122.272 112.806 122.213 112.758 122.156 112.71C122.139 112.696 122.125 112.684 122.108 112.67C122.052 112.622 121.992 112.577 121.936 112.529C121.911 112.509 121.885 112.487 121.86 112.467C121.795 112.416 121.733 112.362 121.668 112.311C121.614 112.269 121.563 112.227 121.509 112.184C121.323 112.035 121.134 111.885 120.945 111.738C120.877 111.687 120.812 111.633 120.744 111.583C120.733 111.574 120.722 111.566 120.71 111.554C120.637 111.498 120.563 111.441 120.49 111.385C120.405 111.32 120.318 111.255 120.233 111.19C120.171 111.145 120.109 111.097 120.047 111.051C119.951 110.978 119.852 110.907 119.756 110.834C119.688 110.783 119.617 110.732 119.55 110.684C119.518 110.661 119.485 110.636 119.453 110.613C119.4 110.574 119.343 110.534 119.287 110.495C119.211 110.441 119.137 110.387 119.061 110.334C119.05 110.325 119.036 110.317 119.024 110.308C118.959 110.26 118.891 110.215 118.827 110.17C118.812 110.159 118.795 110.147 118.781 110.139C118.705 110.085 118.632 110.034 118.555 109.983C118.482 109.933 118.406 109.882 118.332 109.831C118.132 109.695 117.928 109.56 117.728 109.427C117.674 109.39 117.618 109.356 117.564 109.319C117.948 108.845 118.329 108.37 118.708 107.893C120.419 105.432 121.829 106.477 123.246 108.531C123.972 109.593 124.794 110.574 125.678 111.512C127.511 113.798 129.708 115.773 131.451 118.129C132.693 119.782 134.049 121.344 135.339 122.96L135.334 122.941Z" fill="#FCC53F"/>
<path d="M90.6526 65.1812C90.4492 65.0739 90.4746 64.8111 90.6384 64.6811C90.6384 64.7263 90.6328 64.7744 90.63 64.8196C90.63 64.9439 90.5848 65.0739 90.6526 65.1812Z" fill="black"/>
<path d="M132.95 126.388C132.905 126.441 132.865 126.495 132.823 126.551C132.64 126.792 132.431 127.003 132.222 127.221C132.063 127.385 131.902 127.546 131.744 127.71C131.518 127.944 131.301 128.187 131.072 128.419C130.945 128.546 130.812 128.668 130.674 128.778C130.394 128.993 130.098 129.182 129.793 129.363C129.793 129.363 129.784 129.365 129.779 129.371C129.493 129.538 129.203 129.693 128.898 129.823C128.578 129.953 128.254 130.061 127.923 130.151C127.663 130.219 127.375 130.284 127.082 130.323C126.861 130.349 126.641 130.357 126.421 130.357C125.833 130.354 125.218 130.312 124.608 130.227C124.212 130.171 123.791 130.097 123.371 130.01C122.95 129.925 122.535 129.818 122.122 129.707C121.837 129.628 121.555 129.544 121.275 129.45C120.998 129.357 120.727 129.25 120.459 129.137C119.863 128.882 119.273 128.62 118.685 128.346C118.072 128.06 117.468 127.752 116.881 127.413C116.449 127.162 116.005 126.888 115.567 126.608C115.333 126.458 115.099 126.308 114.87 126.15C114.672 126.012 114.477 125.868 114.282 125.721C113.958 125.469 113.639 125.212 113.319 124.958C112.983 124.689 112.65 124.418 112.331 124.13C112.032 123.862 111.741 123.585 111.444 123.308C111.167 123.051 110.893 122.791 110.622 122.525C110.622 122.525 110.617 122.52 110.614 122.517C110.385 122.288 110.153 122.051 109.922 121.81C109.552 121.426 109.179 121.045 108.806 120.663C108.609 120.46 108.408 120.254 108.21 120.053C108.007 119.847 107.798 119.643 107.595 119.437C107.211 119.053 106.838 118.66 106.454 118.273C106.05 117.863 105.638 117.459 105.242 117.044C104.869 116.651 104.505 116.253 104.138 115.855C103.779 115.467 103.429 115.072 103.076 114.682C102.72 114.286 102.37 113.888 102.028 113.481C101.848 113.264 101.667 113.049 101.483 112.834C101.314 112.634 101.139 112.433 100.969 112.23C100.616 111.809 100.269 111.385 99.9215 110.961C99.5685 110.531 99.2268 110.094 98.885 109.656C98.5518 109.229 98.2101 108.814 97.874 108.39C97.5322 107.96 97.1934 107.528 96.8545 107.096L96.8488 107.09C96.8488 107.09 96.846 107.085 96.8432 107.082C96.5862 106.751 96.3292 106.415 96.0722 106.079C95.8406 105.779 95.609 105.483 95.3746 105.183C95.1402 104.881 94.8945 104.559 94.6488 104.239C94.4002 103.917 94.1489 103.595 93.9004 103.273C93.6603 102.962 93.4203 102.651 93.1774 102.344C92.9317 102.03 92.6831 101.719 92.4374 101.405C92.2482 101.163 92.059 100.917 91.867 100.674C91.5507 100.267 91.2231 99.8402 90.8983 99.4136C90.6187 99.0463 90.3334 98.6875 90.0482 98.323C90.0454 98.3202 90.0397 98.3117 90.0341 98.3032C89.6952 97.8681 89.3591 97.4273 89.0315 96.9838C88.7011 96.5402 88.3848 96.0881 88.0684 95.6332C87.7465 95.1727 87.4245 94.715 87.1167 94.2431C86.8089 93.7713 86.5095 93.2966 86.2243 92.8135C86.0407 92.497 85.8599 92.1749 85.682 91.8529C85.4928 91.5138 85.3064 91.1719 85.1257 90.8301C84.9534 90.4967 84.7811 90.1661 84.6145 89.8299C84.4479 89.4965 84.2925 89.1574 84.1457 88.8156C83.835 88.0697 83.5554 87.3153 83.3013 86.5468C83.16 86.123 83.0217 85.702 82.8889 85.2754C82.7759 84.9081 82.6715 84.5351 82.5698 84.165C82.4427 83.6875 82.3213 83.2043 82.2252 82.7184C82.1744 82.4556 82.1236 82.1929 82.0812 81.9301C82.0445 81.7012 82.0106 81.4752 81.9795 81.2464C81.9259 80.8197 81.8835 80.3959 81.8411 79.9693C81.7988 79.5426 81.7649 79.116 81.7282 78.6894C81.6943 78.2769 81.6632 77.8615 81.6322 77.449C81.618 77.2569 81.6011 77.0648 81.5813 76.8727C81.5757 76.8162 81.57 76.7625 81.5616 76.706C83.1572 72.8211 85.8148 69.4419 88.862 66.5798C89.3902 66.0599 89.9437 65.5626 90.534 65.1191C90.6074 65.2942 90.7684 65.4864 90.8192 65.6304C91.3163 66.4837 91.9234 67.2692 92.3781 68.1592C93.745 70.5099 94.6064 73.1093 95.9507 75.4713C96.9505 77.3643 97.9785 79.246 99.1477 81.0429C100.218 82.6675 101.173 84.3515 101.949 86.1371C101.037 82.4302 99.1392 79.0906 97.6113 75.6182C96.332 72.8239 95.0074 70.0126 93.0559 67.611C92.3555 66.6419 91.4546 65.8593 90.6017 65.0343C90.6017 64.9637 90.6159 64.8874 90.6159 64.8139C90.6159 64.7715 90.6243 64.7263 90.6243 64.684C90.8418 64.602 91.0677 64.5314 91.2965 64.4862C94.1602 63.8335 95.4085 67.6647 96.62 69.6029C98.2637 72.6883 100.43 75.46 101.978 78.5961C102.909 80.6672 104.833 83.8994 104.593 86.1484C104.118 87.8182 101.458 88.0951 100.015 88.5048C98.0039 88.8071 96.0072 89.1829 94.0246 89.6434C92.5165 89.9316 91.2513 89.861 91.2965 91.8189C91.4151 93.9069 92.6012 95.7236 93.457 97.5771C95.2447 101.309 97.665 104.68 100.249 107.898C101.526 109.562 102.717 111.314 104.355 112.653C105.92 113.956 107.533 115.284 109.368 116.182C112.433 117.527 112.588 115.665 114.096 113.69C115.161 112.232 116.302 110.834 117.437 109.43C119.278 111.362 121.241 114.258 123.04 116.456C123.904 117.456 124.814 118.411 125.718 119.375C127.898 121.935 130.584 123.994 132.933 126.382L132.95 126.388Z" fill="#FCC53F"/>
<path d="M132.959 126.396C133.413 126.857 133.854 127.328 134.275 127.82C133.512 128.656 132.628 129.382 131.665 129.987C129.025 131.996 126.381 132.742 123.707 132.742C120.253 132.742 116.745 131.496 113.116 130.114C108.459 128.216 104.627 124.769 101.303 121.059C97.312 116.784 93.5812 112.272 90.164 107.528C88.6954 105.536 87.289 103.499 86.0802 101.335C84.1174 98.4445 82.5048 95.3959 81.4514 92.0478C79.7456 87.3633 79.8134 82.1533 81.2933 77.418C81.3752 77.1976 81.4599 76.98 81.5503 76.7625C81.5503 76.7229 81.5559 76.6862 81.5559 76.6495V76.6438C81.5587 76.6551 81.5616 76.6692 81.5616 76.6834C81.5616 76.6947 81.5644 76.706 81.5672 76.7173C81.5757 76.771 81.5813 76.8275 81.587 76.884C81.6067 77.0761 81.6237 77.2682 81.6378 77.4603C81.6689 77.8728 81.6971 78.2882 81.7338 78.7007C81.7705 79.1273 81.8044 79.5539 81.8468 79.9806C81.8892 80.4072 81.9343 80.8338 81.9852 81.2577C82.0162 81.4865 82.0473 81.7154 82.0868 81.9414C82.1292 82.2042 82.18 82.4669 82.2309 82.7297C82.3269 83.2157 82.4455 83.696 82.5754 84.1763C82.6771 84.5464 82.7816 84.9194 82.8946 85.2867C83.0245 85.7133 83.1657 86.1343 83.3069 86.5581C83.5611 87.3238 83.8407 88.081 84.1513 88.8269C84.2982 89.1687 84.4535 89.5078 84.6201 89.8412C84.7868 90.1774 84.959 90.508 85.1313 90.8414C85.3121 91.1861 85.4984 91.5251 85.6877 91.8642C85.8656 92.1862 86.0463 92.5055 86.2299 92.8248C86.5152 93.3079 86.8173 93.7826 87.1224 94.2544C87.4274 94.7234 87.7521 95.184 88.0741 95.6445C88.3904 96.0966 88.7067 96.5515 89.0371 96.9951C89.3676 97.4386 89.7008 97.8794 90.0397 98.3145C90.0454 98.323 90.051 98.3315 90.0538 98.3343C90.3363 98.6959 90.6243 99.0576 90.9039 99.4249C91.2287 99.8515 91.5563 100.281 91.8726 100.685C92.0618 100.928 92.251 101.174 92.4431 101.417C92.6888 101.73 92.9345 102.044 93.183 102.355C93.4259 102.663 93.666 102.974 93.906 103.284C94.1545 103.606 94.4059 103.929 94.6544 104.251C94.9001 104.57 95.1458 104.892 95.3802 105.194C95.6118 105.494 95.8462 105.79 96.0778 106.09C96.3348 106.426 96.589 106.762 96.8488 107.093C96.8488 107.093 96.8516 107.099 96.8544 107.101L96.8601 107.107C97.199 107.539 97.5379 107.972 97.8796 108.401C98.2157 108.825 98.5574 109.24 98.8907 109.667C99.2324 110.105 99.5769 110.543 99.9271 110.972C100.275 111.396 100.622 111.823 100.975 112.241C101.144 112.444 101.317 112.642 101.489 112.845C101.672 113.06 101.853 113.278 102.034 113.492C102.376 113.899 102.726 114.301 103.082 114.693C103.435 115.083 103.785 115.479 104.144 115.866C104.511 116.264 104.875 116.663 105.248 117.055C105.646 117.473 106.056 117.875 106.459 118.284C106.841 118.671 107.216 119.064 107.6 119.448C107.807 119.655 108.013 119.858 108.216 120.064C108.417 120.268 108.614 120.471 108.812 120.675C109.185 121.056 109.558 121.437 109.928 121.822C110.159 122.062 110.391 122.299 110.619 122.528C110.619 122.531 110.625 122.534 110.628 122.537C110.899 122.802 111.173 123.062 111.45 123.319C111.743 123.593 112.037 123.87 112.337 124.141C112.656 124.43 112.989 124.701 113.325 124.969C113.644 125.226 113.963 125.481 114.288 125.732C114.48 125.879 114.675 126.02 114.876 126.162C115.104 126.32 115.339 126.469 115.573 126.619C116.011 126.899 116.454 127.17 116.886 127.424C117.474 127.763 118.075 128.069 118.691 128.357C119.278 128.631 119.869 128.894 120.465 129.148C120.733 129.261 121.004 129.368 121.281 129.462C121.56 129.555 121.843 129.64 122.128 129.719C122.54 129.829 122.955 129.936 123.376 130.021C123.797 130.106 124.218 130.179 124.613 130.239C125.223 130.323 125.839 130.366 126.426 130.369C126.647 130.369 126.867 130.36 127.087 130.335C127.381 130.295 127.669 130.23 127.929 130.162C128.259 130.072 128.587 129.964 128.903 129.835C129.208 129.705 129.499 129.549 129.784 129.382C129.79 129.38 129.798 129.374 129.798 129.374C130.101 129.196 130.4 129.007 130.68 128.789C130.821 128.676 130.951 128.557 131.078 128.43C131.307 128.199 131.524 127.956 131.75 127.721C131.908 127.557 132.066 127.393 132.227 127.232C132.436 127.018 132.648 126.803 132.829 126.563C132.871 126.509 132.911 126.453 132.956 126.399C132.973 126.379 132.99 126.359 133.01 126.342C133.01 126.342 133.01 126.345 133.007 126.348C132.993 126.368 132.978 126.388 132.964 126.407L132.959 126.396ZM84.7444 96.6136C84.7585 96.6136 84.7698 96.5995 84.7698 96.5854C84.7698 96.5712 84.7557 96.5599 84.7416 96.5599C84.7274 96.5599 84.7161 96.5741 84.7161 96.5882C84.7161 96.6023 84.7303 96.6136 84.7444 96.6136Z" fill="#B6752A"/>
<path d="M85.6905 98.0602C83.5695 93.5311 81.587 88.6263 82.1857 83.5264C82.4681 81.3537 83.1713 79.2742 83.9282 77.2258C85.3262 73.6009 87.3935 70.1369 90.2798 67.5432C89.4523 68.5717 88.8338 69.7838 88.06 70.8631C87.272 72.03 86.5349 73.2364 85.9306 74.5078C84.3547 77.8926 83.2222 81.5685 83.0668 85.3149C82.9793 89.6773 84.5778 93.9041 85.6905 98.0602Z" fill="#F4D68C"/>
<path d="M123.628 128.283C122.354 128.139 121.08 127.893 119.888 127.413C118.982 127.054 118.098 126.642 117.259 126.142C116.706 125.808 116.189 125.418 115.672 125.031C114.901 124.455 114.141 123.867 113.43 123.22C112.435 122.319 111.622 121.237 110.789 120.194C110.786 120.191 110.78 120.186 110.778 120.183C110.879 120.268 110.972 120.367 111.069 120.457C111.859 121.226 112.678 121.969 113.517 122.681C116.223 125.031 119.307 126.919 122.933 127.311C123.532 127.365 124.133 127.402 124.735 127.393C126.429 127.311 128.098 126.95 129.739 126.529C129.996 126.458 130.256 126.385 130.502 126.3C129.801 127.15 129.005 127.611 127.977 127.967C126.582 128.447 125.079 128.427 123.628 128.283Z" fill="#F4D68C"/>
</svg>
