<svg width="126" height="146" viewBox="0 0 126 146" fill="none" xmlns="http://www.w3.org/2000/svg">
<mask id="mask0_145_2247" style="mask-type:luminance" maskUnits="userSpaceOnUse" x="0" y="0" width="126" height="146">
<path d="M125.131 0H0V146H125.131V0Z" fill="white"/>
</mask>
<g mask="url(#mask0_145_2247)">
<path d="M114.68 143.915H22.5979V2.08496H114.68C115.79 2.08496 116.89 2.30369 117.916 2.72866C118.942 3.15362 119.874 3.7765 120.659 4.56173C121.444 5.34695 122.067 6.27914 122.492 7.30507C122.916 8.33099 123.135 9.43055 123.135 10.541V135.459C123.135 136.569 122.916 137.669 122.492 138.695C122.067 139.721 121.444 140.653 120.659 141.438C119.874 142.223 118.942 142.846 117.916 143.271C116.89 143.696 115.79 143.915 114.68 143.915Z" fill="#8099B3"/>
<path d="M114.68 143.915H22.5979V2.08496H114.68C115.79 2.08496 116.89 2.30369 117.916 2.72866C118.942 3.15362 119.874 3.7765 120.659 4.56173C121.444 5.34695 122.067 6.27914 122.492 7.30507C122.916 8.33099 123.135 9.43055 123.135 10.541V135.459C123.135 136.569 122.916 137.669 122.492 138.695C122.067 139.721 121.444 140.653 120.659 141.438C119.874 142.223 118.942 142.846 117.916 143.271C116.89 143.696 115.79 143.915 114.68 143.915Z" stroke="#003366" stroke-width="4" stroke-miterlimit="10"/>
<path d="M28.5809 134.727H22.5969V128.744" stroke="#003366" stroke-width="4.18" stroke-linecap="round" stroke-linejoin="round"/>
<path d="M22.5969 116.355V23.4509" stroke="#003366" stroke-width="4.18" stroke-linecap="round" stroke-linejoin="round" stroke-dasharray="12.42 12.42"/>
<path d="M22.5969 17.2569V11.2689H28.5809" stroke="#003366" stroke-width="4.18" stroke-linecap="round" stroke-linejoin="round"/>
<path d="M40.063 11.2739H106.107C107.093 11.2739 108.069 11.4681 108.98 11.8454C109.89 12.2227 110.718 12.7756 111.415 13.4727C112.112 14.1698 112.665 14.9974 113.042 15.9082C113.419 16.819 113.613 17.7951 113.613 18.7809V127.219C113.613 128.205 113.419 129.181 113.042 130.092C112.665 131.002 112.112 131.83 111.415 132.527C110.718 133.224 109.89 133.777 108.98 134.154C108.069 134.532 107.093 134.726 106.107 134.726H34.322" stroke="#003366" stroke-width="4.18" stroke-linecap="round" stroke-linejoin="round" stroke-dasharray="11.51 11.51"/>
<path d="M22.594 143.915H10.541C9.4305 143.915 8.33092 143.696 7.30499 143.271C6.27906 142.846 5.34688 142.223 4.56167 141.438C2.97586 139.852 2.08496 137.702 2.08496 135.459V10.541C2.08496 8.29829 2.97586 6.14747 4.56167 4.56167C6.14747 2.97586 8.29829 2.08496 10.541 2.08496H22.594V143.915Z" fill="#335C85"/>
<path d="M22.594 143.915H10.541C9.4305 143.915 8.33092 143.696 7.30499 143.271C6.27906 142.846 5.34688 142.223 4.56167 141.438C2.97586 139.852 2.08496 137.702 2.08496 135.459V10.541C2.08496 8.29829 2.97586 6.14747 4.56167 4.56167C6.14747 2.97586 8.29829 2.08496 10.541 2.08496H22.594V143.915Z" stroke="#003366" stroke-width="4.18" stroke-linecap="round" stroke-linejoin="round"/>
<path d="M82.484 60.452C82.4844 63.2959 81.6414 66.0762 80.0616 68.441C78.4819 70.8059 76.2363 72.6492 73.6089 73.7378C70.9816 74.8265 68.0904 75.1115 65.301 74.5569C62.5116 74.0023 59.9493 72.633 57.9382 70.6221C55.927 68.6113 54.5574 66.0492 54.0024 63.2599C53.4474 60.4706 53.7321 57.5793 54.8203 54.9518C55.9086 52.3243 57.7516 50.0785 60.1162 48.4984C62.4809 46.9183 65.261 46.075 68.105 46.075C71.9182 46.075 75.5752 47.5896 78.2717 50.2858C80.9683 52.9819 82.4834 56.6387 82.484 60.452Z" fill="#F9F1C6"/>
<path d="M82.484 60.452C82.4844 63.2959 81.6414 66.0762 80.0616 68.441C78.4819 70.8059 76.2363 72.6492 73.6089 73.7378C70.9816 74.8265 68.0904 75.1115 65.301 74.5569C62.5116 74.0023 59.9493 72.633 57.9382 70.6221C55.927 68.6113 54.5574 66.0492 54.0024 63.2599C53.4474 60.4706 53.7321 57.5793 54.8203 54.9518C55.9086 52.3243 57.7516 50.0785 60.1162 48.4984C62.4809 46.9183 65.261 46.075 68.105 46.075C71.9182 46.075 75.5752 47.5896 78.2717 50.2858C80.9683 52.9819 82.4834 56.6387 82.484 60.452Z" stroke="#FCBA19" stroke-width="5.363" stroke-linecap="round" stroke-linejoin="round"/>
<path d="M90.569 103.153H45.64V91.702C45.64 87.7792 47.1983 84.017 49.9722 81.2432C52.746 78.4693 56.5082 76.911 60.431 76.911H75.776C77.7186 76.9107 79.6421 77.2931 81.4369 78.0363C83.2317 78.7795 84.8624 79.869 86.2361 81.2425C87.6098 82.616 88.6995 84.2466 89.4429 86.0413C90.1864 87.8359 90.569 89.7595 90.569 91.702V103.153Z" fill="#F9F1C6"/>
<path d="M90.569 103.153H45.64V91.702C45.64 87.7792 47.1983 84.017 49.9722 81.2432C52.746 78.4693 56.5082 76.911 60.431 76.911H75.776C77.7186 76.9107 79.6421 77.2931 81.4369 78.0363C83.2317 78.7795 84.8624 79.869 86.2361 81.2425C87.6098 82.616 88.6995 84.2466 89.4429 86.0413C90.1864 87.8359 90.569 89.7595 90.569 91.702V103.153Z" stroke="#FCBA19" stroke-width="5.363" stroke-linecap="round" stroke-linejoin="round"/>
</g>
</svg>
