<svg width="24" height="24" viewBox="0 0 24 24" fill="none" xmlns="http://www.w3.org/2000/svg">
<path d="M15.7664 13.8611C15.7664 13.571 15.531 13.3356 15.2409 13.3356H10.511V8.60567C10.511 8.31557 10.2755 8.08013 9.9854 8.08013C9.6953 8.08013 9.45985 8.31557 9.45985 8.60567V13.3356H4.72992C4.43983 13.3356 4.20439 13.571 4.20439 13.8611C4.20439 14.1513 4.43983 14.3867 4.72992 14.3867H9.45985V19.1166C9.45985 19.4067 9.6953 19.6422 9.9854 19.6422C10.2755 19.6422 10.511 19.4067 10.511 19.1166V14.3867H15.2409C15.531 14.3867 15.7664 14.1513 15.7664 13.8611Z" fill="#095797"/>
<path fill-rule="evenodd" clip-rule="evenodd" d="M0 5.45238C0 4.58312 0.707381 3.87574 1.57664 3.87574H4.0292V1.57664C4.0292 0.707381 4.73658 0 5.60584 0H22.4234C23.2926 0 24 0.707381 24 1.57664V18.3942C24 19.2634 23.2926 19.9708 22.4234 19.9708H19.9708V22.2699C19.9708 23.1392 19.2634 23.8465 18.3942 23.8465H1.57664C0.707381 23.8465 0 23.1392 0 22.2699V5.45238ZM19.9708 5.45238C19.9708 4.58312 19.2634 3.87574 18.3942 3.87574H5.08029V1.57664C5.08029 1.28654 5.31574 1.05109 5.60584 1.05109H22.4234C22.7135 1.05109 22.9489 1.28654 22.9489 1.57664V18.3942C22.9489 18.6843 22.7135 18.9197 22.4234 18.9197H19.9708V5.45238ZM1.57664 4.92683C1.28654 4.92683 1.05109 5.16229 1.05109 5.45238V22.2699C1.05109 22.56 1.28654 22.7955 1.57664 22.7955H18.3942C18.6843 22.7955 18.9197 22.56 18.9197 22.2699V5.45238C18.9197 5.16229 18.6843 4.92683 18.3942 4.92683H1.57664Z" fill="#095797"/>
</svg>
