<svg id="Group_2456" data-name="Group 2456" xmlns="http://www.w3.org/2000/svg" xmlns:xlink="http://www.w3.org/1999/xlink" width="200" height="200" viewBox="0 0 200 200">
  <defs>
    <clipPath id="clip-path">
      <rect id="Rectangle_1679" data-name="Rectangle 1679" width="200" height="200" fill="none"/>
    </clipPath>
  </defs>
  <g id="Group_2455" data-name="Group 2455" clip-path="url(#clip-path)">
    <path id="Path_683" data-name="Path 683" d="M140.05,37.14V152.53a6.323,6.323,0,0,1-6.32,6.33H121.54q.345-3.69.35-7.96v-.83l-.59-.59c-.31-.31-7.96-7.78-21.3-7.78s-20.99,7.47-21.3,7.78l-.59.59v.83q0,4.275.35,7.96H66.27a6.323,6.323,0,0,1-6.32-6.33V37.14a6.321,6.321,0,0,1,6.32-6.32h67.46a6.321,6.321,0,0,1,6.32,6.32" fill="#8099b3"/>
    <path id="Path_684" data-name="Path 684" d="M131.07,15.58H68.93a15.005,15.005,0,0,0-15,15V169.42a15.005,15.005,0,0,0,15,15H91.21c-4.54-3.99-9.4-11.5-10.73-25.56H66.27a6.323,6.323,0,0,1-6.32-6.33V37.14a6.321,6.321,0,0,1,6.32-6.32h67.46a6.321,6.321,0,0,1,6.32,6.32V152.53a6.323,6.323,0,0,1-6.32,6.33H119.52c-1.33,14.06-6.19,21.57-10.73,25.56h22.28a15.005,15.005,0,0,0,15-15V30.58a15.005,15.005,0,0,0-15-15M111.7,24.77H89.59a1.885,1.885,0,0,1,0-3.77H111.7a1.885,1.885,0,0,1,0,3.77" fill="#036"/>
    <path id="Path_685" data-name="Path 685" d="M121.3,149.48c-.31-.31-7.96-7.78-21.3-7.78s-20.99,7.47-21.3,7.78l-.59.59v.83q0,4.275.35,7.96c1.21,13.21,5.42,20.98,9.79,25.56,5.42,5.68,11.08,6.41,11.53,6.46l.22.02.22-.02c.45-.05,6.11-.78,11.53-6.46,4.37-4.58,8.58-12.35,9.79-25.56q.345-3.69.35-7.96v-.83ZM100,186.87c-2.17-.38-17.6-4.15-17.89-35.07a29.284,29.284,0,0,1,35.78,0c-.29,30.95-15.76,34.7-17.89,35.07" fill="#335c85"/>
    <path id="Path_686" data-name="Path 686" d="M117.89,151.8c-.29,30.95-15.76,34.7-17.89,35.07-2.17-.38-17.6-4.15-17.89-35.07a29.284,29.284,0,0,1,35.78,0" fill="#8099b3"/>
    <path id="Path_687" data-name="Path 687" d="M107.933,160.5H92.067A2.013,2.013,0,0,0,90,162.46v10.691a2.013,2.013,0,0,0,2.064,1.959h15.866A2.014,2.014,0,0,0,110,173.151V162.46a2.014,2.014,0,0,0-2.064-1.959m-6.81,8.516v2.648a.451.451,0,0,1-.45.451H99.327a.45.45,0,0,1-.45-.451v-2.648a2.875,2.875,0,1,1,2.246,0" fill="#036"/>
    <path id="Path_688" data-name="Path 688" d="M106,161.758h-3.371v-3.317a2.6,2.6,0,0,0-5.206,0v3.317H94.05v-3.317a5.974,5.974,0,0,1,11.948,0Z" fill="#036"/>
    <path id="Path_689" data-name="Path 689" d="M121.536,81.83H78.465a5.417,5.417,0,0,1-5.417-5.417V51.886a5.417,5.417,0,0,1,5.417-5.417h43.071a5.417,5.417,0,0,1,5.417,5.417V76.413a5.417,5.417,0,0,1-5.417,5.417" fill="#f9f1c6"/>
    <rect id="Rectangle_1677" data-name="Rectangle 1677" width="53.905" height="35.361" rx="5.417" transform="translate(73.048 46.469)" fill="none" stroke="#fcba19" stroke-linejoin="round" stroke-width="4"/>
    <line id="Line_118" data-name="Line 118" x2="16.511" transform="translate(102.643 55.927)" fill="none" stroke="#fcba19" stroke-linecap="round" stroke-linejoin="round" stroke-width="4"/>
    <line id="Line_119" data-name="Line 119" x2="16.511" transform="translate(102.643 64.15)" fill="none" stroke="#fcba19" stroke-linecap="round" stroke-linejoin="round" stroke-width="4"/>
    <line id="Line_120" data-name="Line 120" x2="16.511" transform="translate(102.643 72.372)" fill="none" stroke="#fcba19" stroke-linecap="round" stroke-linejoin="round" stroke-width="4"/>
    <path id="Path_690" data-name="Path 690" d="M87.809,55.242a4.06,4.06,0,1,1-4.06,4.06,4.06,4.06,0,0,1,4.06-4.06" fill="#fcba19"/>
    <path id="Path_691" data-name="Path 691" d="M87.81,64.859h0A6.344,6.344,0,0,1,94.153,71.2v.151a.917.917,0,0,1-.916.917H82.383a.917.917,0,0,1-.916-.917V71.2a6.344,6.344,0,0,1,6.343-6.343" fill="#fcba19"/>
    <path id="Path_692" data-name="Path 692" d="M121.536,127.385H78.465a5.417,5.417,0,0,1-5.417-5.417V97.441a5.417,5.417,0,0,1,5.417-5.417h43.071a5.417,5.417,0,0,1,5.417,5.417v24.527a5.417,5.417,0,0,1-5.417,5.417" fill="#f9f1c6"/>
    <rect id="Rectangle_1678" data-name="Rectangle 1678" width="53.905" height="35.361" rx="5.417" transform="translate(73.048 92.024)" fill="none" stroke="#fcba19" stroke-linejoin="round" stroke-width="4"/>
    <line id="Line_121" data-name="Line 121" x2="16.511" transform="translate(102.643 101.482)" fill="none" stroke="#fcba19" stroke-linecap="round" stroke-linejoin="round" stroke-width="4"/>
    <line id="Line_122" data-name="Line 122" x2="16.511" transform="translate(102.643 109.704)" fill="none" stroke="#fcba19" stroke-linecap="round" stroke-linejoin="round" stroke-width="4"/>
    <line id="Line_123" data-name="Line 123" x2="16.511" transform="translate(102.643 117.927)" fill="none" stroke="#fcba19" stroke-linecap="round" stroke-linejoin="round" stroke-width="4"/>
    <path id="Path_693" data-name="Path 693" d="M87.809,100.8a4.06,4.06,0,1,1-4.06,4.06,4.06,4.06,0,0,1,4.06-4.06" fill="#fcba19"/>
    <path id="Path_694" data-name="Path 694" d="M87.81,110.414h0a6.343,6.343,0,0,1,6.343,6.343v.15a.917.917,0,0,1-.916.917H82.383a.917.917,0,0,1-.916-.917v-.15a6.343,6.343,0,0,1,6.343-6.343" fill="#fcba19"/>
  </g>
</svg>
