<svg xmlns="http://www.w3.org/2000/svg" xmlns:xlink="http://www.w3.org/1999/xlink" width="24" height="24" viewBox="0 0 24 24">
    <path d="M22.5,4.47H1.5c-.83,0-1.5,.67-1.5,1.5v12.05c0,.83,.67,1.5,1.5,1.5H22.5c.83,0,1.5-.67,1.5-1.5V5.97c0-.83-.67-1.5-1.5-1.5ZM5.73,7.29c1.19,0,2.16,.97,2.16,2.16s-.97,2.16-2.16,2.16-2.16-.97-2.16-2.16,.97-2.16,2.16-2.16Zm3.57,9.12H2.16c-.04-.28-.06-.56-.06-.85,0-1.68,.72-3.14,1.8-3.93,.12-.09,.28-.09,.4-.01,.41,.27,.9,.43,1.43,.43s1.02-.16,1.43-.43c.12-.08,.28-.08,.4,.01,1.08,.79,1.8,2.26,1.8,3.93,0,.29-.02,.58-.06,.85Zm6.86-.33h-5.15v-1.45h5.15v1.45Zm5.15-2.21H11v-1.45h10.3v1.45Zm0-2.21H11v-1.45h10.3v1.45Zm0-2.21H11v-1.45h10.3v1.45Z" fill="#036"/>
</svg>
