<svg width="25" height="24" viewBox="0 0 25 24" fill="none" xmlns="http://www.w3.org/2000/svg">
<g clip-path="url(#clip0_3459_6504)">
<path d="M19.1098 2.4H14.9098V1.8C14.9098 0.8076 14.1022 0 13.1098 0H10.7098C9.71739 0 8.90979 0.8076 8.90979 1.8V2.4H4.70979C3.71739 2.4 2.90979 3.2076 2.90979 4.2V5.4C2.90979 6.1824 3.41139 6.8496 4.10979 7.0968V22.2C4.10979 23.1924 4.91739 24 5.90979 24H17.9098C18.9022 24 19.7098 23.1924 19.7098 22.2V7.0968C20.4082 6.8496 20.9098 6.1824 20.9098 5.4V4.2C20.9098 3.2076 20.1022 2.4 19.1098 2.4ZM10.1098 1.8C10.1098 1.4688 10.3786 1.2 10.7098 1.2H13.1098C13.441 1.2 13.7098 1.4688 13.7098 1.8V2.4H10.1098V1.8ZM17.9098 22.8H5.90979C5.57859 22.8 5.30979 22.5312 5.30979 22.2V7.2H18.5098V22.2C18.5098 22.5312 18.241 22.8 17.9098 22.8ZM19.7098 5.4C19.7098 5.7312 19.441 6 19.1098 6H4.70979C4.37859 6 4.10979 5.7312 4.10979 5.4V4.2C4.10979 3.8688 4.37859 3.6 4.70979 3.6H19.1098C19.441 3.6 19.7098 3.8688 19.7098 4.2V5.4Z" fill="#223654"/>
<path d="M15.5098 8.3999C15.1786 8.3999 14.9098 8.6687 14.9098 8.9999V20.9999C14.9098 21.3311 15.1786 21.5999 15.5098 21.5999C15.841 21.5999 16.1098 21.3311 16.1098 20.9999V8.9999C16.1098 8.6687 15.841 8.3999 15.5098 8.3999Z" fill="#223654"/>
<path d="M11.9098 8.3999C11.5786 8.3999 11.3098 8.6687 11.3098 8.9999V20.9999C11.3098 21.3311 11.5786 21.5999 11.9098 21.5999C12.241 21.5999 12.5098 21.3311 12.5098 20.9999V8.9999C12.5098 8.6687 12.241 8.3999 11.9098 8.3999Z" fill="#223654"/>
<path d="M8.30972 8.3999C7.97852 8.3999 7.70972 8.6687 7.70972 8.9999V20.9999C7.70972 21.3311 7.97852 21.5999 8.30972 21.5999C8.64092 21.5999 8.90972 21.3311 8.90972 20.9999V8.9999C8.90972 8.6687 8.64092 8.3999 8.30972 8.3999Z" fill="#223654"/>
<mask id="path-5-inside-1_3459_6504" fill="white">
<path d="M257.31 167.772C257.313 86.5393 257.316 0.0937223 153.029 0.0937223C153.029 0.0937223 97.5231 -2.94693 83.9698 25.6102C16.9164 -11.5148 0.509766 106.933 0.509766 169.11C0.50972 199.2 52.8634 104.138 65.9098 99.6C89.2556 91.4797 145.71 160.2 201.51 117.6C249.518 151.544 254.194 209.881 257.31 167.772Z"/>
</mask>
<path d="M257.31 167.772C257.313 86.5393 257.316 0.0937223 153.029 0.0937223C153.029 0.0937223 97.5231 -2.94693 83.9698 25.6102C16.9164 -11.5148 0.509766 106.933 0.509766 169.11C0.50972 199.2 52.8634 104.138 65.9098 99.6C89.2556 91.4797 145.71 160.2 201.51 117.6C249.518 151.544 254.194 209.881 257.31 167.772Z" fill="#C5CAD2"/>
<path d="M251.31 167.772L251.31 169.11L263.31 169.11L263.31 167.772L251.31 167.772ZM153.029 0.0937223L152.373 12.0758L152.701 12.0937H153.029V0.0937223ZM257.31 167.772L269.277 168.657L269.31 168.215L269.31 167.772L257.31 167.772ZM0.509766 169.11L12.5098 169.11V169.11H0.509766ZM83.9698 25.6102L78.1572 36.1085L89.3334 42.2964L94.8108 30.7554L83.9698 25.6102ZM65.9098 99.6L61.9675 88.266H61.9675L65.9098 99.6ZM201.51 117.6L208.437 107.802C204.153 104.773 198.398 104.878 194.228 108.062L201.51 117.6ZM153.029 12.0937C177.463 12.0937 194.606 17.1507 206.857 24.9811C219.028 32.7605 227.392 43.9289 233.177 58.0261C245.124 87.1424 245.311 126.391 245.31 167.771L269.31 167.772C269.311 127.92 269.502 83.3297 255.38 48.9151C248.13 31.2468 236.942 15.7268 219.782 4.75907C202.703 -6.15759 180.739 -11.9063 153.029 -11.9063V12.0937ZM12.5098 169.11C12.5098 138.586 16.5895 95.1329 28.3075 64.3968C34.2338 48.8522 41.3692 38.5726 49.0014 33.802C55.4525 29.7698 64.2819 28.4263 78.1572 36.1085L89.7823 15.1119C70.1309 4.23165 51.7646 3.77226 36.2806 13.4506C21.9778 22.3907 12.439 38.6482 5.88201 55.8471C-7.36665 90.5981 -11.4902 137.458 -11.4902 169.11H12.5098ZM94.8108 30.7554C96.7483 26.6729 100.44 23.1474 106.054 20.2016C111.699 17.2395 118.612 15.2335 125.713 13.9523C132.743 12.6839 139.48 12.2089 144.502 12.0595C146.995 11.9853 149.025 11.9925 150.405 12.017C151.094 12.0292 151.619 12.0456 151.955 12.0582C152.123 12.0645 152.244 12.0698 152.315 12.073C152.35 12.0747 152.373 12.0758 152.383 12.0763C152.388 12.0765 152.389 12.0766 152.388 12.0766C152.387 12.0765 152.385 12.0764 152.383 12.0763C152.382 12.0762 152.379 12.0761 152.378 12.0761C152.376 12.0759 152.373 12.0758 153.029 0.0937223C153.686 -11.8883 153.682 -11.8885 153.679 -11.8887C153.677 -11.8888 153.674 -11.889 153.671 -11.8891C153.665 -11.8894 153.658 -11.8898 153.651 -11.8902C153.636 -11.891 153.617 -11.8919 153.595 -11.893C153.552 -11.8952 153.495 -11.898 153.425 -11.9013C153.284 -11.9078 153.092 -11.9161 152.85 -11.9251C152.367 -11.9431 151.686 -11.9641 150.83 -11.9793C149.122 -12.0095 146.709 -12.0168 143.788 -11.9299C137.978 -11.757 129.992 -11.2073 121.451 -9.66626C112.981 -8.13796 103.477 -5.54965 94.9022 -1.05014C86.2967 3.46559 77.9679 10.269 73.1288 20.465L94.8108 30.7554ZM-11.4902 169.11C-11.4902 171.581 -11.2618 174.778 -10.023 177.839C-8.62612 181.291 -5.37401 185.635 0.586903 186.746C5.46948 187.655 9.43437 185.775 11.3245 184.709C13.5135 183.474 15.4615 181.86 17.0637 180.371C23.2285 174.641 30.8854 164.374 38.0765 154.323C45.6929 143.679 53.1308 132.771 59.8212 123.761C63.1256 119.311 65.9734 115.704 68.2693 113.156C69.4202 111.878 70.2617 111.059 70.812 110.59C71.5496 109.961 71.1588 110.479 69.852 110.934L61.9675 88.266C59.03 89.2878 56.7012 91.0811 55.2387 92.3284C53.5887 93.7355 51.9677 95.3942 50.4384 97.0917C47.3741 100.493 43.9914 104.822 40.5529 109.452C33.7577 118.603 25.661 130.431 18.5582 140.358C11.0301 150.879 4.78324 159.019 0.724045 162.792C-0.229823 163.679 -0.607838 163.885 -0.470036 163.807C-0.376181 163.754 0.102193 163.489 0.91131 163.274C1.73192 163.056 3.17777 162.815 4.98271 163.152C9.4866 163.991 11.6012 167.296 12.2248 168.837C12.6903 169.988 12.5098 170.4 12.5098 169.11L-11.4902 169.11ZM69.852 110.934C69.5844 111.027 70.3303 110.669 73.1081 111.397C75.8191 112.108 79.3008 113.536 83.814 115.751C88.3105 117.957 93.1308 120.584 98.7353 123.559C104.214 126.467 110.238 129.593 116.601 132.467C142.022 143.945 175.583 152.491 208.792 127.138L194.228 108.062C171.636 125.309 149.071 120.795 126.478 110.593C120.838 108.047 115.365 105.214 109.987 102.36C104.734 99.5717 99.3359 96.633 94.3849 94.2041C89.4506 91.7833 84.2557 89.5083 79.1928 88.1813C74.1968 86.8719 68.0716 86.1429 61.9675 88.266L69.852 110.934ZM194.582 127.398C216.195 142.68 228.271 163.606 235.762 177.048C237.532 180.222 239.326 183.492 240.875 185.881C241.638 187.058 242.7 188.593 244.016 189.958C244.874 190.848 248.145 194.203 253.454 194.457C260.385 194.789 264.173 189.971 265.473 187.75C266.769 185.536 267.374 183.191 267.708 181.671C268.43 178.377 268.888 173.912 269.277 168.657L245.343 166.886C244.952 172.159 244.582 175.082 244.266 176.526C244.079 177.375 244.111 176.735 244.761 175.625C245.415 174.508 248.484 170.192 254.602 170.485C257.039 170.601 258.796 171.481 259.697 172.039C260.601 172.599 261.135 173.136 261.298 173.305C261.592 173.61 261.519 173.605 261.012 172.824C260.021 171.295 258.737 168.971 256.727 165.364C249.099 151.678 234.833 126.464 208.437 107.802L194.582 127.398Z" fill="#223654" mask="url(#path-5-inside-1_3459_6504)"/>
</g>
<defs>
<clipPath id="clip0_3459_6504">
<rect width="24" height="24" fill="white" transform="translate(0.509766)"/>
</clipPath>
</defs>
</svg>
