<?xml version="1.0" encoding="UTF-8"?><svg id="Layer_1" xmlns="http://www.w3.org/2000/svg" viewBox="0 0 200 200"><defs><style>.cls-1{fill:#fcba19;}.cls-2{fill:#f9f1c6;}.cls-3{fill:#036;}.cls-4{fill:#8099b3;}.cls-5{fill:#335c85;}</style></defs><g><g><path class="cls-5" d="M145.83,59.29v10.24H37.82c-5.65,0-10.24-4.58-10.24-10.24,0-2.82,1.15-5.39,3.01-7.24,1.85-1.86,4.42-3.01,7.24-3.01h97.76c5.65,0,10.24,4.59,10.24,10.24Z"/><path class="cls-3" d="M147.83,71.53H37.82c-6.75,0-12.24-5.49-12.24-12.24,0-3.28,1.28-6.35,3.6-8.66,2.29-2.31,5.37-3.59,8.65-3.59h97.76c6.75,0,12.24,5.49,12.24,12.24v12.24ZM37.82,51.04c-2.2,0-4.27,.86-5.82,2.42-1.57,1.56-2.43,3.62-2.43,5.83,0,4.55,3.7,8.24,8.24,8.24h106v-8.24c0-4.55-3.7-8.24-8.24-8.24H37.82Z"/></g><g><path class="cls-4" d="M130.09,119.62v3.78c0,9.24,7.5,16.74,16.72,16.74h29.74v17.48c0,5.67-4.59,10.24-10.24,10.24H37.82c-5.65,0-10.24-4.58-10.24-10.24V59.29c0,5.67,4.59,10.24,10.24,10.24H166.31c5.65,0,10.24,4.59,10.24,10.24v23.12h-29.74c-9.23,0-16.72,7.48-16.72,16.72Z"/><path class="cls-3" d="M166.31,169.86H37.82c-6.75,0-12.24-5.49-12.24-12.24V59.29h4c0,4.55,3.7,8.24,8.24,8.24H166.31c6.75,0,12.24,5.49,12.24,12.24v25.12h-31.74c-8.12,0-14.72,6.61-14.72,14.72v3.78c0,8.13,6.61,14.74,14.72,14.74h31.74v19.48c0,6.75-5.49,12.24-12.24,12.24ZM29.58,68.33v89.28c0,4.55,3.7,8.24,8.24,8.24H166.31c4.55,0,8.24-3.7,8.24-8.24v-15.48h-27.74c-10.32,0-18.72-8.41-18.72-18.74v-3.78c0-10.32,8.4-18.72,18.72-18.72h27.74v-21.12c0-4.55-3.7-8.24-8.24-8.24H37.82c-3.17,0-6.07-1.21-8.24-3.2Z"/></g><g><path class="cls-4" d="M185.03,102.9v37.24h-38.21c-9.23,0-16.72-7.5-16.72-16.74v-3.78c0-9.24,7.5-16.72,16.72-16.72h38.21Z"/><path class="cls-3" d="M185.03,142.14h-38.21c-10.32,0-18.72-8.41-18.72-18.74v-3.78c0-10.32,8.4-18.72,18.72-18.72h38.21c1.1,0,2,.9,2,2v37.24c0,1.1-.9,2-2,2Zm-38.21-37.24c-8.12,0-14.72,6.61-14.72,14.72v3.78c0,8.13,6.61,14.74,14.72,14.74h36.21v-33.24h-36.21Z"/></g><path class="cls-3" d="M148.1,129.51c-4.41,0-8-3.59-8-8.01s3.59-8,8-8,8,3.59,8,8-3.59,8.01-8,8.01Zm0-12.01c-2.21,0-4,1.8-4,4s1.8,4.01,4,4.01,4-1.8,4-4.01-1.8-4-4-4Z"/></g><g><circle class="cls-2" cx="38.37" cy="149.6" r="23.04"/><path class="cls-1" d="M38.37,174.63c-13.8,0-25.04-11.23-25.04-25.04s11.23-25.04,25.04-25.04,25.04,11.23,25.04,25.04-11.23,25.04-25.04,25.04Zm0-46.07c-11.6,0-21.04,9.44-21.04,21.04s9.44,21.04,21.04,21.04,21.04-9.44,21.04-21.04-9.44-21.04-21.04-21.04Z"/></g><path class="cls-1" d="M49.23,152.02h-8.68v8.44c0,1.34-1.08,2.42-2.42,2.42h0c-1.34,0-2.42-1.08-2.42-2.42v-8.44h-8.19c-1.34,0-2.42-1.08-2.42-2.42h0c0-1.34,1.08-2.42,2.42-2.42h8.19s0-8.44,0-8.44c0-1.34,1.08-2.42,2.42-2.42h0c1.34,0,2.42,1.08,2.42,2.42v8.44h8.68c1.34,0,2.42,1.08,2.42,2.42h0c0,1.34-1.08,2.42-2.42,2.42Z"/><path class="cls-3" d="M84.48,42.6c-1.1,0-2-.9-2-2v-14.77c0-1.1,.9-2,2-2s2,.9,2,2v14.77c0,1.1-.9,2-2,2Z"/><path class="cls-3" d="M96.37,41.43c-.51,0-1.02-.2-1.41-.59-.78-.78-.78-2.05,0-2.83l8.09-8.09c.78-.78,2.05-.78,2.83,0s.78,2.05,0,2.83l-8.09,8.09c-.39,.39-.9,.59-1.41,.59Z"/><path class="cls-3" d="M72.6,41.43c-.51,0-1.02-.2-1.41-.59l-8.09-8.09c-.78-.78-.78-2.05,0-2.83s2.05-.78,2.83,0l8.09,8.09c.78,.78,.78,2.05,0,2.83-.39,.39-.9,.59-1.41,.59Z"/></svg>