<svg width="25" height="24" viewBox="0 0 25 24" fill="none" xmlns="http://www.w3.org/2000/svg">
<g clip-path="url(#clip0_3459_6508)">
<path d="M18.1097 16.0542L13.4406 11.8948L18.121 7.74666C18.3658 7.52917 18.5098 6.94441 18.1606 6.59527C17.7297 6.16432 17.2674 6.32981 17.0214 6.5473L12.217 10.8007L7.4095 6.55028C7.16468 6.33279 6.70104 6.18362 6.28136 6.60331C5.90718 6.9775 6.08052 7.51444 6.32653 7.73312L11.0149 11.8948L6.32676 16.0567C6.08082 16.3026 5.92921 16.8677 6.26454 17.203C6.3822 17.335 6.70482 17.4659 6.86883 17.4659C7.06764 17.4659 7.30024 17.3427 7.41315 17.2429L12.217 12.9618L17.0184 17.2453C17.1591 17.3859 17.4249 17.4659 17.5651 17.4659C17.7291 17.4659 18.0487 17.332 18.1664 17.2C18.3839 16.9552 18.5098 16.4542 18.1097 16.0542Z" fill="#CB381F"/>
<path d="M12.2168 23.3921C9.20043 23.3921 6.29865 22.2371 4.0864 20.0249C1.95309 17.8928 0.716797 15.255 0.716797 11.8957C0.716797 8.74971 1.95953 5.90388 4.09166 3.77057C6.32345 1.53877 9.20043 0.39209 12.2168 0.39209C15.2331 0.39209 18.2196 1.62623 20.3529 3.75954C22.4862 5.89285 23.7168 8.87934 23.7168 11.8957C23.7168 14.912 22.482 17.8955 20.3499 20.0276C18.2178 22.1598 15.2331 23.3921 12.2168 23.3921ZM12.2168 2.00738C6.79206 2.00738 2.33207 6.32412 2.33207 11.8945C2.33207 17.2672 6.6464 21.7768 12.2168 21.7768C17.7872 21.7768 22.1125 17.2507 22.1125 11.8945C22.1125 6.53833 17.7872 2.00738 12.2168 2.00738Z" fill="#CB381F"/>
</g>
<defs>
<clipPath id="clip0_3459_6508">
<rect width="24" height="24" fill="white" transform="translate(0.326172)"/>
</clipPath>
</defs>
</svg>
