<svg width="25" height="24" viewBox="0 0 25 24" fill="none" xmlns="http://www.w3.org/2000/svg">
<path d="M11.2146 6.24365C11.073 5.85438 10.6427 5.65356 10.2534 5.79511C9.86414 5.93667 9.66333 6.36699 9.80488 6.75627L11.6267 11.7662C11.8221 12.3036 12.2678 12.7117 12.8204 12.859L19.8165 14.7246C20.2167 14.8314 20.6277 14.5934 20.7344 14.1932C20.8411 13.793 20.6032 13.382 20.203 13.2753L13.2069 11.4097C13.1279 11.3886 13.0643 11.3303 13.0363 11.2535L11.2146 6.24365Z" fill="#6B778A"/>
<path fill-rule="evenodd" clip-rule="evenodd" d="M24.5098 12.0004C24.5098 8.7958 23.2611 5.78229 20.9943 3.51546C18.7275 1.24863 15.7149 0.00089286 12.5093 0C9.30468 0 6.29117 1.24863 4.02523 3.51457C1.75929 5.78051 0.510661 8.79401 0.509766 11.9996C0.508875 15.2051 1.7584 18.2177 4.02523 20.4845C6.29206 22.7514 9.30468 23.9991 12.5102 24C15.7158 24.0009 18.7284 22.7514 20.9952 20.4845C23.262 18.2177 24.5098 15.2051 24.5098 12.0004ZM4.91749 19.5923C0.73127 15.4061 0.73127 8.59484 4.91749 4.40862C9.10372 0.222396 15.9149 0.222396 20.1011 4.40862C24.2874 8.59484 24.2874 15.4061 20.1011 19.5923C15.9149 23.7785 9.10372 23.7785 4.91749 19.5923Z" fill="#6B778A"/>
</svg>
