<svg width="22" height="24" viewBox="0 0 22 24" fill="none" xmlns="http://www.w3.org/2000/svg">
<path id="Vector" fill-rule="evenodd" clip-rule="evenodd" d="M11.1817 0C10.757 0.637168 10.1198 1.48672 9.05784 2.97345C7.7835 4.67256 7.99587 7.00885 8.63303 8.28318C9.48259 9.76991 9.9074 11.0442 10.1198 12.3186C10.5446 14.0177 10.3322 16.5664 10.3322 16.354H9.05784C9.05784 13.3805 8.20828 10.6195 5.872 9.55752C2.68616 7.85841 -0.287292 10.8319 0.562265 14.0177C0.987044 15.7168 2.04896 16.1416 2.26135 16.1416C2.26135 16.1416 1.8366 14.4425 3.11093 13.3805C4.38527 12.531 5.87197 12.9558 6.50914 14.0177C7.14631 15.0796 7.35872 16.354 7.35872 16.354H5.02242V18.0531H9.48261C9.48261 18.0531 9.27023 20.3894 6.93395 20.177C6.93395 20.177 7.14633 22.0885 9.48261 21.0265C9.48261 21.0265 9.27022 22.9381 10.9693 24C12.4561 22.9381 12.456 21.0265 12.456 21.0265C14.7923 22.0885 15.0047 20.177 15.0047 20.177C12.456 20.3894 12.456 18.0531 12.456 18.0531H16.9162V16.354H14.5799C14.5799 16.354 14.7924 15.0796 15.4295 14.0177C16.0667 12.9558 17.5534 12.531 18.8277 13.3805C20.1021 14.2301 19.6773 16.1416 19.6773 16.1416C19.8897 16.1416 20.7392 15.5044 21.3764 14.0177C22.4383 10.8319 19.2525 7.85841 16.0667 9.55752C13.9428 10.8319 12.8808 13.5929 12.8808 16.354H12.0313C12.0313 16.5664 11.8189 14.2301 12.2437 12.3186C12.6685 11.0442 13.0932 9.76991 13.7304 8.28318C14.3676 7.00885 14.58 4.67256 13.3056 2.97345C12.2437 1.48672 11.3941 0.637168 11.1817 0Z" fill="#095797"/>
</svg>
