<svg width="81" height="135" viewBox="0 0 81 135" fill="none" xmlns="http://www.w3.org/2000/svg">
<g clip-path="url(#clip0_3086_17324)">
<path d="M26.4902 43.0653C25.681 42.4195 24.7345 41.9417 23.791 41.6681C22.0102 41.1519 19.8399 41.2731 18.594 42.9021C17.8982 43.8119 17.6932 45.0814 17.6756 46.3968C17.6575 47.7436 17.8373 49.3316 18.0811 51.0282C18.1989 51.8484 18.332 52.6975 18.4684 53.5678L18.4686 53.5693C18.9048 56.3524 19.375 59.3531 19.4915 62.3248C19.5656 64.2122 19.3255 66.159 19.0084 68.2115C18.9393 68.6591 18.8662 69.113 18.7924 69.5719L18.7916 69.5764C18.5312 71.1943 18.2605 72.8757 18.114 74.5727C17.7443 78.8532 18.1463 83.3829 21.3743 88.0532L0 135.077H41.213L41.3919 134.374C43.5314 125.965 47.9156 108.579 48.9185 104.022C50.891 103.146 54.8139 100.83 58.6379 97.9931C60.7324 96.4394 62.8274 94.7076 64.5838 92.9386C66.1456 91.3657 67.4847 89.7192 68.2994 88.1051C68.2572 88.1062 68.2149 88.1068 68.1725 88.1068H31.1562C28.5792 88.1068 26.4902 86.0178 26.4902 83.4408V43.0653Z" fill="#EFC2A9"/>
<path d="M31.1556 86.2396H68.239C68.2169 86.2401 68.1947 86.2404 68.1725 86.2404L31.1556 86.2396Z" fill="#EFC2A9"/>
<path d="M78.8875 32.7877C80.467 31.2086 80.4672 28.6479 78.8878 27.0686L78.1232 26.304C76.5444 24.7251 74.4246 24.4978 72.8452 26.0763V39.0762L78.8875 32.7877Z" fill="#EFC2A9"/>
<path d="M70.9907 68.2779C72.2067 67.062 74.1781 67.062 75.394 68.2779L76.9344 69.8183C78.1504 71.0343 78.1504 73.0057 76.9344 74.2216L74.205 76.9511C72.7679 78.3881 70.4381 78.3881 69.0011 76.9511L68.2612 76.2113C66.8242 74.7743 66.8242 72.4444 68.2612 71.0074L70.9907 68.2779Z" fill="#EFC2A9"/>
<path d="M72.6039 54.1316C73.739 52.9964 75.5934 53.0105 76.7459 54.1629L78.2008 55.6178C79.3532 56.7703 79.3673 58.6247 78.2321 59.7598L73.0266 64.9653C71.6852 66.3068 69.4935 66.2902 68.1316 64.9282L67.4355 64.2321C66.0735 62.8702 66.0569 60.6785 67.3984 59.337L72.6039 54.1316Z" fill="#EFC2A9"/>
<path d="M72.8452 40.2779C74.0612 39.062 76.0326 39.062 77.2485 40.2779L78.7689 41.7983C79.9848 43.0142 79.9848 44.9856 78.7689 46.2016L73.1928 51.7777C71.7557 53.2147 69.4259 53.2147 67.9889 51.7777L67.2691 51.0579C65.8321 49.6209 65.8321 47.2911 67.2691 45.854L72.8452 40.2779Z" fill="#EFC2A9"/>
<path fill-rule="evenodd" clip-rule="evenodd" d="M26.4902 4.66593C26.4902 2.08901 28.5792 0 31.1562 0H68.1725C70.7494 0 72.8384 2.08901 72.8384 4.66593V83.3646C72.8384 85.9415 70.7494 88.0305 68.1725 88.0305H31.1562C28.5792 88.0305 26.4902 85.9415 26.4902 83.3646V4.66593ZM56.6632 1.86637L68.1725 1.86637C69.7187 1.86637 70.9721 3.11977 70.9721 4.66593V83.3646C70.9721 84.9107 69.7187 86.1641 68.1725 86.1641H31.1562C29.61 86.1641 28.3566 84.9107 28.3566 83.3646V4.66593C28.3566 3.11978 29.61 1.86637 31.1562 1.86637L42.3544 1.86637V4.0438C42.3544 4.73098 42.9115 5.28805 43.5986 5.28805H55.419C56.1062 5.28805 56.6632 4.73098 56.6632 4.0438V1.86637Z" fill="#223654"/>
<path d="M72.8453 40.2777C74.0612 39.0617 76.0327 39.0617 77.2486 40.2777L78.769 41.7981C79.9849 43.014 79.9849 44.9854 78.769 46.2014L73.1928 51.7775C71.7558 53.2145 69.426 53.2145 67.9889 51.7775L67.2692 51.0577C65.8322 49.6207 65.8322 47.2908 67.2692 45.8538L72.8453 40.2777Z" fill="#EFC2A9"/>
<path d="M70.9908 68.2776C72.2067 67.0617 74.1781 67.0617 75.3941 68.2776L76.9345 69.8181C78.1504 71.034 78.1504 73.0054 76.9345 74.2214L74.205 76.9508C72.768 78.3879 70.4381 78.3879 69.0011 76.9508L68.2613 76.211C66.8243 74.774 66.8243 72.4441 68.2613 71.0071L70.9908 68.2776Z" fill="#EFC2A9"/>
<path d="M72.6039 54.1313C73.739 52.9962 75.5935 53.0102 76.7459 54.1627L78.2008 55.6176C79.3533 56.77 79.3673 58.6244 78.2322 59.7596L73.0267 64.9651C71.6852 66.3066 69.4936 66.2899 68.1316 64.928L67.4355 64.2319C66.0735 62.8699 66.0569 60.6783 67.3984 59.3368L72.6039 54.1313Z" fill="#EFC2A9"/>
<g clip-path="url(#clip1_3086_17324)">
<path d="M34.5 27C33.3954 27 32.5 27.8954 32.5 29V37.9371C32.5 38.8228 33.218 39.5409 34.1038 39.5409C34.9895 39.5409 35.7075 38.8228 35.7075 37.9371V32.2075C35.7075 31.103 36.603 30.2075 37.7075 30.2075H43.4371C44.3228 30.2075 45.0409 29.4895 45.0409 28.6038C45.0409 27.718 44.3228 27 43.4371 27H34.5Z" fill="#223654"/>
<path d="M55.5629 27C54.6772 27 53.9591 27.718 53.9591 28.6038C53.9591 29.4895 54.6772 30.2075 55.5629 30.2075H61.2925C62.397 30.2075 63.2925 31.103 63.2925 32.2075V37.9371C63.2925 38.8228 64.0105 39.5409 64.8962 39.5409C65.782 39.5409 66.5 38.8228 66.5 37.9371V29C66.5 27.8954 65.6046 27 64.5 27H55.5629Z" fill="#223654"/>
<path d="M66.5 50.0629C66.5 49.1772 65.782 48.4591 64.8962 48.4591C64.0105 48.4591 63.2925 49.1772 63.2925 50.0629V55.7925C63.2925 56.897 62.397 57.7925 61.2925 57.7925H55.5629C54.6772 57.7925 53.9591 58.5105 53.9591 59.3962C53.9591 60.282 54.6772 61 55.5629 61H64.5C65.6046 61 66.5 60.1046 66.5 59V50.0629Z" fill="#223654"/>
<path d="M43.4371 61C44.3228 61 45.0409 60.282 45.0409 59.3962C45.0409 58.5105 44.3228 57.7925 43.4371 57.7925H37.7075C36.603 57.7925 35.7075 56.897 35.7075 55.7925V50.0629C35.7075 49.1772 34.9895 48.4591 34.1038 48.4591C33.218 48.4591 32.5 49.1772 32.5 50.0629V59C32.5 60.1046 33.3954 61 34.5 61H43.4371Z" fill="#223654"/>
<path fill-rule="evenodd" clip-rule="evenodd" d="M40.2734 33.4154C39.1689 33.4154 38.2734 34.3108 38.2734 35.4154V40.3965C38.2734 41.5011 39.1689 42.3965 40.2734 42.3965H45.2546C46.3591 42.3965 47.2546 41.5011 47.2546 40.3965V35.4154C47.2546 34.3108 46.3591 33.4154 45.2546 33.4154H40.2734ZM44.6885 35.9814H40.8395V39.8305H44.6885V35.9814Z" fill="#223654"/>
<path fill-rule="evenodd" clip-rule="evenodd" d="M38.2734 47.6036C38.2734 46.499 39.1689 45.6036 40.2734 45.6036H45.2546C46.3591 45.6036 47.2546 46.499 47.2546 47.6036V52.5847C47.2546 53.6893 46.3591 54.5847 45.2546 54.5847H40.2734C39.1689 54.5847 38.2734 53.6893 38.2734 52.5847V47.6036ZM40.8395 48.1696H44.6885V52.0187H40.8395V48.1696Z" fill="#223654"/>
<path fill-rule="evenodd" clip-rule="evenodd" d="M53.7452 33.4154C52.6407 33.4154 51.7452 34.3108 51.7452 35.4154V40.3965C51.7452 41.5011 52.6407 42.3965 53.7452 42.3965H58.7264C59.831 42.3965 60.7264 41.5011 60.7264 40.3965V35.4154C60.7264 34.3108 59.831 33.4154 58.7264 33.4154H53.7452ZM58.1603 35.9814H54.3113V39.8305H58.1603V35.9814Z" fill="#223654"/>
<path d="M52.7074 44.962C51.8217 44.962 51.1036 45.68 51.1036 46.5658V48.4903C51.1036 49.376 51.8217 50.0941 52.7074 50.0941C53.5931 50.0941 54.3112 49.376 54.3112 48.4903V46.5658C54.3112 45.68 53.5931 44.962 52.7074 44.962Z" fill="#223654"/>
<path d="M55.5938 46.5658C55.5938 45.68 56.3118 44.962 57.1975 44.962H59.1221C60.0078 44.962 60.7258 45.68 60.7258 46.5658C60.7258 47.4515 60.0078 48.1696 59.1221 48.1696H57.1975C56.3118 48.1696 55.5938 47.4515 55.5938 46.5658Z" fill="#223654"/>
<path d="M53.9907 51.3774C53.1049 51.3774 52.3869 52.0954 52.3869 52.9811C52.3869 53.8669 53.1049 54.5849 53.9907 54.5849H59.1227C60.0085 54.5849 60.7265 53.8669 60.7265 52.9811C60.7265 52.0954 60.0085 51.3774 59.1227 51.3774H53.9907Z" fill="#223654"/>
</g>
</g>
<defs>
<clipPath id="clip0_3086_17324">
<rect width="81" height="135" fill="white"/>
</clipPath>
<clipPath id="clip1_3086_17324">
<rect width="34" height="34" fill="white" transform="translate(32.5 27)"/>
</clipPath>
</defs>
</svg>
