<svg width="327" height="240" viewBox="0 0 327 240" fill="none" xmlns="http://www.w3.org/2000/svg">
<path d="M263.5 105.497C263.5 162.716 205.87 190.893 148.709 190.893C91.5479 190.893 56.5 162.716 56.5 105.497C56.5 48.278 102.839 1.89258 160 1.89258C217.161 1.89258 263.5 48.278 263.5 105.497Z" fill="#F1F8FE"/>
<path d="M56.5 238.107H112.534L117.182 225.607C118.829 221.179 122.198 217.619 126.507 215.672C130.565 213.838 136.026 210.508 141.321 204.572C151.624 193.02 157.092 180.628 157.092 180.628L122.365 180.458C122.365 180.458 125.491 161.055 108.231 135.285C106.384 132.526 105.544 129.216 105.831 125.91L107.468 107.116C107.468 107.116 119.196 94.0232 112 77.7807C112 77.7807 105.119 68.2642 102.389 71.7481C102.389 71.7481 81.6042 121.188 79.7118 128.539C77.8193 135.89 75.296 140.511 77.8193 163.615C78.4874 169.731 78.7272 174.832 78.7189 179.026C78.7028 187.078 76.9024 195.025 73.4555 202.303L56.5 238.107Z" fill="#BB825D"/>
<path opacity="0.2" d="M108.762 206.037C103.561 200.269 96.3361 201.179 88.7381 198.548C81.1401 195.917 78.7031 176.948 78.7031 176.948L78.7024 176.945C78.7144 177.661 78.7202 178.356 78.719 179.026C78.7029 187.077 76.9025 195.025 73.4557 202.303L56.5 238.107H112.534L117.182 225.607C118.829 221.179 122.198 217.619 126.507 215.672C129.961 214.111 134.431 211.465 138.95 207.053C123.516 213.533 113.963 211.804 108.762 206.037Z" fill="#BB825D"/>
<path d="M188.421 38.7839C188.421 38.7839 200.29 30.8494 203 36.077C205.71 41.3044 187.58 59.8024 187.58 59.8024L188.421 38.7839Z" fill="#BB825D"/>
<path d="M188.421 73.3561C188.421 73.3561 200.29 65.4214 203 70.649C205.71 75.8764 187.58 94.3744 187.58 94.3744L188.421 73.3561Z" fill="#BB825D"/>
<path d="M188.421 96.9108C188.421 96.9108 200.29 88.9761 203 94.2036C205.71 99.4311 187.58 117.929 187.58 117.929L188.421 96.9108Z" fill="#BB825D"/>
<path d="M180.224 29.8926H115.067C110.215 29.8926 106.281 33.8212 106.281 38.6687V146.973V171.681C106.281 176.572 110.261 180.458 115.067 180.458H180.224C185.071 180.458 189.01 176.534 189.01 171.681V63.3775V38.6687C189.01 33.7781 185.03 29.8926 180.224 29.8926Z" fill="#1E5189"/>
<path d="M184.751 41.8538H110.54V168.497H184.751V41.8538Z" fill="#8099B3"/>
<path d="M162.789 37.8739H132.622C132.184 37.8739 131.828 37.5187 131.828 37.0804C131.828 36.6423 132.184 36.2871 132.622 36.2871H162.789C163.228 36.2871 163.583 36.6423 163.583 37.0804C163.583 37.5187 163.228 37.8739 162.789 37.8739Z" fill="#8099B3"/>
<path d="M104.804 118.457C104.804 118.457 105.252 120.12 106.264 120.938L107.468 107.115C107.468 107.115 116.095 97.4843 114.011 84.4948C113.297 80.048 111.083 75.9558 107.697 72.9824C105.764 71.2853 103.641 70.151 102.389 71.7478C102.389 71.7478 92.6151 94.9975 85.8618 111.98L104.804 118.457Z" fill="#BB825D"/>
<path d="M104.147 85.4032C106.847 84.1622 108.258 77.1431 108.762 73.9879C106.595 71.81 103.876 69.85 102.389 71.7478C102.389 71.7478 100.237 76.8674 97.2545 84.0565C99.2938 85.1902 102.128 86.3311 104.147 85.4032Z" fill="#E1A492"/>
<path d="M172.198 125.262C172.198 125.262 162.175 126.102 161.825 128.762C161.474 131.423 162.245 136.114 171.708 137.024H181.509C181.509 137.024 178.576 128.902 178.717 128.622C178.857 128.342 172.198 125.262 172.198 125.262Z" fill="#BB825D"/>
<path d="M156.117 164.949C154.759 165.669 154.287 167.383 155.057 168.711C159.67 176.657 178.01 208.234 179.663 210.803C181.555 213.743 186.181 220.674 201.531 224.245C216.881 227.816 223.189 238.107 223.189 238.107H270.5C270.5 238.107 259.356 220.465 250.104 174.677C250.104 174.677 242.954 136.66 229.497 137.921C229.497 137.921 221.296 129.309 213.306 130.99C213.306 130.99 198.167 121.958 189.545 121.958L168.838 97.5125C166.788 95.0933 163.175 94.6191 160.656 96.5449C159.845 97.1645 159.227 97.9834 159.056 99.0644C158.425 103.055 163.682 113.137 172.093 125.319C180.504 137.501 201.321 176.147 192.279 193.16C192.279 193.16 183.027 186.229 175.037 175.097C168.346 165.775 160.475 162.639 156.117 164.949Z" fill="#BB825D"/>
<path d="M189.622 121.967C192.37 124.316 194.945 126.865 197.377 129.543C199.8 132.175 202.121 135.059 204.229 137.967C206.167 140.648 208.439 144.258 209.882 147.259C211.842 151.227 212.719 154.17 213.301 157.55L213.239 157.562C212.497 154.046 211.107 150.69 209.442 147.487C208.295 145.233 206.037 141.503 203.717 138.335C201.623 135.403 199.36 132.593 197.002 129.869C194.781 127.309 191.987 124.315 189.579 122.013L189.622 121.967Z" fill="#BF674B"/>
<path d="M213.171 130.924C215.407 132.066 217.4 133.661 219.162 135.462C222.476 138.797 225.19 143.372 226.545 148.519C227.088 150.804 227.439 152.353 227.496 155.968L227.433 155.973C227.226 153.496 226.773 151.041 226.069 148.659C224.548 143.715 222.158 139.486 218.796 135.798C217.212 134.066 215.143 132.199 213.14 130.978L213.171 130.924Z" fill="#BF674B"/>
<path d="M229.331 137.752C231.308 139.245 233.302 141.882 234.272 143.668C236.513 147.514 237.573 151.597 237.758 155.966L237.696 155.975C236.854 151.108 236.025 148.345 233.75 143.953C233.009 142.474 231.097 139.573 229.295 137.791L229.331 137.752Z" fill="#BF674B"/>
<path d="M165.666 174.727C166.086 172.6 163.605 169.228 161.354 166.684C159.948 165.096 157.73 164.502 155.778 165.166C154.688 165.973 154.355 167.501 155.058 168.711C156.297 170.846 158.528 174.688 161.16 179.215C163.13 178.212 165.278 176.695 165.666 174.727Z" fill="#E1A491"/>
<path d="M167.654 107.107C168.85 106.867 174.277 105.065 173.945 104.077L168.592 97.7573C167.529 96.5025 166.046 95.7726 164.512 95.6278H164.512C164.503 95.627 164.495 95.626 164.487 95.6252C164.443 95.6213 164.345 95.614 164.208 95.6143C163.49 95.6151 161.723 95.8189 161.334 97.7601C160.95 99.6772 164.127 104.337 165.528 106.274C166.012 106.944 166.843 107.269 167.654 107.107Z" fill="#E1A492"/>
<path d="M72.645 205.08C78.5742 208.719 97.6621 219.599 117.399 221.918C118.555 222.054 119.369 223.113 119.027 224.028L115.579 233.253C115.351 233.863 114.664 234.219 113.893 234.126C108.076 233.42 84.076 229.812 67.1895 216.763C66.6147 216.319 66.3723 215.645 66.5872 215.071L70.106 205.656C70.4372 204.77 71.6798 204.488 72.645 205.08Z" fill="#1E5189"/>
<path d="M71.0442 213.951L70.7159 213.828C70.4423 213.726 70.3034 213.422 70.4055 213.149L71.5653 210.046C71.6674 209.773 71.9719 209.634 72.2454 209.736L72.5737 209.859C72.8473 209.961 72.9862 210.265 72.8841 210.538L71.7243 213.641C71.6223 213.914 71.3178 214.053 71.0442 213.951Z" fill="#063E70"/>
<path d="M74.5428 216.117L74.3181 216.033C74.0159 215.921 73.8625 215.585 73.9753 215.283L75.0963 212.284C75.2091 211.982 75.5454 211.828 75.8475 211.941L76.0725 212.025C76.3745 212.137 76.528 212.473 76.4152 212.775L75.294 215.775C75.1813 216.077 74.8449 216.23 74.5428 216.117Z" fill="#063E70"/>
<path d="M78.0987 218.288L77.8737 218.204C77.5717 218.091 77.4182 217.755 77.531 217.453L78.652 214.454C78.7649 214.152 79.1012 213.999 79.4032 214.112L79.6282 214.195C79.9303 214.308 80.0837 214.644 79.9709 214.946L78.8499 217.945C78.7371 218.247 78.4008 218.4 78.0987 218.288Z" fill="#063E70"/>
<path d="M81.7581 220.053L81.5333 219.969C81.2311 219.857 81.0776 219.521 81.1904 219.219L82.3116 216.22C82.4244 215.918 82.7607 215.765 83.0626 215.877L83.2876 215.961C83.5897 216.073 83.7431 216.409 83.6304 216.711L82.5092 219.711C82.3965 220.013 82.0603 220.166 81.7581 220.053Z" fill="#063E70"/>
<path d="M85.3584 222.105L85.1334 222.021C84.8314 221.909 84.6779 221.573 84.7907 221.271L85.9119 218.272C86.0246 217.97 86.361 217.816 86.6631 217.929L86.8879 218.013C87.1901 218.125 87.3434 218.461 87.2308 218.763L86.1096 221.763C85.9968 222.065 85.6605 222.218 85.3584 222.105Z" fill="#063E70"/>
<path d="M89.1175 223.732L88.8925 223.649C88.5903 223.536 88.4369 223.2 88.5497 222.898L89.6708 219.899C89.7836 219.597 90.1198 219.444 90.4219 219.556L90.647 219.64C90.9491 219.753 91.1025 220.089 90.9898 220.391L89.8686 223.39C89.7558 223.692 89.4196 223.845 89.1175 223.732Z" fill="#063E70"/>
<path d="M93.002 225.181L92.6737 225.059C92.4001 224.957 92.2612 224.653 92.3633 224.38L93.523 221.277C93.6251 221.003 93.9296 220.865 94.2032 220.967L94.5315 221.089C94.8051 221.191 94.944 221.495 94.8419 221.768L93.6822 224.871C93.5801 225.144 93.2756 225.283 93.002 225.181Z" fill="#063E70"/>
<path d="M96.8572 226.394L96.6323 226.31C96.3303 226.197 96.1768 225.861 96.2896 225.559L97.4106 222.56C97.5234 222.258 97.8598 222.105 98.1618 222.217L98.3867 222.301C98.6887 222.414 98.8423 222.75 98.7294 223.051L97.6084 226.051C97.4956 226.353 97.1592 226.506 96.8572 226.394Z" fill="#063E70"/>
<path d="M100.975 227.22L100.646 227.097C100.373 226.995 100.234 226.691 100.336 226.418L101.495 223.315C101.598 223.042 101.902 222.903 102.176 223.005L102.504 223.127C102.778 223.229 102.917 223.534 102.814 223.807L101.655 226.91C101.553 227.183 101.248 227.322 100.975 227.22Z" fill="#063E70"/>
<path d="M104.933 228.313L104.605 228.19C104.331 228.088 104.192 227.784 104.294 227.511L105.454 224.408C105.556 224.135 105.861 223.996 106.134 224.098L106.463 224.221C106.736 224.323 106.875 224.627 106.773 224.9L105.613 228.003C105.511 228.276 105.207 228.415 104.933 228.313Z" fill="#063E70"/>
<path d="M108.992 228.982L108.767 228.898C108.464 228.785 108.311 228.449 108.424 228.147L109.545 225.148C109.658 224.846 109.994 224.693 110.296 224.805L110.521 224.889C110.823 225.002 110.977 225.338 110.864 225.64L109.743 228.639C109.63 228.941 109.294 229.094 108.992 228.982Z" fill="#063E70"/>
<path d="M113.159 229.674L112.83 229.552C112.557 229.45 112.418 229.145 112.52 228.872L113.68 225.769C113.782 225.496 114.086 225.358 114.36 225.46L114.688 225.582C114.962 225.684 115.101 225.988 114.999 226.261L113.839 229.364C113.737 229.638 113.432 229.776 113.159 229.674Z" fill="#063E70"/>
<path d="M84.3609 226.442L84.3771 226.398C84.3144 226.39 84.2518 226.376 84.1905 226.353L79.5196 224.611C79.0585 224.439 78.8347 223.894 79.0206 223.397L83.2324 212.128C83.4183 211.63 83.9448 211.366 84.406 211.538L89.077 213.28C89.3505 213.382 89.5395 213.615 89.6101 213.892C89.9766 214.052 90.3458 214.211 90.7196 214.371C90.8446 213.424 90.3575 212.503 89.4885 212.179L84.8175 210.437C83.7939 210.055 82.6252 210.643 82.2123 211.748L78.0006 223.016C77.5877 224.121 78.0846 225.33 79.1082 225.712L83.7792 227.454C84.4797 227.716 85.2481 227.522 85.7959 227.02C85.3181 226.831 84.8398 226.639 84.3609 226.442Z" fill="#EEFBFF"/>
<path d="M83.3359 217.499L81.304 216.742C80.9398 216.606 80.5255 216.814 80.3786 217.207C80.2318 217.6 80.4079 218.029 80.7721 218.165L82.804 218.923L83.3359 217.499Z" fill="#FCBA19"/>
<path opacity="0.2" d="M223.189 238.107H270.5C270.5 238.107 263.193 226.539 255.501 197.829C252.125 218.969 233.501 217.75 226.11 218.923C217.6 220.273 184.566 213.393 179.938 211.226C181.996 214.364 186.876 220.836 201.531 224.245C216.881 227.816 223.189 238.107 223.189 238.107Z" fill="#BB825D"/>
<path opacity="0.2" d="M174.594 129.151C183.87 144.039 200.513 178.239 192.279 193.16L197.744 198.548C197.744 198.548 211.553 183.268 189.579 149.571C184.466 141.729 179.383 134.945 174.594 129.151Z" fill="#BB825D"/>
</svg>
