<svg width="164" height="36" viewBox="0 0 164 36" fill="none" xmlns="http://www.w3.org/2000/svg">
<g clip-path="url(#clip0_103_4966)">
<path d="M41.4098 26.103L41.4084 13.2793H41.3106C40.8564 13.7013 39.1684 13.7334 38.4543 13.7334H37.2162V13.8382C38.6472 14.7144 38.4529 16.0167 38.4529 17.6293L38.4543 23.0581C38.4543 25.7704 35.7895 27.675 33.6404 27.675C30.8093 27.675 29.6355 25.6684 29.6355 22.4251V13.2793H29.5363C29.0821 13.7013 27.3857 13.7334 26.6703 13.7334H25.4434V13.8382C26.8729 14.7144 26.6787 16.0167 26.6787 17.6293V23.0414C26.6787 27.9922 28.8278 30.344 32.665 30.344C34.9427 30.344 37.2819 29.5363 38.4543 27.6066V29.943H42.645V29.8382C41.2155 29.0277 41.4098 27.7239 41.4098 26.103Z" fill="#231F20"/>
<path d="M59.7239 21.2927C59.8566 16.7624 56.8285 13.3486 52.4016 13.3486C47.5527 13.3486 44.2661 16.8672 44.2661 21.7482C44.2661 26.6684 48.0726 30.4134 53.6062 30.4134C55.1363 30.4134 56.6971 30.1688 58.0987 29.5414L59.7239 26.2408H59.6288C58.1295 27.5152 56.2444 28.1189 54.2881 28.1189C50.613 28.1189 47.8448 25.6064 47.7791 21.2927H59.7239ZM47.9077 19.2456C48.2989 17.0419 49.9283 15.6431 52.1082 15.6431C54.453 15.6431 55.9482 16.7987 56.3059 19.2456H47.9077Z" fill="#231F20"/>
<path d="M62.3102 5.82926C63.0872 5.82926 64.6788 5.78035 65.1595 5.30664H65.2559V27.5165C66.1292 27.761 67.0375 27.9371 67.9402 27.9371C71.4994 27.9371 73.5339 25.447 73.5339 21.9801C73.5339 18.5831 71.9521 15.956 68.685 15.956C67.651 15.956 66.8391 16.2341 65.9671 16.726L67.7153 13.7356C68.4587 13.4561 69.2356 13.3485 70.0098 13.3485C73.7002 13.3485 76.8359 16.5499 76.8359 21.3513C76.8359 26.85 73.1133 30.4049 67.2304 30.4049C65.0295 30.4049 62.9209 30.0178 61.3223 29.7733V29.6657C62.3997 29.1724 62.3004 28.007 62.3004 26.85V10.7047C62.3004 9.08375 62.4975 6.81441 61.1001 5.93267V5.82926H62.3102Z" fill="#231F20"/>
<path d="M94.4288 21.2927C94.5588 16.7624 91.5335 13.3486 87.1038 13.3486C82.2535 13.3486 78.9683 16.8672 78.9683 21.7482C78.9683 26.6684 82.7747 30.4134 88.3125 30.4134C89.8398 30.4134 91.4007 30.1688 92.8037 29.5414L94.4288 26.2408H94.3338C92.8344 27.5152 90.9466 28.1189 88.9944 28.1189C85.3165 28.1189 82.5525 25.6064 82.4841 21.2927H94.4288ZM82.6126 19.2456C83.0053 17.0419 84.6304 15.6431 86.8103 15.6431C89.1579 15.6431 90.6545 16.7987 91.0136 19.2456H82.6126Z" fill="#231F20"/>
<path d="M108.987 17.3717H108.892C107.946 16.2091 106.384 15.6431 104.916 15.6431C101.762 15.6431 99.4847 18.041 99.4847 21.3891C99.4847 25.4387 102.64 28.1189 106.251 28.1189C107.914 28.1189 109.736 27.4118 111.009 26.3889H111.104L109.413 29.7175C108.041 30.2736 106.547 30.4134 105.115 30.4134C100.104 30.4134 96.1841 26.8836 96.1841 22.3072C96.1841 16.2454 100.558 13.3486 105.474 13.3486C106.645 13.3486 107.848 13.4856 108.987 13.765V17.3717Z" fill="#231F20"/>
<mask id="mask0_103_4966" style="mask-type:alpha" maskUnits="userSpaceOnUse" x="-42" y="-27" width="206" height="63">
<path d="M-41.0073 -26.0237V35.3965H164V-26.0237" fill="white"/>
</mask>
<g mask="url(#mask0_103_4966)">
<path fill-rule="evenodd" clip-rule="evenodd" d="M55.6628 10.4428C55.6628 8.80363 55.6628 6.91857 55.6628 6.91857C53.5304 7.87578 51.5504 9.66441 50.2271 11.4013V12.7764C53.3949 10.6426 55.6628 10.542 55.6628 10.4428Z" fill="#231F20"/>
<path d="M28.8949 33.3802C25.2659 33.974 21.7781 32.8296 18.0694 28.5886C21.6495 26.7887 23.8658 22.3144 23.8658 18.1572C23.8658 18.1139 23.8644 17.6807 23.8644 17.6374C23.7987 10.5219 18.4551 5.82115 12.0803 5.82115C5.6943 5.82115 0.0489066 10.7134 0.00279321 17.8875C0.00279321 17.9196 0 18.3374 0 18.3668C0 25.3467 5.17727 30.5253 11.5269 30.5253C12.438 30.5253 13.317 30.387 14.1959 30.1746C18.3545 34.0691 22.0589 35.7277 25.2617 35.3421C26.7793 35.159 28.3849 34.5567 29.349 33.3061L28.8949 33.3802ZM12.0468 27.9919C7.1308 27.9919 3.71282 22.4443 3.71282 17.7338C3.71282 17.6849 3.71282 17.2503 3.71282 17.2028C3.7743 12.6403 6.72975 8.36019 11.8847 8.36019C17.3093 8.36019 20.1082 13.4913 20.1515 18.3528C20.1515 18.3947 20.1515 18.8223 20.1515 18.8601C20.1515 24.0429 16.9306 27.9919 12.0468 27.9919Z" fill="#231F20"/>
<path d="M118.796 12.0899H138.522V0H118.796V12.0899Z" fill="#006CB7"/>
<path fill-rule="evenodd" clip-rule="evenodd" d="M128.662 0.632812C128.513 0.901111 128.191 1.2798 127.651 1.96451C127.022 2.74564 127.133 3.79367 127.429 4.41271C127.773 5.12816 127.971 5.72205 128.126 6.28519C128.342 7.10125 128.2 8.1968 128.214 8.09758H127.665C127.665 6.7617 127.253 5.50546 126.247 4.9479C124.815 4.15559 123.403 5.53201 123.853 6.95872C124.091 7.70772 124.509 7.96064 124.626 7.96064C124.626 7.96064 124.435 7.13619 125.03 6.71558C125.589 6.31873 126.285 6.55908 126.603 7.02859C126.909 7.47994 126.958 8.09758 126.958 8.09758H125.93V8.85776L127.996 8.85496C127.996 8.85496 127.942 9.92954 126.81 9.82334C126.81 9.82334 126.95 10.6729 127.996 10.2272C127.996 10.2272 127.942 11.1159 128.662 11.5589C129.377 11.1159 129.321 10.2272 129.321 10.2272C130.371 10.6729 130.51 9.82334 130.51 9.82334C129.377 9.92954 129.321 8.85496 129.321 8.85496L131.392 8.85776V8.09758H130.364C130.364 8.09758 130.41 7.47994 130.713 7.02859C131.037 6.55908 131.727 6.31873 132.292 6.71558C132.887 7.13619 132.693 7.96064 132.693 7.96064C132.81 7.96064 133.228 7.70772 133.466 6.95872C133.916 5.53201 132.503 4.15559 131.073 4.9479C130.065 5.50546 129.651 6.7617 129.651 8.09758H129.109C129.119 8.1968 128.976 7.10125 129.197 6.28519C129.348 5.72205 129.548 5.12816 129.887 4.41271C130.188 3.79367 130.298 2.74564 129.67 1.96451C129.127 1.2798 128.804 0.901111 128.662 0.632812Z" fill="white"/>
<path d="M144.268 12.0899H164V0H144.268V12.0899Z" fill="#006CB7"/>
<path fill-rule="evenodd" clip-rule="evenodd" d="M154.132 0.632812C153.983 0.901111 153.663 1.2798 153.119 1.96451C152.488 2.74564 152.601 3.79367 152.899 4.41271C153.244 5.12816 153.44 5.72205 153.596 6.28519C153.812 7.10125 153.669 8.1968 153.684 8.09758H153.137C153.137 6.7617 152.723 5.50546 151.717 4.9479C150.286 4.15559 148.872 5.53201 149.322 6.95872C149.558 7.70772 149.98 7.96064 150.099 7.96064C150.099 7.96064 149.903 7.13619 150.501 6.71558C151.057 6.31873 151.755 6.55908 152.072 7.02859C152.378 7.47994 152.428 8.09758 152.428 8.09758H151.4V8.85776L153.465 8.85496C153.465 8.85496 153.409 9.92954 152.28 9.82334C152.28 9.82334 152.416 10.6729 153.465 10.2272C153.465 10.2272 153.409 11.1159 154.132 11.5589C154.846 11.1159 154.793 10.2272 154.793 10.2272C155.842 10.6729 155.98 9.82334 155.98 9.82334C154.846 9.92954 154.793 8.85496 154.793 8.85496L156.862 8.85776V8.09758H155.829C155.829 8.09758 155.881 7.47994 156.183 7.02859C156.504 6.55908 157.199 6.31873 157.763 6.71558C158.353 7.13619 158.167 7.96064 158.167 7.96064C158.282 7.96064 158.702 7.70772 158.934 6.95872C159.382 5.53201 157.969 4.15559 156.539 4.9479C155.537 5.50546 155.122 6.7617 155.122 8.09758H154.579C154.591 8.1968 154.443 7.10125 154.665 6.28519C154.815 5.72205 155.02 5.12816 155.359 4.41271C155.653 3.79367 155.768 2.74564 155.138 1.96451C154.597 1.2798 154.271 0.901111 154.132 0.632812Z" fill="white"/>
<path d="M118.796 29.9362H138.522V17.8486H118.796V29.9362Z" fill="#006CB7"/>
<path fill-rule="evenodd" clip-rule="evenodd" d="M128.662 18.4805C128.513 18.7488 128.191 19.1289 127.651 19.808C127.022 20.5933 127.133 21.6385 127.429 22.2618C127.773 22.9758 127.971 23.5683 128.126 24.1314C128.342 24.9475 128.2 26.0403 128.214 25.941H127.665C127.665 24.6093 127.253 23.3531 126.247 22.7942C124.815 22.0018 123.403 23.3797 123.853 24.8064C124.091 25.5512 124.509 25.8041 124.626 25.8041C124.626 25.8041 124.435 24.9797 125.03 24.5604C125.589 24.165 126.285 24.4039 126.603 24.8749C126.909 25.3234 126.958 25.941 126.958 25.941H125.93V26.704L127.996 26.7012C127.996 26.7012 127.942 27.773 126.81 27.6724C126.81 27.6724 126.95 28.515 127.996 28.0734C127.996 28.0734 127.942 28.9594 128.662 29.4023C129.377 28.9594 129.321 28.0734 129.321 28.0734C130.371 28.515 130.51 27.6724 130.51 27.6724C129.377 27.773 129.321 26.7012 129.321 26.7012L131.392 26.704V25.941H130.364C130.364 25.941 130.41 25.3234 130.713 24.8749C131.037 24.4039 131.727 24.165 132.292 24.5604C132.887 24.9797 132.693 25.8041 132.693 25.8041C132.81 25.8041 133.228 25.5512 133.466 24.8064C133.916 23.3797 132.503 22.0018 131.073 22.7942C130.065 23.3531 129.651 24.6093 129.651 25.941H129.109C129.119 26.0403 128.976 24.9475 129.197 24.1314C129.348 23.5683 129.548 22.9758 129.887 22.2618C130.188 21.6385 130.298 20.5933 129.67 19.808C129.127 19.1289 128.804 18.7488 128.662 18.4805Z" fill="white"/>
<path d="M144.268 29.9362H164V17.8486H144.268V29.9362Z" fill="#006CB7"/>
<path fill-rule="evenodd" clip-rule="evenodd" d="M154.132 18.4805C153.983 18.7488 153.663 19.1289 153.119 19.808C152.488 20.5933 152.601 21.6385 152.899 22.2618C153.244 22.9758 153.44 23.5683 153.596 24.1314C153.812 24.9475 153.669 26.0403 153.684 25.941H153.137C153.137 24.6093 152.723 23.3531 151.717 22.7942C150.286 22.0018 148.872 23.3797 149.322 24.8064C149.558 25.5512 149.98 25.8041 150.099 25.8041C150.099 25.8041 149.903 24.9797 150.501 24.5604C151.057 24.165 151.755 24.4039 152.072 24.8749C152.378 25.3234 152.428 25.941 152.428 25.941H151.4V26.704L153.465 26.7012C153.465 26.7012 153.409 27.773 152.28 27.6724C152.28 27.6724 152.416 28.515 153.465 28.0734C153.465 28.0734 153.409 28.9594 154.132 29.4023C154.846 28.9594 154.793 28.0734 154.793 28.0734C155.842 28.515 155.98 27.6724 155.98 27.6724C154.846 27.773 154.793 26.7012 154.793 26.7012L156.862 26.704V25.941H155.829C155.829 25.941 155.881 25.3234 156.183 24.8749C156.504 24.4039 157.199 24.165 157.763 24.5604C158.353 24.9797 158.167 25.8041 158.167 25.8041C158.282 25.8041 158.702 25.5512 158.934 24.8064C159.382 23.3797 157.969 22.0018 156.539 22.7942C155.537 23.3531 155.122 24.6093 155.122 25.941H154.579C154.591 26.0403 154.443 24.9475 154.665 24.1314C154.815 23.5683 155.02 22.9758 155.359 22.2618C155.653 21.6385 155.768 20.5933 155.138 19.808C154.597 19.1289 154.271 18.7488 154.132 18.4805Z" fill="white"/>
</g>
</g>
<defs>
<clipPath id="clip0_103_4966">
<rect width="164" height="35.3967" fill="white"/>
</clipPath>
</defs>
</svg>