<svg width="184" height="36" viewBox="0 0 184 36" fill="none" xmlns="http://www.w3.org/2000/svg">
<path d="M49.4706 24.8829V9.53809H49.3544C48.8109 10.0402 46.797 10.0805 45.9433 10.0805H44.4626V10.2053C46.1729 11.2574 45.9405 12.8114 45.9405 14.7437L45.9423 21.2388C45.9423 24.4841 42.758 26.7626 40.1912 26.7626C36.8101 26.7626 35.4063 24.3583 35.4063 20.4778V9.53902H35.2901C34.7456 10.0402 32.7195 10.0815 31.8658 10.0815H30.3973V10.2063C32.1085 11.2583 31.8752 12.8124 31.8752 14.7456V21.2173C31.8752 27.1418 34.441 29.9562 39.0254 29.9562C41.7478 29.9562 44.5423 28.9887 45.9423 26.6791V29.4786H50.9503V29.3519C49.2391 28.3824 49.4706 26.8218 49.4706 24.8829Z" fill="#223654"/>
<path d="M57.2365 16.6774C57.7041 14.0422 59.6477 12.3689 62.2548 12.3689C65.0549 12.3689 66.843 13.7494 67.2703 16.6774H57.2365ZM71.3552 19.123C71.5098 13.7072 67.8925 9.62109 62.6044 9.62109C56.8092 9.62109 52.8845 13.832 52.8845 19.672C52.8845 25.5562 57.4314 30.0383 64.0438 30.0383C65.8721 30.0383 67.7379 29.7474 69.4107 28.9976L71.3552 25.0476H71.2371C69.4482 26.5707 67.1934 27.2914 64.8591 27.2914C60.4649 27.2914 57.1597 24.2865 57.0819 19.123H71.3552Z" fill="#223654"/>
<path d="M74.4407 0.625017C75.3712 0.625017 77.2727 0.566832 77.8462 0H77.9624V26.5735C79.0063 26.8663 80.0887 27.0756 81.1701 27.0756C85.42 27.0756 87.8537 24.0997 87.8537 19.9508C87.8537 15.8835 85.9607 12.7406 82.0595 12.7406C80.8234 12.7406 79.8572 13.0756 78.8133 13.6631L80.9003 10.0857C81.7877 9.7497 82.7155 9.62207 83.6432 9.62207C88.0496 9.62207 91.7962 13.4529 91.7962 19.1963C91.7962 25.7768 87.3514 30.0318 80.3202 30.0318C77.6925 30.0318 75.1707 29.5682 73.2665 29.2726V29.144C74.5494 28.5537 74.4332 27.1601 74.4332 25.7768V6.45944C74.4332 4.51964 74.6656 1.80467 72.9947 0.749832V0.625017H74.4407Z" fill="#223654"/>
<path d="M98.6983 16.6774C99.1668 14.0422 101.109 12.3689 103.717 12.3689C106.516 12.3689 108.305 13.7494 108.733 16.6774H98.6983ZM112.815 19.123C112.973 13.7072 109.355 9.62109 104.066 9.62109C98.2719 9.62109 94.3453 13.832 94.3453 19.672C94.3453 25.5562 98.8941 30.0383 105.505 30.0383C107.333 30.0383 109.201 29.7474 110.871 28.9976L112.816 25.0476H112.701C110.912 26.5707 108.655 27.2914 106.322 27.2914C101.927 27.2914 98.6224 24.2865 98.5436 19.123H112.815Z" fill="#223654"/>
<path d="M130.209 14.4354H130.094C128.965 13.0428 127.098 12.369 125.347 12.369C121.575 12.369 118.855 15.2369 118.855 19.2413C118.855 24.0885 122.626 27.2924 126.942 27.2924C128.925 27.2924 131.104 26.4487 132.62 25.2268H132.737L130.715 29.2059C129.082 29.8732 127.293 30.0393 125.58 30.0393C119.593 30.0393 114.912 25.8171 114.912 20.3374C114.912 13.0869 120.138 9.62207 126.009 9.62207C127.41 9.62207 128.848 9.78818 130.209 10.1213V14.4354Z" fill="#223654"/>
<path fill-rule="evenodd" clip-rule="evenodd" d="M66.5024 6.14425C66.5024 4.18474 66.5024 1.92773 66.5024 1.92773C63.9534 3.07172 61.5881 5.21142 60.0072 7.29293V8.93524C63.7894 6.38168 66.5024 6.2625 66.5024 6.14425Z" fill="#223654"/>
<path d="M14.3913 27.14C8.51926 27.14 4.43434 20.5051 4.43434 14.8687C4.43434 14.8115 4.43434 14.2906 4.43528 14.2343C4.50838 8.77431 8.03758 3.65218 14.1973 3.65218C20.6784 3.65218 24.0211 9.79255 24.0755 15.611C24.0755 15.6579 24.0755 16.1703 24.0755 16.2173C24.0755 22.4168 20.2258 27.14 14.3913 27.14ZM34.5207 33.5892C30.1846 34.2996 26.0163 32.9313 21.5865 27.8561C25.8654 25.7051 28.5109 20.3503 28.5109 15.3736C28.5109 15.3229 28.51 14.8068 28.51 14.7551C28.4331 6.23952 22.0457 0.617188 14.4306 0.617188C6.80058 0.617188 0.0579808 6.46945 0.000816325 15.0526C0.000816325 15.0911 -0.00012207 15.5904 -0.00012207 15.627C-0.00012207 23.9765 6.18582 30.176 13.77 30.176C14.8598 30.176 15.9085 30.0071 16.959 29.7537C21.9267 34.4131 26.3536 36.397 30.1799 35.9353C31.9951 35.7167 33.9115 34.995 35.0633 33.4963L34.5207 33.5892Z" fill="#223654"/>
<path d="M158.66 4H139.691V15.6435H158.66V4Z" fill="#095797"/>
<path fill-rule="evenodd" clip-rule="evenodd" d="M149.177 4.61035C149.039 4.86561 148.729 5.23162 148.209 5.88948C147.603 6.644 147.709 7.65473 147.996 8.24971C148.325 8.93855 148.515 9.50913 148.665 10.0516C148.873 10.8399 148.736 11.8928 148.75 11.7971H148.226C148.226 10.5123 147.824 9.30361 146.858 8.76681C145.482 8.00384 144.124 9.32613 144.555 10.701C144.784 11.4227 145.189 11.6648 145.303 11.6648C145.303 11.6648 145.114 10.8699 145.687 10.4654C146.227 10.0825 146.893 10.3134 147.203 10.7704C147.495 11.2021 147.541 11.7971 147.541 11.7971H146.554V12.5291L148.542 12.5272C148.542 12.5272 148.487 13.5624 147.4 13.4619C147.4 13.4619 147.535 14.2756 148.542 13.8505C148.542 13.8505 148.487 14.7017 149.179 15.1305C149.869 14.7017 149.819 13.8505 149.819 13.8505C150.827 14.2746 150.959 13.4619 150.959 13.4619C149.87 13.5633 149.819 12.5272 149.819 12.5272L151.807 12.5291V11.7971H150.816C150.816 11.7971 150.864 11.2031 151.155 10.7704C151.464 10.3134 152.132 10.0825 152.669 10.4654C153.242 10.8699 153.056 11.6648 153.056 11.6648C153.171 11.6648 153.574 11.4227 153.804 10.701C154.235 9.32613 152.875 8.00384 151.503 8.76681C150.532 9.30361 150.136 10.5123 150.136 11.7971H149.608C149.621 11.8928 149.484 10.8399 149.693 10.0516C149.842 9.50913 150.033 8.93855 150.362 8.24971C150.649 7.65379 150.756 6.644 150.15 5.88948C149.63 5.23162 149.317 4.86561 149.177 4.61035Z" fill="#F5F5F5"/>
<path d="M183.164 4H164.189V15.6435H183.164V4Z" fill="#095797"/>
<path fill-rule="evenodd" clip-rule="evenodd" d="M173.675 4.61035C173.534 4.86561 173.225 5.23162 172.7 5.88948C172.094 6.644 172.201 7.65473 172.491 8.24971C172.821 8.93855 173.01 9.50913 173.16 10.0516C173.366 10.8399 173.231 11.8928 173.245 11.7971H172.718C172.718 10.5123 172.319 9.30361 171.35 8.76681C169.976 8.00384 168.62 9.32613 169.051 10.701C169.277 11.4227 169.681 11.6648 169.797 11.6648C169.797 11.6648 169.609 10.8699 170.184 10.4654C170.72 10.0825 171.387 10.3134 171.695 10.7704C171.99 11.2021 172.036 11.7971 172.036 11.7971H171.049V12.5291L173.033 12.5272C173.033 12.5272 172.979 13.5624 171.893 13.4619C171.893 13.4619 172.026 14.2756 173.033 13.8505C173.033 13.8505 172.979 14.7017 173.675 15.1305C174.362 14.7017 174.309 13.8505 174.309 13.8505C175.318 14.2746 175.453 13.4619 175.453 13.4619C174.361 13.5633 174.309 12.5272 174.309 12.5272L176.299 12.5291V11.7971H175.305C175.305 11.7971 175.357 11.2031 175.646 10.7704C175.957 10.3134 176.624 10.0825 177.164 10.4654C177.733 10.8699 177.553 11.6648 177.553 11.6648C177.664 11.6648 178.067 11.4227 178.29 10.701C178.722 9.32613 177.364 8.00384 175.992 8.76681C175.026 9.30361 174.627 10.5123 174.627 11.7971H174.103C174.117 11.8928 173.976 10.8399 174.187 10.0516C174.331 9.50913 174.525 8.93855 174.853 8.24971C175.139 7.65379 175.245 6.644 174.641 5.88948C174.123 5.23162 173.808 4.86561 173.675 4.61035Z" fill="#F5F5F5"/>
<path d="M158.66 21.1895H139.691V32.8302H158.66V21.1895Z" fill="#095797"/>
<path fill-rule="evenodd" clip-rule="evenodd" d="M149.177 21.7969C149.039 22.0531 148.729 22.4191 148.209 23.0751C147.603 23.8296 147.709 24.8384 147.996 25.4353C148.325 26.1251 148.515 26.6938 148.665 27.2409C148.873 28.0255 148.736 29.0784 148.75 28.9827H148.226C148.226 27.7007 147.824 26.4883 146.858 25.9515C145.482 25.1875 144.124 26.5136 144.555 27.8856C144.784 28.6064 145.189 28.8513 145.303 28.8513C145.303 28.8513 145.114 28.0574 145.687 27.651C146.227 27.2709 146.893 27.5018 147.203 27.9513C147.495 28.3877 147.541 28.9818 147.541 28.9818H146.554V29.7128H148.542C148.542 29.7128 148.487 30.7451 147.4 30.6475C147.4 30.6475 147.535 31.4593 148.542 31.0314C148.542 31.0314 148.487 31.8872 149.179 32.3161C149.869 31.8872 149.819 31.0314 149.819 31.0314C150.827 31.4593 150.959 30.6475 150.959 30.6475C149.87 30.7451 149.819 29.7128 149.819 29.7128H151.807V28.9818H150.816C150.816 28.9818 150.864 28.3877 151.155 27.9513C151.464 27.5018 152.132 27.2709 152.669 27.651C153.242 28.0574 153.056 28.8513 153.056 28.8513C153.171 28.8513 153.574 28.6064 153.804 27.8856C154.235 26.5127 152.875 25.1866 151.503 25.9515C150.532 26.4892 150.136 27.7007 150.136 28.9827H149.608C149.621 29.0784 149.484 28.0255 149.693 27.2409C149.842 26.6938 150.033 26.1251 150.362 25.4353C150.649 24.8384 150.756 23.8296 150.15 23.0751C149.63 22.42 149.317 22.054 149.177 21.7969Z" fill="#F5F5F5"/>
<path d="M183.164 21.1895H164.189V32.8302H183.164V21.1895Z" fill="#095797"/>
<path fill-rule="evenodd" clip-rule="evenodd" d="M173.675 21.7969C173.534 22.0531 173.225 22.4191 172.7 23.0751C172.094 23.8296 172.201 24.8384 172.491 25.4353C172.821 26.1251 173.01 26.6938 173.16 27.2409C173.366 28.0255 173.231 29.0784 173.245 28.9827H172.718C172.718 27.7007 172.319 26.4883 171.35 25.9515C169.976 25.1875 168.62 26.5136 169.051 27.8856C169.277 28.6064 169.681 28.8513 169.797 28.8513C169.797 28.8513 169.609 28.0574 170.184 27.651C170.72 27.2709 171.387 27.5018 171.695 27.9513C171.99 28.3877 172.036 28.9818 172.036 28.9818H171.049V29.7128H173.033C173.033 29.7128 172.979 30.7451 171.893 30.6475C171.893 30.6475 172.026 31.4593 173.033 31.0314C173.033 31.0314 172.979 31.8872 173.675 32.3161C174.362 31.8872 174.309 31.0314 174.309 31.0314C175.318 31.4593 175.453 30.6475 175.453 30.6475C174.361 30.7451 174.309 29.7128 174.309 29.7128H176.299V28.9818H175.305C175.305 28.9818 175.357 28.3877 175.646 27.9513C175.957 27.5018 176.624 27.2709 177.164 27.651C177.733 28.0574 177.553 28.8513 177.553 28.8513C177.664 28.8513 178.067 28.6064 178.29 27.8856C178.722 26.5127 177.364 25.1866 175.992 25.9515C175.026 26.4892 174.627 27.7007 174.627 28.9827H174.103C174.117 29.0784 173.976 28.0255 174.187 27.2409C174.331 26.6938 174.525 26.1251 174.853 25.4353C175.139 24.8384 175.245 23.8296 174.641 23.0751C174.123 22.42 173.808 22.054 173.675 21.7969Z" fill="#F5F5F5"/>
</svg>