<svg id="BC_ID" data-name="BC ID" xmlns="http://www.w3.org/2000/svg" viewBox="0 0 707.21 186.61">
  <defs>
    <style>
      .cls-1 {
        fill: #fff;
      }

      .cls-2 {
        fill: #e3a82b;
      }

      .cls-3 {
        fill: #234075;
      }
    </style>
  </defs>
  <path class="cls-1"
    d="M109.59,226.32c44.7,0,106.54,25.17,151.41,25.17,32,0,63.26-8.55,81-21.13a136,136,0,1,0-268.31-.25C78.63,229.2,95.3,226.32,109.59,226.32Z"
    transform="translate(-70.22 -70.18)" />
  <rect class="cls-2" x="345.18" y="182.8" width="314.66" height="3.82" />
  <path class="cls-3"
    d="M423.47,116.64c0-6.39-.45-8.08-4.77-8.43l-3-.2c-.49-.39-.36-2.12.09-2.16,5.17-.46,11.69-.69,20.6-.69,6,0,11.79.43,16.1,2.42,4.12,1.81,7.28,5.26,7.28,10.78,0,6.22-4,9.41-9.77,11.83,0,.86.76,1.12,1.82,1.29,5.17.87,12.83,5.18,12.83,14.42,0,10-8.23,16.75-25.48,16.75-2.78,0-7.47-.26-11.5-.26-4.21,0-7.47.17-11,.26a1.57,1.57,0,0,1-.19-2.16l1.73-.26c5.07-.78,5.27-1.73,5.27-10.79Zm7.85,11.48c0,2.42.1,2.59,5,2.42,9.78-.35,15.05-2.94,15.05-11,0-8.46-7-11.66-14.28-11.66a13.16,13.16,0,0,0-4.41.52c-1,.26-1.34.69-1.34,2.25Zm0,20c0,3.11.19,7.51,2,9.41S438,160,440.9,160c8.53,0,15.05-3.45,15.05-12.08,0-6.82-3.84-14.76-19.07-14.76-5.17,0-5.56.51-5.56,2.24Z"
    transform="translate(-70.22 -70.18)" />
  <path class="cls-3"
    d="M531.26,125.14c0-7.82-.17-9.07-5-9.44l-2-.15c-.49-.29-.33-1.62.16-1.84,4.09.14,6.88.22,10.31.22,3.28,0,6.06-.08,10.15-.22.49.22.66,1.55.17,1.84l-2,.15c-4.83.37-5,1.62-5,9.44v26.24c0,7.82.16,8.85,5,9.37l2,.22c.49.29.32,1.62-.17,1.84-4.09-.15-6.87-.22-10.15-.22-3.43,0-6.22.07-10.31.22a1.33,1.33,0,0,1-.16-1.84l2-.22c4.82-.52,5-1.55,5-9.37Z"
    transform="translate(-70.22 -70.18)" />
  <path class="cls-3"
    d="M576.66,151.53c0,7.74.15,8.85,4.6,9.22l2.45.22c.46.29.31,1.62-.15,1.84-4.37-.15-7-.22-10-.22s-5.75.07-10.66.22a1.24,1.24,0,0,1,0-1.84l2.76-.22c4.37-.37,4.75-1.48,4.75-9.22v-33c0-2.28,0-2.35-2.3-2.35h-4.21c-3.3,0-7.52.14-9.44,1.84a13.48,13.48,0,0,0-3.45,5.08,1.5,1.5,0,0,1-2-.51,74,74,0,0,0,2.91-11,2,2,0,0,1,1.46,0c.46,2.36,3,2.29,6.52,2.29h31c4.14,0,4.83-.15,6-2.06.39-.15,1.23-.08,1.38.22a43.07,43.07,0,0,0-1.15,11.2c-.3.59-1.61.59-2,.15-.23-1.84-.77-4.57-1.92-5.38-1.76-1.26-4.67-1.84-8.89-1.84h-5.45c-2.3,0-2.22.07-2.22,2.5Z"
    transform="translate(-70.22 -70.18)" />
  <path class="cls-3"
    d="M609.53,125.14c0-7.82-.17-9.07-5-9.44l-2-.15c-.49-.29-.33-1.62.16-1.84,4.09.14,6.88.22,10.31.22,3.28,0,6.06-.08,10.15-.22.49.22.66,1.55.17,1.84l-2,.15c-4.83.37-5,1.62-5,9.44v26.24c0,7.82.16,8.85,5,9.37l2,.22c.49.29.32,1.62-.17,1.84-4.09-.15-6.87-.22-10.15-.22-3.43,0-6.22.07-10.31.22a1.33,1.33,0,0,1-.16-1.84l2-.22c4.83-.52,5-1.55,5-9.37Z"
    transform="translate(-70.22 -70.18)" />
  <path class="cls-3"
    d="M646.2,163.57a31,31,0,0,1-13.57-2.73c-1-1.62-2.18-6.86-2.35-10.32.43-.52,1.74-.67,2.09-.22,1.3,3.76,4.87,11,15,11,7.31,0,10.88-4.05,10.88-8.48,0-3.24-.79-6.85-7.14-10.32l-8.26-4.57c-4.35-2.43-9.4-6.64-9.4-12.68,0-7,6.44-12.68,17.75-12.68a39.79,39.79,0,0,1,8.09,1,13.41,13.41,0,0,0,3,.45,27.55,27.55,0,0,1,1.57,9,2,2,0,0,1-2.17.22c-1.14-3.54-3.48-8.33-11.84-8.33-8.52,0-10.35,4.79-10.35,8.19,0,4.27,4.18,7.37,7.39,9.06l7,3.69c5.49,2.88,10.88,7.15,10.88,14.16C664.73,158,657.51,163.57,646.2,163.57Z"
    transform="translate(-70.22 -70.18)" />
  <path class="cls-3"
    d="M690,138.78c-3.81,0-4,.14-4,2.35v10.4c0,7.74.4,8.78,4.84,9.22l2.3.22c.48.29.32,1.62-.16,1.84-4.28-.15-7-.22-10.07-.22-3.41,0-6.11.15-9.21.22a1.36,1.36,0,0,1-.15-1.84l1.34-.22c4.45-.74,4.61-1.48,4.61-9.22V125c0-7.74-.56-9-4.68-9.29l-2.07-.15c-.47-.29-.31-1.62.16-1.84,3.89.07,6.59.22,10,.22,3.09,0,5.79-.08,9.2-.22.48.22.64,1.55.16,1.84l-1.51.15c-4.6.44-4.76,1.55-4.76,9.29v8.48c0,2.28.16,2.36,4,2.36h22.69c3.81,0,4-.08,4-2.36V125c0-7.74-.16-8.85-4.84-9.29l-1.51-.15c-.48-.29-.32-1.62.16-1.84,3.65.14,6.35.22,9.6.22,3.09,0,5.79-.08,9.36-.22.48.22.63,1.55.16,1.84l-1.67.15c-4.6.44-4.76,1.55-4.76,9.29v26.54c0,7.74.16,8.7,4.76,9.22l1.91.22c.47.29.31,1.62-.16,1.84-3.81-.15-6.51-.22-9.6-.22-3.25,0-6.11.07-9.6.22a1.35,1.35,0,0,1-.16-1.84l1.51-.22c4.84-.74,4.84-1.48,4.84-9.22v-10.4c0-2.21-.16-2.35-4-2.35Z"
    transform="translate(-70.22 -70.18)" />
  <path class="cls-3"
    d="M378.06,179c6.52-5.07,14.83-7.56,24.12-7.56A69,69,0,0,1,418,173.58a6.69,6.69,0,0,0,2.5.36c.09,2.05.54,7.65,1.25,13.08a1.87,1.87,0,0,1-2.41.18c-1.34-6-5.36-13-18.31-13-13.67,0-25.28,8.64-25.28,27.07,0,18.69,11.88,29,26.53,29,11.52,0,16.61-7.48,18.67-12.73a1.88,1.88,0,0,1,2.32.35c-.62,4.63-2.95,10.51-4.29,12.2a17.78,17.78,0,0,0-3.12.89,52.94,52.94,0,0,1-14.12,2.05c-8,0-15.72-1.61-22.24-6A28.66,28.66,0,0,1,366.8,202.6,29.53,29.53,0,0,1,378.06,179Z"
    transform="translate(-70.22 -70.18)" />
  <path class="cls-3"
    d="M426.92,207.81c0-14.75,11.61-26,27.56-26,17.88,0,26.86,12.31,26.86,25.29,0,14.89-11.92,25.73-26.86,25.73C437.29,232.8,426.92,221.08,426.92,207.81Zm46.68,1.54c0-12.16-5.65-25.29-20.44-25.29-8.05,0-18.5,5.24-18.5,21.39,0,10.91,5.57,25.07,20.82,25.07C464.77,230.52,473.6,223.88,473.6,209.35Z"
    transform="translate(-70.22 -70.18)" />
  <path class="cls-3"
    d="M568.68,201.47c0-4.58-.16-13.06-1.49-15.27-.55-.88-2-1.4-3.9-1.55l-2-.14a1.28,1.28,0,0,1,.16-1.77c3,.14,5.86.22,8.91.22,3.28,0,5.39-.08,8.2-.22a1.22,1.22,0,0,1,.16,1.77l-1.88.14c-2,.15-3.44.82-3.9,1.77-1.1,2.44-1.1,10.92-1.1,15.05v8.33c0,6.41-1.09,13.2-5.47,17.62-3.36,3.46-9.14,5.38-14.93,5.38-5.39,0-10.78-1-14.61-4.05-4.14-3.25-6.1-8.63-6.1-17.4V193.94c0-7.66-.15-8.92-4.68-9.29l-2-.14c-.47-.3-.31-1.55.16-1.77,3.91.14,6.56.22,9.69.22s5.78-.08,9.61-.22c.47.22.63,1.47.16,1.77l-1.88.14c-4.53.37-4.69,1.63-4.69,9.29v15.93c0,11.87,3.91,19.69,15.87,19.69,11.33,0,15.63-8.41,15.63-19.61Z"
    transform="translate(-70.22 -70.18)" />
  <path class="cls-3"
    d="M659.52,192.26c0-5.52-.35-6.93-4.24-7.23l-2.76-.27c-.32-.28-.48-1.77.08-1.81,4.67-.35,10.54-.6,18.58-.6,5.44,0,10.62.37,14.51,2.08,3.71,1.57,6.56,4.55,6.56,9.32,0,5.36-3.63,8.11-8.81,10.2,0,.74.69,1,1.64,1.11,4.67.75,11.58,4.47,11.58,12.44,0,8.64-7.43,14.45-23,14.45-2.5,0-6.74-.23-10.36-.23-3.8,0-6.74.15-9.94.23a1.3,1.3,0,0,1-.17-1.86l1.55-.23c4.58-.67,4.76-1.49,4.76-9.31Zm7.08,9.9c0,2.09.09,2.23,4.49,2.09,8.81-.3,13.56-2.54,13.56-9.54,0-7.3-6.3-10.05-12.87-10.05a12.11,12.11,0,0,0-4,.45c-.87.22-1.21.59-1.21,1.93Zm0,17.28c0,2.68.17,6.47,1.81,8.11s4.24,2.09,6.83,2.09c7.69,0,13.56-3,13.56-10.43,0-5.88-3.46-12.73-17.19-12.73-4.67,0-5,.44-5,1.94Z"
    transform="translate(-70.22 -70.18)" />
  <path class="cls-3"
    d="M518.75,161l-2-.18c-.41,0-.78-.09-1.13-.15-3-.53-4.19-3.2-5.6-5.67l-7.08-12.33c-1.22-2-2.53-4.81-5.33-5.21,7.25-.87,13.81-5.06,13.81-12.24,0-8.3-8.22-12-16.52-12-5,0-9.52.13-14.59.13-2.79,0-6.12-.13-8.91-.13-1.56,0-1.57.31-1.57,1.18,0,1.28.54.93,2.18,1,5.91.33,5.68,1.43,5.68,6.49v32.31c0,4.62.4,6-4.46,6.44l-1.16.12L470,161a1.32,1.32,0,0,0,.17,1.84l3-.11c2.69-.08,5.37-.29,8.06-.29s5.29.21,7.95.29h0l3,.1a1.32,1.32,0,0,0,.16-1.84l-2.07-.19-1.15-.11c-4.9-.34-4.6-1.72-4.6-6.46V142c0-.71-.09-2.6.44-3.16s1.22-.39,1.92-.39c6.64,0,6.55.63,9.7,6.16l8.56,15.4c.7,1.19,1.22,2.69,3,2.69h7.44l3,.1A1.33,1.33,0,0,0,518.75,161Zm-29.83-24.23c-1.49,0-4.46.55-4.46-1.42V121.18c0-5.53.18-6.32,6.82-6.32,7.77,0,12.58,4,12.58,11.22a9.26,9.26,0,0,1-4,8C496.52,136.43,492.94,136.74,488.92,136.74Z"
    transform="translate(-70.22 -70.18)" />
  <path class="cls-3"
    d="M490.52,194.2c0-7.75-.16-8.93-5.27-9.3l-2-.14c-.48-.3-.32-1.62.17-1.85,4.54.15,7.3.22,10.54.22s5.92-.07,10-.21c.48.22.64,1.54.16,1.84l-1.95.14c-4.78.37-4.95,1.55-4.95,9.3v25.65c0,4.65.25,6.57,1.71,8,.89.81,2.43,1.69,8.84,1.69,6.89,0,8.59-.29,9.89-1,1.62-.88,3.73-3.53,5.35-7.3.49-.36,2-.07,2,.45a55.46,55.46,0,0,1-3.4,10.32c-4.14-.15-11.85-.22-20.2-.22h-7.46c-3.41,0-6,.07-10.54.22a1.34,1.34,0,0,1-.17-1.84l2.44-.23c4.7-.44,4.86-1.47,4.86-9.21Z"
    transform="translate(-70.22 -70.18)" />
  <path class="cls-3"
    d="M707.79,194.34c0-7.81-.16-9.07-4.86-9.44l-2-.14c-.48-.3-.32-1.62.16-1.85,4,.15,6.69.22,10,.22s5.9-.07,9.88-.21c.47.22.63,1.54.16,1.84l-2,.14c-4.69.37-4.85,1.63-4.85,9.44v26.25c0,7.82.16,8.85,4.85,9.36l2,.23c.47.29.31,1.62-.16,1.84-4-.15-6.69-.22-9.88-.22s-6,.07-10,.22a1.35,1.35,0,0,1-.16-1.84l2-.23c4.7-.51,4.86-1.54,4.86-9.36Z"
    transform="translate(-70.22 -70.18)" />
  <path class="cls-3"
    d="M644.16,229.94c-.41-.05-1.17-.11-1.17-.11a3.07,3.07,0,0,1-2.19-.85c-1-1.1-.95-4.23-.95-5.48V191.19c0-1.41-.34-4.46.69-5.55a3.82,3.82,0,0,1,2.55-.73h0l1.11-.08,2-.14c.49-.3.33-1.62-.16-1.85-1.1,0-2.09,0-3,.06h-8.69c-1,0-1.81,0-2.33,1l-17.73,36.92-15.65-35.67c-.52-1.25-.6-2.27-2.24-2.27h-9.06c-.94,0-2,0-3.07-.06-.49.23-.66,1.55-.17,1.85l2,.14,1.18.09c3.4.22,3.61,1,3.3,4.55L588,224.13c-.23,3.48-.42,5.31-4.06,5.65,0,0-.77.1-1.2.14l-2,.23a1.33,1.33,0,0,0,.16,1.84l3-.1c1.85-.09,3.73-.25,5.61-.25,2,0,4.06.19,6.1.27h0l3,.1a1.33,1.33,0,0,0,.16-1.84l-2-.22-1.15-.1c-5.26-.36-5.14-4.07-4.81-8.62L593.21,189h.61l16.95,39.66c.17.55.43,1.49,1.29,1.49s1-.86,1.29-1.41l19.1-40.68h.6V223.5c0,1.41.18,4.3-1.29,5.4a10.68,10.68,0,0,1-3.25.91c-.34.05-.7.1-1.11.14l-2,.23a1.33,1.33,0,0,0,.16,1.84l3-.1c2.78-.08,5.6-.28,8.42-.28,2,0,6,.19,6,.19,1,0,2,.13,3.12.17a1.33,1.33,0,0,0,.17-1.84Z"
    transform="translate(-70.22 -70.18)" />
  <path class="cls-3"
    d="M777.13,230.14l-.27-.22-1.12-.15c-3.19-.71-4.43-4.55-5.61-7.29l-16.4-38.83c-.17-.47-.49-1.48-1.14-1.48-.9,0-1.14,1.09-1.38,1.7l-15.68,38.76c-.57,1.47-2,5-3.09,6.12a4.49,4.49,0,0,1-3,1.1l-1.31.13-1.93.2a1.33,1.33,0,0,0,.17,1.84l3-.11c2.14,0,4.29-.3,6.44-.3,1.8,0,3.61.19,5.41.27l3,.11a1.33,1.33,0,0,0,.17-1.84l-2.05-.22-1.11-.11c-1.89-.21-4.24-.55-4.24-2.62a12.75,12.75,0,0,1,1.14-4.26l2.44-5.8c1.22-2.78.73-3.09,4-3.09h11c3.89,0,3.32,0,5,3.95l2.6,5.87a12.7,12.7,0,0,1,1.14,3.8c0,1.94-2.13,2.07-4.11,2.23l-1.23.1-2,.15a1.33,1.33,0,0,0,.17,1.84l3-.12c2.31-.08,4.64-.26,6.87-.26,2.84,0,5.69.19,8.53.27h0c.94,0,.15.06,1.23.1A1.33,1.33,0,0,0,777.13,230.14Zm-21.49-18.25h-9.58c-.33,0-3,.31-3-.47a3.64,3.64,0,0,1,.25-.94l5.74-14.23c.17-.39.75-2.34,1.42-2.34.5,0,1.16,2,1.33,2.34l5.66,13.29c0,.16.58,1.41.58,1.72C758.05,212.12,756.14,211.89,755.64,211.89Z"
    transform="translate(-70.22 -70.18)" />
  <polygon class="cls-2" points="225.67 105.99 231.05 108.22 242.98 99.9 225.67 105.99" />
  <path class="cls-2"
    d="M95.45,166.88l-14.13-5,.7-1.73L98,165.48l.07,0,2.1-1.19.84-.52-17.37-7.39.74-1.82,38.75,15.68,1.28-.53L85.92,150.94l.86-1.76,40.73,18.95.56-.28-39.49-22.4.81-1.68,57,31c.47-.87,1.45-2.44,2-3.29a508.11,508.11,0,0,0-42.61-35.69,508.4,508.4,0,0,0,48.08,27.81c.87-1.09,1.59-2,2.53-3l-48.65-42.83,1.3-1.35,39.27,33.47-36.38-36.43,1.36-1.41,40.85,39.47-38-42.2,1.45-1.31,35.14,37.63-32.07-40.41L122,104l41.11,50c1.07-.91,1.95-1.6,3.06-2.45a507.8,507.8,0,0,0-26-48.81,508.23,508.23,0,0,0,34,43.56c1.19-.67,2.4-1.31,3.63-1.91l-.2-.14-28.81-57.5,1.71-.75,23.87,45.74L154.23,84.35l1.79-.8,23.08,51.9L159.66,82.08l1.84-.67L180,129.46,165.38,80l1.75-.65,19.22,61.38,0,.16.05,0c1.27-.43,2.57-.81,3.88-1.16A507.76,507.76,0,0,0,184.43,85a508.06,508.06,0,0,0,15.08,52.87c1.35-.17,2.7-.31,4.07-.4l0-.07h.17l-.1-.14-5.17-64.1,1.87-.06,5,51.35L204.45,73l2-.06,2,56.76,2-56.76,2,.06-.86,51.48,5-51.35,1.87.06-5.17,64.1-.1.14h0l0,0h.09c1.34.09,2.66.22,4,.38A507.09,507.09,0,0,0,232.16,85a507.63,507.63,0,0,0-5.82,54.57c1.32.35,2.63.73,3.92,1.15l19.15-61.16,1.75.65-14.6,49.48,18.49-48.05,1.84.67-19.45,53.37,23.08-51.9,1.8.8L242.23,132,266.1,86.23l1.72.76-28.71,57.29,0,0q1.77.87,3.48,1.83a506.61,506.61,0,0,0,33.79-43.37,508.85,508.85,0,0,0-25.88,48.52c1.1.84,2.19,1.71,3.24,2.6l40.63-49.48,1.38,1.25-32.07,40.41,35.14-37.62,1.45,1.31-38,42.2,40.84-39.48,1.37,1.41-36.38,36.43,39.27-33.46,1.3,1.34-48.06,42.35,0,0c.84.93,1.65,1.9,2.44,2.88a508.41,508.41,0,0,0,47.71-27.63,508.14,508.14,0,0,0-42.29,35.4c.6,1,1.55,2.67,2.09,3.69l56.23-30.62.81,1.69-44.88,25.45,46.68-21.72.85,1.76-43.47,21.19.83.29,44.24-17.9.74,1.82-41.13,17.49.77.32,27.4-9.14,4.13-2.88,1.38,1.05,9-3,.71,1.73-7.8,2.75,11.27,8.6,3.61,2A137.81,137.81,0,0,0,73.28,179l.5-.25,1.65-.74,1-.48Z"
    transform="translate(-70.22 -70.18)" />
  <path class="cls-3"
    d="M72.5,233S92.82,229,109.79,229c44.7,0,106.54,25.17,151.4,25.17,32.92,0,65-9,82.52-22.19A138.78,138.78,0,0,0,342,175.79l-18.7-10.43-21.95,15.39L286.59,175c-5,2.53-35.84,23.15-35.84,23.15l-11.83-8.57-12.7-2.51-16.93-12.33-19.42,13.34s-21.67,12.58-22.42,12.58-26.14-20.14-26.14-20.14l-11.7-12.32c-2,1.25-10,4.91-10,4.91l-.41.11-7.7-2.39-9.36-5L73.78,178.75l-.5.25a138.7,138.7,0,0,0-.78,54Z"
    transform="translate(-70.22 -70.18)" />
</svg>