<svg width="24" height="24" viewBox="0 0 24 24" fill="none" xmlns="http://www.w3.org/2000/svg">
<g clip-path="url(#clip0_3436_1120)">
<path d="M0.599967 22.7999C0.329967 22.7999 0.0935672 22.6199 0.0215672 22.3595C-0.0504328 22.0991 0.0599672 21.8231 0.291567 21.6851C2.32077 20.4683 3.16197 18.6983 3.46077 17.8703C1.25517 16.1819 -3.27758e-05 13.8455 -3.27758e-05 11.3999C-3.27758e-05 10.1651 0.309567 8.96868 0.921567 7.84308C1.50477 6.77028 2.33757 5.80908 3.39477 4.98588C5.53917 3.31788 8.38197 2.39868 11.4 2.39868C14.418 2.39868 17.2608 3.31788 19.4052 4.98588C20.4624 5.80788 21.2952 6.76908 21.8784 7.84308C22.4904 8.96748 22.8 10.1639 22.8 11.3999C22.8 12.6359 22.4904 13.8311 21.8784 14.9567C21.2952 16.0295 20.4624 16.9907 19.4052 17.8139C17.2608 19.4819 14.418 20.4011 11.4 20.4011C10.1604 20.4011 8.94357 20.2463 7.78077 19.9391C7.26597 20.2823 6.30357 20.8907 5.15397 21.4631C3.36837 22.3511 1.83717 22.8011 0.601167 22.8011L0.599967 22.7999ZM11.4 3.59988C5.77557 3.59988 1.19997 7.09908 1.19997 11.3999C1.19997 13.5779 2.40597 15.6743 4.50717 17.1503C4.71357 17.2955 4.80717 17.5535 4.74237 17.7971C4.60197 18.3203 4.12437 19.7567 2.84637 21.1427C4.40877 20.5955 6.09117 19.6463 7.33317 18.7919C7.48077 18.6899 7.66557 18.6599 7.83837 18.7091C8.97597 19.0343 10.1748 19.1999 11.4 19.1999C17.0244 19.1999 21.6 15.7007 21.6 11.3999C21.6 7.09908 17.0244 3.59988 11.4 3.59988Z" fill="#223654"/>
</g>
<defs>
<clipPath id="clip0_3436_1120">
<rect width="24" height="24" fill="white"/>
</clipPath>
</defs>
</svg>
