<svg width="114" height="113" viewBox="0 0 114 113" fill="none" xmlns="http://www.w3.org/2000/svg">
<g clip-path="url(#clip0_907_2043)">
<path d="M57.0886 112.989C88.2333 112.989 113.481 87.7416 113.481 56.597C113.481 25.4524 88.2333 0.204651 57.0886 0.204651C25.944 0.204651 0.696289 25.4524 0.696289 56.597C0.696289 87.7416 25.944 112.989 57.0886 112.989Z" fill="#F9C462"/>
<path d="M113.477 56.597C113.477 87.7378 88.2295 112.985 57.0886 112.985C25.9478 112.985 0.696289 87.7378 0.696289 56.597C0.696289 53.1346 1.00733 49.7459 1.60485 46.4596L13.7968 41.0614L17.6234 43.0954L20.7788 44.0695L20.9466 44.0244C20.9466 44.0244 24.2003 42.5306 25.0188 42.015L29.8072 47.0612C29.8072 47.0612 40.2024 55.2996 40.5053 55.2996C40.8082 55.2996 49.681 50.1511 49.681 50.1511L57.6289 44.6915L64.5577 49.7378L69.7553 50.7691L74.5969 54.2724C74.5969 54.2724 87.2186 45.8334 89.2649 44.802L95.3056 47.1553L104.289 40.8527L112.356 45.3505C113.092 48.9847 113.477 52.7458 113.477 56.597Z" fill="#234075"/>
<mask id="mask0_907_2043" style="mask-type:alpha" maskUnits="userSpaceOnUse" x="0" y="0" width="114" height="113">
<path d="M57.0886 112.989C88.2333 112.989 113.481 87.7416 113.481 56.597C113.481 25.4524 88.2333 0.204651 57.0886 0.204651C25.944 0.204651 0.696289 25.4524 0.696289 56.597C0.696289 87.7416 25.944 112.989 57.0886 112.989Z" fill="#D9D9D9"/>
</mask>
<g mask="url(#mask0_907_2043)">
<path d="M122.722 81.6562C93.1696 81.6562 93.1696 70.1968 63.6208 70.1968C34.0679 70.1968 34.0679 81.6562 4.51913 81.6562C-25.0337 81.6562 -25.0337 70.1968 -54.5866 70.1968C-84.1395 70.1968 -84.1395 81.6562 -113.692 81.6562V123.278H122.727V81.6562H122.722Z" fill="#76BAFF"/>
</g>
</g>
<defs>
<clipPath id="clip0_907_2043">
<rect width="114" height="113" fill="white"/>
</clipPath>
</defs>
</svg>
