<svg width="111" height="85" viewBox="0 0 111 85" fill="none" xmlns="http://www.w3.org/2000/svg">
<g clip-path="url(#clip0_1597_1916)">
<path d="M71.6 49.92V52.48C71.6 58.75 76.68 63.84 82.95 63.84H103.14V75.71C103.14 79.55 100.03 82.66 96.19 82.66H8.94999C5.10999 82.66 1.99999 79.55 1.98999 75.71V8.96C1.98999 12.8 5.09999 15.91 8.93999 15.92H96.18C100.02 15.92 103.13 19.04 103.14 22.88V38.58H82.95C76.68 38.58 71.6 43.66 71.6 49.93" fill="#8099B3"/>
<path d="M8.95 84.67C6.56 84.67 4.31 83.74 2.62 82.05C0.93 80.36 0 78.11 0 75.72V8.96C0 7.86 0.9 6.96 2 6.96C3.1 6.96 4 7.86 4 8.96C4 10.28 4.51 11.53 5.45 12.46C6.39 13.4 7.63 13.91 8.95 13.91H96.19C101.13 13.91 105.14 17.93 105.15 22.86V38.56C105.15 39.66 104.25 40.56 103.15 40.56H82.96C77.81 40.56 73.61 44.76 73.61 49.91V52.47C73.61 57.63 77.81 61.83 82.97 61.83H103.16C104.26 61.83 105.16 62.73 105.16 63.83V75.7C105.16 78.09 104.23 80.34 102.54 82.03C100.85 83.72 98.6 84.65 96.21 84.65H8.95V84.67ZM4 16.42V75.72C4 77.05 4.52 78.29 5.45 79.22C6.38 80.15 7.63 80.67 8.95 80.67H96.19C97.52 80.67 98.76 80.15 99.69 79.22C100.63 78.28 101.14 77.04 101.14 75.72V65.85H82.95C75.59 65.85 69.6 59.85 69.6 52.49V49.92C69.6 42.56 75.6 36.57 82.95 36.57H101.15V22.87C101.15 20.14 98.93 17.92 96.19 17.91H8.96C7.17 17.91 5.46 17.39 4 16.42Z" fill="#003366"/>
<path d="M82.28 8.96V15.92H8.94999C5.10999 15.92 1.98999 12.81 1.98999 8.96C1.98999 5.11 5.09999 2 8.94999 2H75.32C79.16 2 82.27 5.12 82.28 8.96Z" fill="#335C85"/>
<path d="M84.28 17.91H8.96C4.02 17.91 0 13.89 0 8.96C0 4.03 4.02 0 8.96 0H75.33C80.26 0 84.28 4.02 84.29 8.95V17.91H84.28ZM8.96 4C6.23 4 4 6.22 4 8.96C4 11.7 6.22 13.92 8.96 13.92H80.29V8.97C80.29 6.24 78.06 4.01 75.33 4.01H8.96V4Z" fill="#003366"/>
<path d="M108.9 38.56V63.84H82.95C76.68 63.84 71.6 58.75 71.6 52.48V49.91C71.6 43.64 76.68 38.56 82.95 38.56H108.9Z" fill="#8099B3"/>
<path d="M108.9 65.85H82.95C75.59 65.85 69.6 59.85 69.6 52.48V49.91C69.6 42.55 75.6 36.56 82.95 36.56H108.9C110 36.56 110.9 37.46 110.9 38.56V63.85C110.9 64.95 110 65.85 108.9 65.85ZM82.95 40.56C77.8 40.56 73.6 44.76 73.6 49.92V52.48C73.6 57.64 77.8 61.84 82.96 61.85H106.9V40.56H82.95Z" fill="#003366"/>
<path d="M83.83 57.27C83.58 57.27 83.33 57.25 83.08 57.22C81.47 57.02 80.03 56.21 79.03 54.93C78.03 53.65 77.59 52.06 77.79 50.45C78.2 47.12 81.23 44.76 84.56 45.16C86.17 45.36 87.61 46.17 88.61 47.45C89.61 48.73 90.05 50.32 89.85 51.93C89.47 55.01 86.84 57.26 83.82 57.26L83.83 57.27ZM83.83 49.12C82.8 49.12 81.9 49.89 81.77 50.94C81.7 51.49 81.85 52.03 82.19 52.47C82.53 52.91 83.02 53.18 83.57 53.25C84.7 53.39 85.74 52.58 85.89 51.44C85.96 50.89 85.81 50.35 85.47 49.91C85.13 49.47 84.64 49.2 84.09 49.13C84.01 49.12 83.92 49.11 83.84 49.11L83.83 49.12Z" fill="#003366"/>
</g>
<defs>
<clipPath id="clip0_1597_1916">
<rect width="110.9" height="84.67" fill="white"/>
</clipPath>
</defs>
</svg>
