<svg width="24" height="17" viewBox="0 0 24 17" fill="none" xmlns="http://www.w3.org/2000/svg">
<path fill-rule="evenodd" clip-rule="evenodd" d="M0 15C0 15.9924 0.8076 16.8 1.8 16.8H22.2C23.1924 16.8 24 15.9924 24 15V1.8C24 0.807599 23.1924 0 22.2 0H1.8C0.8076 0 0 0.807599 0 1.8V15ZM1.2 1.8C1.2 1.4688 1.4688 1.2 1.8 1.2H22.2C22.5312 1.2 22.8 1.4688 22.8 1.8V15C22.8 15.3312 22.5312 15.6 22.2 15.6H1.8C1.4688 15.6 1.2 15.3312 1.2 15V1.8ZM10.2012 13.2C10.5324 13.2 10.8012 12.9312 10.8012 12.6C10.8012 12.5844 10.8012 12.5688 10.8 12.5544C10.7928 12.3708 10.74 11.7312 10.3344 11.082C9.9108 10.4064 9.0252 9.59999 7.2 9.59999C5.3748 9.59999 4.488 10.4064 4.0656 11.082C3.6132 11.8068 3.6 12.5208 3.6 12.6C3.6 12.9312 3.8688 13.2 4.2 13.2H10.2012ZM9.2916 11.6796C9.3624 11.7876 9.4176 11.8968 9.4596 12H4.9404C4.9824 11.8956 5.0376 11.7876 5.1084 11.6796C5.4948 11.0964 6.198 10.8 7.2 10.8C8.202 10.8 8.9052 11.0952 9.2916 11.6796ZM7.2 8.39999C5.8764 8.39999 4.8 7.32359 4.8 5.99999C4.8 4.67639 5.8764 3.6 7.2 3.6C8.5236 3.6 9.6 4.67639 9.6 5.99999C9.6 7.32359 8.5236 8.39999 7.2 8.39999ZM7.2 4.79999C6.5388 4.79999 6 5.33879 6 5.99999C6 6.66119 6.5388 7.19999 7.2 7.19999C7.8612 7.19999 8.4 6.66119 8.4 5.99999C8.4 5.33879 7.8612 4.79999 7.2 4.79999ZM14.3311 12.2401L12.1882 10.0973C11.9373 9.84634 11.9373 9.43913 12.1882 9.18819C12.4391 8.93725 12.8464 8.93725 13.0973 9.18819L14.7854 10.8763L20.3306 5.33106C20.5816 5.08012 20.9888 5.08012 21.2397 5.33106C21.4907 5.58199 21.4907 5.98921 21.2397 6.24015L15.2397 12.2401C15.1132 12.3666 14.9478 12.428 14.7858 12.4282C14.647 12.4282 14.5122 12.3818 14.4029 12.2963L14.3311 12.2401Z" fill="#6B4FA1"/>
</svg>
