<svg width="312" height="265" viewBox="0 0 312 265" fill="none" xmlns="http://www.w3.org/2000/svg">
<path d="M144.409 256.081C239.453 279.291 302.141 151.929 196.726 96.7325C164.653 80.0904 156.299 25.2215 117.021 37.6508C-3.99359 66.746 11.0127 225.487 144.409 256.081Z" fill="#D8EAFD"/>
<path d="M191.886 77.1201V212.845C191.886 216.955 188.705 220.284 184.765 220.296H108.686C104.745 220.296 101.553 216.967 101.553 212.857V77.1201C101.553 73.0099 104.745 69.6807 108.686 69.6807H184.765C188.705 69.6807 191.897 73.0099 191.897 77.1201" fill="#8099B3"/>
<path d="M191.886 212.845C191.886 216.955 188.705 220.284 184.765 220.296H108.686C104.745 220.296 101.553 216.967 101.553 212.857V77.1202C101.553 73.01 104.745 69.6926 108.686 69.6807H184.765C188.705 69.6807 191.886 73.01 191.897 77.1202V212.845H191.886ZM181.758 51.7566H111.677C102.34 51.7566 94.761 59.6615 94.761 69.4007V232.714C94.761 242.461 102.34 250.358 111.677 250.358H181.758C191.095 250.358 198.674 242.453 198.674 232.714V69.3967C198.674 59.6497 191.095 51.7527 181.758 51.7527V51.7566Z" fill="#1E5189"/>
<path d="M138.823 59.3025H154.616C155.864 59.3025 156.874 60.3557 156.874 61.6574C156.874 62.9591 155.864 64.0123 154.616 64.0123H138.823C137.575 64.0123 136.565 62.9591 136.565 61.6574C136.565 60.3557 137.575 59.3025 138.823 59.3025ZM146.716 243.975C151.072 243.975 154.605 240.291 154.605 235.747C154.605 231.203 151.072 227.519 146.716 227.519C142.359 227.519 138.827 231.203 138.827 235.747C138.827 240.291 142.359 243.975 146.716 243.975Z" fill="#8099B3"/>
<path d="M174.168 38.4951C174.043 38.4951 173.922 38.4833 173.797 38.4439C173.007 38.2387 172.523 37.3867 172.719 36.5584C174.44 29.5094 178.683 23.5216 184.636 19.6874C185.328 19.2338 186.258 19.4666 186.689 20.1924C187.124 20.93 186.901 21.8846 186.205 22.3343C180.907 25.7424 177.148 31.0596 175.613 37.3197C175.439 38.0178 174.833 38.4833 174.175 38.4833L174.164 38.4951H174.168Z" fill="#013366"/>
<path d="M223.199 38.4951C222.53 38.4951 221.925 38.0297 221.762 37.3315C220.227 31.0714 216.464 25.7542 211.169 22.3461C210.462 21.8924 210.254 20.9379 210.685 20.2042C211.12 19.4665 212.035 19.2496 212.739 19.6993C218.703 23.5334 222.934 29.5212 224.655 36.5702C224.852 37.3946 224.383 38.2466 223.577 38.4557C223.453 38.4951 223.332 38.507 223.207 38.507L223.195 38.4951H223.199Z" fill="#013366"/>
<mask id="mask0_2877_5758" style="mask-type:luminance" maskUnits="userSpaceOnUse" x="160" y="23" width="78" height="78">
<path d="M237.203 23.1704H160.145V100.141H237.203V23.1704Z" fill="white"/>
</mask>
<g mask="url(#mask0_2877_5758)">
<path d="M186.266 99.1545C187.071 99.1979 187.877 99.2334 188.682 99.2649C190.256 99.328 191.825 99.3951 193.398 99.4188C194.975 99.4464 196.552 99.4779 198.129 99.4779C199.706 99.4779 201.284 99.4858 202.864 99.4503C203.662 99.4306 204.464 99.4148 205.262 99.399C206.037 99.3833 206.809 99.3675 207.58 99.332C208.371 99.2965 209.157 99.257 209.948 99.2215C210.723 99.186 211.498 99.1505 212.251 99.1071C212.262 99.1071 212.273 99.1071 212.285 99.1071H212.289C213.049 99.0598 213.813 99.0006 214.573 98.9454C215.325 98.8941 216.074 98.8389 216.827 98.7758C217.583 98.7127 218.34 98.6377 219.096 98.5667C219.883 98.4918 220.669 98.4168 221.456 98.3261C222.038 98.2591 222.617 98.1802 223.199 98.1013C223.736 98.0303 224.273 97.9593 224.806 97.8804C225.816 97.7344 226.822 97.5569 227.824 97.3715C229.462 97.0639 231.096 96.7207 232.68 96.2276C233.316 96.0264 233.943 95.8016 234.545 95.5294C234.802 95.4071 235.051 95.2809 235.293 95.135C235.441 95.0403 235.585 94.9417 235.725 94.8352C235.812 94.7602 235.898 94.6853 235.978 94.6064C236.035 94.5472 236.088 94.4841 236.141 94.4171C236.171 94.3737 236.197 94.3303 236.224 94.2869C236.243 94.2514 236.262 94.2119 236.277 94.1725C236.292 94.133 236.303 94.0897 236.314 94.0502C236.322 94.0187 236.326 93.9871 236.33 93.9555C236.33 93.924 236.33 93.8964 236.33 93.8648C236.326 93.8254 236.322 93.7899 236.314 93.7504C236.303 93.707 236.292 93.6636 236.277 93.6242C236.258 93.5769 236.235 93.5295 236.212 93.4822C236.175 93.4191 236.137 93.356 236.095 93.2968C236.035 93.214 235.967 93.1351 235.906 93.072C235.906 93.072 235.898 93.0641 235.895 93.0601C235.77 92.93 235.634 92.8077 235.494 92.6933L235.482 92.6854C235.301 92.5394 235.108 92.4014 234.915 92.2673C234.843 92.216 234.768 92.1687 234.696 92.1213C234.666 92.1016 234.632 92.0819 234.601 92.0582C234.567 92.0424 234.533 92.0306 234.503 92.0188C234.303 91.9399 234.095 91.8689 233.894 91.8018C232.968 91.506 232.022 91.2693 231.077 91.0326C230.048 90.7762 229.012 90.5593 227.968 90.3581C226.372 90.0583 224.769 89.798 223.161 89.581C221.539 89.3601 219.909 89.1787 218.275 89.0209C216.547 88.8513 214.815 88.7172 213.113 88.6028C211.51 88.5002 209.902 88.4174 208.299 88.3464C206.71 88.2754 205.122 88.232 203.534 88.1925C201.919 88.1531 200.304 88.1373 198.685 88.1255C197.078 88.1176 195.475 88.1334 193.871 88.161C192.287 88.1886 190.698 88.232 189.114 88.2911C188.762 88.303 188.41 88.3148 188.058 88.3345C187.654 88.3582 187.253 88.3819 186.848 88.4016C186.073 88.445 185.298 88.4805 184.564 88.5239C183.838 88.5673 183.116 88.6225 182.39 88.6698C181.622 88.7211 180.85 88.7763 180.083 88.8355C178.525 88.9578 176.966 89.1195 175.412 89.2931C173.287 89.5297 171.173 89.8335 169.074 90.2161C168.28 90.366 167.493 90.5317 166.706 90.7131C165.935 90.8946 165.171 91.1036 164.418 91.3403C163.866 91.5217 163.325 91.719 162.796 91.9556C162.486 92.0976 162.183 92.2515 161.892 92.425C161.729 92.5276 161.571 92.6381 161.416 92.7524C161.325 92.8274 161.242 92.9023 161.158 92.9812C161.102 93.0443 161.045 93.1075 160.992 93.1706C160.962 93.214 160.932 93.2613 160.905 93.3086C160.882 93.352 160.863 93.3954 160.845 93.4388C160.829 93.4822 160.818 93.5256 160.807 93.569C160.799 93.6163 160.792 93.6597 160.795 93.6676V93.711C160.795 93.7544 160.799 93.8017 160.807 93.8451C160.818 93.8885 160.829 93.9319 160.845 93.9753C160.863 94.0187 160.882 94.0581 160.901 94.1015C160.928 94.1488 160.958 94.1922 160.988 94.2356C161.03 94.2908 161.075 94.3421 161.121 94.3934C161.2 94.4723 161.279 94.5512 161.336 94.6025C161.382 94.638 161.423 94.6734 161.438 94.6853C161.556 94.7721 161.673 94.8549 161.798 94.9377C161.937 95.0245 162.081 95.1113 162.229 95.1902C162.399 95.2809 162.569 95.3638 162.743 95.4426C163.257 95.6754 163.787 95.8765 164.324 96.054C165.118 96.3065 165.924 96.5235 166.737 96.7246C167.576 96.9297 168.423 97.1112 169.27 97.2769C169.962 97.407 170.658 97.5254 171.354 97.6358C172.114 97.7581 172.874 97.8764 173.635 97.979C175.197 98.192 176.762 98.3853 178.332 98.547C180.211 98.7403 182.095 98.902 183.936 99.0204C184.712 99.0677 185.491 99.115 186.266 99.1584V99.1545ZM197.804 100.117C196.22 100.101 194.635 100.078 193.05 100.026C191.489 99.971 189.923 99.9316 188.365 99.8448C186.769 99.758 185.173 99.6633 183.581 99.545C181.989 99.4267 180.397 99.3004 178.812 99.1466C177.254 98.9967 175.699 98.8271 174.149 98.618C172.67 98.4208 171.195 98.1959 169.732 97.9159C168.238 97.6319 166.744 97.3281 165.288 96.91C164.577 96.7088 163.87 96.4801 163.185 96.2158C162.811 96.0698 162.444 95.912 162.085 95.7385C161.771 95.5886 161.476 95.4071 161.192 95.2139C161.06 95.1231 160.935 95.0206 160.818 94.9141C160.693 94.7957 160.568 94.6695 160.474 94.5314C160.379 94.3973 160.304 94.2553 160.251 94.1015C160.171 93.8688 160.168 93.6242 160.232 93.3875C160.273 93.2297 160.349 93.072 160.444 92.9339C160.485 92.8787 160.527 92.8195 160.568 92.7643C160.618 92.7012 160.678 92.642 160.735 92.5828C160.848 92.4645 160.984 92.358 161.117 92.2594C161.257 92.1529 161.408 92.0622 161.556 91.9714C161.835 91.8058 162.13 91.6677 162.429 91.5336C162.758 91.3876 163.095 91.2614 163.435 91.1391C164.165 90.8788 164.914 90.6618 165.666 90.4646C167.179 90.0662 168.718 89.7664 170.265 89.4942C171.823 89.2221 173.396 89.0051 174.966 88.8079C176.505 88.6146 178.048 88.4686 179.595 88.3266C180.344 88.2596 181.096 88.1925 181.849 88.1373C182.605 88.0821 183.358 88.0347 184.114 87.9914C184.867 87.948 185.615 87.9046 186.368 87.8691C187.105 87.8336 187.839 87.8178 188.577 87.7902C189.367 87.7626 190.154 87.731 190.944 87.7074C191.742 87.6876 192.54 87.6718 193.338 87.6561C194.953 87.6285 196.564 87.6245 198.179 87.6245C199.805 87.6245 201.427 87.6521 203.053 87.6837C203.855 87.6995 204.653 87.7231 205.455 87.7468C206.238 87.7744 207.017 87.8099 207.796 87.8415C208.616 87.877 209.433 87.9164 210.25 87.9598C211.037 88.0032 211.823 88.0545 212.606 88.1097C214.198 88.2241 215.787 88.3385 217.375 88.4923C219.009 88.6462 220.639 88.8237 222.265 89.0327C223.089 89.1392 223.91 89.2497 224.731 89.372C225.517 89.4864 226.304 89.6165 227.087 89.7585C227.839 89.8966 228.588 90.0465 229.333 90.2121C229.704 90.295 230.071 90.3818 230.438 90.4725C230.804 90.5632 231.167 90.6579 231.527 90.7644C232.298 90.9932 233.055 91.2614 233.781 91.5888C234.038 91.7032 234.291 91.8255 234.545 91.9517C234.567 91.9635 234.594 91.9754 234.616 91.9872C234.628 91.9872 234.643 91.9951 234.654 91.999C234.726 92.0188 234.798 92.0424 234.866 92.0661C234.934 92.0898 234.998 92.1095 235.066 92.1371C235.509 92.2988 235.944 92.5158 236.311 92.8037C236.549 92.9931 236.753 93.2179 236.886 93.4822C237.041 93.7938 237.044 94.1528 236.92 94.4723C236.746 94.9259 236.36 95.273 235.948 95.557C235.653 95.7622 235.331 95.9357 235.006 96.0974C234.658 96.271 234.295 96.4248 233.928 96.5629C233.236 96.8272 232.518 97.0441 231.799 97.2453C231.099 97.4386 230.388 97.6082 229.677 97.766C228.38 98.0539 227.068 98.2827 225.752 98.476C225.041 98.5825 224.33 98.6851 223.619 98.7797C222.847 98.8823 222.076 98.9612 221.304 99.0519C220.514 99.1426 219.72 99.2294 218.926 99.3083C218.173 99.3833 217.421 99.4385 216.672 99.5016C215.915 99.5608 215.155 99.6199 214.399 99.6712C213.601 99.7264 212.799 99.758 212.001 99.8014C211.218 99.8448 210.439 99.8882 209.656 99.9197C208.87 99.9552 208.083 99.971 207.297 99.9947C206.502 100.018 205.712 100.046 204.918 100.066C204.131 100.085 203.345 100.093 202.554 100.097C201.794 100.101 201.034 100.109 200.274 100.113C200.062 100.113 199.85 100.113 199.638 100.113C199.03 100.113 198.417 100.113 197.808 100.101L197.804 100.117Z" fill="black"/>
<path d="M236.439 94.0344C235.789 91.3126 235.256 88.5159 233.868 86.0111C231.565 82.0468 228.358 78.6782 225.374 75.1517C220.718 70.2526 218.551 63.8782 217.617 57.5314C216.952 50.9558 215.575 44.2776 211.767 38.5816C208.552 33.3512 204.872 30.2941 198.583 28.4481C195.38 29.4658 192.2 30.8306 189.794 33.079C185.767 37.0472 183.014 42.0765 181.399 47.2518C180.362 50.6047 180.011 54.0799 179.553 57.5274C178.748 62.6159 177.326 67.7714 174.244 72.1262C170.314 77.4711 164.838 82.0232 162.319 88.1451C161.646 90.0661 161.189 92.0621 160.735 94.0344C160.621 91.8649 160.897 89.6598 161.763 87.6205C164.812 80.1061 172.523 75.1596 175.79 67.7596C177.348 64.2056 178.301 60.4385 178.823 56.6399C179.167 54.0049 179.455 51.3542 180.105 48.7626C182.068 41.0391 187.427 31.0239 196.152 28.3928C198.443 27.6394 200.928 28.1246 203.019 29.162C207.739 31.2014 210.81 35.2761 213.253 39.3587C215.31 42.9049 216.759 46.7469 217.489 50.7151C218.097 53.9023 218.271 57.1448 218.99 60.3162C219.727 63.4955 220.692 66.6591 222.276 69.5741C226.898 77.7078 237.181 83.956 236.432 94.0304L236.439 94.0344Z" fill="black"/>
<path d="M235.91 89.9914C235.91 89.9914 235.914 89.9914 235.917 89.9914C235.917 89.9914 235.921 89.9914 235.925 89.9914C235.925 89.9914 235.921 89.9874 235.917 89.9835C235.917 89.9835 235.91 89.9795 235.906 89.9756C235.891 89.9677 235.88 89.9598 235.864 89.9519C235.808 89.9282 235.747 89.9085 235.69 89.8888C235.225 89.7428 234.749 89.6363 234.269 89.5298C233.788 89.4233 233.3 89.3287 232.82 89.2301C232.393 89.1433 231.969 89.0447 231.542 88.95C231.13 88.8553 230.717 88.7685 230.301 88.6818C229.488 88.5121 228.675 88.3504 227.885 88.2005C227.73 88.1729 227.571 88.1414 227.416 88.1137C226.591 87.9638 225.763 87.814 224.939 87.668C224.08 87.5181 223.218 87.3761 222.356 87.242C221.554 87.1158 220.752 86.9895 219.947 86.8751C219.111 86.7568 218.275 86.6464 217.439 86.5438C216.585 86.4373 215.73 86.3347 214.875 86.2401C214.036 86.1493 213.192 86.0665 212.353 85.9876C211.528 85.9127 210.704 85.8338 209.88 85.7667C209.059 85.6997 208.238 85.6405 207.418 85.5892C207.399 85.5892 207.384 85.5892 207.365 85.5892C207.342 85.5892 207.316 85.5892 207.274 85.5853C206.419 85.534 205.561 85.4827 204.706 85.4314C203.897 85.3841 203.087 85.3328 202.278 85.3013C201.892 85.2855 201.51 85.2736 201.125 85.2618C200.724 85.25 200.323 85.2263 199.964 85.2026C199.506 85.175 199.048 85.1395 198.591 85.104C198.133 85.1395 197.676 85.175 197.256 85.1987C196.855 85.2224 196.458 85.246 196.057 85.2579C195.671 85.2697 195.289 85.2815 194.904 85.2973C194.094 85.3289 193.285 85.3802 192.476 85.4275C191.621 85.4788 190.762 85.5261 189.961 85.5774H189.889C189.866 85.5853 189.84 85.5853 189.817 85.5853C189.798 85.5853 189.783 85.5853 189.764 85.5853C188.943 85.6366 188.123 85.6957 187.302 85.7628C186.478 85.8298 185.653 85.9087 184.829 85.9837C183.985 86.0626 183.146 86.1415 182.306 86.2361C181.452 86.3308 180.597 86.4334 179.742 86.5399C178.906 86.6424 178.067 86.7529 177.235 86.8712C176.429 86.9856 175.628 87.1118 174.826 87.238C173.964 87.3722 173.101 87.5142 172.243 87.6641C171.415 87.81 170.59 87.9599 169.766 88.1098C169.611 88.1374 169.452 88.169 169.323 88.1926C168.506 88.3465 167.693 88.5082 166.884 88.6778C166.472 88.7646 166.056 88.8514 165.644 88.946C165.22 89.0447 164.793 89.1393 164.365 89.2261C163.881 89.3247 163.397 89.4194 162.917 89.5259C162.44 89.6285 161.96 89.735 161.499 89.8848C161.438 89.9046 161.382 89.9243 161.325 89.948C161.31 89.9559 161.295 89.9598 161.283 89.9716C161.279 89.9716 161.276 89.9756 161.272 89.9795C161.272 89.9795 161.268 89.9835 161.264 89.9874C161.264 89.9874 161.268 89.9874 161.272 89.9874C161.272 89.9874 161.276 89.9874 161.279 89.9874C161.215 89.9953 161.302 89.9322 161.313 89.9282C161.366 89.8927 161.431 89.8612 161.487 89.8296C161.563 89.7902 161.639 89.7547 161.714 89.7152C161.873 89.6363 162.032 89.5574 162.187 89.4864C162.55 89.3208 162.921 89.159 163.295 89.017C163.681 88.8711 164.074 88.7291 164.475 88.6147C164.887 88.4964 165.303 88.3938 165.723 88.2952C166.124 88.2005 166.529 88.1059 166.933 88.0151C167.777 87.8297 168.628 87.6522 169.475 87.4747C170.314 87.3012 171.154 87.1355 171.997 86.9816C172.803 86.8318 173.612 86.6897 174.417 86.5517C175.268 86.4057 176.123 86.2716 176.978 86.1493C177.81 86.0271 178.642 85.9127 179.474 85.8022C180.306 85.6918 181.142 85.5971 181.977 85.5064C182.817 85.4157 183.656 85.3289 184.5 85.2421C185.328 85.1553 186.156 85.0804 186.988 85.0212C187.348 84.9936 187.703 84.9739 188.006 84.9541C189.67 84.8516 191.334 84.7451 193.001 84.6859C193.807 84.6583 194.612 84.6465 195.418 84.6386C195.789 84.6386 196.155 84.6346 196.526 84.6425C196.934 84.6504 197.339 84.6701 197.744 84.6977C198.027 84.7175 198.311 84.7372 198.595 84.7648C198.878 84.7411 199.162 84.7175 199.446 84.6977C199.85 84.6701 200.259 84.6504 200.663 84.6425C201.034 84.6346 201.401 84.6346 201.771 84.6386C202.577 84.6465 203.382 84.6583 204.188 84.6859C205.856 84.7451 207.52 84.8516 209.127 84.9502C209.486 84.9739 209.842 84.9975 210.201 85.0212C211.033 85.0804 211.861 85.1593 212.689 85.2421C213.529 85.3289 214.369 85.4157 215.212 85.5064C216.048 85.5971 216.884 85.6918 217.716 85.8022C218.548 85.9127 219.38 86.0271 220.212 86.1493C221.066 86.2716 221.921 86.4057 222.772 86.5517C223.581 86.6897 224.387 86.8357 225.192 86.9816C226.036 87.1355 226.875 87.3012 227.715 87.4747C228.562 87.6522 229.409 87.8258 230.256 88.0151C230.661 88.1059 231.065 88.2005 231.466 88.2952C231.886 88.3938 232.302 88.4964 232.714 88.6147C233.115 88.7291 233.505 88.8711 233.894 89.017C234.269 89.159 234.639 89.3168 234.995 89.4825C235.157 89.5575 235.316 89.6363 235.475 89.7152C235.551 89.7547 235.626 89.7902 235.702 89.8296C235.762 89.8612 235.823 89.8888 235.876 89.9282C235.887 89.9361 235.963 89.9914 235.917 89.9914C235.917 89.9914 235.914 89.9914 235.91 89.9914Z" fill="black"/>
<path d="M200.051 28.5901C199.094 28.5309 198.122 28.5546 197.18 28.4126C198.137 28.3415 199.132 28.3494 200.054 28.5901H200.051Z" fill="black"/>
<path d="M199.256 28.5745C198.258 28.5587 197.263 28.6494 196.25 28.6139C196.182 28.6139 196.102 28.6139 196.042 28.6139C196.537 28.539 197.037 28.4956 197.536 28.464C198.281 28.4167 199.041 28.4246 199.763 28.6218C199.604 28.606 199.427 28.5824 199.26 28.5745H199.256Z" fill="black"/>
<path d="M196.205 28.878C197.29 28.6493 198.477 28.4639 199.563 28.6177C199.098 28.5901 198.632 28.6729 198.175 28.7439C197.524 28.8346 196.855 28.8623 196.205 28.878Z" fill="black"/>
<path d="M199.154 28.6335C198.924 28.6098 198.693 28.5704 198.462 28.5822C199.06 28.5152 199.688 28.6059 200.285 28.7006C200.096 28.7203 199.483 28.669 199.154 28.6374V28.6335Z" fill="black"/>
<path d="M199.169 28.5784C198.927 28.5508 198.689 28.4955 198.451 28.4758C198.477 28.464 198.53 28.4679 198.564 28.4679C199.011 28.4797 199.468 28.531 199.896 28.6336C199.654 28.6257 199.412 28.6099 199.169 28.5823V28.5784Z" fill="black"/>
<path d="M195.974 29.0991C196.636 28.8742 197.324 28.7125 198.02 28.6021C197.362 28.8032 196.662 28.9965 195.974 29.0991Z" fill="black"/>
<path d="M196.579 28.9648C196.889 28.8583 197.388 28.7399 197.63 28.7202C197.286 28.8228 196.931 28.9253 196.579 28.9648Z" fill="black"/>
<path d="M195.04 29.2883C196.643 28.8425 198.364 28.4402 200.032 28.6966C199.306 28.6848 198.553 28.7439 197.846 28.8938C196.923 29.0792 195.97 29.1897 195.04 29.2883Z" fill="black"/>
<path d="M181.716 44.6485C181.762 44.4276 181.807 44.2027 181.856 43.9818C181.966 43.5045 182.091 43.0312 182.242 42.5657C182.408 42.0411 182.605 41.5244 182.824 41.0195C183.063 40.4712 183.339 39.9386 183.626 39.4101C183.914 38.8776 184.216 38.345 184.538 37.8283C184.696 37.5719 184.859 37.3234 185.025 37.0709C185.196 36.8106 185.366 36.5503 185.551 36.2978C185.736 36.0414 185.929 35.789 186.122 35.5365C186.304 35.2959 186.493 35.0592 186.686 34.8304C187.064 34.3807 187.453 33.9429 187.862 33.5169C188.308 33.0514 188.773 32.6057 189.261 32.1797C189.492 31.9785 189.73 31.7852 189.972 31.5959C190.248 31.3789 190.524 31.1659 190.812 30.9648C191.057 30.7912 191.311 30.6334 191.568 30.4756C191.855 30.3021 192.15 30.1285 192.449 29.9668C192.737 29.809 193.028 29.667 193.327 29.5289C193.64 29.383 193.962 29.2449 194.291 29.1266C194.438 29.0753 194.586 29.0319 194.714 28.9925C194.722 28.9925 194.73 28.9885 194.737 28.9846H194.741C194.934 28.9254 195.123 28.8662 195.251 28.8307C195.592 28.7321 195.936 28.6414 196.288 28.5665C196.609 28.4994 196.934 28.46 197.26 28.4205C197.592 28.3811 197.925 28.3534 198.262 28.3337C198.602 28.3179 198.943 28.3258 199.283 28.3534C199.945 28.4047 200.607 28.46 201.249 28.6138C201.571 28.6887 201.889 28.7755 202.206 28.8702C202.532 28.9688 202.845 29.0832 203.156 29.2173C203.454 29.3435 203.749 29.4698 204.037 29.6078C204.324 29.7459 204.604 29.8997 204.872 30.0654C205.156 30.239 205.436 30.4125 205.704 30.6097C205.946 30.7872 206.177 30.9845 206.385 31.1975C206.76 31.5762 207.126 31.9627 207.455 32.3769C207.713 32.7004 207.958 33.0317 208.219 33.3512C208.098 33.2289 207.966 33.1185 207.841 33.012C207.395 32.6372 206.907 32.3059 206.412 31.9864C206.189 31.8444 205.958 31.7103 205.727 31.5801C205.485 31.442 205.247 31.2961 205.009 31.1501C204.763 31.0003 204.513 30.8504 204.256 30.7162C203.999 30.5821 203.738 30.452 203.473 30.3257C203.284 30.235 203.091 30.1482 202.891 30.0733C202.679 29.9944 202.463 29.9234 202.259 29.8563C202.255 29.8563 202.252 29.8563 202.248 29.8524L202.218 29.8406C201.862 29.7262 201.503 29.6197 201.132 29.5447C200.618 29.4461 200.096 29.3554 199.57 29.3159C199.321 29.3001 199.071 29.3001 198.822 29.3041C198.572 29.3041 198.322 29.312 198.073 29.3238C197.748 29.3396 197.426 29.3711 197.108 29.4224C196.545 29.5171 195.981 29.6275 195.433 29.7814C195.157 29.8642 194.888 29.9707 194.62 30.0693C194.344 30.1719 194.068 30.2784 193.796 30.3888C193.277 30.6137 192.778 30.8661 192.29 31.1462C191.988 31.3237 191.689 31.517 191.398 31.7103C191.073 31.9272 190.751 32.1442 190.445 32.3808C189.753 32.9213 189.095 33.4932 188.478 34.1086C188.149 34.4399 187.832 34.7831 187.525 35.1302C187.2 35.501 186.89 35.8757 186.591 36.2662C186.417 36.499 186.243 36.7357 186.073 36.9684C185.892 37.2129 185.714 37.4615 185.547 37.7139C185.215 38.207 184.897 38.7119 184.598 39.2247C184.5 39.3943 184.405 39.5639 184.311 39.7296C184.303 39.7454 184.296 39.7572 184.288 39.769C184.001 40.2897 183.736 40.8183 183.46 41.3429C183.21 41.8241 182.961 42.3014 182.707 42.7827C182.488 43.2008 182.269 43.6189 182.045 44.041C181.94 44.2422 181.841 44.4433 181.732 44.6406L181.716 44.6485Z" fill="black"/>
<path d="M202.679 29.9984C202.705 29.951 202.736 29.9037 202.762 29.8564C202.8 29.7893 202.834 29.7183 202.864 29.6552C202.951 29.4619 203.027 29.2686 203.091 29.0675C203.118 28.9728 203.148 28.8781 203.167 28.7835C203.193 28.673 203.212 28.5586 203.231 28.4442C203.246 28.3219 203.261 28.1957 203.269 28.0734C203.277 27.9393 203.28 27.8052 203.28 27.6711C203.277 27.4699 203.258 27.2687 203.224 27.0676C203.205 26.9768 203.186 26.8901 203.163 26.7993C203.14 26.7126 203.114 26.6297 203.087 26.5429C203.061 26.468 203.034 26.393 203.004 26.322C202.966 26.2353 202.929 26.1524 202.891 26.0656C202.853 25.9907 202.815 25.9197 202.774 25.8487C202.732 25.7737 202.679 25.6988 202.649 25.6436V25.6357C202.615 25.5923 202.584 25.5489 202.569 25.5292C202.479 25.399 202.376 25.2807 202.271 25.1623C202.146 25.0282 202.013 24.902 201.87 24.7837C201.741 24.6772 201.605 24.5785 201.465 24.4839C201.439 24.4642 201.408 24.4484 201.408 24.4484C201.253 24.3537 201.094 24.263 200.932 24.1801C200.845 24.1407 200.758 24.0973 200.671 24.0618C200.58 24.0224 200.486 23.9869 200.391 23.9514C200.202 23.8882 200.009 23.833 199.809 23.7857C199.612 23.7423 199.415 23.7107 199.215 23.6871C199.022 23.6673 198.829 23.6595 198.632 23.6595C198.424 23.6595 198.22 23.6752 198.016 23.6989C197.918 23.7107 197.819 23.7265 197.721 23.7423C197.608 23.762 197.494 23.7857 197.381 23.8094C197.275 23.837 197.173 23.8646 197.067 23.8961C196.957 23.9277 196.851 23.9671 196.745 24.0026C196.651 24.0381 196.56 24.0776 196.465 24.117C196.382 24.1525 196.299 24.1959 196.22 24.2354C196.136 24.2788 196.049 24.3261 195.97 24.3734C195.883 24.4247 195.8 24.4799 195.717 24.5352C195.584 24.6298 195.46 24.7284 195.339 24.831C195.202 24.9572 195.074 25.0874 194.953 25.2215C194.82 25.3714 194.699 25.5292 194.59 25.6949C194.499 25.8369 194.416 25.9828 194.344 26.1327C194.268 26.2984 194.204 26.464 194.147 26.6337C194.098 26.8033 194.056 26.9768 194.03 27.1543C193.996 27.391 193.988 27.6277 193.988 27.8644C193.996 28.1129 194.015 28.3614 194.056 28.6099C194.098 28.8505 194.159 29.0872 194.23 29.3081C194.238 29.3278 194.242 29.3436 194.246 29.3594C194.246 29.3594 194.246 29.3633 194.246 29.3672L194.253 29.3909C194.306 29.5487 194.374 29.7065 194.45 29.8564C194.45 29.8564 194.45 29.8603 194.454 29.8643C194.469 29.8919 194.484 29.9195 194.499 29.951C194.249 29.6986 194.026 29.4225 193.86 29.1266C193.705 28.8545 193.595 28.5665 193.527 28.2707C193.451 27.9472 193.432 27.6159 193.463 27.2845C193.523 26.6179 193.761 25.9591 194.159 25.3872C194.355 25.0992 194.586 24.831 194.858 24.5904C195.13 24.3537 195.429 24.1368 195.754 23.9514C195.917 23.8567 196.084 23.7699 196.257 23.695C196.439 23.6161 196.624 23.5451 196.817 23.478C196.999 23.4149 197.192 23.3715 197.381 23.3281C197.57 23.2847 197.763 23.2611 197.956 23.2374C198.326 23.194 198.708 23.1979 199.079 23.2295C199.476 23.2611 199.865 23.3399 200.244 23.4465C200.349 23.478 200.452 23.5135 200.557 23.549C201.265 23.8015 201.9 24.192 202.41 24.685C202.618 24.8862 202.808 25.1032 202.955 25.3122C202.974 25.3359 202.989 25.3596 202.993 25.3635C203.008 25.3872 203.027 25.4108 203.034 25.4266C203.137 25.5726 203.22 25.7264 203.303 25.8803C203.379 26.0301 203.447 26.184 203.503 26.3378C203.617 26.6613 203.693 26.9926 203.715 27.3279C203.727 27.5015 203.73 27.675 203.715 27.8446C203.704 28.0064 203.674 28.1642 203.636 28.3219C203.598 28.4837 203.545 28.6454 203.477 28.8032C203.413 28.9531 203.341 29.103 203.258 29.245C203.129 29.458 202.982 29.6631 202.819 29.8524C202.774 29.9037 202.728 29.9589 202.679 30.0063V29.9984Z" fill="black"/>
<path d="M197.725 97.5569C197.192 97.4702 196.677 97.3163 196.178 97.1309C195.641 96.9298 195.127 96.6812 194.646 96.3893C194.189 96.1093 193.769 95.7819 193.395 95.419C192.994 95.0324 192.634 94.6182 192.328 94.1686C192.048 93.7623 191.829 93.3284 191.655 92.8787C191.477 92.4093 191.352 91.9241 191.311 91.431C191.269 90.9301 191.322 90.4252 191.432 89.936C191.508 89.5968 191.617 89.2655 191.757 88.942C191.821 88.7921 191.893 88.6422 191.973 88.4963C192.01 88.4292 192.045 88.3622 192.082 88.2951C192.105 88.2557 192.124 88.2083 192.154 88.1689C192.158 88.1649 192.166 88.1689 192.166 88.1728C192.162 88.2044 192.15 88.2359 192.139 88.2675C192.124 88.3306 192.105 88.3977 192.094 88.4568C192.029 88.7606 191.995 89.0682 191.976 89.3562C191.961 89.6718 191.961 89.9873 191.988 90.2989C192.037 90.7881 192.132 91.2732 192.241 91.7229C192.317 92.0148 192.408 92.3028 192.521 92.5868C192.638 92.8669 192.774 93.143 192.926 93.4112C193.077 93.6637 193.243 93.9122 193.425 94.1488C193.58 94.3421 193.746 94.5315 193.928 94.709C194.121 94.8983 194.325 95.0758 194.544 95.2415C194.824 95.4545 195.115 95.6517 195.425 95.8332C195.668 95.9712 195.921 96.0975 196.182 96.2118C196.447 96.3223 196.719 96.4209 196.999 96.5037C197.35 96.6024 197.706 96.6812 198.069 96.7444C198.387 96.7917 198.701 96.8272 199.022 96.843C199.309 96.8509 199.597 96.843 199.884 96.8272C200.225 96.7996 200.561 96.7522 200.837 96.701C201.178 96.6379 201.51 96.555 201.839 96.4564C202.134 96.3617 202.422 96.2513 202.702 96.1251C202.963 96.0067 203.22 95.8726 203.466 95.7267C203.73 95.5649 203.984 95.3874 204.23 95.202C204.456 95.0245 204.672 94.8352 204.872 94.634C205.08 94.421 205.277 94.2001 205.455 93.9674C205.629 93.7307 205.788 93.4901 205.928 93.2376C206.06 92.9931 206.177 92.7406 206.276 92.4842C206.37 92.2239 206.449 91.9596 206.506 91.6914C206.589 91.293 206.642 90.8867 206.669 90.4804C206.688 90.1135 206.68 89.7467 206.646 89.3838C206.612 89.0406 206.555 88.7014 206.476 88.37V88.3622C206.453 88.2793 206.431 88.1965 206.408 88.1097C206.389 88.0466 206.366 87.9874 206.355 87.9243C206.344 87.8809 206.412 87.8691 206.434 87.9006C206.487 87.9716 206.529 88.0466 206.574 88.1215C206.635 88.2241 206.692 88.3227 206.744 88.4292C206.915 88.7606 207.055 89.1077 207.153 89.4627C207.255 89.8335 207.316 90.2122 207.334 90.5948C207.346 90.792 207.342 90.9892 207.327 91.1865C207.312 91.4153 207.274 91.6401 207.225 91.8649C207.024 92.7801 206.635 93.6676 206.06 94.4526C205.844 94.7484 205.606 95.0245 205.357 95.277C205.349 95.2849 205.338 95.2967 205.33 95.3046H205.326C204.978 95.6557 204.596 95.9712 204.177 96.2513C203.73 96.5471 203.25 96.8075 202.743 97.0165C202.479 97.127 202.206 97.2256 201.926 97.3084C201.673 97.3873 201.412 97.4583 201.151 97.5096C200.603 97.6201 200.043 97.6713 199.48 97.6832C199.43 97.6832 199.381 97.6832 199.332 97.6832C198.791 97.6832 198.25 97.6358 197.721 97.5491L197.725 97.5569Z" fill="black"/>
<path d="M225.956 87.1314C225.703 87.0841 225.446 87.0367 225.192 86.9894C224.387 86.8434 223.577 86.6975 222.772 86.5594C221.921 86.4135 221.066 86.2794 220.212 86.1571C219.38 86.0348 218.548 85.9204 217.716 85.81C216.884 85.6995 216.048 85.6048 215.212 85.5141C214.372 85.4234 213.533 85.3366 212.689 85.2498C211.861 85.163 211.033 85.0881 210.201 85.0289C209.842 85.0013 209.486 84.9816 209.127 84.9579C207.52 84.8593 205.856 84.7528 204.188 84.6936C203.382 84.666 202.577 84.6542 201.771 84.6463C201.401 84.6463 201.034 84.6424 200.663 84.6503C200.255 84.6581 199.85 84.6779 199.446 84.7055C199.162 84.7252 198.878 84.7449 198.595 84.7725C198.311 84.7489 198.027 84.7252 197.744 84.7055C197.339 84.6779 196.931 84.6581 196.526 84.6503C196.155 84.6424 195.789 84.6424 195.418 84.6463C194.612 84.6542 193.807 84.666 193.001 84.6936C191.334 84.7528 189.67 84.8593 188.006 84.9619C187.703 84.9816 187.344 85.0053 186.988 85.0289C186.156 85.0881 185.328 85.167 184.5 85.2498C183.66 85.3366 182.821 85.4234 181.977 85.5141C181.142 85.6048 180.306 85.6995 179.474 85.81C178.797 85.9007 178.12 85.9914 177.447 86.09C177.67 84.5714 177.84 83.0409 178.146 81.534C178.347 80.4414 178.593 79.3566 179.001 78.3232C179.72 76.4811 180.809 74.8243 181.546 72.9901C182.083 71.7081 182.435 70.3512 182.7 68.9864C182.877 67.9135 182.957 66.8248 183.021 65.7361C183.142 63.9216 183.195 62.0992 183.256 60.2807C183.369 56.1665 183.857 52.0563 184.973 48.0999C185.502 46.2183 186.209 44.396 187.007 42.6209C187.355 41.8833 187.764 41.1811 188.176 40.479C188.512 39.8992 188.819 39.3035 189.151 38.7237C189.363 38.4239 189.571 38.1202 189.779 37.8283C188.259 39.126 187.079 40.8143 186.118 42.5972C184.481 45.6385 183.263 48.9243 182.571 52.3364C181.603 57.4682 181.032 62.7382 179.084 67.6058C177.553 71.6371 174.641 74.8007 172.326 78.3429C171.241 80.0075 170.235 81.7273 169.27 83.4748C168.472 84.883 167.674 86.3267 167.349 87.94C167.209 87.9716 167.069 87.9992 166.929 88.0307C166.525 88.1215 166.12 88.2161 165.719 88.3108C165.3 88.4094 164.884 88.512 164.471 88.6303C164.07 88.7447 163.681 88.8867 163.291 89.0327C162.917 89.1747 162.546 89.3325 162.183 89.5021C162.074 89.5533 161.956 89.6086 161.843 89.6638C161.99 89.1589 162.153 88.654 162.327 88.157C164.846 82.035 170.322 77.483 174.251 72.1381C177.333 67.7833 178.755 62.6277 179.561 57.5392C180.018 54.0917 180.37 50.6165 181.406 47.2637C183.025 42.0884 185.778 37.0591 189.802 33.0908C190.842 32.1165 192.026 31.3118 193.293 30.6255C193.451 30.5505 193.614 30.4756 193.777 30.4046C194.049 30.2902 194.325 30.1876 194.601 30.0851C194.87 29.9825 195.138 29.88 195.414 29.7971C195.962 29.6433 196.526 29.5328 197.089 29.4382C197.411 29.3869 197.732 29.3593 198.054 29.3395C198.303 29.3277 198.553 29.3238 198.803 29.3198C199.052 29.3198 199.302 29.3198 199.551 29.3317C200.077 29.3711 200.599 29.4618 201.113 29.5604C201.193 29.5762 201.276 29.5959 201.355 29.6157C201.798 30.089 202.195 30.6176 202.619 31.1067C203.753 32.3453 204.842 33.6391 205.746 35.071C206.476 36.2228 207.092 37.4456 207.652 38.6961C209.494 42.7432 210.651 47.098 211.366 51.508C211.789 54.1351 212.05 56.7858 212.221 59.4405C212.383 62.2767 212.603 65.1365 213.397 67.8701C214.059 70.1264 215.167 72.217 216.539 74.0828C217.886 75.9249 219.485 77.5421 220.957 79.2699C221.913 80.4098 222.851 81.5695 223.649 82.8358C224.53 84.2006 225.132 85.735 225.945 87.1432L225.956 87.1314Z" fill="#FCBA19"/>
<path d="M235.388 89.79C235.668 90.7446 235.899 91.7149 236.125 92.6853C235.804 92.4644 235.441 92.2909 235.07 92.1567C235.002 92.1331 234.938 92.1094 234.87 92.0857C234.798 92.0621 234.73 92.0384 234.658 92.0187C234.647 92.0187 234.632 92.0108 234.62 92.0068C234.598 91.995 234.571 91.9832 234.548 91.9713C234.295 91.8451 234.042 91.7228 233.784 91.6084C233.058 91.281 232.298 91.0128 231.53 90.784C231.171 90.6775 230.804 90.5829 230.441 90.4921C230.075 90.4014 229.708 90.3107 229.337 90.2318C228.592 90.0661 227.839 89.9162 227.087 89.7782C226.304 89.6322 225.521 89.506 224.731 89.3916C223.91 89.2693 223.089 89.1549 222.265 89.0524C220.639 88.8433 219.009 88.6658 217.375 88.512C215.787 88.3621 214.198 88.2437 212.606 88.1293C211.82 88.0741 211.037 88.0228 210.25 87.9794C209.433 87.936 208.613 87.8966 207.796 87.8611C207.017 87.8256 206.234 87.7901 205.455 87.7664C204.657 87.7388 203.855 87.7191 203.053 87.7033C201.427 87.6718 199.805 87.6442 198.179 87.6442C196.564 87.6442 194.953 87.6481 193.338 87.6757C192.54 87.6875 191.742 87.7033 190.944 87.727C190.154 87.7467 189.363 87.7783 188.577 87.8098C187.839 87.8374 187.102 87.8532 186.368 87.8887C185.615 87.9242 184.867 87.9676 184.114 88.011C183.358 88.0544 182.605 88.1017 181.849 88.1569C181.096 88.2122 180.347 88.2792 179.595 88.3463C178.048 88.4843 176.505 88.6342 174.966 88.8275C173.393 89.0248 171.823 89.2378 170.265 89.5139C168.718 89.7861 167.179 90.0858 165.666 90.4842C164.914 90.6815 164.165 90.8984 163.435 91.1588C163.095 91.281 162.758 91.4073 162.429 91.5532C162.13 91.6873 161.832 91.8215 161.556 91.9911C161.427 92.07 161.295 92.1488 161.174 92.2356C161.37 91.423 161.578 90.6105 161.809 89.8058C162.172 89.7032 162.543 89.6204 162.913 89.5415C163.393 89.435 163.881 89.3403 164.362 89.2417C164.789 89.1549 165.216 89.0563 165.64 88.9616C166.052 88.867 166.464 88.7802 166.88 88.6934C167.693 88.5238 168.506 88.3621 169.32 88.2082C169.452 88.1846 169.607 88.153 169.762 88.1254C170.586 87.9755 171.415 87.8256 172.239 87.6797C173.098 87.5298 173.96 87.3878 174.822 87.2536C175.624 87.1274 176.426 87.0012 177.231 86.8868C178.067 86.7685 178.903 86.658 179.738 86.5555C180.593 86.4489 181.448 86.3464 182.303 86.2517C183.142 86.161 183.985 86.0782 184.825 85.9993C185.649 85.9243 186.474 85.8454 187.298 85.7784C188.119 85.7113 188.94 85.6521 189.76 85.6009C189.779 85.6009 189.794 85.6009 189.813 85.6009C189.836 85.6009 189.862 85.6009 189.885 85.5969H189.957C190.759 85.5417 191.613 85.4904 192.472 85.4431C193.281 85.3958 194.09 85.3445 194.9 85.3129C195.286 85.2971 195.668 85.2853 196.053 85.2735C196.454 85.2616 196.855 85.238 197.252 85.2143C197.672 85.1867 198.129 85.1512 198.587 85.1196C199.045 85.1551 199.502 85.1906 199.96 85.2182C200.323 85.2419 200.72 85.2616 201.121 85.2774C201.507 85.2892 201.889 85.3011 202.274 85.3169C203.084 85.3484 203.893 85.3997 204.702 85.447C205.557 85.4983 206.415 85.5456 207.27 85.6009C207.316 85.6009 207.338 85.6048 207.361 85.6048C207.38 85.6048 207.395 85.6048 207.414 85.6048C208.234 85.6561 209.055 85.7153 209.876 85.7823C210.7 85.8494 211.525 85.9283 212.349 86.0032C213.192 86.0821 214.032 86.161 214.872 86.2557C215.726 86.3503 216.581 86.4529 217.436 86.5594C218.271 86.662 219.111 86.7724 219.943 86.8907C220.749 87.0051 221.55 87.1314 222.352 87.2576C223.214 87.3917 224.077 87.5337 224.935 87.6836C225.763 87.8295 226.588 87.9794 227.412 88.1293C227.567 88.1569 227.726 88.1885 227.881 88.2161C228.671 88.366 229.485 88.5277 230.298 88.6974C230.71 88.7841 231.126 88.8709 231.538 88.9656C231.962 89.0642 232.389 89.1589 232.816 89.2456C233.3 89.3443 233.784 89.4389 234.265 89.5454C234.639 89.6283 235.01 89.7111 235.377 89.8137L235.388 89.79Z" fill="#FCBA19"/>
<path d="M203.556 94.425C203.59 94.9417 203.469 95.8214 202.925 96.0068C202.97 95.9989 203.012 95.991 203.053 95.9752C202.94 96.0344 202.823 96.0896 202.705 96.1448C202.611 96.1843 202.52 96.2237 202.426 96.2632C202.35 96.275 202.267 96.2829 202.191 96.2829C201.019 96.2987 199.843 96.1567 198.727 95.7701C197.449 95.3796 196.273 94.6932 195.252 93.8057C194.276 92.9695 193.425 91.9754 192.786 90.8355C192.487 90.2793 192.147 89.7191 192.007 89.088C192.018 88.9776 192.033 88.8632 192.048 88.7488C192.566 88.7527 193.085 88.7961 193.606 88.8395C194.575 88.8868 195.55 88.8987 196.503 89.1038C197.903 89.3681 199.287 89.7704 200.538 90.5002C201.851 91.293 203.435 92.7525 203.56 94.425H203.556Z" fill="#FCBA19"/>
<path d="M236.333 93.853C236.333 93.8846 236.333 93.9122 236.333 93.9437C236.333 93.9753 236.326 94.0068 236.318 94.0384C236.307 94.0818 236.296 94.1212 236.28 94.1607C236.265 94.2001 236.246 94.2356 236.228 94.2751C236.201 94.3185 236.175 94.3619 236.144 94.4052C236.095 94.4723 236.038 94.5315 235.982 94.5946C235.902 94.6735 235.815 94.7524 235.728 94.8234C235.592 94.9299 235.448 95.0324 235.297 95.1232C235.055 95.2691 234.806 95.3953 234.548 95.5176C233.947 95.7898 233.319 96.0146 232.684 96.2158C231.099 96.7089 229.466 97.0521 227.828 97.3597C226.826 97.5451 225.82 97.7226 224.81 97.8686C224.273 97.9475 223.74 98.0185 223.203 98.0895C222.621 98.1644 222.042 98.2473 221.46 98.3143C220.673 98.405 219.886 98.48 219.1 98.5549C218.343 98.6259 217.587 98.7009 216.831 98.764C216.082 98.8271 215.329 98.8784 214.577 98.9336C213.816 98.9888 213.053 99.048 212.292 99.0953H212.289C212.289 99.0953 212.266 99.0953 212.255 99.0953C211.502 99.1387 210.727 99.1742 209.951 99.2097C209.161 99.2452 208.374 99.2847 207.584 99.3202C206.813 99.3557 206.037 99.3715 205.266 99.3872C204.468 99.407 203.666 99.4227 202.868 99.4385C201.291 99.474 199.714 99.4661 198.133 99.4661C196.552 99.4661 194.979 99.4346 193.402 99.407C191.829 99.3793 190.26 99.3162 188.686 99.2531C187.881 99.2216 187.075 99.1861 186.27 99.1427C185.494 99.0993 184.715 99.0559 183.94 99.0046C182.095 98.8863 180.211 98.7245 178.335 98.5313C176.766 98.3695 175.2 98.1763 173.638 97.9632C172.874 97.8567 172.114 97.7423 171.358 97.6201C170.662 97.5057 169.966 97.3913 169.274 97.2611C168.423 97.0954 167.576 96.9179 166.74 96.7089C165.927 96.5077 165.122 96.2907 164.328 96.0383C163.787 95.8608 163.261 95.6596 162.747 95.4269C162.573 95.344 162.403 95.2612 162.232 95.1744C162.085 95.0955 161.941 95.0127 161.801 94.922C161.68 94.8391 161.559 94.7603 161.442 94.6695C161.427 94.6577 161.382 94.6222 161.34 94.5867C161.283 94.5354 161.204 94.4565 161.124 94.3776C161.079 94.3263 161.037 94.2751 160.992 94.2198C160.962 94.1765 160.932 94.1291 160.905 94.0857C160.886 94.0463 160.863 94.0029 160.848 93.9595C160.833 93.9161 160.822 93.8727 160.81 93.8293C160.81 93.8214 160.81 93.8096 160.807 93.8017C160.848 93.6203 160.89 93.4388 160.932 93.2574C160.954 93.2219 160.977 93.1903 161 93.1548C161.053 93.0878 161.105 93.0246 161.166 92.9655C161.249 92.8866 161.336 92.8077 161.423 92.7367C161.578 92.6184 161.733 92.5119 161.9 92.4093C162.074 92.3067 162.248 92.2121 162.429 92.1213C163.772 92.7998 165.216 93.2219 166.653 93.6203C170.049 94.5512 173.502 95.2336 176.951 95.9042C183.014 97.0402 189.151 97.6753 195.289 98.1565C197.577 98.3183 199.865 98.4208 202.161 98.4287C211.865 98.3774 221.633 96.9495 230.816 93.6163C231.769 93.2653 232.695 92.8235 233.592 92.3304C233.697 92.291 233.807 92.2673 233.905 92.2121C234.061 92.149 234.189 92.0346 234.31 91.9202C234.378 91.9438 234.446 91.9714 234.511 91.9951C234.545 92.0069 234.579 92.0227 234.609 92.0346C234.639 92.0582 234.673 92.074 234.703 92.0977C234.775 92.145 234.851 92.1963 234.923 92.2436C235.116 92.3777 235.309 92.5158 235.49 92.6617L235.501 92.6696C235.641 92.784 235.777 92.9063 235.902 93.0365C235.902 93.0365 235.91 93.0444 235.914 93.0483C235.974 93.1154 236.042 93.1943 236.103 93.2732C236.144 93.3323 236.186 93.3954 236.22 93.4585C236.243 93.5059 236.265 93.5493 236.284 93.6005C236.299 93.6439 236.311 93.6834 236.322 93.7268C236.33 93.7662 236.333 93.8017 236.337 93.8412L236.333 93.853Z" fill="#FCBA19"/>
<path d="M189.775 37.8204C189.567 38.1163 189.359 38.4161 189.148 38.7158C188.815 39.2957 188.505 39.8913 188.172 40.4712C187.76 41.1733 187.351 41.8754 187.003 42.6131C186.205 44.3881 185.498 46.2105 184.969 48.0921C183.853 52.0485 183.365 56.1587 183.252 60.2729C183.191 62.0913 183.138 63.9137 183.017 65.7282C182.949 66.8169 182.874 67.9017 182.696 68.9786C182.431 70.3473 182.079 71.7043 181.542 72.9823C180.805 74.8165 179.716 76.4693 178.997 78.3153C178.589 79.3488 178.343 80.4375 178.143 81.5262C177.84 83.033 177.67 84.5635 177.443 86.0822C177.42 86.24 177.398 86.3978 177.371 86.5516C177.371 86.3978 177.371 86.2439 177.371 86.0901C177.239 86.1098 177.106 86.1295 176.974 86.1453C176.119 86.2676 175.265 86.4017 174.414 86.5477C173.604 86.6857 172.799 86.8317 171.993 86.9776C171.15 87.1315 170.31 87.2971 169.471 87.4707C168.771 87.6166 168.072 87.7626 167.376 87.9125C167.361 87.944 167.345 87.9756 167.334 88.0071C167.338 87.9795 167.345 87.948 167.353 87.9204C167.678 86.3031 168.476 84.8594 169.274 83.4551C170.239 81.7116 171.245 79.9918 172.33 78.3232C174.648 74.781 177.556 71.6175 179.088 67.5861C181.036 62.7185 181.607 57.4525 182.575 52.3167C183.267 48.9047 184.485 45.6188 186.122 42.5776C187.083 40.7946 188.263 39.1103 189.783 37.8086L189.775 37.8204ZM178.078 75.5226C178.078 75.5226 178.074 75.5068 178.067 75.5068C178.059 75.5068 178.052 75.5108 178.052 75.5186C178.052 75.5265 178.056 75.5344 178.063 75.5344C178.071 75.5344 178.078 75.5305 178.078 75.5226Z" fill="#F5D68C"/>
<path d="M235.346 89.66C235.229 89.6008 235.112 89.5456 234.991 89.4904C234.635 89.3247 234.265 89.167 233.89 89.0249C233.505 88.879 233.111 88.737 232.71 88.6226C232.298 88.5043 231.882 88.4017 231.462 88.3031C231.062 88.2084 230.657 88.1137 230.252 88.023C229.409 87.8376 228.558 87.6601 227.711 87.4826C227.128 87.3603 226.546 87.2459 225.964 87.1355C225.971 87.1513 225.975 87.167 225.983 87.1828C225.971 87.167 225.964 87.1513 225.952 87.1315C225.139 85.7233 224.538 84.1889 223.657 82.8241C222.863 81.5579 221.921 80.3942 220.964 79.2582C219.493 77.5305 217.893 75.9132 216.547 74.0711C215.174 72.2053 214.062 70.1147 213.404 67.8584C212.61 65.1248 212.391 62.265 212.228 59.4289C212.058 56.7742 211.797 54.1234 211.373 51.4963C210.659 47.0863 209.501 42.7315 207.66 38.6844C207.096 37.4379 206.484 36.2111 205.754 35.0593C204.85 33.6274 203.761 32.3336 202.626 31.095C202.199 30.602 201.805 30.0734 201.363 29.604C201.355 29.5961 201.348 29.5882 201.34 29.5803C201.355 29.5882 201.37 29.6 201.386 29.6079C201.662 29.675 201.938 29.7578 202.21 29.8446L202.24 29.8564C202.24 29.8564 202.248 29.8564 202.252 29.8564C202.429 29.9156 202.611 29.9748 202.792 30.0379C206.665 31.9234 209.354 34.6333 211.778 38.5739C215.583 44.2699 216.959 50.948 217.629 57.5236C218.563 63.8704 220.73 70.2449 225.385 75.144C228.365 78.6705 231.572 82.0391 233.875 86.0034C234.518 87.1671 234.98 88.3978 235.354 89.6521L235.346 89.66Z" fill="#B6752B"/>
<path d="M203.284 27.671C203.284 27.8052 203.284 27.9393 203.273 28.0734C203.265 28.1996 203.25 28.3219 203.235 28.4442C203.216 28.5586 203.193 28.669 203.171 28.7834C203.148 28.8781 203.121 28.9728 203.095 29.0674C203.084 29.1069 203.069 29.1424 203.057 29.1818C203.05 29.1818 203.038 29.1739 203.031 29.17C200.939 28.1326 198.455 27.6474 196.163 28.4008C195.486 28.6059 194.828 28.8544 194.189 29.1424C194.14 28.9688 194.098 28.7913 194.064 28.6099C194.022 28.3653 194.003 28.1168 193.996 27.8643C193.996 27.6277 194.004 27.391 194.038 27.1543C194.068 26.9807 194.106 26.8072 194.155 26.6336C194.212 26.464 194.276 26.2983 194.351 26.1327C194.423 25.9828 194.506 25.8368 194.597 25.6948C194.707 25.5331 194.828 25.3753 194.96 25.2215C195.081 25.0874 195.21 24.9532 195.346 24.831C195.467 24.7245 195.592 24.6258 195.724 24.5351C195.807 24.4799 195.894 24.4247 195.978 24.3734C196.057 24.3261 196.144 24.2787 196.227 24.2353C196.31 24.1959 196.39 24.1525 196.473 24.117C196.564 24.0775 196.658 24.0381 196.753 24.0026C196.859 23.9632 196.965 23.9277 197.074 23.8961C197.176 23.8645 197.282 23.8369 197.388 23.8093C197.502 23.7857 197.615 23.758 197.729 23.7423C197.827 23.7265 197.925 23.7146 198.024 23.6989C198.228 23.6752 198.436 23.6634 198.64 23.6594C198.833 23.6594 199.03 23.6713 199.222 23.687C199.423 23.7107 199.62 23.7423 199.816 23.7856C200.013 23.833 200.206 23.8882 200.399 23.9513C200.493 23.9868 200.588 24.0184 200.678 24.0618C200.765 24.1012 200.852 24.1407 200.939 24.1801C201.102 24.2629 201.261 24.3537 201.416 24.4483C201.416 24.4483 201.446 24.4681 201.473 24.4838C201.613 24.5785 201.749 24.6811 201.877 24.7836C202.017 24.9059 202.15 25.0321 202.278 25.1623C202.384 25.2806 202.49 25.4029 202.577 25.5291C202.592 25.5489 202.622 25.5923 202.653 25.6357V25.6435C202.69 25.6948 202.74 25.7698 202.781 25.8487C202.823 25.9197 202.861 25.9946 202.898 26.0656C202.94 26.1484 202.978 26.2352 203.012 26.322C203.042 26.397 203.069 26.4719 203.095 26.5429C203.121 26.6297 203.148 26.7125 203.171 26.7993C203.193 26.89 203.212 26.9768 203.231 27.0675C203.265 27.2687 203.284 27.4699 203.288 27.671H203.284Z" fill="#B6752B"/>
<path d="M234.314 91.9123C234.314 91.9123 234.303 91.9242 234.295 91.9281C234.174 92.0465 234.045 92.1569 233.89 92.22C233.788 92.2713 233.679 92.2989 233.576 92.3384C232.684 92.8275 231.754 93.2732 230.801 93.6243C221.618 96.9575 211.85 98.3854 202.146 98.4367C199.854 98.4288 197.562 98.3262 195.274 98.1645C189.136 97.6833 182.998 97.0482 176.936 95.9121C173.487 95.2416 170.034 94.5592 166.638 93.6282C165.201 93.2298 163.757 92.8078 162.414 92.1293C162.338 92.0899 162.263 92.0504 162.187 92.011C162.278 92.0425 162.372 92.0741 162.463 92.1056C162.569 92.0504 162.679 91.9991 162.788 91.9479C163.318 91.7151 163.859 91.5179 164.411 91.3364C165.163 91.0998 165.927 90.8907 166.699 90.7093C167.485 90.5278 168.272 90.3621 169.066 90.2122C171.165 89.8257 173.279 89.5259 175.405 89.2892C176.959 89.1157 178.513 88.9539 180.075 88.8316C180.843 88.7725 181.61 88.7173 182.382 88.666C183.108 88.6147 183.83 88.5634 184.557 88.52C185.29 88.4766 186.065 88.4411 186.841 88.3977C187.245 88.3741 187.646 88.3504 188.051 88.3307C188.403 88.311 188.754 88.2991 189.106 88.2873C190.12 88.2518 191.137 88.2202 192.15 88.1926C192.124 88.2281 192.105 88.2715 192.086 88.307C192.048 88.3741 192.01 88.4411 191.976 88.5082C191.901 88.6541 191.829 88.8001 191.761 88.9539C191.621 89.2774 191.511 89.6087 191.436 89.948C191.322 90.441 191.269 90.942 191.315 91.443C191.356 91.936 191.481 92.4212 191.659 92.8906C191.829 93.3403 192.052 93.7742 192.332 94.1805C192.638 94.6262 192.998 95.0443 193.398 95.4309C193.777 95.7938 194.193 96.1212 194.65 96.4013C195.13 96.6932 195.645 96.9417 196.182 97.1428C196.681 97.3282 197.195 97.4781 197.729 97.5689C198.258 97.6556 198.799 97.703 199.34 97.703C199.389 97.703 199.438 97.703 199.487 97.703C200.051 97.6951 200.607 97.6399 201.159 97.5294C201.423 97.4781 201.681 97.4071 201.934 97.3282C202.21 97.2415 202.486 97.1468 202.751 97.0363C203.258 96.8273 203.738 96.5669 204.184 96.2711C204.604 95.991 204.986 95.6755 205.334 95.3323H205.338C205.338 95.3323 205.357 95.3086 205.364 95.3007C205.614 95.0483 205.852 94.7682 206.068 94.4763C206.642 93.6913 207.032 92.8078 207.232 91.8887C207.281 91.6638 207.319 91.439 207.334 91.2102C207.35 91.013 207.353 90.8158 207.342 90.6185C207.323 90.2399 207.263 89.8572 207.16 89.4904C207.062 89.1354 206.926 88.7883 206.752 88.4569C206.722 88.3977 206.692 88.3425 206.657 88.2834C207.202 88.3031 207.747 88.3228 208.295 88.3504C209.902 88.4254 211.506 88.5042 213.109 88.6068C214.811 88.7212 216.543 88.8593 218.271 89.0249C219.905 89.1827 221.535 89.3681 223.158 89.5851C224.769 89.802 226.372 90.0624 227.964 90.3621C229.004 90.5633 230.044 90.7803 231.073 91.0367C232.018 91.2733 232.968 91.5061 233.89 91.8059C234.019 91.8492 234.151 91.8926 234.284 91.94C234.295 91.936 234.306 91.9321 234.318 91.9281L234.314 91.9123Z" fill="#B6752B"/>
<path d="M206.65 89.3956C206.684 89.7585 206.688 90.1254 206.673 90.4922C206.65 90.8985 206.593 91.3048 206.51 91.7032C206.449 91.9714 206.374 92.2357 206.279 92.4961C206.181 92.7525 206.064 93.0049 205.931 93.2495C205.791 93.5019 205.633 93.7465 205.459 93.9792C205.281 94.2119 205.084 94.4328 204.876 94.6458C204.676 94.847 204.46 95.0364 204.233 95.2139C203.991 95.4032 203.738 95.5768 203.469 95.7385C203.386 95.7858 203.303 95.8332 203.22 95.8805C203.167 95.916 203.114 95.9475 203.053 95.9673C203.012 95.9831 202.97 95.9949 202.925 95.9988C203.469 95.8174 203.59 94.9338 203.556 94.4171C203.432 92.7446 201.847 91.289 200.535 90.4922C199.287 89.7625 197.903 89.3601 196.5 89.0958C195.547 88.8907 194.571 88.8789 193.603 88.8316C193.081 88.7882 192.563 88.7448 192.045 88.7408C192.022 88.7408 191.999 88.7408 191.976 88.7408C191.999 88.7329 192.022 88.729 192.045 88.725C192.06 88.6383 192.075 88.5475 192.094 88.4608C192.109 88.3976 192.124 88.3345 192.139 88.2714C192.147 88.2438 192.158 88.2123 192.162 88.1807C192.729 88.1649 193.293 88.1531 193.86 88.1452C195.463 88.1176 197.071 88.1018 198.674 88.1097C200.289 88.1176 201.908 88.1334 203.522 88.1768C204.498 88.2004 205.47 88.228 206.446 88.2596C206.457 88.299 206.465 88.3385 206.476 88.374V88.3819C206.559 88.7132 206.616 89.0525 206.646 89.3956H206.65Z" fill="#B6752B"/>
<path d="M197.26 25.7784C197.26 25.7784 197.26 25.7659 197.268 25.7659C197.272 25.7659 197.284 25.7659 197.288 25.77C197.32 25.7826 197.264 25.7992 197.264 25.7742L197.26 25.7784Z" fill="#F5D68C"/>
<path d="M191.231 36.5031C191.114 36.4833 190.997 36.5031 190.899 36.4952C191.042 34.8266 191.568 33.2054 193.376 32.9096C194.227 32.5743 194.964 32.3258 195.857 32.3179C195.573 33.3395 194.922 34.1363 194.431 35.0357C193.826 36.2151 192.381 36.5504 191.213 36.507H191.231V36.5031Z" fill="#F5D68C"/>
<path d="M202.426 96.2593C202.445 96.2593 202.463 96.2553 202.482 96.2514C202.426 96.2711 202.369 96.2869 202.312 96.3027C202.157 96.3618 202.002 96.4171 201.839 96.4723C201.51 96.5709 201.178 96.6537 200.841 96.7168C200.565 96.7681 200.228 96.8154 199.888 96.8431C199.601 96.8628 199.313 96.8667 199.026 96.8588C198.704 96.8431 198.387 96.8115 198.073 96.7602C197.71 96.6971 197.354 96.6182 197.002 96.5196C196.723 96.4368 196.454 96.3382 196.186 96.2277C195.925 96.1133 195.671 95.9871 195.429 95.849C195.123 95.6676 194.832 95.4704 194.548 95.2573C194.333 95.0877 194.125 94.9102 193.932 94.7248C193.754 94.5434 193.588 94.358 193.429 94.1647C193.247 93.928 193.081 93.6795 192.929 93.4271C192.778 93.1588 192.638 92.8867 192.525 92.6027C192.411 92.3186 192.317 92.0307 192.245 91.7388C192.135 91.2852 192.041 90.8039 191.992 90.3148C191.965 89.9992 191.961 89.6876 191.98 89.3721C191.984 89.2971 191.992 89.2182 191.999 89.1393C191.999 89.1157 191.999 89.0959 191.999 89.0723C191.999 89.0802 191.999 89.088 192.007 89.0999C192.143 89.731 192.483 90.2872 192.786 90.8473C193.425 91.9873 194.276 92.9813 195.252 93.8176C196.273 94.7051 197.453 95.3915 198.727 95.782C199.843 96.1685 201.019 96.3105 202.191 96.2948C202.271 96.2948 202.35 96.2829 202.426 96.275V96.2593Z" fill="#F5D68C"/>
<path d="M197.176 25.8328C197.226 25.8013 197.279 25.7737 197.339 25.7855C197.297 25.825 197.233 25.8526 197.176 25.8328Z" fill="#B6752B"/>
<path d="M197.207 25.7934C197.256 25.75 197.328 25.7224 197.392 25.7342C197.339 25.7815 197.271 25.7815 197.207 25.7934Z" fill="#B6752B"/>
<path d="M197.248 25.7778C197.275 25.7502 197.332 25.7383 197.369 25.7502C197.339 25.7699 197.29 25.7936 197.248 25.7778Z" fill="#B6752B"/>
<path d="M197.207 25.8052C197.245 25.7736 197.309 25.7697 197.354 25.7815C197.309 25.817 197.263 25.817 197.21 25.8052H197.207Z" fill="#B6752B"/>
<path d="M197.267 25.8092C197.267 25.8092 197.241 25.7934 197.252 25.7895C197.252 25.7895 197.256 25.7895 197.26 25.7895C197.358 25.75 197.358 25.8565 197.267 25.8092Z" fill="#B6752B"/>
</g>
<path d="M160.894 43.6427C160.705 43.6427 160.512 43.623 160.323 43.5638C159.101 43.2443 158.36 41.9307 158.662 40.6606C161.313 29.7973 167.856 20.567 177.031 14.658C178.097 13.9598 179.53 14.3188 180.196 15.4351C180.865 16.5672 180.521 18.0424 179.451 18.7367C171.286 23.9909 165.489 32.1877 163.125 41.8361C162.856 42.909 161.922 43.6269 160.913 43.6269L160.894 43.6466V43.6427Z" fill="#013366"/>
<path d="M236.466 43.6426C235.437 43.6426 234.503 42.9247 234.253 41.8517C231.89 32.2033 226.088 24.0065 217.927 18.7524C216.842 18.0542 216.517 16.5828 217.182 15.4508C217.852 14.3187 219.262 13.9794 220.348 14.6737C229.541 20.5826 236.065 29.8129 238.716 40.6763C239.022 41.9504 238.296 43.2639 237.056 43.5795C236.867 43.6386 236.674 43.6584 236.485 43.6584L236.466 43.6386V43.6426Z" fill="#013366"/>
<path d="M128.317 111.888H67.5887C65.6259 111.888 64.0338 113.974 64.0338 116.546V140.588C64.0338 143.16 65.6259 145.247 67.5887 145.247H116.215L119.369 152.402L122.523 145.247H128.317C130.28 145.247 131.872 143.16 131.872 140.588V116.546C131.872 113.974 130.28 111.888 128.317 111.888Z" fill="white"/>
<path d="M119.369 153.345L115.973 145.637H67.5887C65.4179 145.637 63.6556 143.369 63.6556 140.584V116.542C63.6556 113.757 65.4217 111.489 67.5887 111.489H128.317C130.488 111.489 132.25 113.753 132.25 116.542V140.584C132.25 143.369 130.484 145.637 128.317 145.637H122.765L119.369 153.345ZM67.5849 112.282C65.8339 112.282 64.4081 114.195 64.4081 116.546V140.588C64.4081 142.939 65.8339 144.852 67.5849 144.852H116.454L119.366 151.46L122.278 144.852H128.313C130.064 144.852 131.49 142.939 131.49 140.588V116.546C131.49 114.195 130.064 112.282 128.313 112.282H67.5849Z" fill="#013366"/>
<path d="M124.494 124.073H67.8685V124.861H124.494V124.073Z" fill="#013366"/>
<path d="M124.494 127.78H67.8685V128.569H124.494V127.78Z" fill="#013366"/>
<path d="M104.548 131.488H67.8685V132.277H104.548V131.488Z" fill="#013366"/>
</svg>
