<svg xmlns="http://www.w3.org/2000/svg" width="160" height="184" viewBox="0 0 160 184" fill="none">
  <g clip-path="url(#clip0_362_634)">
    <path d="M93.42 23.39V148.56C93.42 152.35 90.36 155.42 86.57 155.43H13.39C9.6 155.43 6.53 152.36 6.53 148.57V23.39C6.53 19.6 9.6 16.53 13.39 16.53H86.57C90.36 16.53 93.43 19.6 93.43 23.39" fill="#8099B3"/>
    <path d="M83.68 0H16.27C7.29 0 0 7.29 0 16.27V166.88C0 175.87 7.29 183.15 16.27 183.15H83.68C92.66 183.15 99.95 175.86 99.95 166.88V16.27C99.95 7.28 92.66 0 83.68 0ZM93.42 148.56C93.42 152.35 90.36 155.42 86.57 155.43H13.39C9.6 155.43 6.53 152.36 6.53 148.57V23.39C6.53 19.6 9.6 16.54 13.39 16.53H86.57C90.36 16.53 93.42 19.6 93.43 23.39V148.56H93.42Z" fill="#1E5189"/>
    <path d="M49.97 177.27C54.1618 177.27 57.56 173.872 57.56 169.68C57.56 165.488 54.1618 162.09 49.97 162.09C45.7782 162.09 42.38 165.488 42.38 169.68C42.38 173.872 45.7782 177.27 49.97 177.27Z" fill="#8099B3"/>
    <path d="M42.38 6.95996H57.57C58.77 6.95996 59.74 7.92996 59.74 9.12996C59.74 10.33 58.77 11.3 57.57 11.3H42.38C41.18 11.3 40.21 10.33 40.21 9.12996C40.21 7.92996 41.18 6.95996 42.38 6.95996Z" fill="#8099B3"/>
    <path d="M150.61 26.9299H58.6C53.84 26.9299 49.98 30.7899 49.98 35.5499V123.32C49.98 124.87 51.85 125.64 52.95 124.55L78.94 98.5599H150.62C155.38 98.5599 159.24 94.6999 159.24 89.9399V35.5499C159.24 30.7899 155.38 26.9299 150.62 26.9299H150.61Z" fill="#FCBA19"/>
    <path d="M104.6 38.4199C113.95 38.4199 121.54 46.0099 121.54 55.3599V74.8099H87.65V55.3599C87.65 46.0099 95.24 38.4199 104.59 38.4199H104.6Z" fill="#F9F1C6"/>
    <path d="M84.79 51.2201C84.69 51.2201 84.59 51.2101 84.49 51.1801C83.85 51.0201 83.46 50.3601 83.62 49.7201C85.01 44.2601 88.44 39.6201 93.25 36.6501C93.81 36.3001 94.56 36.4801 94.91 37.0401C95.26 37.6101 95.08 38.3501 94.52 38.7001C90.24 41.3401 87.2 45.4601 85.96 50.3101C85.82 50.8501 85.33 51.2101 84.8 51.2101L84.79 51.2201Z" fill="#F9F1C6"/>
    <path d="M119.87 72.3H89.34C86.41 75.23 84.77 76.87 81.85 79.79V82.72H127.37V79.79C124.44 76.86 122.8 75.22 119.88 72.3H119.87Z" fill="#F9F1C6"/>
    <path d="M104.6 42.1899C106.682 42.1899 108.37 40.502 108.37 38.4199C108.37 36.3378 106.682 34.6499 104.6 34.6499C102.518 34.6499 100.83 36.3378 100.83 38.4199C100.83 40.502 102.518 42.1899 104.6 42.1899Z" fill="#F9F1C6"/>
    <path d="M124.41 51.2201C123.87 51.2201 123.38 50.8601 123.25 50.3201C122.01 45.4701 118.97 41.3501 114.69 38.7101C114.12 38.3601 113.95 37.6201 114.3 37.0501C114.65 36.4801 115.39 36.3101 115.96 36.6601C120.78 39.6301 124.2 44.2701 125.59 49.7301C125.75 50.3701 125.37 51.0301 124.72 51.1901C124.62 51.2201 124.52 51.2301 124.42 51.2301L124.41 51.2201Z" fill="#F9F1C6"/>
    <path d="M104.6 90.33C107.52 90.33 109.89 87.96 109.89 85.04H99.31C99.31 87.96 101.68 90.33 104.6 90.33Z" fill="#F9F1C6"/>
  </g>
  <defs>
    <clipPath id="clip0_362_634">
      <rect width="159.23" height="183.15" fill="white"/>
    </clipPath>
  </defs>
</svg>