<svg width="26" height="25" viewBox="0 0 26 25" fill="none" xmlns="http://www.w3.org/2000/svg">
<path d="M4.82608 11.75C4.82608 12.1642 5.16187 12.5 5.57608 12.5L11.9331 12.5C11.9502 12.5 11.9668 12.4983 11.9829 12.4951H14.1693C14.1853 12.4983 14.202 12.5 14.219 12.5H20.5761C20.9903 12.5 21.3261 12.1642 21.3261 11.75C21.3261 11.3358 20.9903 11 20.5761 11L5.57608 11C5.16187 11 4.82608 11.3358 4.82608 11.75Z" fill="#CB381F"/>
<path fill-rule="evenodd" clip-rule="evenodd" d="M0.82608 22.3553C0.82608 23.538 1.78811 24.5 2.97082 24.5L23.1813 24.5C24.364 24.5 25.3261 23.538 25.3261 22.3553L25.3261 2.14474C25.3261 0.962033 24.364 0 23.1813 0H2.97082C1.78811 0 0.82608 0.962034 0.82608 2.14474V22.3553ZM2.97082 22.7368C2.76026 22.7368 2.58924 22.5658 2.58924 22.3553L2.58924 2.14474C2.58924 1.93418 2.76026 1.76316 2.97082 1.76316L23.1813 1.76316C23.3919 1.76316 23.5629 1.93418 23.5629 2.14474L23.5629 22.3553C23.5629 22.5658 23.3919 22.7368 23.1813 22.7368H2.97082Z" fill="#CB381F"/>
</svg>
