<svg width="107" height="120" viewBox="0 0 107 120" fill="none" xmlns="http://www.w3.org/2000/svg">
<g id="Layer_1" clip-path="url(#clip0_3706_428)">
<path id="Vector" d="M101.369 1.4043H5.63122C3.29675 1.4043 1.4043 3.29692 1.4043 5.63158V21.677C1.4043 24.0117 3.29675 25.9043 5.63122 25.9043H101.369C103.703 25.9043 105.596 24.0117 105.596 21.677V5.63158C105.596 3.29692 103.703 1.4043 101.369 1.4043Z" fill="#8099B3" stroke="#003366" stroke-width="4" stroke-linejoin="round"/>
<path id="Vector_2" d="M16.4653 9.29736V18.0117" stroke="#FCBA19" stroke-width="4" stroke-linecap="round" stroke-linejoin="round"/>
<path id="Vector_3" d="M12.6948 11.4741L20.2359 15.8348" stroke="#FCBA19" stroke-width="4" stroke-linecap="round" stroke-linejoin="round"/>
<path id="Vector_4" d="M20.2359 11.4741L12.6948 15.8348" stroke="#FCBA19" stroke-width="4" stroke-linecap="round" stroke-linejoin="round"/>
<path id="Vector_5" d="M31.2805 9.29736V18.0117" stroke="#FCBA19" stroke-width="4" stroke-linecap="round" stroke-linejoin="round"/>
<path id="Vector_6" d="M27.5029 11.4741L35.051 15.8348" stroke="#FCBA19" stroke-width="4" stroke-linecap="round" stroke-linejoin="round"/>
<path id="Vector_7" d="M35.051 11.4741L27.5029 15.8348" stroke="#FCBA19" stroke-width="4" stroke-linecap="round" stroke-linejoin="round"/>
<path id="Vector_8" d="M46.0959 9.29736V18.0117" stroke="#FCBA19" stroke-width="4" stroke-linecap="round" stroke-linejoin="round"/>
<path id="Vector_9" d="M42.3184 11.4741L49.8664 15.8348" stroke="#FCBA19" stroke-width="4" stroke-linecap="round" stroke-linejoin="round"/>
<path id="Vector_10" d="M49.8664 11.4741L42.3184 15.8348" stroke="#FCBA19" stroke-width="4" stroke-linecap="round" stroke-linejoin="round"/>
<path id="Vector_11" d="M60.9041 9.29736V18.0117" stroke="#FCBA19" stroke-width="4" stroke-linecap="round" stroke-linejoin="round"/>
<path id="Vector_12" d="M57.1335 11.4741L64.6816 15.8348" stroke="#FCBA19" stroke-width="4" stroke-linecap="round" stroke-linejoin="round"/>
<path id="Vector_13" d="M64.6816 11.4741L57.1335 15.8348" stroke="#FCBA19" stroke-width="4" stroke-linecap="round" stroke-linejoin="round"/>
<path id="Vector_14" d="M75.7195 9.29736V18.0117" stroke="#FCBA19" stroke-width="4" stroke-linecap="round" stroke-linejoin="round"/>
<path id="Vector_15" d="M71.949 11.4741L79.49 15.8348" stroke="#FCBA19" stroke-width="4" stroke-linecap="round" stroke-linejoin="round"/>
<path id="Vector_16" d="M79.49 11.4741L71.949 15.8348" stroke="#FCBA19" stroke-width="4" stroke-linecap="round" stroke-linejoin="round"/>
<path id="Vector_17" d="M90.5347 9.29736V18.0117" stroke="#FCBA19" stroke-width="4" stroke-linecap="round" stroke-linejoin="round"/>
<path id="Vector_18" d="M86.7642 11.4741L94.3052 15.8348" stroke="#FCBA19" stroke-width="4" stroke-linecap="round" stroke-linejoin="round"/>
<path id="Vector_19" d="M94.3052 11.4741L86.7642 15.8348" stroke="#FCBA19" stroke-width="4" stroke-linecap="round" stroke-linejoin="round"/>
<path id="Vector_20" d="M29.2795 48.0027C33.1884 48.0027 36.3572 44.8336 36.3572 40.9244C36.3572 37.0152 33.1884 33.8462 29.2795 33.8462C25.3707 33.8462 22.2019 37.0152 22.2019 40.9244C22.2019 44.8336 25.3707 48.0027 29.2795 48.0027Z" fill="#8099B3" stroke="#003366" stroke-width="4" stroke-linejoin="round"/>
<path id="Vector_21" d="M53.4966 48.0027C57.4054 48.0027 60.5742 44.8336 60.5742 40.9244C60.5742 37.0152 57.4054 33.8462 53.4966 33.8462C49.5877 33.8462 46.4189 37.0152 46.4189 40.9244C46.4189 44.8336 49.5877 48.0027 53.4966 48.0027Z" fill="#8099B3" stroke="#003366" stroke-width="4" stroke-linejoin="round"/>
<path id="Vector_22" d="M77.7134 48.0027C81.6222 48.0027 84.791 44.8336 84.791 40.9244C84.791 37.0152 81.6222 33.8462 77.7134 33.8462C73.8045 33.8462 70.6357 37.0152 70.6357 40.9244C70.6357 44.8336 73.8045 48.0027 77.7134 48.0027Z" fill="#8099B3" stroke="#003366" stroke-width="4" stroke-linejoin="round"/>
<path id="Vector_23" d="M29.2795 71.5339C33.1884 71.5339 36.3572 68.3649 36.3572 64.4557C36.3572 60.5465 33.1884 57.3774 29.2795 57.3774C25.3707 57.3774 22.2019 60.5465 22.2019 64.4557C22.2019 68.3649 25.3707 71.5339 29.2795 71.5339Z" fill="#8099B3" stroke="#003366" stroke-width="4" stroke-linejoin="round"/>
<path id="Vector_24" d="M53.4966 71.5339C57.4054 71.5339 60.5742 68.3649 60.5742 64.4557C60.5742 60.5465 57.4054 57.3774 53.4966 57.3774C49.5877 57.3774 46.4189 60.5465 46.4189 64.4557C46.4189 68.3649 49.5877 71.5339 53.4966 71.5339Z" fill="#8099B3" stroke="#003366" stroke-width="4" stroke-linejoin="round"/>
<path id="Vector_25" d="M77.7134 71.5339C81.6222 71.5339 84.791 68.3649 84.791 64.4557C84.791 60.5465 81.6222 57.3774 77.7134 57.3774C73.8045 57.3774 70.6357 60.5465 70.6357 64.4557C70.6357 68.3649 73.8045 71.5339 77.7134 71.5339Z" fill="#8099B3" stroke="#003366" stroke-width="4" stroke-linejoin="round"/>
<path id="Vector_26" d="M29.2795 95.0647C33.1884 95.0647 36.3572 91.8956 36.3572 87.9864C36.3572 84.0772 33.1884 80.9082 29.2795 80.9082C25.3707 80.9082 22.2019 84.0772 22.2019 87.9864C22.2019 91.8956 25.3707 95.0647 29.2795 95.0647Z" fill="#8099B3" stroke="#003366" stroke-width="4" stroke-linejoin="round"/>
<path id="Vector_27" d="M53.4966 95.0647C57.4054 95.0647 60.5742 91.8956 60.5742 87.9864C60.5742 84.0772 57.4054 80.9082 53.4966 80.9082C49.5877 80.9082 46.4189 84.0772 46.4189 87.9864C46.4189 91.8956 49.5877 95.0647 53.4966 95.0647Z" fill="#8099B3" stroke="#003366" stroke-width="4" stroke-linejoin="round"/>
<path id="Vector_28" d="M77.7134 95.0647C81.6222 95.0647 84.791 91.8956 84.791 87.9864C84.791 84.0772 81.6222 80.9082 77.7134 80.9082C73.8045 80.9082 70.6357 84.0772 70.6357 87.9864C70.6357 91.8956 73.8045 95.0647 77.7134 95.0647Z" fill="#8099B3" stroke="#003366" stroke-width="4" stroke-linejoin="round"/>
<path id="Vector_29" d="M53.4966 118.595C57.4054 118.595 60.5742 115.426 60.5742 111.517C60.5742 107.608 57.4054 104.439 53.4966 104.439C49.5877 104.439 46.4189 107.608 46.4189 111.517C46.4189 115.426 49.5877 118.595 53.4966 118.595Z" fill="#8099B3" stroke="#003366" stroke-width="4" stroke-linejoin="round"/>
</g>
<defs>
<clipPath id="clip0_3706_428">
<rect width="107" height="120" fill="white"/>
</clipPath>
</defs>
</svg>
