<svg width="16" height="16" viewBox="0 0 16 16" fill="none" xmlns="http://www.w3.org/2000/svg">
<path d="M12.789 15.9992C11.3722 15.9992 9.86511 15.5976 8.30919 14.8057C6.87486 14.0753 5.45813 13.0297 4.21179 11.7818C2.96545 10.5339 1.9215 9.11554 1.19194 7.68042C0.40158 6.12369 0 4.61657 0 3.19984C0 2.28149 0.855957 1.39433 1.22314 1.05595C1.75191 0.568772 2.58387 0 3.18864 0C3.48943 0 3.84141 0.19679 4.29819 0.619169C4.63817 0.934353 5.02135 1.36153 5.40453 1.85431C5.63572 2.15189 6.78846 3.67102 6.78846 4.39978C6.78846 4.99735 6.11249 5.41333 5.39733 5.85251C5.12054 6.0221 4.83496 6.19809 4.62857 6.36368C4.40778 6.54047 4.36858 6.63407 4.36218 6.65487C5.12134 8.54757 7.44203 10.8683 9.33393 11.6266C9.35073 11.621 9.44433 11.5842 9.62432 11.3602C9.78991 11.1538 9.9659 10.8675 10.1355 10.5915C10.5755 9.87631 10.9907 9.20034 11.5882 9.20034C12.317 9.20034 13.8361 10.3531 14.1337 10.5843C14.6265 10.9675 15.0536 11.3506 15.3688 11.6906C15.7912 12.1466 15.988 12.4994 15.988 12.8002C15.988 13.4049 15.4192 14.2393 14.9329 14.7705C14.5937 15.14 13.7065 16 12.7882 16L12.789 15.9992ZM3.18464 0.79996C2.97025 0.80396 2.39348 1.06635 1.76631 1.64392C1.17114 2.19269 0.80076 2.78866 0.80076 3.19984C0.80076 8.58277 7.41163 15.1992 12.789 15.1992C13.1993 15.1992 13.7953 14.8273 14.3441 14.2289C14.9225 13.5985 15.1848 13.0194 15.1888 12.8042C15.1632 12.6522 14.7425 12.061 13.5913 11.1746C12.6018 10.4131 11.7994 10.0043 11.593 9.9995C11.5786 10.0035 11.489 10.0379 11.3074 10.2683C11.1498 10.4691 10.9811 10.7435 10.8171 11.009C10.3691 11.7378 9.9459 12.4266 9.33073 12.4266C9.23154 12.4266 9.13394 12.4074 9.04035 12.3698C6.94045 11.5298 4.45738 9.04675 3.61742 6.94685C3.51662 6.69487 3.50062 6.29969 3.9966 5.85011C4.26059 5.61092 4.62537 5.38693 4.97895 5.16934C5.24454 5.00615 5.51972 4.83736 5.71971 4.67897C5.9501 4.49738 5.9845 4.40778 5.9885 4.39338C5.9829 4.18699 5.57492 3.38463 4.81336 2.39508C3.927 1.24394 3.33583 0.823959 3.18384 0.79756L3.18464 0.79996Z" fill="#223654"/>
</svg>
