<svg width="16" height="24" viewBox="0 0 16 24" fill="none" xmlns="http://www.w3.org/2000/svg">
<path d="M8.02526 7.00682C7.78594 6.76643 7.39715 6.76643 7.15782 7.00682L6.90917 7.25762L4.04588 10.1336C3.80698 10.3736 3.80698 10.7628 4.04588 11.0027C4.28521 11.2431 4.674 11.2431 4.91332 11.0027L6.97878 8.92809V16.5605C6.97878 16.8994 7.25264 17.1754 7.5918 17.1754C7.93097 17.1754 8.20482 16.8994 8.20482 16.5605V8.92809L10.2703 11.0027C10.5096 11.2431 10.8984 11.2431 11.1377 11.0027C11.2584 10.8815 11.3168 10.7231 11.3168 10.5679C11.3168 10.4111 11.2568 10.254 11.139 10.1344L8.02526 7.00682Z" fill="#095797"/>
<path fill-rule="evenodd" clip-rule="evenodd" d="M3.27011 0C1.47082 0 0 1.41874 0 3.18367V20.8163C0 22.5813 1.47082 24 3.27011 24H11.9136C13.7129 24 15.1837 22.5813 15.1837 20.8163V3.18367C15.1837 1.41874 13.7129 0 11.9136 0H3.27011ZM1.35414 3.18367C1.35414 2.16626 2.20521 1.32945 3.27011 1.32945H11.9136C12.9785 1.32945 13.8295 2.16626 13.8295 3.18367V20.8163C13.8295 21.8337 12.9785 22.6706 11.9136 22.6706H3.27011C2.20521 22.6706 1.35414 21.8337 1.35414 20.8163V3.18367Z" fill="#095797"/>
</svg>
