<svg xmlns="http://www.w3.org/2000/svg" width="1024" height="935" viewBox="0 0 1024 935" fill="none">
  <path d="M1024 512C1024 794.77 738.916 934.012 456.145 934.012C173.376 934.012 0 794.77 0 512C0 229.23 229.23 0 512 0C794.77 0 1024 229.23 1024 512Z" fill="#F1F8FE"/>
  <path d="M512.945 144.188C326.297 144.188 174.812 295.671 174.812 482.321C174.812 668.97 326.297 820.453 512.945 820.453C699.595 820.453 851.076 668.97 851.076 482.321C851.076 295.671 699.595 144.188 512.945 144.188ZM512.945 279.441C578.205 279.441 631.292 332.528 631.292 397.787C631.292 463.047 578.205 516.134 512.945 516.134C447.686 516.134 394.599 463.047 394.599 397.787C394.599 332.528 447.686 279.441 512.945 279.441ZM512.945 752.827C444.305 752.827 363.153 725.1 305.332 655.445C362.477 610.811 434.498 583.76 512.945 583.76C591.392 583.76 663.415 610.811 720.559 655.445C662.738 725.1 581.587 752.827 512.945 752.827Z" fill="#1E5189"/>
  <path d="M849.588 752.825L830.388 730.872L833.062 701.837L804.657 695.385L789.786 670.207L763.033 681.694L736.28 670.207L721.409 695.307L693.003 701.68L695.679 730.793L676.479 752.825L695.679 774.779L693.003 803.892L721.409 810.344L736.28 835.444L763.033 823.878L789.786 835.366L804.657 810.265L833.062 803.814L830.388 774.779L849.588 752.825ZM748.004 789.965L718.104 759.986L729.75 748.34L748.004 766.674L794.035 720.486L805.681 732.132L748.004 789.965Z" fill="#42814A"/>
</svg>