<svg width="175" height="164" viewBox="0 0 175 164" fill="none" xmlns="http://www.w3.org/2000/svg">
<path d="M129.358 17.9856C101.73 -3.26843 58.5234 -5.58074 47.3123 10.4942C37.2197 24.9664 57.8031 47.535 45.6423 63.1954C36.1637 75.4024 19.8413 66.6031 8.63193 78.2523C-8.55579 96.1104 1.05442 146.666 27.4509 158.036C40.2662 163.555 58.3345 160.398 61.273 152.983C63.9822 146.145 52.9111 138.019 55.7299 133.411C58.7579 128.457 73.5215 134.602 87.1432 136.001C111.578 138.512 144.965 127.055 157.323 103.211C171.795 75.2912 154.027 36.9644 129.358 17.9873V17.9856Z" fill="#D8EAFD"/>
<mask id="mask0_3877_6775" style="mask-type:luminance" maskUnits="userSpaceOnUse" x="21" y="22" width="141" height="142">
<path d="M161.132 22.7485H21.8435V164H161.132V22.7485Z" fill="white"/>
</mask>
<g mask="url(#mask0_3877_6775)">
<mask id="mask1_3877_6775" style="mask-type:luminance" maskUnits="userSpaceOnUse" x="21" y="22" width="140" height="142">
<path d="M160.971 22.8076H21.8992V163.923H160.971V22.8076Z" fill="white"/>
</mask>
<g mask="url(#mask1_3877_6775)">
<path d="M25.8346 55.5962C26.3778 56.7254 28.4391 60.6995 29.8291 63.1719L81.9119 155.668C84.0424 159.451 88.9496 162.175 92.6321 161.612L141.157 154.207C141.203 154.201 145.799 153.635 152.763 152.434C156.373 151.812 157.938 147.748 158.62 144.438C157.876 144.959 156.978 145.311 155.951 145.468L95.8051 154.648C95.4104 154.709 94.9954 154.739 94.5753 154.739C90.3666 154.739 85.6585 151.805 83.3845 147.762L24.114 42.4943C24.033 42.3493 23.9537 42.2027 23.8795 42.0578C23.5303 45.7622 23.618 50.9969 25.8346 55.5962ZM22.9584 36.55C23.0175 36.2736 23.0917 36.0023 23.1862 35.741C23.9048 33.7253 25.5563 32.4242 27.8336 32.0771L87.9779 22.8969C88.3743 22.8379 88.7876 22.8059 89.2094 22.8059C93.4181 22.8059 98.1246 25.7401 100.4 29.7816L159.672 135.049C160.642 136.773 161.076 138.528 160.951 140.137C160.894 144.753 159.175 153.607 153.014 154.667C146.012 155.873 141.383 156.443 141.358 156.445L92.8547 163.848C92.46 163.907 92.0551 163.938 91.6435 163.938C87.5275 163.938 82.7165 161.015 80.4325 156.962L28.3497 64.4646C27.0238 62.1085 24.9085 58.0535 24.2827 56.7558C20.057 47.9801 22.6734 37.6084 22.9568 36.55" fill="#1E5189"/>
</g>
<path d="M38.085 46.0303L92.4889 37.9271C95.6552 37.4434 99.7442 39.7102 101.576 42.9646L148.128 125.638C149.958 128.893 148.868 131.948 145.702 132.432L91.2979 140.535C88.1316 141.017 84.0426 138.75 82.2107 135.498L35.6609 52.824C33.829 49.5713 34.9204 46.5123 38.0867 46.0303" fill="#8099B3"/>
<path d="M48.9265 35.5204L74.9603 31.5817C75.2825 31.5294 75.5912 31.8244 75.6317 32.2373C75.6721 32.6485 75.436 33.0243 75.1053 33.0732L49.0716 37.0119C49.048 37.017 49.0227 37.0186 48.999 37.0186C48.6988 37.0186 48.439 36.7389 48.4002 36.3563C48.3614 35.9451 48.5959 35.5692 48.9265 35.5204Z" fill="#8099B3"/>
</g>
<path d="M59.2166 65.1184L141.353 55.7461C143.708 55.4781 146.729 56.7 148.117 58.4797L174.212 91.9307C175.708 93.847 175.013 95.7228 172.643 96.1138L89.6363 109.812C86.772 110.284 83.2548 108.916 81.799 106.76L56.5159 69.293C55.1748 67.306 56.3928 65.4403 59.2149 65.1184H59.2166Z" fill="#013366"/>
<path fill-rule="evenodd" clip-rule="evenodd" d="M128.583 98.2558C128.602 98.2525 128.632 98.2643 128.644 98.2794C128.656 98.2946 128.666 98.3081 128.627 98.3148C128.627 98.3148 128.588 98.3216 128.566 98.2912C128.566 98.2912 128.565 98.2592 128.583 98.2558ZM92.8651 84.9651C96.5627 84.4494 97.1194 82.1809 98.9075 82.4421C102.878 83.3809 112.295 87.6886 116.048 95.6739L87.2865 100.115C79.9789 92.411 81.9475 86.3572 84.6297 84.5016C85.3652 83.6792 88.3493 85.5786 92.8651 84.9668V84.9651ZM141.756 90.7038L122.126 93.7121L118.917 89.2881L138.529 86.3876L141.756 90.7038ZM156.022 81.9214L117.634 87.5167L114.466 83.1483L152.821 77.7585L156.022 81.9197V81.9214ZM151.35 75.8473L113.01 81.1427L109.884 76.8316L148.188 71.7367L151.35 75.8456V75.8473ZM83.0693 71.2817C87.7471 70.5974 93.5044 72.7193 96.0398 76.0394C98.5718 79.3849 96.8765 82.705 92.1988 83.4753C87.4637 84.2387 81.5562 82.0831 79.014 78.6669L78.9432 78.5658C76.5006 75.1951 78.3747 71.9541 83.0676 71.2817H83.0693ZM146.736 69.8508L108.449 74.853L105.363 70.5991L143.613 65.7925L146.736 69.8508Z" fill="white"/>
</svg>
