<svg width="169" height="139" viewBox="0 0 169 139" fill="none" xmlns="http://www.w3.org/2000/svg">
<path d="M147.89 106.835C148.522 106.331 149.142 105.799 149.73 105.254L150.855 106.47C150.236 107.044 149.585 107.602 148.922 108.13L147.888 106.835H147.89ZM151.45 103.54C152.001 102.95 152.535 102.334 153.039 101.706L154.332 102.745C153.803 103.403 153.242 104.05 152.664 104.67L151.452 103.538L151.45 103.54ZM154.487 99.7627C154.943 99.0997 155.38 98.4096 155.786 97.7155L157.218 98.5505C156.791 99.282 156.333 100.005 155.852 100.703L154.487 99.7648V99.7627ZM156.928 95.575C157.28 94.8497 157.609 94.1037 157.905 93.3557L159.447 93.967C159.136 94.7523 158.79 95.5377 158.419 96.3002L156.93 95.575H156.928ZM158.711 91.0722C158.95 90.3035 159.161 89.516 159.341 88.7328L160.957 89.1016C160.769 89.9263 160.547 90.7552 160.294 91.5633L158.711 91.0722ZM159.787 86.3519C159.905 85.5541 159.99 84.7439 160.043 83.9461L161.697 84.056C161.641 84.8993 161.55 85.7531 161.425 86.5923L159.784 86.3519H159.787ZM159.977 79.1119L161.626 78.9544C161.707 79.7957 161.753 80.6535 161.765 81.5052L160.108 81.528C160.097 80.7219 160.054 79.9096 159.977 79.1139V79.1119ZM159.122 74.3584L160.723 73.9295C160.943 74.75 161.129 75.5872 161.28 76.4222L159.65 76.7165C159.507 75.927 159.331 75.1334 159.124 74.3584H159.122ZM158.27 71.704C158.032 71.0678 157.767 70.4338 157.485 69.8225L158.991 69.1283C159.289 69.7769 159.569 70.4462 159.822 71.1217C159.867 71.244 159.913 71.3683 159.959 71.4906L158.401 72.0542C158.357 71.9361 158.316 71.82 158.272 71.704H158.27ZM155.094 65.6389L156.455 64.694C156.94 65.3923 157.4 66.1196 157.82 66.8552L156.381 67.6778C155.985 66.9837 155.552 66.2978 155.094 65.6389ZM152.011 61.9297L153.192 60.7652C153.791 61.3744 154.369 62.0106 154.908 62.6591L153.633 63.7201C153.124 63.1067 152.579 62.5058 152.011 61.9297ZM148.352 58.7635L149.336 57.4291C150.024 57.9367 150.693 58.4713 151.33 59.0205L150.246 60.2741C149.643 59.754 149.007 59.2443 148.352 58.7614V58.7635ZM144.25 56.1651L145.04 54.7063C145.787 55.1124 146.527 55.5434 147.236 55.9931L146.349 57.3938C145.674 56.9649 144.967 56.5526 144.252 56.1651H144.25ZM139.829 54.1282L140.426 52.5824C141.215 52.887 142.002 53.2206 142.765 53.5708L142.073 55.0772C141.339 54.7394 140.585 54.4203 139.829 54.1282ZM135.188 52.6777L135.563 51.0635C136.1 51.1878 136.962 51.4075 138.027 51.7431L137.529 53.3242C136.514 53.0051 135.696 52.7979 135.188 52.6777Z" fill="#91C4FA"/>
<mask id="mask0_3956_6050" style="mask-type:luminance" maskUnits="userSpaceOnUse" x="12" y="0" width="130" height="131">
<path d="M141.399 0H12.8033V130.546H141.399V0Z" fill="white"/>
</mask>
<g mask="url(#mask0_3956_6050)">
<mask id="mask1_3956_6050" style="mask-type:luminance" maskUnits="userSpaceOnUse" x="12" y="0" width="130" height="131">
<path d="M141.348 0.0539551H12.9526V130.474H141.348V0.0539551Z" fill="white"/>
</mask>
<g mask="url(#mask1_3956_6050)">
<path d="M139.518 17.8454C139.45 17.9801 139.377 18.1148 139.303 18.2495L84.5805 115.538C82.4798 119.274 78.1331 121.987 74.2485 121.987C73.8611 121.987 73.4778 121.96 73.1132 121.904L17.5851 113.42C16.6362 113.275 15.8075 112.95 15.1218 112.469C15.7495 115.528 17.1956 119.285 20.5291 119.859C26.9579 120.969 31.203 121.491 31.2444 121.498L76.0448 128.342C79.4446 128.862 83.9756 126.346 85.9417 122.849L134.026 37.3628C135.31 35.0773 137.212 31.4054 137.714 30.3611C139.761 26.1111 139.841 21.2706 139.518 17.8475V17.8454ZM140.37 12.7562C140.633 13.7343 143.048 23.32 139.145 31.4303C138.567 32.6301 136.616 36.3786 135.391 38.5543L87.307 124.042C85.2 127.789 80.756 130.487 76.9564 130.489C76.5752 130.489 76.2022 130.462 75.8376 130.406L31.058 123.564C31.0352 123.561 26.7611 123.035 20.2971 121.92C14.61 120.94 13.021 112.757 12.9692 108.491C12.8532 107.003 13.253 105.381 14.148 103.789L68.8743 6.50048C70.9751 2.76442 75.3197 0.052002 79.2063 0.052002C79.5958 0.052002 79.977 0.0810118 80.3437 0.134887L135.872 8.6182C137.975 8.93938 139.5 10.1412 140.162 12.0061C140.25 12.2486 140.318 12.4993 140.372 12.7542" fill="#1E5189"/>
</g>
<path d="M126.406 21.5172L76.1774 14.0285C73.2541 13.5809 69.4793 15.6759 67.7867 18.6846L24.8095 95.0924C23.1189 98.0991 24.1258 100.925 27.0491 101.371L77.2775 108.86C80.2008 109.305 83.9756 107.21 85.6683 104.204L128.645 27.7937C130.336 24.787 129.329 21.9606 126.406 21.5151" fill="#8099B3"/>
<path d="M116.395 11.8031L92.3601 8.16241C92.0638 8.11475 91.7779 8.3862 91.7406 8.76747C91.7033 9.14875 91.9209 9.49479 92.2254 9.54038L116.26 13.1811C116.283 13.1853 116.306 13.1873 116.327 13.1873C116.604 13.1873 116.844 12.9283 116.88 12.5761C116.915 12.1948 116.699 11.8487 116.393 11.8031" fill="#8099B3"/>
</g>
<path d="M108.599 43.5105L32.7693 34.849C30.596 34.6004 27.8053 35.7297 26.5229 37.3749L2.43213 68.2912C1.05232 70.0628 1.69251 71.7951 3.88031 72.1578L80.5137 84.8185C83.1573 85.2557 86.4059 83.9896 87.7484 81.9983L111.091 47.3709C112.328 45.535 111.205 43.8089 108.599 43.5126V43.5105Z" fill="#1E5189"/>
<path d="M106.894 39.159L31.0641 30.4974C28.8908 30.2488 26.1001 31.3781 24.8177 33.0234L0.726934 63.9396C-0.652878 65.7113 -0.012695 67.4436 2.17511 67.8062L78.8085 80.4669C81.4521 80.9041 84.7007 79.6381 86.0432 77.6468L109.386 43.0193C110.623 41.1834 109.5 39.4574 106.894 39.161V39.159Z" fill="#013366"/>
<path fill-rule="evenodd" clip-rule="evenodd" d="M41.8459 50.8434C44.187 52.557 45.9066 58.1539 39.5255 65.2737L14.4113 61.1688C17.6888 53.7879 25.9097 49.8073 29.3779 48.9391C30.9379 48.6987 31.4248 50.7957 34.6547 51.2702C38.5973 51.8359 41.2036 50.0808 41.8459 50.8413V50.8434ZM46.7767 62.7457L63.9021 65.4271L61.1011 69.5154L43.9591 66.7346L46.7767 62.7457ZM50.5432 57.1116L84.0337 62.093L81.2679 66.1295L47.7463 60.9575L50.5412 57.1116H50.5432ZM54.5874 51.5479L88.0343 56.2558L85.3037 60.2405L51.8257 55.3461L54.5853 51.5479H54.5874ZM46.8099 45.3585L46.7477 45.4517C44.5268 48.6076 39.3701 50.6009 35.2348 49.8944C31.1513 49.1815 29.67 46.1148 31.8806 43.0211C34.0953 39.9523 39.1215 37.992 43.205 38.624C47.303 39.2457 48.9397 42.242 46.8078 45.3564L46.8099 45.3585ZM58.5818 46.0526L91.9811 50.4953L89.2878 54.4282L55.8553 49.8053L58.5818 46.0547V46.0526Z" fill="white"/>
<path d="M46.0804 3.98264C45.9519 3.98264 45.8235 3.94949 45.7095 3.88525C42.6143 2.28971 39.9375 1.61212 36.7283 1.61212C33.5357 1.61212 30.5047 2.37052 27.7471 3.88525C27.3597 4.09453 26.877 3.94949 26.6512 3.562C26.4419 3.17451 26.5869 2.67512 26.9744 2.46584C29.9743 0.839214 33.2643 0 36.7304 0C40.1654 0 43.1633 0.758401 46.4512 2.45133C46.8552 2.66062 47.0003 3.1455 46.7889 3.53091C46.6439 3.82101 46.3704 3.98264 46.0804 3.98264ZM23.009 12.4494C22.8474 12.4494 22.6858 12.4017 22.5407 12.3043C22.1699 12.0453 22.0891 11.5459 22.3481 11.175C23.9433 8.91846 25.9758 7.14471 28.3935 5.90143C33.457 3.28847 39.9375 3.27397 45.0155 5.88486C47.4333 7.12606 49.4657 8.88323 51.061 11.1253C51.32 11.4796 51.2391 11.9956 50.8683 12.2546C50.4974 12.5115 49.9981 12.4328 49.7392 12.0619C48.2889 10.0291 46.4492 8.43358 44.2738 7.32085C39.6475 4.95033 33.7305 4.95033 29.1187 7.33742C26.9267 8.46673 25.089 10.0789 23.6367 12.1095C23.5083 12.3354 23.2659 12.4473 23.009 12.4473V12.4494ZM33.0861 31.9108C32.8769 31.9108 32.6676 31.83 32.5226 31.6684C31.12 30.2656 30.3617 29.3621 29.2823 27.4122C28.1698 25.4292 27.5897 23.011 27.5897 20.4147C27.5897 15.626 31.6856 11.7241 36.7159 11.7241C41.7462 11.7241 45.8421 15.626 45.8421 20.4147C45.8421 20.8664 45.4879 21.2207 45.0362 21.2207C44.5846 21.2207 44.2303 20.8664 44.2303 20.4147C44.2303 16.5128 40.8616 13.3362 36.718 13.3362C32.5744 13.3362 29.2057 16.5128 29.2057 20.4147C29.2057 22.7375 29.7216 24.8822 30.7057 26.6228C31.7374 28.4773 32.446 29.2668 33.689 30.5246C33.9957 30.8478 33.9957 31.3472 33.689 31.6705C33.5109 31.8321 33.3016 31.9129 33.0924 31.9129L33.0861 31.9108ZM44.6467 28.929C42.7282 28.929 41.0356 28.4462 39.6496 27.4931C37.2484 25.8644 35.8126 23.2203 35.8126 20.4147C35.8126 19.9629 36.1669 19.6086 36.6185 19.6086C37.0702 19.6086 37.4245 19.9629 37.4245 20.4147C37.4245 22.6878 38.5847 24.8324 40.5529 26.1545C41.6986 26.9294 43.0349 27.3004 44.6488 27.3004C45.0362 27.3004 45.6805 27.2527 46.3249 27.1387C46.7599 27.0579 47.1784 27.348 47.2592 27.7997C47.34 28.2349 47.05 28.6535 46.5983 28.7343C45.6785 28.9125 44.8725 28.927 44.6467 28.927V28.929ZM41.4064 32.2507C41.3422 32.2507 41.2614 32.2341 41.1972 32.2175C38.6344 31.5089 36.9562 30.5557 35.1994 28.8317C32.9432 26.5896 31.7001 23.6078 31.7001 20.4147C31.7001 17.8017 33.9252 15.6736 36.6662 15.6736C39.4072 15.6736 41.6323 17.8017 41.6323 20.4147C41.6323 22.1407 43.1322 23.5436 44.9865 23.5436C46.8407 23.5436 48.3407 22.1407 48.3407 20.4147C48.3407 14.335 43.1012 9.40127 36.6517 9.40127C32.073 9.40127 27.8818 11.95 25.9944 15.8995C25.3667 17.2049 25.0435 18.7383 25.0435 20.4147C25.0435 21.6724 25.1553 23.6555 26.1229 26.2353C26.2845 26.6538 26.0752 27.1221 25.6546 27.2672C25.2361 27.4288 24.7679 27.203 24.6229 26.7989C23.8335 24.6874 23.4461 22.5904 23.4461 20.4126C23.4461 18.4772 23.817 16.72 24.5421 15.1887C26.6864 10.6901 31.4432 7.7705 36.6496 7.7705C43.9858 7.7705 49.9505 13.4295 49.9505 20.396C49.9505 23.009 47.7254 25.137 44.9844 25.137C42.2434 25.137 40.0183 23.009 40.0183 20.396C40.0183 18.6699 38.5184 17.2671 36.6641 17.2671C34.8099 17.2671 33.3099 18.6699 33.3099 20.396C33.3099 23.154 34.3748 25.7338 36.3243 27.6692C37.8554 29.186 39.3222 30.0231 41.597 30.6531C42.0321 30.765 42.2745 31.2167 42.1606 31.6373C42.0798 32.0082 41.7421 32.2507 41.4023 32.2507H41.4064Z" fill="#FCC53F"/>
<path d="M120.238 138.967C115.807 137.191 111.812 135.082 107.971 132.494C101.169 127.91 95.7455 121.035 95.731 112.572L95.6875 87.7358C95.6875 86.9214 96.2904 86.3392 96.9658 86.0014C111.528 78.7303 128.817 78.7365 143.374 86.0201C144.049 86.3578 144.588 86.9318 144.588 87.7234L144.573 112.359C144.569 120.384 139.81 127.104 133.477 131.686C129.398 134.628 125.138 136.827 120.238 138.967ZM120.17 135.194C126.514 132.291 132.758 128.93 137.09 123.468C139.357 120.391 141.012 116.932 141.018 112.983L141.06 88.7822C128.121 82.4995 112.256 82.4871 99.2158 88.7822L99.2406 112.427C99.2448 116.829 100.991 120.743 103.693 124.112C108.069 129.147 114.099 132.5 120.168 135.196L120.17 135.194Z" fill="#FCC53F"/>
<path d="M120.17 135.194C114.099 132.499 108.068 129.146 103.695 124.111C100.993 120.741 99.2467 116.827 99.2425 112.426L99.2177 88.7807C112.257 82.4855 128.123 82.498 141.062 88.7807L141.02 112.981C141.014 116.931 139.356 120.391 137.092 123.466C132.76 128.93 126.516 132.291 120.172 135.192L120.17 135.194ZM108.806 109.469L115.019 115.685C115.717 116.384 116.815 116.489 117.567 115.735L131.413 101.879C132.205 101.087 132.147 99.9308 131.37 99.2346C130.719 98.6523 129.669 98.6357 128.931 99.3755L116.335 112.001L111.29 106.982C110.517 106.214 109.392 106.301 108.721 107.017C108.091 107.691 108.093 108.76 108.804 109.471L108.806 109.469Z" fill="#D8EAFD"/>
<path d="M108.806 109.469C108.095 108.758 108.093 107.687 108.723 107.016C109.394 106.301 110.519 106.214 111.292 106.981L116.337 111.999L128.933 99.3737C129.671 98.634 130.721 98.6505 131.372 99.2328C132.149 99.929 132.207 101.085 131.415 101.877L117.57 115.733C116.815 116.487 115.717 116.382 115.021 115.683L108.808 109.467L108.806 109.469Z" fill="#FCC53F"/>
<path d="M147.708 53.252L151.363 53.2561L151.414 47.6531C151.429 44.7811 153.923 42.5764 156.698 42.5391C159.472 42.5018 161.987 44.6236 162.167 47.5495L162.148 53.2561L165.797 53.252L165.813 47.5661C165.627 42.7442 161.761 39.0413 157.043 38.9045C152.316 38.7657 148.118 42.3422 147.789 47.1806L147.708 53.2541V53.252Z" fill="#013366"/>
<path d="M166.986 53.2535C167.844 53.2577 168.965 53.8607 168.967 54.8905L169 71.6976C169 72.7295 168.254 73.635 167.172 73.635L146.225 73.6226C145.456 73.6226 144.602 72.7875 144.602 72.0354L144.588 55.0107C144.588 53.9871 145.516 53.266 146.44 53.2598L147.706 53.2515L151.361 53.2556H162.146L165.795 53.2515L166.984 53.2556L166.986 53.2535ZM158.68 67.6466L157.893 63.753C159.296 62.9988 159.59 61.2665 158.616 60.0937C157.688 58.9726 155.914 58.9436 154.943 60.0999C153.986 61.2416 154.284 63.0464 155.691 63.78L154.887 67.6673L158.678 67.6466H158.68Z" fill="#FCC53F"/>
<path d="M154.889 67.665L158.68 67.6443L157.893 63.7508C159.295 62.9965 159.59 61.2642 158.616 60.0914C157.688 58.9703 155.914 58.9413 154.943 60.0976C153.985 61.2393 154.284 63.0442 155.69 63.7777L154.887 67.665H154.889Z" fill="#013366"/>
</svg>
