<svg width="154" height="142" viewBox="0 0 154 142" fill="none" xmlns="http://www.w3.org/2000/svg">
<mask id="mask0_3877_6775" style="mask-type:luminance" maskUnits="userSpaceOnUse" x="0" y="0" width="140" height="142">
<path d="M139.288 0H0.00012207V141.252H139.288V0Z" fill="white"/>
</mask>
<g mask="url(#mask0_3877_6775)">
<mask id="mask1_3877_6775" style="mask-type:luminance" maskUnits="userSpaceOnUse" x="0" y="0" width="140" height="142">
<path d="M139.128 0.059082H0.0557861V141.174H139.128V0.059082Z" fill="white"/>
</mask>
<g mask="url(#mask1_3877_6775)">
<path d="M3.99121 32.8477C4.53439 33.9769 6.59576 37.951 7.98576 40.4234L60.0685 132.919C62.199 136.703 67.1062 139.426 70.7887 138.863L119.314 131.458C119.359 131.453 123.956 130.887 130.92 129.685C134.529 129.063 136.095 125 136.776 121.69C136.033 122.21 135.135 122.563 134.108 122.719L73.9617 131.9C73.567 131.96 73.152 131.991 72.732 131.991C68.5232 131.991 63.8151 129.056 61.5411 125.013L2.27058 19.7457C2.18961 19.6008 2.11033 19.4542 2.0361 19.3092C1.68692 23.0136 1.77463 28.2484 3.99121 32.8477ZM1.11506 13.8015C1.1741 13.5251 1.24833 13.2537 1.34279 12.9925C2.06141 10.9768 3.71287 9.67571 5.99017 9.32853L66.1345 0.148384C66.531 0.0893963 66.9442 0.057373 67.366 0.057373C71.5748 0.057373 76.2812 2.99158 78.5568 7.03307L137.829 112.301C138.799 114.025 139.233 115.779 139.108 117.389C139.05 122.005 137.331 130.858 131.171 131.918C124.169 133.125 119.54 133.694 119.514 133.696L71.0113 141.1C70.6166 141.159 70.2118 141.189 69.8001 141.189C65.6841 141.189 60.8731 138.267 58.5891 134.214L6.50636 41.7161C5.18047 39.3599 3.06511 35.305 2.43927 34.0072C-1.78639 25.2316 0.829977 14.8599 1.11337 13.8015" fill="#1E5189"/>
</g>
<path d="M16.2416 23.2818L70.6455 15.1786C73.8118 14.6949 77.9008 16.9617 79.7328 20.2161L126.284 102.89C128.114 106.144 127.025 109.2 123.858 109.683L69.4545 117.787C66.2883 118.269 62.1992 116.002 60.3673 112.749L13.8175 30.0755C11.9856 26.8227 13.077 23.7638 16.2433 23.2818" fill="#8099B3"/>
<path d="M27.0831 12.7718L53.1169 8.83315C53.4391 8.7809 53.7478 9.07584 53.7883 9.48875C53.8288 9.89998 53.5926 10.2758 53.262 10.3247L27.2282 14.2634C27.2046 14.2684 27.1793 14.2701 27.1557 14.2701C26.8554 14.2701 26.5956 13.9903 26.5568 13.6078C26.518 13.1965 26.7525 12.8207 27.0831 12.7718Z" fill="#8099B3"/>
</g>
<path d="M37.373 42.3698L119.509 32.9976C121.864 32.7296 124.885 33.9515 126.274 35.7312L152.368 69.1822C153.865 71.0984 153.17 72.9742 150.799 73.3652L67.7927 87.0638C64.9283 87.5357 61.4112 86.1672 59.9554 84.0117L34.6723 46.5445C33.3312 44.5574 34.5491 42.6917 37.3713 42.3698H37.373Z" fill="#013366"/>
<path fill-rule="evenodd" clip-rule="evenodd" d="M106.74 75.5073C106.758 75.5039 106.789 75.5157 106.8 75.5309C106.812 75.5461 106.822 75.5596 106.784 75.5663C106.784 75.5663 106.745 75.573 106.723 75.5427C106.723 75.5427 106.721 75.5107 106.74 75.5073ZM71.0214 62.2166C74.7191 61.7009 75.2758 59.4324 77.0639 59.6936C81.0348 60.6323 90.4511 64.9401 94.2044 72.9253L65.4429 77.3663C58.1353 69.6625 60.1039 63.6087 62.7861 61.7531C63.5215 60.9306 66.5056 62.83 71.0214 62.2183V62.2166ZM119.913 67.9552L100.282 70.9636L97.0738 66.5395L116.686 63.639L119.913 67.9552ZM134.179 59.1728L95.7901 64.7682L92.6221 60.3998L130.977 55.01L134.179 59.1711V59.1728ZM129.506 53.0988L91.1663 58.3942L88.0405 54.083L126.345 48.9882L129.506 53.0971V53.0988ZM61.2257 48.5332C65.9034 47.8489 71.6608 49.9708 74.1962 53.2909C76.7282 56.6364 75.0329 59.9565 70.3551 60.7267C65.62 61.4902 59.7125 59.3346 57.1704 55.9184L57.0996 55.8173C54.6569 52.4466 56.5311 49.2056 61.224 48.5332H61.2257ZM124.892 47.1023L86.6049 52.1044L83.5196 47.8506L121.77 43.0439L124.892 47.1023Z" fill="white"/>
</svg>
