<svg width="1024" height="1086" viewBox="0 0 1024 1086" fill="none" xmlns="http://www.w3.org/2000/svg">
<path d="M953.379 513.395C953.379 757.928 707.615 878.345 463.85 878.345C220.084 878.345 70.6207 757.928 70.6207 513.395C70.6207 268.856 268.234 70.6206 512 70.6206C755.765 70.6206 953.379 268.856 953.379 513.395Z" fill="#F1F8FE"/>
<path d="M145.655 1012.95H374.114L393.066 961.946C399.778 943.876 413.516 929.35 431.083 921.406C447.629 913.92 469.897 900.334 491.485 876.107C533.491 828.968 555.78 778.403 555.78 778.403L414.197 777.71C414.197 777.71 426.94 698.531 356.57 593.373C349.039 582.117 345.613 568.611 346.787 555.118L353.458 478.429C353.458 478.429 401.276 425.002 371.937 358.722C371.937 358.722 343.883 319.889 332.753 334.105C332.753 334.105 248.009 535.852 240.293 565.848C232.577 595.844 222.289 614.7 232.577 708.979C235.301 733.939 236.279 754.75 236.245 771.866C236.179 804.723 228.839 837.151 214.785 866.851L145.655 1012.95Z" fill="#FFC0BB"/>
<path opacity="0.2" d="M358.736 882.083C337.53 858.548 308.073 862.265 277.094 851.526C246.117 840.792 236.18 763.387 236.18 763.387L236.178 763.374C236.227 766.296 236.25 769.134 236.245 771.866C236.18 804.718 228.839 837.15 214.786 866.851L145.655 1012.95H374.114L393.066 961.946C399.778 943.876 413.516 929.35 431.083 921.401C445.166 915.032 463.391 904.24 481.814 886.232C418.891 912.675 379.942 905.622 358.736 882.083Z" fill="#FFC0BB"/>
<path d="M683.516 199.592C683.516 199.592 731.909 167.214 742.956 188.545C754.004 209.876 680.086 285.36 680.086 285.36L683.516 199.592Z" fill="#EAA0A0"/>
<path d="M683.516 340.668C683.516 340.668 731.909 308.289 742.956 329.621C754.004 350.952 680.086 426.435 680.086 426.435L683.516 340.668Z" fill="#EAA0A0"/>
<path d="M683.516 436.786C683.516 436.786 731.909 404.408 742.956 425.739C754.004 447.069 680.086 522.553 680.086 522.553L683.516 436.786Z" fill="#EAA0A0"/>
<path d="M650.095 163.31H384.442C364.661 163.31 348.621 179.342 348.621 199.123V641.068V741.897C348.621 761.852 364.848 777.71 384.442 777.71H650.095C669.855 777.71 685.917 761.697 685.917 741.897V299.949V199.123C685.917 179.166 669.692 163.31 650.095 163.31Z" fill="#1E5189"/>
<path d="M668.555 212.121H365.987V728.902H668.555V212.121Z" fill="#8099B3"/>
<path d="M579.01 195.88H456.015C454.228 195.88 452.78 194.431 452.78 192.643C452.78 190.855 454.228 189.405 456.015 189.405H579.01C580.798 189.405 582.25 190.855 582.25 192.643C582.25 194.431 580.798 195.88 579.01 195.88Z" fill="#8099B3"/>
<path d="M342.597 524.712C342.597 524.712 344.422 531.491 348.551 534.833L353.456 478.429C353.456 478.429 388.634 439.127 380.134 386.121C377.225 367.976 368.198 351.277 354.391 339.144C346.51 332.218 337.853 327.59 332.752 334.105C332.752 334.105 292.901 428.979 265.366 498.278L342.597 524.712Z" fill="#FFC0BB"/>
<path d="M339.919 389.828C350.93 384.764 356.68 356.121 358.738 343.246C349.901 334.359 338.816 326.361 332.754 334.105C332.754 334.105 323.979 354.996 311.819 384.332C320.133 388.959 331.687 393.614 339.919 389.828Z" fill="#EAA0A0"/>
<path d="M211.48 878.186C235.653 893.034 313.478 937.433 393.949 946.896C398.662 947.447 401.979 951.769 400.585 955.503L386.527 993.143C385.598 995.637 382.797 997.089 379.653 996.71C355.937 993.828 258.086 979.103 189.237 925.86C186.893 924.045 185.905 921.296 186.781 918.952L201.128 880.534C202.479 876.915 207.544 875.767 211.48 878.186Z" fill="#1E5189"/>
<path d="M204.952 914.379L203.613 913.88C202.498 913.466 201.932 912.225 202.348 911.109L207.077 898.445C207.493 897.333 208.734 896.764 209.85 897.183L211.188 897.682C212.304 898.097 212.87 899.337 212.454 900.454L207.725 913.117C207.309 914.229 206.067 914.799 204.952 914.379Z" fill="#063E70"/>
<path d="M219.219 923.219L218.303 922.88C217.071 922.42 216.445 921.048 216.905 919.816L221.476 907.577C221.936 906.345 223.307 905.723 224.539 906.182L225.456 906.522C226.687 906.981 227.313 908.354 226.853 909.585L222.282 921.825C221.822 923.056 220.451 923.683 219.219 923.219Z" fill="#063E70"/>
<path d="M233.716 932.078L232.798 931.738C231.567 931.279 230.941 929.906 231.401 928.675L235.972 916.435C236.432 915.204 237.803 914.577 239.034 915.036L239.952 915.38C241.183 915.839 241.809 917.212 241.349 918.444L236.778 930.683C236.319 931.914 234.947 932.537 233.716 932.078Z" fill="#063E70"/>
<path d="M248.638 939.281L247.721 938.942C246.489 938.483 245.864 937.11 246.323 935.878L250.894 923.639C251.354 922.407 252.726 921.781 253.957 922.24L254.874 922.584C256.105 923.043 256.731 924.411 256.271 925.643L251.7 937.887C251.241 939.118 249.87 939.74 248.638 939.281Z" fill="#063E70"/>
<path d="M263.315 947.659L262.398 947.315C261.166 946.856 260.54 945.488 261 944.252L265.571 932.012C266.031 930.781 267.402 930.159 268.634 930.618L269.551 930.957C270.783 931.416 271.408 932.789 270.948 934.021L266.378 946.26C265.918 947.491 264.546 948.118 263.315 947.659Z" fill="#063E70"/>
<path d="M278.643 954.293L277.726 953.953C276.494 953.494 275.868 952.121 276.328 950.89L280.899 938.65C281.359 937.419 282.73 936.796 283.961 937.255L284.879 937.595C286.111 938.054 286.736 939.427 286.276 940.658L281.705 952.898C281.245 954.129 279.875 954.756 278.643 954.293Z" fill="#063E70"/>
<path d="M294.478 960.207L293.139 959.708C292.024 959.293 291.458 958.049 291.874 956.936L296.602 944.273C297.018 943.161 298.26 942.591 299.375 943.011L300.714 943.51C301.829 943.924 302.395 945.165 301.979 946.281L297.251 958.945C296.835 960.057 295.593 960.622 294.478 960.207Z" fill="#063E70"/>
<path d="M310.198 965.155L309.281 964.816C308.05 964.357 307.424 962.984 307.884 961.752L312.454 949.513C312.914 948.281 314.286 947.655 315.517 948.114L316.434 948.458C317.665 948.917 318.292 950.285 317.831 951.517L313.261 963.756C312.801 964.988 311.429 965.614 310.198 965.155Z" fill="#063E70"/>
<path d="M326.987 968.527L325.648 968.029C324.532 967.609 323.966 966.369 324.382 965.257L329.11 952.594C329.527 951.477 330.768 950.912 331.884 951.327L333.222 951.83C334.338 952.245 334.904 953.485 334.488 954.602L329.759 967.261C329.344 968.377 328.102 968.942 326.987 968.527Z" fill="#063E70"/>
<path d="M343.124 972.99L341.786 972.486C340.67 972.072 340.104 970.831 340.52 969.715L345.248 957.056C345.664 955.939 346.907 955.374 348.021 955.789L349.361 956.288C350.476 956.707 351.042 957.947 350.626 959.06L345.898 971.723C345.481 972.835 344.24 973.404 343.124 972.99Z" fill="#063E70"/>
<path d="M359.668 975.717L358.751 975.373C357.52 974.914 356.894 973.541 357.354 972.31L361.925 960.071C362.384 958.839 363.755 958.217 364.987 958.676L365.905 959.016C367.136 959.475 367.761 960.847 367.302 962.079L362.731 974.318C362.271 975.55 360.9 976.176 359.668 975.717Z" fill="#063E70"/>
<path d="M376.663 978.542L375.324 978.044C374.209 977.624 373.643 976.384 374.059 975.272L378.788 962.609C379.204 961.492 380.445 960.927 381.56 961.342L382.899 961.845C384.014 962.26 384.581 963.5 384.164 964.617L379.436 977.276C379.02 978.392 377.778 978.957 376.663 978.542Z" fill="#063E70"/>
<path d="M259.249 965.354L259.314 965.177C259.059 965.142 258.804 965.085 258.554 964.992L239.51 957.881C237.63 957.179 236.718 954.955 237.476 952.925L254.648 906.946C255.406 904.911 257.553 903.83 259.433 904.532L278.477 911.642C279.592 912.057 280.363 913.011 280.65 914.141C282.145 914.794 283.65 915.447 285.174 916.096C285.684 912.229 283.698 908.473 280.155 907.149L261.11 900.043C256.937 898.485 252.172 900.886 250.489 905.392L233.317 951.375C231.633 955.882 233.659 960.816 237.833 962.374L256.877 969.485C259.733 970.549 262.866 969.759 265.099 967.711C263.151 966.943 261.201 966.157 259.249 965.354Z" fill="#EEFBFF"/>
<path d="M255.07 928.861L246.786 925.767C245.301 925.215 243.612 926.067 243.013 927.669C242.414 929.272 243.132 931.024 244.617 931.576L252.902 934.67L255.07 928.861Z" fill="#FCBA19"/>
</svg>
